<svg width="152" height="148" fill="none" xmlns="http://www.w3.org/2000/svg"><path d="M6.405 144.863h-.397l-3.293-4.557v7.476H0v-11.809h2.732l3.673 4.975 3.464-4.977h2.563v.875l-6.027 8.017zm6.021.232h-2.72v2.703h2.72v-2.703zm18.201-7.57c1.173-1.166 2.703-1.757 4.573-1.757 1.87 0 3.365.558 4.538 1.672 1.173 1.115 1.785 2.603 1.785 4.443 0 1.775-.595 3.245-1.802 4.393-1.208 1.15-2.702 1.724-4.52 1.724-1.857 0-3.366-.557-4.557-1.672-1.19-1.115-1.767-2.602-1.767-4.445 0-1.743.578-3.192 1.75-4.358zm2.142 6.911a3.245 3.245 0 002.431 1.03c1.087 0 1.937-.338 2.532-.997.596-.659.902-1.538.902-2.586 0-1.047-.324-1.924-.986-2.583a3.334 3.334 0 00-2.448-.998c-1.003 0-1.818.337-2.465.998-.647.66-.97 1.52-.97 2.583a3.544 3.544 0 001.004 2.553zm11.643 3.361v-11.826h6.799v2.534h-4.08v9.292h-2.719zm9.84-10.272c1.173-1.166 2.703-1.757 4.573-1.757 1.87 0 3.366.558 4.538 1.672 1.172 1.115 1.786 2.603 1.786 4.443 0 1.775-.596 3.245-1.802 4.393-1.206 1.15-2.703 1.724-4.522 1.724-1.856 0-3.366-.557-4.556-1.672-1.19-1.115-1.767-2.602-1.767-4.445 0-1.743.578-3.192 1.75-4.358zm2.142 6.911a3.244 3.244 0 002.431 1.03c1.087 0 1.938-.338 2.532-.997.594-.659.902-1.538.902-2.586 0-1.047-.324-1.924-.987-2.583a3.332 3.332 0 00-2.447-.998c-1.003 0-1.818.337-2.464.998-.645.66-.97 1.52-.97 2.583a3.54 3.54 0 001.003 2.553zm11.643 3.361v-11.826h6.8v2.534h-4.081v9.292h-2.719zm12.073 0h-2.72v-11.826c.205 0 .783 0 1.717-.017.935-.017 1.598-.017 1.921-.017 1.68 0 2.903.371 3.67 1.115.766.726 1.14 1.673 1.14 2.805a3.802 3.802 0 01-1.207 2.821c-.795.76-1.869 1.149-3.196 1.149-.442.007-.885-.011-1.326-.051v4.021zm0-9.292v2.704c.411.052.825.08 1.24.084.867 0 1.599-.423 1.599-1.449 0-.913-.545-1.369-1.65-1.369-.056-.004-.447.013-1.19.03zm5.994 9.292l4.947-11.826h2.43l4.946 11.826H95.52l-.986-2.484h-4.709l-.985 2.484h-2.737zm6.086-8.363l-1.343 3.341h2.668l-1.325-3.341zm15.5 8.363v-4.758h-4.335v4.765h-2.719v-11.826h2.719v4.527h4.335v-4.527h2.72v11.826l-2.72-.007zm13.514 0v-4.758h-4.335v4.765h-2.72v-11.826h2.72v4.527h4.335v-4.527h2.72v11.826l-2.72-.007zm8.829-.003h-2.373v-11.825h2.727l-.009 7.35 5.279-7.344h2.386v.871l-8.01 10.948zm11.734.003v-11.826h2.721v5.152l3.892-5.152h3.263l-4.469 5.457 4.826 6.369h-3.446l-4.062-5.626v5.626h-2.725zm-115.778-7.261v7.265h-2.72v-4.762h-4.335v4.765h-2.72v-11.826h2.72v4.558h7.055zm0-4.565h-2.72v2.704h2.72v-2.704zm112.048 9.12h-2.72v2.703h2.72v-2.703z" fill="#fff"/><path fill-rule="evenodd" clip-rule="evenodd" d="M120.224 25.384L76 0 31.776 25.384l.023.014-.023.011L76 50.79l44.224-25.38-.023-.011.023-.014zM76 33.864l-14.74-8.46-.023-.012.022-.013L76 16.92l14.74 8.465.023.014-.022.011L76 33.865z" fill="#F66C4C"/><path fill-rule="evenodd" clip-rule="evenodd" d="M120.224 93.077l14.741-8.46V33.68L76 67.52 17.036 33.68v50.938l14.74 8.459V59.059L76 84.44l44.224-25.38v34.018z" fill="#F66C4C"/><path fill-rule="evenodd" clip-rule="evenodd" d="M105.49 84.486l-.007.004L76 101.41 46.517 84.49l-.007-.004v16.92l.007.004L76 118.329l29.483-16.919.007-.004v-16.92z" fill="#F66C4C"/></svg>