<svg width="277" height="167" fill="none" xmlns="http://www.w3.org/2000/svg"><path fill="#F66C4C" d="M0 0h277v167H0z"/><g clip-path="url(#clip0_2002_344)"><path fill-rule="evenodd" clip-rule="evenodd" d="M120.798 118.26c1.39 0 2.518 1.256 2.518 2.802 0 1.547-1.128 2.803-2.518 2.803s-2.518-1.256-2.518-2.803c0-1.546 1.128-2.802 2.518-2.802zm0-2.135c2.769 0 5.016 2.211 5.016 4.937 0 2.727-2.247 4.938-5.016 4.938-2.77 0-5.016-2.211-5.016-4.938 0-2.726 2.246-4.937 5.016-4.937zm11.73 2.135c.859 0 1.668.382 2.122 1.114l1.648-1.567a5.037 5.037 0 00-3.77-1.682c-2.77 0-5.016 2.211-5.016 4.937 0 2.727 2.246 4.938 5.016 4.938a5.038 5.038 0 003.833-1.754l-1.712-1.454c-.457.709-1.278 1.073-2.121 1.073-1.39 0-2.518-1.256-2.518-2.803 0-1.546 1.128-2.802 2.518-2.802zm16.579 3.45h7.205c.027-.212.041-.428.041-.648 0-2.726-2.166-4.937-4.838-4.937-2.671 0-4.837 2.211-4.837 4.937 0 2.727 2.166 4.938 4.837 4.938 1.524 0 3.276-.256 4.162-1.38l-1.101-1.581c-.553.788-2.014 1.007-2.947 1.007-1.233 0-2.265-1-2.522-2.336zm.055-1.534c.327-1.215 1.308-2.097 2.467-2.097 1.158 0 2.139.882 2.466 2.097h-4.933zm-11.346-3.825h7.753v2.118h-2.679v7.305h-2.395v-7.305h-2.679v-2.118zm22.5 4.565l-3.264-4.565h2.884l1.953 2.917 1.953-2.917h2.883l-3.263 4.565 3.411 4.858h-2.786l-2.198-3.154-2.198 3.154h-2.786l3.411-4.858zm1.573-1.207l-.011.019h.022l-.011-.019zm-51.931-4.596c1.04 0 1.883.836 1.883 1.867a1.876 1.876 0 01-1.883 1.868h-3.174v-3.735h3.174zm-5.804-2.218h6.345c2.275 0 4.12 1.83 4.12 4.085 0 2.256-1.845 4.085-4.12 4.085h-3.715v4.709h-2.63v-12.879z" fill="#32333B"/><path fill-rule="evenodd" clip-rule="evenodd" d="M112.029 48.962h20.994L124.994 41H104v20.82l8.029 7.962v-20.82zm25.329 0h20.994v20.82l8.03-7.963V41h-20.994l-8.03 7.962zm20.994 25.118V94.9h-20.994l8.03 7.962h20.994v-20.82l-8.03-7.962zM133.023 94.9h-20.994V74.08L104 82.043v20.819h20.994l8.029-7.962z" fill="#fff"/><path d="M168.623 41.337h2.008v.43h-.787v2.384h-.434v-2.385h-.787v-.43zm3.812 2.095l.941-2.095h.483v2.814h-.434v-1.849l-.833 1.85h-.313l-.833-1.85v1.85h-.434v-2.815h.483l.94 2.095z" fill="#fff"/></g><defs><clipPath id="clip0_2002_344"><path fill="#fff" transform="translate(104 41)" d="M0 0h70v85H0z"/></clipPath></defs></svg>