<svg width="150" height="150" fill="none" xmlns="http://www.w3.org/2000/svg"><g clip-path="url(#clip0_78_4740)" fill-rule="evenodd" clip-rule="evenodd"><path d="M141.509 96.749H88.623c-4.18 0-4.015 5.201 0 5.201h53.874c4.936 0 7.503-4.51 7.503-8.987 0-3.522-.79-8.295-5.529-8.954 0-11.85-2.633-19.85-8.721-29.1-4.015-6.058-8.195-9.876-13.526-13.168-5.035-3.128-8.557-4.642-14.349-6.255-1.481-.428-1.514-.56-1.744-2.173-.954-6.09-3.785-6.188-6.977-6.386-8.096 0-12.835-1.25-14.546 6.946-.46 2.239-.099.988-4.87 2.6-7.899 2.7-16.85 8.691-21.49 14.683-6.254 8.065-9.676 14.155-11.289 25.249-.362 2.567.658 3.555 1.876 3.785 1.448.264 3.16-.724 3.455-3.028 1.152-8.855 4.805-16.46 10.137-22.78 1.711-2.041 4.772-5.07 7.075-6.288l1.547 22.912c.33 2.469-.592 6.09 3.028 6.09s2.402-3.687 2.27-6.189l-1.02-17.546c-.296-2.534-.592-6.024-.592-8.855a44.794 44.794 0 014.706-2.14l5.068-1.777v42.729h-3.488c-3.456 0-3.719 5.53 0 5.53h61.509c2.731 0 3.718 7.835-.988 7.835l-.033.066zM90.005 34.136c0-2.666 5.858-1.942 8.491-1.942 1.58 0 2.6 1.02 2.6 2.6v48.59h-11.09V34.136zm27.052 43.026c2.468 0 2.896-2.996 2.929-5.893l1.646-23.142 3.653 2.864c8.49 7.506 13.954 20.74 13.954 32.36h-32.91V40.62c3.192.758 7.47 2.535 10.103 3.918l-1.678 26.04c-.297 2.666-.461 6.484 2.336 6.583h-.033z" fill="#F66C4C"/><path d="M44.523 88.684c3.193 1.843 7.965 3.456 7.142 4.905-1.185 2.074-7.767-1.68-10.005-2.502-4.311-1.646-5.364-2.568-9.708-.659l-16.027 6.913c-4.048 1.745-.198 5.037 2.632 5.86l63.582 18.698c7.833 2.305 15.468 2.469 8.425-9.052L71.51 79.038c-1.613-2.83-2.7-3.95-6.056-2.6l-14.842 6.057c-3.62 1.481-6.813 1.382-8.162-1.646-1.547-3.522-.987-12.18-2.205-16.624-.691-2.535-2.863-3.128-4.377-5.465-3.883-6.024-14.842-13.793-21.49-17.678-1.975-1.152-3.752-1.119-5.726-.625-3.456.856-6.944 3.522-8.425 6.781-.856 1.877.065 3.523 1.513 5.004 5.891 5.925 21.919 10.436 30.607 12.246 5.99 1.251 2.303 14.517 5.002 19.192.987 1.679 4.805 3.621 7.142 4.97l.032.034z" fill="#32333B"/></g><defs><clipPath id="clip0_78_4740"><path fill="#fff" d="M0 0h150v150H0z"/></clipPath></defs></svg>