<svg width="150" height="150" fill="none" xmlns="http://www.w3.org/2000/svg"><path fill-rule="evenodd" clip-rule="evenodd" d="M73.18 101.592h9.873c1.385 0 2.173-.274 2.173 1.521v4.257c.025 1.489-.378 1.699-1.577 1.699h-9.4c-.675 0-1.223.692-1.223 1.561s.54 1.561 1.224 1.561h10.782c1.545 0 2.769-1.384 2.769-3.356v-7.026c0-1.835-1.143-3.324-2.608-3.324h-7.822L80.47 80.24c3.147 0 5.73.105 8.144-2.664.894-1.038 1.843-2.905 2.31-4.539.193-.66.241-1.384.435-1.94 3.01 0 4.917.347 6.381-1.802.322-.483.54-1.038.733-1.562.241-.692.297-1.006.788-1.489.435-.45 1.143-.587 1.875-.587l9.826.032c1.465 0 2.664-.21 3.203-.523a4.135 4.135 0 001.9-2.769c1.979 0 3.613.21 4.941-.764 2.277-1.626 2.06-4.636 2.06-7.34h12.844c1.11 0 1.658-.62 1.794-1.352v-.66c-.104-.692-.595-1.312-1.303-1.312h-13.327c0-2.39.161-4.845-2.06-6.51-1.465-1.071-2.793-.766-4.941-.766-.435-1.038-.54-1.352-1.28-2.108-.571-.588-1.384-1.006-2.277-1.006h-4.427c-.973 0-1.625.418-1.625 1.658 0 1.175.676 1.625 1.625 1.625h4.427c.812 0 1.279.588 1.279 1.699v15.13c0 2.044-1.408 1.658-2.929 1.698h-10.019c-1.03 0-1.875.274-2.334.556-.974.587-1.626 1.561-2.093 2.736-.595 1.561-.844 2.254-2.631 2.254-2.881.032-5.754 0-8.635 0-1.763 0-2.31.104-3.477.965-2.173 1.594-2.527 3.984-3.01 6.922-.24 1.561-.57 3.082-.812 4.571L74.756 98.43h-1.65l-2.816.032h-.241c-.676 0-1.224.692-1.224 1.562 0 .869.54 1.561 1.224 1.561 1.038 0 2.092.016 3.146 0l-.016.008zM58.242 45.464a1.31 1.31 0 011.304 1.304v17.054c0 .87 1.19 1.416 1.762 1.698 1.577.829 3.638 2.286 4.233 4.636.322 1.312.137 3.839-.105 5.159l-.86 4.917c-.258 1.964-2.986 1.4-2.447-.966.08-.378.16-.829.241-1.247l.692-3.944c.298-1.803.298-3.638-1.223-4.708-1.9-1.352-4.724-1.457-4.917-6.028V46.768a1.31 1.31 0 011.304-1.304h.016zm13.576-4.869h30.976c1.738 0 1.795 3.292.137 3.292l-25.165.024h-5.939c-.91 0-1.658-.749-1.658-1.658 0-.91.749-1.658 1.658-1.658h-.008zm20.876 7.267v12.845c0 2.39 2.446 1.835 2.446.419V48.072c0-2.254-2.447-1.73-2.447-.21zM73.718 58.043v-7.476c0-.483.274-.83.652-.83h11.902c.467 0 .83.226.846.781l.048 7.212c.008 1.327-.362 1.384-1.352 1.36H74.588c-.709 0-.87.072-.87-1.039v-.008zm-2.905-8.305v9.142c0 1.94 1.384 3.533 2.93 3.533h13.165c1.795 0 3.26-1.593 3.26-3.943v-7.686c0-2.85-1.175-4.362-4.073-4.362h-11.54c-3.259-.073-3.75 1.175-3.75 3.324l.008-.008zm10.373 27.178c1.087-5.923 1.087-5.819 7.654-5.819-.193.483-.161.797-.379 1.385-1.577 4.499-4.096 4.434-7.275 4.434zm37.896-17.826h-2.06c-.845 0-.708-.524-.708-1.594V47.492c0-.869.539-.764 1.931-.764 1.546 0 2.278.692 2.278 2.559v7.895c0 1.038-.652 1.867-1.465 1.867l.024.033v.008z" fill="#fff"/><path fill-rule="evenodd" clip-rule="evenodd" d="M52.666 55.726c-.128-.426-.547-.901-1.014-.773l-12.08 3.171c-.675.17-1.263.644-1.013 1.497l14.864 55.822c.466 1.538 1.899 2.27 3.34 2.568 2.068.475 4.345.129 6.333-.427 1.263-.386 3.67-1.416 4.684-2.31.973-.853 3.122-2.913 2.615-4.499L52.658 55.766v-.04h.008zm-37.92-13.271c-.507.217-1.819.555-1.352 1.794 1.392 3.638 2.616 6.632 3.927 10.278.467 1.24 1.143 1.497 2.238 1.03l6.252-2.608c1.264-.515 1.433-.772.926-2.052l-3.251-8.603c-.419-1.16-.845-2.825-2.447-2.141-.547.217-6.084 2.23-6.333 2.358l.04-.04v-.016zm34.669-11.22c-4.322-.418-10.253-.506-14.107 1.715-2.785 1.585-5.787 3.807-8.78 5.134-.716.298-2.406.644-2.068 1.666l3.717 10.407c.419 1.199.677 1.457 1.94 1.288 1.183-.17 2.784-.596 4.265.386 1.095.772 2.068 2.052 2.704 2.913.467.596.845 1.497 1.433 1.843.587.258 1.054.04 1.52-.088l10.052-2.656c.587-.218.716-.684.805-1.288.04-.386.04-.773.04-1.328 0-.644 0-3.984.169-5.561.08-.901.507-.982 1.312-1.368 4.772-2.23 10.26-.13 14.566 2.012 1.054.515 2.326-.17 2.068-1.369-.547-2.358-3.002-6.164-5.529-8.176-4.088-3.284-8.932-5.022-14.107-5.521v-.009z" fill="#32333B"/></svg>