<svg width="150" height="150" fill="none" xmlns="http://www.w3.org/2000/svg"><path fill-rule="evenodd" clip-rule="evenodd" d="M70.96 58.016c0-.557.349-1.115.838-1.394l14.043-7.874 14.043-7.874a1.648 1.648 0 011.606 0l13.904 8.223 13.903 8.222c.489.279.838.836.838 1.394l-.139 16.096-.14 16.097c0 .557-.35 1.114-.839 1.393l-14.043 7.874-14.043 7.874a1.646 1.646 0 01-1.606 0L85.42 99.825l-13.903-8.223c-.489-.278-.838-.836-.838-1.393l.14-16.097.14-16.096zm15.859 8.362c4.401-7.456 14.112-9.965 21.658-5.505 7.545 4.46 10.061 14.075 5.589 21.601-4.401 7.456-14.113 9.965-21.658 5.505-7.546-4.46-10.06-14.076-5.59-21.601z" fill="#32333B"/><path fill-rule="evenodd" clip-rule="evenodd" d="M70.82 121.983c-.28-.07-1.049-.836-1.817-1.603-.839-.836-1.747-1.811-1.887-2.09-.279-.488-.908-1.812-1.327-2.927-.28-.697-.49-1.324-.42-1.602v-.07h.07c1.608.209 7.546-.976 10.69-1.672.42-.07.769-.14 1.118-.21 1.118-.209 2.305-.557 3.353-.836.14-.069.28-.069.49-.139 2.165-.558 4.75-1.324 7.196-2.16 2.026-.697 4.052-1.394 5.659-2.091.14-.069.35-.139.489-.209.489-.278.908-.487 1.537-.418h.07v.07c.07.836.14 1.672.14 2.578 0 .836.07 1.742.14 2.509v.069h-.07c-.909.209-7.267 2.997-13.415 5.714-6.078 2.648-11.877 5.226-12.156 5.157l.14-.07zm-7.546-12.821l-3.563-8.014h.14c3.982-.488 6.846-.906 9.71-1.533 2.865-.627 5.73-1.393 9.712-2.508.699-.21 1.258-.418 1.886-.627.63-.21 1.188-.419 1.887-.627.419-.14.698-.21.978-.349.28-.07.489-.209.838-.279l5.73-2.09c1.187 2.787 2.375 5.644 3.632 8.431l-.07.07c-.558.418-2.445 1.115-4.68 1.881-3.913 1.324-8.874 2.788-10.061 3.136-.839.209-1.677.418-2.445.627-.42.07-.839.209-1.258.279-1.677.418-3.563.766-5.45 1.115-1.886.279-3.772.557-5.519.697h-1.468l.21-.14-.21-.069zm-5.38-12.613c-.28-.278-.768-1.254-1.327-2.439-1.048-2.299-2.236-5.365-2.376-5.644l-.07-.14h.14c.21 0 .769 0 1.467-.069.978-.07 2.096-.279 2.515-.348 2.655-.418 5.24-.906 7.756-1.533 2.585-.558 5.1-1.255 7.615-2.02l7.545-2.51c.42-.139.839-.348 1.258-.557.838-.418 1.677-.766 2.445-.975h.07c1.188 2.857 2.445 5.713 3.633 8.57l-7.336 2.718c-.978.279-1.816.557-2.655.766-4.401 1.324-6.148 1.812-12.575 3.206-.63.14-3.284.557-5.45.836-1.327.14-2.445.279-2.725.14l-.07-.07v-.07l.14.14zm25.431-53.167l-10.13 4.39c-1.048-2.3-2.026-4.599-3.074-6.898v-.07a68.345 68.345 0 011.886-2.787c1.258-1.742 2.864-3.763 3.563-4.738.35-.418.699-.767.978-1.115.35-.349.699-.767.978-1.115l.07-.07.07.07c.56.418 1.886 3.693 3.144 6.69.978 2.438 1.956 4.738 2.445 5.434l.07.07-.14.07.14.07zm-31.23 40.485l-2.515-5.992c-.07-.14-.14-.349-.28-.488-.279-.488-.488-.976-.418-1.672v-.07h.07c.628-.07 1.187-.14 1.746-.21 2.096-.208 3.563-.348 6.148-.905 1.328-.279 2.585-.558 3.843-.836 1.257-.279 2.515-.627 3.842-.976l.49-.14a55.43 55.43 0 003.213-.905l9.153-3.205c.21-.07.349-.14.489-.21.489-.208.908-.417 1.397-.557h.07l3.703 8.362-.07.07c-.838.557-3.843 1.602-5.869 2.3-.629.208-1.118.417-1.467.487-1.747.627-4.471 1.394-7.266 2.16-3.004.767-6.008 1.463-8.034 1.812l-6.009.906c-.42.07-.838.07-1.188.07h-.908l-.07.208-.07-.209zm-5.38-12.682c-.279-.418-.419-.766-.558-1.115-.21-.487-.42-.975-.908-1.602l-.42-.418c-.21-.28-.419-.488-.629-.767-.07-.07-.14-.209-.21-.279-.279-.348-.488-.627-.907-.975l-.14-.07c10.48-4.53 20.89-9.058 31.37-13.588v.14c.14.836.14 1.463.21 2.02.069 1.185.139 1.952.838 3.624.14.279.279.627.489 1.045.628 1.394 1.537 3.275 1.746 4.181v.07l-.07.07c-.419.278-1.537.766-2.794 1.254-1.677.627-3.563 1.324-4.472 1.602l-3.703 1.115a70.708 70.708 0 01-5.729 1.533c-1.886.488-3.772.906-5.868 1.324-.42.07-.769.14-1.188.21-.28.069-.489.069-.768.139-.21 0-.35.07-.49.07-.489.069-.908.139-1.467.208-.349.07-.628.07-.908.14-.35.07-.699.07-1.048.139-.42.07-.768.07-1.188.07-.349 0-.698 0-.978.07h-.14l.07-.14-.14-.07zm-2.724-10.94l-2.934-6.968v-.07c2.096-4.11 5.589-7.246 9.71-9.128 4.193-1.95 9.014-2.578 13.555-1.672.14 0 .21.07.35.07.628.139.907.209 1.187.487.21.21.35.558.559 1.185.14.348.35.836.629 1.394.14.278.279.696.419 1.045.419 1.045.908 2.3 1.327 2.926l.07.07c-8.314 3.623-16.628 7.177-24.872 10.8l.07-.208-.07.07zm-19.842-6.271c.28-.07.42-.07.56-.14 1.606-.348 2.724-.627 4.61-.487 1.328.07 2.446.209 3.494.488a25.95 25.95 0 013.493 1.184c.21.07.768 1.115 1.327 2.3.908 1.95 1.887 4.529 1.956 4.808v.07l-10.06 4.39c-1.887-4.182-3.703-8.362-5.59-12.613l.14-.07.07.07zm1.886-5.226c.14-.348.28-.697.42-.976.14-.278.28-.557.489-.766.489-.697 2.236-1.394 3.493-1.882.35-.139.629-.209.838-.348l1.258-.557c1.537-.697 3.074-1.324 4.681-2.021L69.212 28.4c.63-.279 1.048-.418 1.537-.348.56.07 1.188.278 2.236.696l.14.07-3.424 4.39c-.419.557-.768 1.115-1.117 1.603-.21.278-.35.557-.49.766-.07.14-.209.279-.349.418-.419.627-.978 1.394-1.257 2.09l-.07.07h-.07c-2.236-.836-5.03-1.045-7.755-.836a27.712 27.712 0 00-8.733 2.09c-1.957.837-3.703 1.743-5.31 2.858-1.607 1.114-3.004 2.438-4.471 4.11-.42.489-1.118 1.325-1.677 2.23-.42.558-.769 1.185-.909 1.673l-.07.07-.07-.07c-2.095-.836-3.982-1.324-5.798-1.533a23.758 23.758 0 00-5.45 0h-.14l.07-.14v.14zm1.398 22.995c1.118.418 1.397.279 2.236-.14.21-.139.489-.209.768-.348.42-.21.978-.418 1.677-.697 2.236-.975 5.45-2.369 6.148-2.578h.07l2.026 2.23-.629.14c-.838.278-1.327.766-1.537 1.323-.07.279-.14.558-.14.836 0 .279.07.558.14.836.21.627.699 1.115 1.258 1.324 1.746.697 2.655.906 3.283.976.42.07.63.14.839.279.28.209.419.557.768 1.393.14.279.21.558.42.976.14.278.279.697.489 1.115.558 1.184 1.257 2.717 1.467 3.553l.07.14-.14-.07c-.839-.279-1.677.07-2.306.627-.21.21-.419.558-.559.836-.14.349-.14.627-.07.976.14.836.839 1.672 2.446 2.3.419.139 1.048.348 1.607.418.559.139 1.117.139 1.467.139h.07a786.848 786.848 0 003.144 7.386l-.21-.07c-.978-.348-1.816-.07-2.375.488-.21.21-.42.558-.56.836-.139.349-.139.697-.139 1.046.07.836.699 1.742 1.956 2.229.978.418 1.957.558 2.865.628.21 0 .419.069.559.069h.07a577.36 577.36 0 003.213 7.177h-.559c-.768 0-1.886 0-2.445 1.464-.699 1.672.629 2.717 2.096 3.275 1.188.487 2.515.697 3.004.766.14 0 .21.07.28.07.35.279.768 1.254 1.257 2.578.769 1.951 1.747 4.599 3.214 6.062l.838.837c.21.209.42.487.7.696.488.488.907.976 1.327 1.324 1.117 1.185 1.676 1.812 2.585 1.812.838 0 1.956-.488 4.192-1.533.838-.418 1.886-.836 3.144-1.394l7.894-3.414a327.135 327.135 0 015.52-2.369l2.375-1.045 5.869-2.509c.14-.07.35-.139.489-.209.908-.348.978-.418 1.467-1.603.07-.209.07-1.115.07-2.229-.07-1.812-.21-4.251-.28-4.948-.069-.697-.209-.975-.349-1.324-.07-.209-.209-.488-.279-.906v-.069l.209-.14c1.048-.696 2.655-1.811 1.817-3.623-.07-.21-.21-.418-.35-.627-.279-.349-.698-.627-1.117-.697-.42-.14-.909-.07-1.468.14-.279.139-.558.278-.838.557l-.07.07c-1.257-2.788-2.445-5.505-3.703-8.293l.07-.07c.35-.348.629-.487.908-.696.49-.279.769-.488 1.188-1.533.28-.697.14-1.324-.28-1.882-.209-.278-.488-.557-.838-.696-.349-.21-.698-.279-1.048-.349-.559-.07-1.187.14-1.537.697l-.07.07-.07-.07c-.558-.418-1.257-2.09-1.676-3.275-.14-.279-.21-.557-.28-.697-.14-.278-.28-.627-.489-.975-.489-1.115-1.118-2.44-1.257-3.136v-.14c.21-.348.559-.557.908-.766.559-.348 1.048-.766 1.257-1.602a2.39 2.39 0 00-.21-1.603c-.279-.488-.768-.836-1.396-1.115-.839-.348-1.328-.07-1.747.209-.21.14-.42.21-.629.279h-.07c-1.187-2.718-2.445-5.435-3.633-8.153l.07-.07c.14-.139.28-.209.49-.348 1.047-.767 2.305-1.742 1.606-3.414-.07-.21-.21-.419-.35-.627-.279-.349-.698-.628-1.117-.697-.42-.14-.908-.07-1.467.139-.28.14-.56.279-.839.558l-.07.07-.07-.07c-.209-.28-.558-1.046-.977-1.882a50.816 50.816 0 01-1.328-3.066c-.28-.836-.35-2.648-.42-4.111 0-.697-.069-1.394-.139-1.742v-.07h.07c.699-.14 3.633-1.463 5.729-2.369.699-.279 1.258-.557 1.677-.697 2.655-1.115 2.655-2.16 1.677-4.32-.14-.348-.28-.697-.49-1.115-.21-.418-.419-.906-.628-1.394l-4.262-9.755c-.28-.697-.559-1.254-.769-1.812-.628-1.602-.978-2.3-1.537-2.787-.489-.418-1.257-.627-2.724-.976a43.919 43.919 0 01-2.585-.627 43.777 43.777 0 01-1.538-.418c-2.095-.557-3.074-.836-4.052-.697-.838.14-1.746.558-3.353 1.325-.978.418-2.236 1.045-3.843 1.742L31.835 39.34c-.28.14-.77.348-1.398.557-2.166.906-5.729 2.37-6.218 2.788-.28.209-1.188 1.811-2.236 3.693-1.257 2.23-2.585 4.877-2.934 5.644-.42 1.115 1.956 6.271 3.214 8.78.21.488.419.836.489 1.115.14.278.28.766.559 1.324 1.048 2.648 3.144 7.734 4.192 8.152l.14.07-.21.279z" fill="#F66C4C"/></svg>