<svg width="150" height="150" fill="none" xmlns="http://www.w3.org/2000/svg"><path fill-rule="evenodd" clip-rule="evenodd" d="M23.69 94.675l18.598-10.687c1.233 1.034 2.516 2.02 3.749 3.053l-14.454 8.324a.594.594 0 00-.246.246c-.05.05-.05.148-.05.247 0 .098.05.147.05.197a.505.505 0 00.296.246l42.324 24.33c.247.148.592.247.937.247.296 0 .642-.05.839-.148l42.472-24.43a.59.59 0 00.247-.245c.049-.05.049-.148.049-.247 0-.098-.049-.147-.049-.197a.504.504 0 00-.296-.246l-13.713-7.88 3.995-2.906 18.005 10.343a.96.96 0 01.444.443.946.946 0 01.148.493.829.829 0 01-.148.492c-.098.148-.197.296-.394.394l-50.464 29.01c-.345.197-.74.246-1.184.246a2.76 2.76 0 01-1.282-.345L23.592 96.941a.966.966 0 01-.444-.443 1.362 1.362 0 01-.148-.64c0-.197.05-.444.148-.64.099-.198.296-.395.493-.493l.05-.05zm.74-42.06l49.38-28.369c.295-.197.739-.246 1.134-.246.444 0 .888.148 1.233.345l48.688 27.975c1.085.64 1.578 1.182 1.578 1.724s-.542 1.083-1.529 1.674L75.98 83.841c-.296.197-.74.247-1.135.247-.444 0-.888-.148-1.233-.345l-49.28-28.32c-.839-.493-1.332-.936-1.332-1.38 0-.442.444-.886 1.381-1.428h.05zm49.626-23.542L31.485 53.551a.594.594 0 00-.247.247c-.05.049-.05.147-.05.197 0 .098.05.147.05.246.05.148.197.246.395.345l42.324 24.33c.296.148.641.246.987.246.345 0 .69-.049.937-.197l42.571-24.478a.596.596 0 00.247-.246c.049-.05.049-.148.049-.197 0-.099-.049-.148-.049-.246-.05-.148-.198-.247-.395-.345L75.98 29.123a2.25 2.25 0 00-.987-.247c-.345 0-.69.05-.937.197z" fill="#F66C4C"/><path fill-rule="evenodd" clip-rule="evenodd" d="M23.69 94.675l18.598-10.687c1.233 1.034 2.516 2.02 3.749 3.053l-14.454 8.324a.594.594 0 00-.246.246c-.05.05-.05.148-.05.247 0 .098.05.147.05.197a.505.505 0 00.296.246l42.324 24.33c.247.148.592.247.937.247.296 0 .642-.05.839-.148l42.472-24.43a.59.59 0 00.247-.245c.049-.05.049-.148.049-.247 0-.098-.049-.147-.049-.197a.504.504 0 00-.296-.246l-13.713-7.88 3.995-2.906 18.005 10.343a.96.96 0 01.444.443.946.946 0 01.148.493.829.829 0 01-.148.492c-.098.148-.197.296-.394.394l-50.464 29.01c-.345.197-.74.246-1.184.246a2.76 2.76 0 01-1.282-.345L23.592 96.941a.966.966 0 01-.444-.443 1.362 1.362 0 01-.148-.64c0-.197.05-.444.148-.64.099-.198.296-.395.493-.493l.05-.05z" fill="#F66C4C"/><path fill-rule="evenodd" clip-rule="evenodd" d="M24.381 73.055l15.342-8.816c13.17 7.585 14.75 8.472 32.557 18.716 2.22.591 3.65.887 3.7.887 14.305-8.225 21.211-12.215 34.086-19.603l14.306 8.225c2.17 1.232 3.305 1.97 1.184 3.202L75.98 104.183c-.592.345-1.628.295-2.319-.099l-49.28-28.32c-1.578-.935-1.578-1.773 0-2.709zm83.761 3.547c-1.331.59-2.121 1.773-1.775 2.61.394.837 1.775 1.084 3.107.492 1.332-.59 2.121-1.773 1.776-2.61-.395-.837-1.776-1.084-3.108-.492zm7.942-4.384c-1.331.591-2.121 1.773-1.775 2.61.394.838 1.775 1.084 3.107.493 1.332-.591 2.121-1.773 1.776-2.61-.394-.838-1.776-1.084-3.108-.493zm-13.96 0c-1.332.591-2.121 1.773-1.776 2.61.395.838 1.776 1.084 3.108.493 1.332-.591 2.121-1.773 1.776-2.61-.395-.838-1.776-1.084-3.108-.493zm6.956-4.039c-1.332.591-2.122 1.773-1.776 2.61.394.838 1.776 1.084 3.108.493 1.331-.59 2.121-1.773 1.775-2.61-.394-.837-1.775-1.084-3.107-.493zM90.828 87.388c-1.332.59-2.121 1.773-1.776 2.61.395.837 1.776 1.084 3.108.493 1.332-.591 2.12-1.773 1.776-2.61-.395-.838-1.776-1.084-3.108-.493zm8.83-5.615c-1.332.591-2.121 1.773-1.776 2.61.394.838 1.776 1.084 3.108.493 1.332-.591 2.121-1.773 1.776-2.61-.395-.838-1.776-1.084-3.108-.493zm-15.884 1.084c-1.332.59-2.121 1.773-1.776 2.61.394.837 1.776 1.084 3.108.493 1.332-.591 2.12-1.774 1.776-2.61-.395-.838-1.776-1.084-3.108-.493zm9.816-5.418c-1.332.59-2.12 1.773-1.776 2.61.395.837 1.776 1.084 3.108.493 1.332-.591 2.121-1.773 1.776-2.61-.395-.838-1.776-1.084-3.108-.493zM73.81 96.992c-1.333.591-2.122 1.773-1.777 2.61.395.838 1.776 1.084 3.108.493 1.332-.591 2.121-1.773 1.776-2.61-.395-.838-1.776-1.084-3.108-.493zm8.385-5.32c-1.332.592-2.12 1.774-1.776 2.611.395.837 1.776 1.084 3.108.493 1.332-.591 2.121-1.773 1.776-2.61-.395-.838-1.776-1.084-3.108-.493zm-51.598-19.06c-1.332.591-2.121 1.773-1.776 2.61.395.838 1.776 1.084 3.108.493 1.332-.591 2.12-1.773 1.776-2.61-.395-.838-1.776-1.084-3.108-.493zm8.88 4.975c-1.333.59-2.122 1.773-1.777 2.61.395.837 1.776 1.084 3.108.492 1.332-.59 2.121-1.773 1.776-2.61-.395-.837-1.776-1.083-3.108-.492zm8.632 4.482c-1.332.59-2.121 1.773-1.776 2.61.395.837 1.776 1.084 3.108.492 1.331-.59 2.12-1.773 1.776-2.61-.395-.837-1.776-1.084-3.108-.492zm9.126 5.171c-1.332.591-2.121 1.773-1.776 2.61.394.838 1.776 1.084 3.107.493 1.332-.591 2.122-1.773 1.776-2.61-.394-.838-1.776-1.084-3.107-.493zm9.076 5.22c-1.332.592-2.121 1.774-1.776 2.611.395.837 1.776 1.084 3.108.493 1.332-.591 2.121-1.773 1.776-2.61-.395-.838-1.776-1.084-3.108-.493zM38.49 68.18c-1.331.59-2.12 1.772-1.775 2.61.394.837 1.776 1.083 3.107.492 1.332-.59 2.122-1.773 1.776-2.61-.394-.837-1.776-1.084-3.108-.493zm8.436 4.875c-1.332.591-2.121 1.773-1.776 2.61.395.838 1.776 1.084 3.108.493 1.332-.59 2.12-1.773 1.776-2.61-.395-.837-1.776-1.084-3.108-.493zm8.88 4.827c-1.333.591-2.122 1.773-1.777 2.61.395.838 1.776 1.084 3.108.493 1.332-.591 2.121-1.773 1.776-2.61-.395-.838-1.776-1.084-3.108-.493zm8.977 5.22c-1.332.592-2.121 1.774-1.776 2.611.395.838 1.776 1.084 3.108.493 1.332-.591 2.121-1.773 1.776-2.61-.395-.838-1.776-1.084-3.108-.493zm9.669 5.025c-1.332.59-2.122 1.773-1.776 2.61.394.837 1.776 1.084 3.107.493 1.332-.592 2.122-1.774 1.776-2.61-.394-.838-1.776-1.084-3.108-.493z" fill="#32333B"/><path fill-rule="evenodd" clip-rule="evenodd" d="M24.43 52.615l49.38-28.369c.295-.197.739-.246 1.134-.246.444 0 .888.148 1.233.345l48.688 27.975c1.085.64 1.578 1.182 1.578 1.724s-.542 1.083-1.529 1.674L75.98 83.841c-.296.197-.74.247-1.135.247-.444 0-.888-.148-1.233-.345l-49.28-28.32c-.839-.493-1.332-.936-1.332-1.38 0-.442.444-.886 1.381-1.428h.05zm49.626-23.542L31.485 53.551a.594.594 0 00-.247.247c-.05.049-.05.147-.05.197 0 .098.05.147.05.246.05.148.197.246.395.345l42.324 24.33c.296.148.641.246.987.246.345 0 .69-.049.937-.197l42.571-24.478a.596.596 0 00.247-.246c.049-.05.049-.148.049-.197 0-.099-.049-.148-.049-.246-.05-.148-.198-.247-.395-.345L75.98 29.123a2.25 2.25 0 00-.987-.247c-.345 0-.69.05-.937.197z" fill="#F66C4C"/></svg>