<svg width="277" height="167" viewBox="0 0 277 167" fill="none" xmlns="http://www.w3.org/2000/svg">
<rect width="277" height="167" fill="#F66C4C"/>
<g clip-path="url(#clip0_2002_346)">
<path d="M133.155 50C133.262 51.3132 133.011 52.884 133.15 54.164C133.165 54.2946 133.16 54.3939 133.279 54.4726H134.895V56.2617H138.376V54.4726H139.992L140.116 54.3385V51.1629C144.372 52.612 148.147 55.7312 150.626 59.7217C155.907 68.226 155.102 79.1964 148.813 86.7829C148.335 87.3599 147.821 87.9181 147.244 88.3752C151.393 78.4835 140.612 69.1294 137.628 60.6028L136.638 57.514C135.73 61.2916 133.761 64.6917 131.864 67.9719C128.284 74.1611 123 80.4783 126.071 88.2839C126.806 90.149 128.452 92.4122 130.007 93.5625C122.023 92.0025 115.554 85.1379 113.873 76.5835C111.287 63.4349 120.187 50.8516 132.541 50.0939L132.74 50H133.155Z" fill="white"/>
<path d="M206 99.8252C205.489 102.013 202.907 102.7 201.654 100.804C200.767 99.462 201.383 97.4171 202.854 96.9224C204.325 96.4278 205.53 97.3393 205.999 98.8412V99.8252H206ZM205.652 99.3457C205.652 98.1318 204.74 97.1488 203.617 97.1488C202.493 97.1488 201.581 98.1327 201.581 99.3457C201.581 100.559 202.493 101.543 203.617 101.543C204.74 101.543 205.652 100.559 205.652 99.3457Z" fill="#32333B"/>
<path d="M71.0829 101.972H71V116.463H71.0829V101.972Z" fill="#B1B4E3"/>
<path d="M147.243 88.3751C144.277 95.4455 135.98 97.9841 130.006 93.5634C128.45 92.4121 126.804 90.1499 126.07 88.2848C122.999 80.4792 128.283 74.162 131.863 67.9728C133.76 64.6935 135.729 61.2934 136.636 57.5149L137.627 60.6037C140.612 69.1303 151.393 78.4844 147.242 88.376L147.243 88.3751ZM130.337 74.6889C130.571 74.1871 130.959 73.6101 131.219 73.0913C131.281 72.9678 131.369 72.89 131.331 72.7209L130.837 73.3247C130.593 73.7318 130.4 74.188 130.171 74.5994C128.271 78.0103 127.044 81.0517 127.709 85.1736C128.17 88.0281 129.644 90.5166 131.544 92.4935L131.753 92.4372C131.961 91.37 132.579 90.5739 133.155 89.7196C132.547 89.267 131.893 88.6024 131.417 87.9708C128.396 83.9616 128.221 79.2376 130.337 74.6898V74.6889Z" fill="#32333B"/>
<path d="M71.0828 101.972C73.3278 102.211 76.3974 101.506 78.5032 102.326C80.614 103.148 81.4676 105.955 79.9924 107.877C79.8391 108.076 79.3908 108.336 79.4513 108.547C79.4687 108.606 80.2444 109.075 80.4043 109.219C82.4861 111.098 81.9922 114.876 79.5549 116.081C78.0209 116.84 73.3676 116.616 71.4971 116.553L71.4557 102.239L71.4143 116.553C71.2933 116.545 71.1756 116.582 71.0828 116.463V101.972ZM73.6518 107.697H76.9253C77.072 107.697 77.7018 107.385 77.8419 107.255C78.4966 106.647 78.4137 105.235 77.6347 104.784C77.5593 104.74 77.135 104.566 77.0911 104.566H73.6518V107.697ZM73.6518 113.958H77.0911C77.169 113.958 77.7027 113.873 77.8178 113.848C79.8134 113.429 79.6046 110.836 77.8957 110.318C77.6911 110.256 77.1002 110.113 76.9253 110.113H73.6518V113.959V113.958Z" fill="#32333B"/>
<path d="M188.017 111.186L188.269 111.125L194.332 101.902L196.47 101.972V116.553H193.901V107.518C193.592 107.771 193.35 108.173 193.121 108.51C191.31 111.169 189.512 113.85 187.768 116.553H185.448V102.106C185.448 102.077 185.557 101.97 185.53 101.883H187.892L188.017 102.017V111.186Z" fill="#32333B"/>
<path d="M184.025 109.243C184.025 113.482 180.841 116.919 176.913 116.919C172.986 116.919 169.802 113.482 169.802 109.243C169.802 105.003 172.986 101.567 176.913 101.567C180.841 101.567 184.025 105.003 184.025 109.243ZM181.57 109.239C181.57 106.463 179.486 104.214 176.914 104.214C174.343 104.214 172.258 106.463 172.258 109.239C172.258 112.015 174.343 114.264 176.914 114.264C179.486 114.264 181.57 112.015 181.57 109.239Z" fill="#32333B"/>
<path d="M131.746 111.991C130.107 116.708 124.693 118.438 120.897 115.427C116.796 112.174 117.136 105.353 121.528 102.615C125.375 100.216 130.224 102.084 131.747 106.534H129.053C126.193 101.882 119.457 104.834 120.598 110.383C121.487 114.707 126.812 115.616 129.053 111.991H131.747H131.746Z" fill="#32333B"/>
<path d="M146.497 111.991C144.383 118.308 135.955 118.613 133.415 112.381C130.937 106.301 136.171 99.9986 142.039 101.909C143.977 102.54 145.928 104.409 146.497 106.535H143.886C140.776 101.722 133.864 105.098 135.498 110.848C136.626 114.819 141.764 115.439 143.803 111.992H146.497L146.497 111.991Z" fill="#32333B"/>
<path d="M92.7128 101.972V104.656H85.6686V107.205L85.7929 107.339H88.9835L87.2846 109.933H85.7929L85.6686 110.067V113.735L85.7929 113.869H92.7128V116.553H83.1824V101.972H92.7128Z" fill="#32333B"/>
<path d="M117.575 101.972V104.521L117.45 104.656H110.738C110.709 104.656 110.646 104.497 110.53 104.7V107.205L110.655 107.339H113.845L112.188 109.933H110.53V113.869H117.575V116.553H108.044V101.972H117.575Z" fill="#32333B"/>
<path d="M106.801 116.553H104.066L100.296 105.818L96.5248 116.553H93.79L98.9688 102.061C99.0326 101.968 99.1221 101.979 99.2132 101.967C99.6682 101.908 100.92 101.91 101.377 101.967C101.496 101.982 101.596 101.976 101.656 102.113L106.801 116.552V116.553Z" fill="#32333B"/>
<path d="M165.144 101.972V102.151C165.296 102.236 165.458 102.063 165.475 102.061C166.97 101.923 168.449 103.347 168.815 104.852C169.425 107.365 168.292 109.649 165.923 110.192L161.331 110.38V116.552C160.616 116.526 159.891 116.587 159.177 116.552V102.149C161.009 102.092 162.859 102.228 164.692 102.149C164.852 102.142 165.024 102.241 164.978 101.97C165.032 101.97 165.091 101.964 165.144 101.97V101.972ZM166.025 104.96C165.846 104.842 165.399 104.68 165.185 104.655C164.268 104.545 163.074 104.678 162.115 104.66C161.824 104.655 161.574 104.498 161.256 104.663L161.283 107.614C161.343 107.702 161.447 107.691 161.534 107.701C162.254 107.795 163.686 107.748 164.443 107.701C165.357 107.644 166.368 107.611 166.468 106.4C166.506 105.936 166.431 105.224 166.025 104.96V104.96Z" fill="#32333B"/>
<path d="M157.271 101.972V104.656H153.376V116.553H150.807V104.656H146.912V101.972H157.271Z" fill="#32333B"/>
<path d="M190.006 99.1095L195.31 96.1138L190.006 104.119V99.1095Z" fill="#32333B"/>
<path d="M164.978 101.972C165.024 102.243 164.851 102.144 164.692 102.151C162.86 102.23 161.01 102.093 159.177 102.151V116.554C159.039 116.546 158.9 116.56 158.762 116.554V101.972C160.35 101.991 161.942 101.95 163.532 101.968C164.02 101.974 164.485 101.973 164.979 101.972H164.978Z" fill="#32333B"/>
<path d="M71.4972 116.553C71.4698 116.552 71.4417 116.555 71.4143 116.553L71.4557 102.24L71.4972 116.553Z" fill="#32333B"/>
<path d="M165.475 102.061C165.458 102.063 165.296 102.235 165.144 102.151V101.972C165.254 101.985 165.363 102.043 165.475 102.061Z" fill="#32333B"/>
<path d="M130.337 74.6888C128.221 79.2366 128.395 83.9606 131.417 87.9699C131.893 88.6014 132.548 89.266 133.155 89.7187C132.579 90.5738 131.961 91.3691 131.753 92.4362L131.544 92.4926C129.644 90.5157 128.17 88.0271 127.709 85.1727C127.044 81.0507 128.27 78.0102 130.171 74.5985L130.336 74.509V74.6879L130.337 74.6888Z" fill="#F6F6F9"/>
<path d="M130.171 74.5995C130.4 74.188 130.593 73.7318 130.837 73.3248L131.331 72.7209C131.369 72.89 131.281 72.9678 131.219 73.0913C130.958 73.6092 130.571 74.1862 130.337 74.6889V74.51L130.171 74.5995Z" fill="#BFC5E7"/>
<path d="M202.685 97.8572C203.394 97.8285 204.643 97.7131 204.41 98.8662C204.333 99.2455 203.974 99.3278 203.94 99.3895C203.804 99.6399 204.739 100.444 204.84 100.719C203.981 100.833 203.941 99.2669 203.017 99.5568V100.721H202.685V97.858V97.8572ZM203.989 99.0853C204.458 98.4565 203.572 97.8733 203.053 98.2096L203.017 99.2884C203.257 99.309 203.833 99.2947 203.989 99.0853Z" fill="#32333B"/>
</g>
<defs>
<clipPath id="clip0_2002_346">
<rect width="135" height="67" fill="white" transform="translate(71 50)"/>
</clipPath>
</defs>
</svg>
