<svg width="277" height="167" viewBox="0 0 277 167" fill="none" xmlns="http://www.w3.org/2000/svg">
<rect width="277" height="167" fill="#F66C4C"/>
<g clip-path="url(#clip0_2002_344)">
<path fill-rule="evenodd" clip-rule="evenodd" d="M120.798 118.26C122.188 118.26 123.316 119.516 123.316 121.062C123.316 122.609 122.188 123.865 120.798 123.865C119.408 123.865 118.28 122.609 118.28 121.062C118.28 119.516 119.408 118.26 120.798 118.26ZM120.798 116.125C123.567 116.125 125.814 118.336 125.814 121.062C125.814 123.789 123.567 126 120.798 126C118.028 126 115.782 123.789 115.782 121.062C115.782 118.336 118.028 116.125 120.798 116.125ZM132.528 118.26C133.387 118.26 134.196 118.642 134.65 119.374L136.298 117.807C135.379 116.776 134.03 116.125 132.528 116.125C129.758 116.125 127.512 118.336 127.512 121.062C127.512 123.789 129.758 126 132.528 126C134.065 126 135.441 125.318 136.361 124.246L134.649 122.792C134.192 123.501 133.371 123.865 132.528 123.865C131.138 123.865 130.01 122.609 130.01 121.062C130.01 119.516 131.138 118.26 132.528 118.26ZM149.107 121.71H156.312C156.339 121.498 156.353 121.282 156.353 121.062C156.353 118.336 154.187 116.125 151.515 116.125C148.844 116.125 146.678 118.336 146.678 121.062C146.678 123.789 148.844 126 151.515 126C153.039 126 154.791 125.744 155.677 124.62L154.576 123.039C154.023 123.827 152.562 124.046 151.629 124.046C150.396 124.046 149.364 123.046 149.107 121.71ZM149.162 120.176C149.489 118.961 150.47 118.079 151.629 118.079C152.787 118.079 153.768 118.961 154.095 120.176H149.162ZM137.816 116.351H145.569V118.469H142.89V125.774H140.495V118.469H137.816V116.351ZM160.316 120.916L157.052 116.351H159.936L161.889 119.268L163.842 116.351H166.725L163.462 120.916L166.873 125.774H164.087L161.889 122.62L159.691 125.774H156.905L160.316 120.916ZM161.889 119.709L161.878 119.728L161.889 119.728L161.9 119.728L161.889 119.709ZM109.958 115.113C110.998 115.113 111.841 115.949 111.841 116.98C111.841 118.011 110.998 118.848 109.958 118.848H106.784V115.113H109.958ZM104.154 112.895H110.499C112.774 112.895 114.619 114.725 114.619 116.98C114.619 119.236 112.774 121.065 110.499 121.065H106.784V125.774H104.154V112.895Z" fill="#32333B"/>
<path fill-rule="evenodd" clip-rule="evenodd" d="M112.029 48.9624H133.023L124.994 41H104V61.8192L112.029 69.7817V48.9624ZM137.358 48.9624H158.352V69.7817L166.382 61.8192V41H145.388L137.358 48.9624ZM158.352 74.0803V94.8996H137.358L145.388 102.862H166.382V82.0428L158.352 74.0803ZM133.023 94.8996H112.029V74.0803L104 82.0428V102.862H124.994L133.023 94.8996Z" fill="white"/>
<path d="M168.623 41.3369H170.631V41.7664H169.844V44.1515H169.41V41.7664H168.623V41.3369ZM172.435 43.4323L173.376 41.3371H173.859V44.1514H173.425V42.3022L172.592 44.1514H172.279L171.446 42.3022V44.1514H171.012V41.3371H171.495L172.435 43.4323Z" fill="white"/>
</g>
<defs>
<clipPath id="clip0_2002_344">
<rect width="70" height="85" fill="white" transform="translate(104 41)"/>
</clipPath>
</defs>
</svg>
