<svg width="277" height="167" viewBox="0 0 277 167" fill="none" xmlns="http://www.w3.org/2000/svg">
<rect width="277" height="167" fill="#F66C4C"/>
<path d="M171.479 84.5121H169.233V91.0874H165.791V75.4903H169.009L169.233 75.7197V81.301H171.628C172.808 75.0652 181.06 73.3985 185.47 77.1754C187.766 79.1419 188.46 82.353 187.876 85.2828C186.164 93.8735 172.359 93.3658 171.479 84.5091V84.5121ZM178.627 78.2825C173.658 78.9736 173.496 87.3869 178.477 88.2952C181.929 88.9221 184.539 87.2401 184.656 83.5243C184.772 79.8086 182.222 77.7809 178.627 78.2825Z" fill="#32333B"/>
<path d="M129.475 89.1975C126.152 86.1086 126.203 80.4142 129.571 77.3987C134.929 72.6003 144.475 75.9522 144.089 83.8211C143.733 91.06 134.396 93.7696 129.475 89.1975ZM140.628 83.3165C140.628 80.4448 138.35 78.1174 135.54 78.1174C132.729 78.1174 130.451 80.4448 130.451 83.3165C130.451 86.1882 132.729 88.5155 135.54 88.5155C138.35 88.5155 140.628 86.1882 140.628 83.3165Z" fill="#32333B"/>
<path d="M124.482 91.0873H121.04V78.7014H112.957V90.858L112.733 91.0873H109.515V75.4902H124.257L124.482 75.7196V91.0873Z" fill="#32333B"/>
<path d="M162.498 75.4902V91.0873H159.056V78.7014H153.219C152.569 81.4294 152.36 84.4479 151.68 87.1452C151.183 89.1239 149.845 91.0873 147.606 91.0873H145.136V87.8762C146.067 87.8395 147.708 88.1269 148.163 87.0688L150.45 75.4902H162.498Z" fill="#32333B"/>
<path d="M206.352 79.4629L203.607 80.83C201.161 77.0683 194.088 77.4873 193.624 82.5946C193.244 86.8027 196.549 89.0444 200.374 88.1117C201.91 87.7386 202.577 86.8119 203.739 85.8822C203.966 85.8577 206.107 87.0137 206.175 87.1361C206.484 87.6743 204.897 89.2126 204.484 89.5613C199.344 93.8704 190.104 90.8886 190.095 83.3377C190.083 74.4015 202.446 72.2577 206.352 79.4629Z" fill="#32333B"/>
<path d="M97.3795 81.2887C95.9756 81.463 86.4236 83.3255 85.8578 82.9157C85.5016 82.6588 85.8518 81.8881 85.8668 81.5272C85.9147 80.0899 85.8638 78.3405 86.0165 76.9429C86.0913 76.2609 86.3457 75.7349 87.0252 75.527C88.1807 75.1753 92.8355 74.4535 94.0478 74.429C94.7243 74.4168 95.0775 74.744 95.3709 75.3343C95.8798 76.3557 97.1041 79.7015 97.3555 80.8055C97.3915 80.9645 97.4304 81.1266 97.3765 81.2887H97.3795Z" fill="white"/>
<path d="M69.0527 76.7257C69.5975 76.5667 77.9522 81.4385 79.2124 81.9095L79.2064 82.5211C77.9522 83.7781 76.9793 85.5549 75.767 86.8057C75.4257 87.1605 75.1025 87.5795 74.5666 87.5764C74.1206 87.5764 69.828 85.3041 69.1006 84.8943C68.1128 84.3377 67.0382 84.1206 67.1938 82.7933C67.3016 81.8667 68.3553 78.0255 68.7295 77.1692C68.8013 77.004 68.8582 76.7808 69.0527 76.7227V76.7257Z" fill="white"/>
<path d="M79.9758 86.2065C80.2033 86.1637 80.4098 86.5154 80.5385 86.6652C80.9097 87.0995 83.6786 91.485 83.7415 91.8122C83.8462 92.3566 83.6876 92.5279 83.3972 92.9224C82.6608 93.9316 79.6794 96.9226 78.6796 97.7361C78.1977 98.1306 77.9642 98.3722 77.2907 98.2376C76.0783 97.993 73.4232 95.3843 72.1031 94.8185L71.8037 94.3904L79.9728 86.2034L79.9758 86.2065Z" fill="white"/>
<path d="M90.4587 84.87C90.9646 84.87 91.2549 85.1391 91.5273 85.5306C92.135 86.4022 94.401 91.0232 94.7303 92.0477C94.9937 92.8643 94.5746 93.167 94.0179 93.6808C93.527 94.1334 89.6864 97.2345 89.402 97.1825L84.2114 86.8823L84.3641 86.5704L90.4587 84.8669V84.87Z" fill="white"/>
<path d="M84.819 68.4562L83.0049 80.0592C82.514 80.1632 82.05 79.9247 81.598 79.7748C80.8257 79.5179 76.9882 78.0744 76.593 77.7013C76.2847 77.4108 76.2668 77.0499 76.2817 76.6462C76.3356 75.166 77.0241 71.3218 77.4013 69.8263C77.533 69.3095 77.6048 68.9822 78.1197 68.7254C80.3258 68.4532 82.5829 68.4287 84.816 68.4562H84.819Z" fill="white"/>
</svg>
