<svg width="277" height="167" viewBox="0 0 277 167" fill="none" xmlns="http://www.w3.org/2000/svg">
<rect width="277" height="167" fill="#F66C4C"/>
<path d="M146.611 62.6728C148.483 64.4245 151.161 67.5058 153.104 68.9004C153.379 69.0977 153.671 69.368 154.047 69.2693L169.625 58.0804C186.405 69.0326 203.437 79.606 220.22 90.5503C220.498 90.7318 220.642 91.006 220.469 91.1915L169.625 64.3909L157.346 72.5577C157.21 73.1081 161.905 76.793 162.484 77.6709C162.638 77.9036 162.94 78.4343 162.38 78.3692L132.974 56.4786L57.5293 91.1915L57.9771 90.5563L132.822 49.9965C132.983 49.9827 134.226 51.038 134.465 51.2452C138.552 54.7999 142.622 58.9425 146.611 62.6728Z" fill="white"/>
<path d="M124.797 81.1328V74.4258L125.556 74.4554C126.095 74.7769 125.544 81.0737 125.88 82.1211L132.39 87.25C132.374 82.993 132.06 78.671 132.502 74.4337L133.279 74.4258V87.2481L139.888 82.1192C140.332 81.3932 139.734 76.2702 139.986 74.919C140.095 74.3351 140.446 74.4041 140.973 74.4258V81.1328C143.64 79.4265 146.084 76.6214 148.686 74.9387C149.13 74.6507 149.441 74.3074 150.047 74.4278L149.846 75.3115L141.959 81.7266H149.751C149.952 81.7266 150.157 82.346 150.047 82.5137C149.721 83.0029 141.774 82.49 140.568 82.8017L133.281 88.7315V101.652L139.888 96.5215C140.41 95.3715 139.69 91.1145 139.994 89.5265C140.057 89.197 140.235 89.0274 140.485 88.8321L140.977 89.128V95.5391L149.751 88.8321C150.007 89.0392 150.114 89.1359 150.021 89.489C149.818 90.2544 142.957 94.8507 142.16 96.1309H149.755C150.126 96.1309 150.126 97.1173 149.755 97.1173H140.681L137.436 99.8021C137.302 100.449 141.338 102.463 140.582 103.233C139.304 103.499 137.455 100.709 136.54 100.678L132.977 103.244C132.277 103.311 129.912 100.99 129.239 100.479L125.98 103.13C125.819 103.236 125.258 103.294 125.197 103.233C124.41 102.451 128.498 100.364 128.352 99.7843L124.899 97.1192H115.727L116.022 96.1329H123.617L115.756 89.491L116.026 88.8341L124.801 95.5411V89.13L125.292 88.8341C125.541 89.0294 125.72 89.199 125.783 89.5285C126.164 91.5169 125.426 94.4325 125.892 96.5215L132.496 101.652L132.425 88.9603C132.374 88.5441 132.072 88.3153 131.802 88.045C129.908 86.1572 126.953 84.5692 125.006 82.6321L115.813 82.5314L115.727 81.7305H123.617L115.91 75.3332C115.484 74.5659 115.654 74.1792 116.512 74.5343L124.801 81.1388L124.797 81.1328Z" fill="#32333B"/>
<path d="M155.373 100.268C155.081 100.958 155.736 102.438 156.458 102.438H167.11L167.404 102.735L167.11 103.227H155.866C155.444 103.227 154.584 102.136 154.472 101.662C154.249 100.721 154.255 96.9319 154.698 96.1409C154.896 95.7898 155.507 95.2709 155.908 95.1802C158.934 95.3163 162.368 94.8567 165.345 95.1289C166.588 95.2433 167.223 95.9989 167.388 97.2278C167.456 97.7151 167.578 100.268 166.913 100.268H155.373ZM166.42 99.2814C166.643 96.1054 166.171 96.0344 163.37 95.918C162.011 95.8608 157.375 95.703 156.348 96.0166C154.925 96.4506 155.454 98.1569 155.371 99.2814H166.418H166.42Z" fill="white"/>
<path d="M191.613 95.18C194.763 95.326 198.343 94.8427 201.444 95.1287C204.145 95.3773 203.938 98.9044 203.703 100.958C203.577 102.055 202.77 103.096 201.636 103.23C199.448 103.489 194.85 103.422 192.556 103.313C191.354 103.256 190.19 102.544 189.938 101.307C189.788 100.571 189.794 98.1863 189.889 97.4032C190.003 96.4484 190.711 95.5213 191.611 95.18H191.613ZM202.267 96.3794C201.792 95.9987 200.32 95.9513 199.671 95.9217C198.002 95.8448 192.818 95.6969 191.522 96.2571C190.617 96.6496 190.733 100.573 190.995 101.443C191.183 102.069 191.946 102.372 192.554 102.441C194.481 102.656 198.681 102.611 200.653 102.445C201.318 102.39 202.259 102.248 202.531 101.571C202.849 100.778 202.942 96.9199 202.267 96.3814V96.3794Z" fill="white"/>
<path d="M172.535 103.227H171.746V95.1387H183.878C184.087 95.1387 185.103 96.0875 185.243 96.338C186.216 98.0779 184.985 99.8967 183.099 100.08C180.006 100.38 176.258 99.7034 173.216 100.06C172.928 100.094 172.709 100.084 172.535 100.366V103.227ZM172.535 96.125V99.084H183.681C183.754 99.084 184.347 98.4133 184.418 98.2456C184.921 97.0344 184.243 96.1585 183.042 95.9751C180.98 95.6614 175.792 95.7463 173.612 95.9179C173.232 95.9475 172.898 96.0343 172.537 96.125H172.535Z" fill="white"/>
<path d="M71.5352 96.5195C71.186 96.1585 65.9387 99.662 64.9425 99.6738L58.5156 96.3223V102.931C58.5156 103.302 57.5293 103.302 57.5293 102.931V95.1387L58.5058 95.2491L64.9603 98.6461L71.5273 95.2255L72.198 95.1564L72.5215 95.4346V102.931C72.5215 103.302 71.5352 103.302 71.5352 102.931V96.5195Z" fill="white"/>
<path d="M97.1798 95.1386V99.2812H110.199V95.4345C110.199 95.0637 111.186 95.0637 111.186 95.4345V102.931C111.186 103.092 110.694 103.325 110.499 103.223L110.233 102.897L110.201 100.266H97.1818V103.225L96.3809 103.138C96.2349 103.037 96.225 102.887 96.1954 102.731C96.0061 101.714 96.0494 96.9456 96.1856 95.8172C96.2724 95.0913 96.4558 95.0933 97.1818 95.1367L97.1798 95.1386Z" fill="white"/>
<path d="M209.029 99.4785C210.382 99.1136 220.047 94.6988 220.471 95.1407C220.532 95.2058 220.51 95.9061 220.277 96.0303C218.504 96.7819 216.472 97.3796 214.754 98.2081C214.541 98.3107 214.251 98.1924 214.357 98.5889C214.446 98.9282 219.601 101.773 220.277 102.337C220.928 103.629 220.025 103.296 219.155 102.868C218.113 102.353 213.629 98.9893 213.079 98.9637L209.055 100.487L209 102.899L208.733 103.225C208.536 103.327 208.047 103.092 208.047 102.933V95.4366C208.047 95.0657 209.033 95.0657 209.033 95.4366V99.4805L209.029 99.4785Z" fill="white"/>
<path d="M91.8515 103.225C91.309 103.767 88.7564 100.865 88.4585 100.309L80.7119 100.272C79.5815 100.678 78.1297 103.377 76.9599 103.227C76.7902 103.217 76.8277 102.858 76.8474 102.724C76.95 102.037 83.1303 96.5433 83.8523 95.3242C84.018 95.1684 84.2173 95.1053 84.4441 95.1269C85.2036 95.2019 90.4233 101.552 91.6641 102.327L91.8515 103.225ZM87.1191 99.2814C87.2059 98.9361 86.977 98.8868 86.8251 98.6876C86.2077 97.8827 85.1346 97.1036 84.4303 96.3362C84.1364 96.2849 81.7377 98.7389 81.5976 99.2814H87.121H87.1191Z" fill="white"/>
<path d="M140.036 112.841C140.428 113.216 141.61 113.013 142.156 113.289L140.687 114.855L140.971 117.035C140.835 117.189 139.454 116.128 139.065 116.094C138.562 116.051 137.181 117.205 137.027 117.035C136.929 116.489 137.469 115.279 137.311 114.855C137.221 114.615 135.723 113.453 135.844 113.291C137.562 113.096 138.398 112.997 138.805 111.119C139.251 110.784 139.821 112.638 140.036 112.843V112.841Z" fill="white"/>
<path d="M100.135 111.117C100.508 112.972 101.429 113.058 103.096 113.289L101.565 114.986L101.912 117.033L99.8743 116.092L97.9707 117.035C98.3179 115.212 98.2942 114.548 96.7891 113.386C97.3 112.79 98.2074 113.325 98.8406 112.877C99.1681 112.646 99.4285 111.76 99.6987 111.374C99.8171 111.204 99.6652 111.007 100.135 111.117Z" fill="white"/>
<path d="M61.0781 111.117L61.7192 112.845L63.8417 113.388C63.9522 113.607 62.5753 114.65 62.4944 115.001C62.1867 116.321 64.1298 117.931 60.8196 116.09L58.914 117.033C59.1804 115.197 59.2889 114.565 57.7324 113.384C57.7285 112.952 59.4526 113.167 59.8471 112.839C60.0404 112.68 60.577 110.737 61.08 111.115L61.0781 111.117Z" fill="white"/>
<path d="M179.096 112.841C179.491 113.169 181.215 112.954 181.211 113.386L179.865 114.812L180.029 117.035L177.989 116.09L176.38 117.031C175.894 117.017 176.496 115.398 176.435 115.011C176.344 114.429 174.969 113.65 175.1 113.39C175.64 112.816 176.437 113.321 177.064 112.788C177.37 112.53 177.836 111.545 177.861 111.117C178.319 110.697 178.932 112.707 179.094 112.841H179.096Z" fill="white"/>
<path d="M218.155 112.841C218.61 113.218 220.037 112.875 220.271 113.39L218.912 114.796L219.287 117.035C219.082 117.236 217.599 116.124 217.216 116.124C216.91 116.124 215.405 117.122 215.344 117.037L215.508 114.814L214.158 113.293C214.661 113.05 215.926 113.133 216.277 112.845C216.553 112.618 216.754 111.409 217.216 111.125C217.512 111.125 217.934 112.662 218.155 112.845V112.841Z" fill="white"/>
</svg>
