<svg width="150" height="150" viewBox="0 0 150 150" fill="none" xmlns="http://www.w3.org/2000/svg">
<path fill-rule="evenodd" clip-rule="evenodd" d="M70.9591 58.0159C70.9591 57.4585 71.3085 56.901 71.7975 56.6223L85.8405 48.7483L99.8835 40.8743C100.373 40.5956 101.001 40.5956 101.49 40.8743L115.394 49.0967L129.297 57.3191C129.786 57.5978 130.135 58.1553 130.135 58.7127L129.996 74.8091L129.856 90.9055C129.856 91.4629 129.506 92.0204 129.017 92.2991L114.974 100.173L100.931 108.047C100.442 108.326 99.8136 108.326 99.3246 108.047L85.4213 99.8247L71.5181 91.6023C71.029 91.3236 70.6797 90.7661 70.6797 90.2087L70.8194 74.1123L70.9591 58.0159ZM86.8186 66.3777C91.2202 58.9218 100.931 56.4133 108.477 60.8729C116.022 65.3325 118.538 74.9485 114.066 82.4741C109.665 89.9299 99.9534 92.4385 92.4079 87.9789C84.8624 83.5193 82.3472 73.9033 86.8186 66.3777Z" fill="#32333B"/>
<path fill-rule="evenodd" clip-rule="evenodd" d="M70.8193 121.983C70.5398 121.913 69.7713 121.147 69.0028 120.38C68.1644 119.544 67.2562 118.569 67.1164 118.29C66.837 117.802 66.2082 116.478 65.789 115.363C65.5095 114.666 65.2999 114.039 65.3698 113.761V113.691H65.4397C67.0466 113.9 72.9851 112.715 76.1291 112.019C76.5483 111.949 76.8976 111.879 77.2469 111.809C78.3648 111.6 79.5525 111.252 80.6005 110.973C80.7402 110.904 80.8799 110.904 81.0895 110.834C83.2554 110.276 85.8404 109.51 88.2857 108.674C90.3118 107.977 92.3379 107.28 93.9448 106.583C94.0845 106.514 94.2941 106.444 94.4339 106.374C94.9229 106.096 95.3421 105.887 95.9709 105.956H96.0408V106.026C96.1106 106.862 96.1805 107.698 96.1805 108.604C96.1805 109.44 96.2504 110.346 96.3202 111.113V111.182H96.2504C95.3421 111.391 88.9843 114.179 82.8362 116.896C76.7579 119.544 70.959 122.122 70.6796 122.053L70.8193 121.983ZM63.2738 109.162L59.7107 101.148H59.8504C63.8328 100.66 66.6972 100.242 69.5617 99.6153C72.4262 98.9881 75.2907 98.2216 79.273 97.1067C79.9717 96.8977 80.5306 96.6886 81.1594 96.4796C81.7882 96.2706 82.3471 96.0615 83.0458 95.8525C83.465 95.7131 83.7444 95.6434 84.0239 95.5041C84.3034 95.4344 84.5129 95.295 84.8623 95.2253L90.5912 93.1349C91.779 95.9221 92.9667 98.7791 94.2243 101.566L94.1544 101.636C93.5955 102.054 91.7091 102.751 89.4734 103.517C85.5609 104.841 80.6005 106.305 79.4128 106.653C78.5744 106.862 77.736 107.071 76.9675 107.28C76.5483 107.35 76.1291 107.489 75.7099 107.559C74.0331 107.977 72.1468 108.325 70.2604 108.674C68.374 108.953 66.4876 109.231 64.741 109.371C64.3917 109.371 64.2519 109.371 64.0424 109.371C63.9026 109.371 63.7629 109.371 63.5533 109.371H63.2738L63.4834 109.231L63.2738 109.162ZM57.8942 96.5493C57.6147 96.2706 57.1257 95.295 56.5667 94.1104C55.5188 91.811 54.331 88.745 54.1913 88.4662L54.1214 88.3269H54.2612C54.4708 88.3269 55.0297 88.3269 55.7284 88.2572C56.7065 88.1875 57.8243 87.9785 58.2435 87.9088C60.8984 87.4907 63.4834 87.0029 65.9986 86.3758C68.5836 85.8184 71.0988 85.1215 73.6139 84.3551L81.1594 81.8465C81.5786 81.7072 81.9978 81.4981 82.417 81.2891C83.2554 80.871 84.0938 80.5226 84.8623 80.3135H84.9321C86.1199 83.1705 87.3774 86.0274 88.5651 88.8843L81.2293 91.6019C80.2512 91.8806 79.4128 92.1594 78.5744 92.3684C74.1729 93.6923 72.4262 94.1801 65.9986 95.5737C65.3698 95.7131 62.7149 96.1312 60.5491 96.4099C59.2216 96.5493 58.1038 96.6886 57.8243 96.5493L57.7545 96.4796V96.4099L57.8942 96.5493ZM83.3252 43.3825L73.1947 47.7724C72.1468 45.4729 71.1686 43.1734 70.1207 40.8739V40.8042C70.47 40.2468 71.1686 39.2016 72.007 38.017C73.2646 36.275 74.8715 34.2542 75.5702 33.2787C75.9195 32.8606 76.2688 32.5122 76.5483 32.1638C76.8976 31.8154 77.2469 31.3973 77.5264 31.0489L77.5963 30.9792L77.6661 31.0489C78.2251 31.467 79.5525 34.742 80.8101 37.7383C81.7882 40.1771 82.7663 42.4766 83.2554 43.1734L83.3252 43.2431L83.1855 43.3128L83.3252 43.3825ZM52.0953 83.8673L49.5802 77.8747C49.5103 77.7353 49.4405 77.5263 49.3007 77.3869C49.0213 76.8992 48.8117 76.4114 48.8815 75.7146V75.6449H48.9514C49.5802 75.5752 50.1391 75.5055 50.698 75.4358C52.794 75.2268 54.2612 75.0874 56.8462 74.53C58.1736 74.2513 59.4312 73.9725 60.6888 73.6938C61.9464 73.4151 63.204 73.0667 64.5314 72.7183L65.0205 72.5789C66.1383 72.3002 67.1164 72.0215 68.2343 71.6731L77.3867 68.4677C77.5963 68.398 77.736 68.3284 77.8757 68.2587C78.3648 68.0496 78.784 67.8406 79.273 67.7012H79.3429L83.0458 76.063L82.9759 76.1327C82.1375 76.6901 79.1333 77.7353 77.1072 78.4321C76.4784 78.6412 75.9894 78.8502 75.64 78.9199C73.8934 79.547 71.1686 80.3135 68.374 81.08C65.3698 81.8465 62.3656 82.5433 60.3395 82.8917L54.331 83.7976C53.9119 83.8673 53.4927 83.8673 53.1433 83.8673C52.8639 83.8673 52.5145 83.8673 52.2351 83.8673L52.1652 84.0763L52.0953 83.8673ZM46.7157 71.1853C46.4362 70.7672 46.2965 70.4188 46.1568 70.0704C45.9472 69.5826 45.7376 69.0948 45.2485 68.4677C45.1088 68.3284 44.9691 68.189 44.8293 68.0496C44.6197 67.7709 44.4101 67.5619 44.2005 67.2831C44.1307 67.2135 44.0608 67.0741 43.9909 67.0044C43.7115 66.656 43.5019 66.3773 43.0827 66.0289L42.943 65.9592C53.4228 61.4299 63.8328 56.9006 74.3126 52.3713V52.5107C74.4523 53.3469 74.4523 53.974 74.5222 54.5315C74.592 55.716 74.6619 56.4825 75.3606 58.1549C75.5003 58.4336 75.64 58.782 75.8496 59.2001C76.4784 60.5937 77.3867 62.4751 77.5963 63.381V63.4507L77.5264 63.5203C77.1072 63.7991 75.9894 64.2868 74.7318 64.7746C73.055 65.4017 71.1686 66.0986 70.2604 66.3773L66.5575 67.4922C64.5314 68.1193 62.7149 68.6071 60.8285 69.0252C58.9422 69.5129 57.0558 69.931 54.9598 70.3491C54.5406 70.4188 54.1913 70.4885 53.7721 70.5582C53.4927 70.6278 53.2831 70.6278 53.0036 70.6975C52.794 70.6975 52.6543 70.7672 52.5145 70.7672C52.0255 70.8369 51.6063 70.9066 51.0474 70.9762C50.698 71.0459 50.4186 71.0459 50.1391 71.1156C49.7898 71.1853 49.4405 71.1853 49.0911 71.255C48.6719 71.3246 48.3226 71.3246 47.9034 71.3246C47.5541 71.3246 47.2048 71.3246 46.9253 71.3943H46.7856L46.8554 71.255L46.7157 71.1853ZM43.9909 60.2453L41.0566 53.2772V53.2075C43.1526 49.0963 46.6458 45.9607 50.7679 44.0793C54.9598 42.1282 59.7806 41.5011 64.3218 42.4069C64.4615 42.4069 64.5314 42.4766 64.6711 42.4766C65.2999 42.616 65.5794 42.6856 65.8589 42.9644C66.0685 43.1734 66.2082 43.5218 66.4178 44.1489C66.5575 44.4974 66.7671 44.9851 67.0466 45.5426C67.1863 45.8213 67.326 46.2394 67.4658 46.5878C67.885 47.633 68.374 48.8873 68.7932 49.5144L68.8631 49.5841C60.5491 53.2075 52.2351 56.7613 43.9909 60.3847L44.0608 60.1756L43.9909 60.2453ZM24.1491 53.974C24.4286 53.9043 24.5683 53.9043 24.7081 53.8346C26.315 53.4862 27.4328 53.2075 29.3192 53.3469C30.6466 53.4166 31.7645 53.5559 32.8125 53.8346C33.8604 54.1134 34.9783 54.4618 36.3057 55.0192C36.5153 55.0889 37.0743 56.1341 37.6332 57.3187C38.5414 59.2698 39.5196 61.848 39.5894 62.1267V62.1964C36.2359 63.6597 32.8823 65.123 29.5288 66.5863C27.6424 62.4054 25.8259 58.2246 23.9395 53.974L24.0793 53.9043L24.1491 53.974ZM26.0355 48.7479C26.1752 48.3995 26.315 48.0511 26.4547 47.7724C26.5944 47.4936 26.7342 47.2149 26.9438 47.0059C27.4328 46.3091 29.1795 45.6123 30.437 45.1245C30.7864 44.9851 31.0658 44.9154 31.2754 44.7761L32.533 44.2186C34.07 43.5218 35.6071 42.8947 37.214 42.1979L69.2124 28.401C69.8412 28.1222 70.2604 27.9829 70.7494 28.0526C71.3084 28.1222 71.9372 28.3313 72.9851 28.7494L73.1249 28.8191L69.7015 33.209C69.2823 33.7664 68.9329 34.3239 68.5836 34.8117C68.374 35.0904 68.2343 35.3691 68.0946 35.5781C68.0247 35.7175 67.885 35.8569 67.7452 35.9962C67.326 36.6234 66.7671 37.3899 66.4876 38.0867L66.4178 38.1564H66.3479C64.1122 37.3202 61.3176 37.1111 58.5928 37.3202C55.4489 37.5292 52.3049 38.3654 49.8597 39.4106C47.9034 40.2468 46.1568 41.1527 44.5499 42.2676C42.943 43.3825 41.5457 44.7064 40.0785 46.3787C39.6593 46.8665 38.9606 47.7027 38.4017 48.6085C37.9825 49.166 37.6332 49.7931 37.4935 50.2809L37.4236 50.3506L37.3537 50.2809C35.2578 49.4447 33.3714 48.957 31.5549 48.7479C29.7384 48.5389 27.9917 48.5389 26.1054 48.7479H25.9656L26.0355 48.6085V48.7479ZM27.4328 71.7427C28.5507 72.1608 28.8301 72.0215 29.6685 71.6034C29.8781 71.464 30.1576 71.3943 30.437 71.255C30.8562 71.0459 31.4152 70.8369 32.1138 70.5582C34.3495 69.5826 37.5633 68.189 38.262 67.9799H38.3318L40.3579 70.2097L39.7292 70.3491C38.8908 70.6278 38.4017 71.1156 38.1921 71.6731C38.1222 71.9518 38.0524 72.2305 38.0524 72.5092C38.0524 72.788 38.1222 73.0667 38.1921 73.3454C38.4017 73.9725 38.8908 74.4603 39.4497 74.6694C41.1963 75.3662 42.1046 75.5752 42.7334 75.6449C43.1526 75.7146 43.3622 75.7843 43.5718 75.9236C43.8512 76.1327 43.9909 76.4811 44.3403 77.3172C44.48 77.596 44.5499 77.8747 44.7595 78.2928C44.8992 78.5715 45.0389 78.9896 45.2485 79.4077C45.8075 80.5923 46.5061 82.1253 46.7157 82.9614L46.7856 83.1008L46.6458 83.0311C45.8075 82.7524 44.9691 83.1008 44.3403 83.6582C44.1307 83.8673 43.9211 84.2157 43.7814 84.4944C43.6416 84.8428 43.6416 85.1215 43.7115 85.47C43.8512 86.3061 44.5499 87.1423 46.1568 87.7694C46.576 87.9088 47.2048 88.1178 47.7637 88.1875C48.3226 88.3269 48.8815 88.3269 49.2309 88.3269H49.3007C50.3487 90.8354 51.3967 93.2743 52.4447 95.7131L52.2351 95.6434C51.257 95.295 50.4186 95.5737 49.8597 96.1312C49.6501 96.3402 49.4405 96.6886 49.3007 96.9674C49.161 97.3158 49.161 97.6642 49.161 98.0126C49.2309 98.8488 49.8597 99.7546 51.1172 100.242C52.0953 100.66 53.0735 100.8 53.9817 100.87C54.1913 100.87 54.4009 100.939 54.5406 100.939H54.6105C55.6585 103.308 56.7065 105.678 57.8243 108.116H57.6846C57.5449 108.116 57.4051 108.116 57.2654 108.116C56.4969 108.116 55.379 108.116 54.8201 109.58C54.1214 111.252 55.4489 112.297 56.9161 112.855C58.1038 113.342 59.4312 113.552 59.9203 113.621C60.06 113.621 60.1299 113.691 60.1997 113.691C60.5491 113.97 60.9683 114.945 61.4573 116.269C62.2258 118.22 63.204 120.868 64.6711 122.331C64.9506 122.61 65.2301 122.889 65.5095 123.168C65.7191 123.377 65.9287 123.655 66.2082 123.864C66.6972 124.352 67.1164 124.84 67.5356 125.188C68.6535 126.373 69.2124 127 70.1207 127C70.959 127 72.0769 126.512 74.3126 125.467C75.151 125.049 76.199 124.631 77.4565 124.073L85.3513 120.659C87.2377 119.823 89.0542 119.056 90.8707 118.29L93.2461 117.245L99.1148 114.736C99.2546 114.666 99.4642 114.597 99.6039 114.527C100.512 114.179 100.582 114.109 101.071 112.924C101.141 112.715 101.141 111.809 101.141 110.695C101.071 108.883 100.931 106.444 100.861 105.747C100.792 105.05 100.652 104.772 100.512 104.423C100.442 104.214 100.303 103.935 100.233 103.517V103.448L100.442 103.308C101.49 102.612 103.097 101.497 102.259 99.6849C102.189 99.4759 102.049 99.2668 101.909 99.0578C101.63 98.7094 101.211 98.4307 100.792 98.361C100.372 98.2216 99.8834 98.2913 99.3244 98.5004C99.045 98.6397 98.7655 98.7791 98.4861 99.0578L98.4162 99.1275C97.1586 96.3402 95.9709 93.6227 94.7133 90.8354L94.7832 90.7657C95.1325 90.4173 95.412 90.278 95.6914 90.0689C96.1805 89.7902 96.46 89.5811 96.8792 88.5359C97.1586 87.8391 97.0189 87.212 96.5997 86.6545C96.3901 86.3758 96.1106 86.0971 95.7613 85.9577C95.412 85.7487 95.0626 85.679 94.7133 85.6093C94.1544 85.5396 93.5256 85.7487 93.1763 86.3061L93.1064 86.3758L93.0365 86.3061C92.4776 85.888 91.779 84.2157 91.3598 83.0311C91.22 82.7524 91.1502 82.4737 91.0803 82.3343C90.9406 82.0556 90.8008 81.7072 90.5912 81.3588C90.1022 80.2439 89.4734 78.9199 89.3337 78.2231V78.1534V78.0837C89.5433 77.7353 89.8926 77.5263 90.2419 77.3172C90.8008 76.9688 91.2899 76.5507 91.4995 75.7146C91.6392 75.0874 91.4995 74.53 91.2899 74.1119C91.0104 73.6241 90.5214 73.2757 89.8926 72.997C89.0542 72.6486 88.5651 72.9273 88.146 73.206C87.9364 73.3454 87.7268 73.4151 87.5172 73.4848H87.4473C86.2596 70.7672 85.002 68.0496 83.8143 65.3321L83.8842 65.2624C84.0239 65.123 84.1636 65.0533 84.3732 64.914C85.4212 64.1475 86.6788 63.1719 85.9801 61.4996C85.9103 61.2905 85.7705 61.0815 85.6308 60.8725C85.3513 60.524 84.9321 60.2453 84.5129 60.1756C84.0938 60.0363 83.6047 60.106 83.0458 60.315C82.7663 60.4544 82.4869 60.5937 82.2074 60.8725L82.1375 60.9421L82.0677 60.8725C81.8581 60.5937 81.5087 59.8272 81.0895 58.9911C80.5306 57.8065 79.9717 56.4825 79.7621 55.9251C79.4826 55.0889 79.4128 53.2772 79.3429 51.8139C79.3429 51.1171 79.273 50.4203 79.2032 50.0719V50.0022H79.273C79.9717 49.8628 82.906 48.5389 85.002 47.633C85.7007 47.3543 86.2596 47.0756 86.6788 46.9362C89.3337 45.8213 89.3337 44.7761 88.3556 42.616C88.2158 42.2676 88.0761 41.9191 87.8665 41.5011C87.6569 41.083 87.4473 40.5952 87.2377 40.1074L82.9759 30.3521C82.6964 29.6552 82.417 29.0978 82.2074 28.5403C81.5786 26.9377 81.2293 26.2409 80.6703 25.7531C80.1813 25.335 79.4128 25.126 77.9456 24.7775C77.2469 24.6382 76.4086 24.4291 75.3606 24.1504C74.8016 24.0111 74.3126 23.8717 73.8235 23.7323C71.7276 23.1749 70.7494 22.8962 69.7713 23.0355C68.9329 23.1749 68.0247 23.593 66.4178 24.3595C65.4397 24.7775 64.1821 25.4047 62.5752 26.1015L31.8343 39.3409C31.5549 39.4803 31.0658 39.6893 30.437 39.8984C28.2712 40.8042 24.7081 42.2676 24.219 42.6856C23.9395 42.8947 23.0313 44.4974 21.9833 46.3787C20.7257 48.6085 19.3983 51.2564 19.049 52.0229C18.6298 53.1378 21.0052 58.2942 22.2628 60.8028C22.4724 61.2905 22.682 61.639 22.7518 61.9177C22.8916 62.1964 23.0313 62.6842 23.3108 63.2416C24.3587 65.8895 26.4547 70.9762 27.5027 71.3943L27.6424 71.464L27.4328 71.7427Z" fill="white"/>
</svg>
