<svg width="150" height="150" viewBox="0 0 150 150" fill="none" xmlns="http://www.w3.org/2000/svg">
<path fill-rule="evenodd" clip-rule="evenodd" d="M126.817 41.3478H106.76C108.446 42.8614 110.307 44.8989 111.818 46.9947C114.144 50.0801 114.144 50.3712 116.062 53.5148C117.632 56.0763 120.19 62.9458 120.887 67.7195C121.062 69.1748 120.248 69.5241 119.376 69.5241C118.329 69.5241 117.167 69.0584 116.992 67.7195C116.643 65.6237 115.888 63.0622 115.423 61.665C114.667 59.4528 113.62 56.8331 112.574 55.0284C111.411 52.9909 110.19 50.9534 108.737 49.1487C106.702 46.5872 105.191 45.19 102.924 43.036C100.075 40.2417 96.2962 38.0877 92.6337 36.5159C86.3552 33.7797 81.4719 32.8483 73.9143 32.8483C64.7872 32.8483 53.509 37.2727 46.9398 43.851C44.6726 46.1797 43.0448 47.6933 41.1263 50.313C38.8591 53.3984 37.0569 56.7749 35.7198 60.3843C34.8478 62.7711 34.2083 65.2162 33.8014 67.7195C33.6851 69.0584 32.4643 69.5241 31.4178 69.5241C30.5458 69.5241 29.7319 69.2331 29.9063 67.7195C31.2434 59.0453 35.8361 49.6726 41.8821 43.3271C53.3346 31.2765 70.6588 26.3281 86.8203 30.4032C87.5179 30.5779 89.3782 30.6943 91.471 30.6943L102.749 30.6361H111.237C112.283 30.6361 113.155 31.5675 113.155 32.6154C113.155 33.6633 112.283 34.5365 111.237 34.5365H102.749H97.517C98.8541 35.2351 100.831 36.7487 101.645 37.1562C102.284 37.5055 102.575 37.4473 103.214 37.4473H126.817C129.084 37.4473 129.317 41.3478 126.817 41.3478ZM34.0339 84.0198C33.8595 83.0884 33.2781 82.2734 31.7666 82.448C30.8946 82.5062 30.197 83.1466 30.4295 84.3691C31.5341 90.1907 33.9758 96.1287 37.3476 100.961C38.9753 103.347 41.824 106.433 42.289 107.19H38.3359H23.8022C22.8139 107.19 22 108.005 22 108.994C22 109.984 22.8139 110.799 23.8022 110.799H38.3359H46.1841C46.8235 111.381 48.6257 112.778 50.5442 113.943H39.9636H35.6617C34.6734 113.943 33.8595 114.758 33.8595 115.747C33.8595 116.737 34.6734 117.552 35.6617 117.552H48.742H57.1134C58.218 117.552 62.1711 119.24 64.6128 119.764C75.1352 122.035 85.6576 121.336 95.1917 116.504C106.121 110.974 114.551 102.125 118.562 90.8311C119.376 88.6189 119.899 86.6395 120.364 84.2527C120.597 83.0884 119.899 82.448 119.027 82.3316C117.457 82.2151 116.934 83.0302 116.76 83.9034C115.888 87.8621 113.969 92.0536 112.4 95.139C103.621 112.429 81.3556 121.511 62.1711 115.049C57.4041 113.477 52.8696 110.974 48.9164 107.83C41.9402 102.358 35.8942 92.7522 33.9758 83.8452L34.0339 84.0198ZM55.9507 67.7195C55.66 68.942 54.5555 69.5241 53.5672 69.5241C52.637 69.5241 51.765 69.0002 51.9394 67.7195C52.1719 65.7401 53.7997 63.1204 54.9043 61.4904C55.3112 60.85 55.6019 60.4425 56.0088 59.9186C57.5785 57.8228 59.6132 59.3946 59.6132 60.3843C59.6132 61.7232 58.5668 62.7711 57.811 63.9354C57.1134 64.9833 56.2414 66.4387 55.9507 67.7195ZM56.532 84.0198C59.962 91.4132 67.7521 96.1869 75.8909 95.8958C83.6228 95.663 91.006 91.0639 94.2615 84.0198C94.7847 82.9137 95.5405 82.5062 96.5288 82.448C97.7496 82.3898 98.4472 83.4959 98.0984 84.5438C96.1218 88.9682 93.5057 92.4029 89.9014 95.0226C85.7157 98.0498 80.658 99.6798 75.5421 99.7381C69.2636 99.7963 62.8687 97.4677 57.811 92.3447C55.4275 89.9578 54.0322 87.4546 52.7533 84.5438C52.3463 83.4959 53.044 82.3898 54.3229 82.448C55.3112 82.5062 56.067 82.9137 56.5902 84.0198H56.532ZM49.0327 84.0198C52.9858 95.1972 62.4037 102.416 74.8445 103.056C87.2272 103.697 97.6333 95.7794 101.761 84.0198C102.168 82.8555 103.098 82.3898 104.144 82.448C105.249 82.448 105.83 83.3212 105.656 84.4273C105.191 87.2217 103.389 90.7729 101.586 93.3926C98.2147 98.2244 92.6919 102.3 87.3435 104.57C78.9139 108.179 68.4497 107.073 60.0783 102.707C53.9741 99.5634 49.8465 95.4301 46.6491 88.7353C46.0097 87.4546 45.3702 85.8245 45.1376 84.3691C44.9632 83.3212 45.5446 82.3898 46.6491 82.3898C47.6374 82.3898 48.6257 82.7973 49.0327 83.9616V84.0198ZM48.4513 67.7195C47.9862 70.2227 44.44 70.0481 44.6144 67.7195C44.9632 65.7983 45.2539 64.634 46.1259 62.7129C47.5212 59.5111 49.1489 56.8331 51.3581 54.3299C54.2067 51.0698 57.4622 48.5083 61.3572 46.5872C66.7056 43.9093 70.7169 43.3271 77.1117 43.3271C83.4484 43.3271 88.9712 45.7722 93.7383 49.0905C98.0403 52.0595 101.645 56.1928 103.97 61.0247C105.598 64.4012 106.005 66.4969 106.237 67.7195C106.47 70.0481 102.865 70.2227 102.4 67.7195C101.645 65.0998 100.656 62.5383 99.3192 60.5007C95.773 55.0867 91.8198 51.4773 85.7157 49.0322C69.8449 42.6285 52.8696 51.7684 48.3932 67.7195H48.4513ZM41.417 66.2641C41.3007 66.6716 41.1845 67.1955 41.1263 67.7195C40.8938 68.8256 39.9055 69.4659 38.9172 69.5241C37.9871 69.5824 36.9988 69.0002 37.115 67.7195C37.1732 67.0791 37.3476 66.4387 37.4638 65.7983H37.5801C40.545 54.2134 48.8583 43.9093 59.3806 39.5431C69.0891 35.468 80.4836 34.7112 90.2502 39.1356C93.4476 40.591 96.1799 42.1046 98.9123 44.1421C103.098 47.2858 106.819 51.4191 109.318 56.1345C111.004 59.2782 113.097 63.7608 113.62 67.7777C113.737 69.0584 112.748 69.6406 111.818 69.5824C110.83 69.5241 109.9 68.8838 109.609 67.7777C109.493 67.2537 109.435 66.7298 109.318 66.3223C108.505 63.2951 107.342 60.5589 105.888 57.8228C102.284 51.128 95.9474 45.5393 88.9131 42.6867C72.4028 35.9337 54.1485 42.221 45.0214 57.3571C44.4981 58.2885 44.0912 59.1035 43.6261 60.0932C42.5797 62.1308 41.9984 64.1683 41.417 66.3223V66.2641ZM41.5914 84.2527C41.8821 85.3006 42.1728 86.2902 42.5216 87.2217C43.6261 90.0743 44.9632 92.6357 46.6491 95.1972C47.1723 96.0123 47.7537 96.7691 48.4513 97.5841C51.7069 101.368 55.5438 104.395 60.0783 106.666C63.1013 108.179 68.7403 110.1 73.2167 110.1C79.7859 110.1 83.274 109.809 89.2619 107.364C93.3313 105.734 97.2845 102.3 98.2728 102.3C99.9587 102.3 100.831 104.162 99.7843 105.443C98.0403 107.539 91.5873 110.508 90.0758 111.148C86.704 112.662 81.123 114.001 76.356 114.001C66.9963 114.001 59.6713 111.556 52.7533 106.666C51.8813 106.025 50.8348 105.327 50.021 104.512C47.1142 101.659 45.7771 100.67 43.2773 96.8855C40.4287 92.6357 38.8009 89.0846 37.7545 84.4856C37.4638 83.2048 38.2777 82.448 39.5567 82.448C41.0682 82.448 41.417 83.4377 41.6495 84.2527H41.5914ZM126.643 30.6361H119.666C118.62 30.6361 117.748 31.5093 117.748 32.5572C117.748 33.6051 118.62 34.4783 119.666 34.4783H126.643C127.689 34.4783 128.561 33.6051 128.561 32.5572C128.561 31.5093 127.689 30.6361 126.643 30.6361ZM28.6274 113.943H23.8022C22.8139 113.943 22 114.758 22 115.747C22 116.737 22.8139 117.552 23.8022 117.552H28.6274C29.6157 117.552 30.4295 116.737 30.4295 115.747C30.4295 114.758 29.6157 113.943 28.6274 113.943ZM62.4618 54.7374C62.4618 59.8603 67.8683 54.2716 73.6818 54.2716C78.1 54.2716 79.5534 54.097 83.7391 55.9017C87.3435 57.4735 90.9478 60.5589 92.9825 63.7026C93.6802 64.8087 94.6103 66.1476 94.9591 67.7195C95.2498 68.942 96.3543 69.5241 97.3426 69.5241C98.2728 69.5241 99.1448 69.0002 98.9704 67.7195C98.6216 64.4594 96.1799 61.1411 94.2034 59.1035C88.9712 53.7477 84.3205 50.3712 74.6701 50.3712C71.2401 50.3712 62.5199 52.5252 62.5199 54.7374H62.4618ZM109.202 84.2527C108.039 88.5024 106.354 92.2865 103.679 95.7794C103.04 96.6526 101.993 98.2827 102.982 99.2723C103.679 99.9709 105.249 99.9709 106.237 98.8066C107.516 97.4094 108.795 95.4301 110.132 92.4611C111.237 90.0743 112.516 86.756 113.039 84.4273C113.33 83.1466 112.516 82.3898 111.237 82.3898C109.725 82.3898 109.377 83.3795 109.144 84.1945L109.202 84.2527Z" fill="white"/>
<path d="M121.469 71.2122H94.8431C94.0725 71.2122 93.4479 71.8898 93.4479 72.7258V79.2459C93.4479 80.0819 94.0725 80.7595 94.8431 80.7595H121.469C122.239 80.7595 122.864 80.0819 122.864 79.2459V72.7258C122.864 71.8898 122.239 71.2122 121.469 71.2122Z" fill="#32333B"/>
<path d="M55.4272 71.2122H28.8015C28.0309 71.2122 27.4062 71.8898 27.4062 72.7258V79.2459C27.4062 80.0819 28.0309 80.7595 28.8015 80.7595H55.4272C56.1978 80.7595 56.8224 80.0819 56.8224 79.2459V72.7258C56.8224 71.8898 56.1978 71.2122 55.4272 71.2122Z" fill="#32333B"/>
</svg>
