<svg width="150" height="150" viewBox="0 0 150 150" fill="none" xmlns="http://www.w3.org/2000/svg">
<path fill-rule="evenodd" clip-rule="evenodd" d="M73.1792 101.592H83.0535C84.4377 101.592 85.2264 101.318 85.2264 103.113V107.37C85.2505 108.859 84.8481 109.069 83.649 109.069H79.1585H76.4465H74.2495C73.5735 109.069 73.0263 109.761 73.0263 110.63C73.0263 111.499 73.5654 112.191 74.2495 112.191H76.4465H79.1585H85.0332C86.5783 112.191 87.8016 110.807 87.8016 108.835V101.809C87.8016 99.9742 86.6588 98.4853 85.1942 98.4853H77.3719L80.4702 80.2402C83.6168 80.2402 86.2001 80.3448 88.6144 77.5762C89.5077 76.538 90.4573 74.6708 90.924 73.0371C91.1172 72.3771 91.1655 71.6528 91.3586 71.0975C94.3684 71.0975 96.2757 71.4435 97.7403 69.2947C98.0622 68.8118 98.2795 68.2565 98.4726 67.7333C98.7141 67.0412 98.7704 66.7273 99.2613 66.2444C99.6959 65.7937 100.404 65.6569 101.136 65.6569L110.962 65.6891C112.427 65.6891 113.626 65.4798 114.165 65.166C115.059 64.6106 115.823 63.6771 116.065 62.3974C118.044 62.3974 119.678 62.6067 121.006 61.6328C123.283 60.0071 123.066 56.9971 123.066 54.2929H135.91C137.02 54.2929 137.568 53.6732 137.704 52.9408V52.2809C137.6 51.5887 137.109 50.969 136.401 50.969H123.074C123.074 48.5787 123.235 46.124 121.014 44.4581C119.549 43.3877 118.221 43.6935 116.073 43.6935C115.638 42.6553 115.533 42.3414 114.793 41.5849C114.222 40.9974 113.409 40.5789 112.516 40.5789H108.089C107.116 40.5789 106.464 40.9974 106.464 42.2368C106.464 43.4118 107.14 43.8625 108.089 43.8625H112.516C113.328 43.8625 113.795 44.45 113.795 45.5607V60.6912C113.795 62.7354 112.387 62.3491 110.866 62.3894H100.847C99.8166 62.3894 98.9716 62.663 98.5129 62.9447C97.5391 63.5322 96.8873 64.506 96.4205 65.6811C95.825 67.2424 95.5755 67.9345 93.789 67.9345C90.9079 67.9667 88.035 67.9345 85.1539 67.9345C83.3915 67.9345 82.8443 68.0392 81.6774 68.9003C79.5045 70.4938 79.1504 72.8841 78.6676 75.8217C78.4262 77.3831 78.0962 78.9042 77.8548 80.3931L74.7565 98.429H73.1067L70.2901 98.4612H70.0487C69.3727 98.4612 68.8254 99.1533 68.8254 100.023C68.8254 100.892 69.3646 101.584 70.0487 101.584C71.0868 101.584 72.141 101.6 73.1953 101.584L73.1792 101.592ZM58.2429 45.4641C58.9591 45.4641 59.5466 46.0516 59.5466 46.7679V59.5645V61.1017V62.4055V63.8219C59.5466 64.6911 60.7376 65.2384 61.309 65.5201C62.8863 66.349 64.9465 67.8058 65.542 70.1558C65.8639 71.4677 65.6788 73.9948 65.4374 75.3147L64.5763 80.2321C64.3188 82.1959 61.5907 81.6325 62.1299 79.2663C62.2103 78.8881 62.2908 78.4374 62.3713 78.0189L63.0634 74.0753C63.3611 72.2725 63.3611 70.4375 61.8402 69.3671C59.9409 68.015 57.1162 67.9104 56.9231 63.339V62.7837V62.4055V61.1017V59.5645V46.7679C56.9231 46.0516 57.5106 45.4641 58.2268 45.4641H58.2429ZM71.8191 40.595H72.0445H77.7019H102.794C104.532 40.595 104.589 43.8866 102.931 43.8866L77.7663 43.9108C77.7421 43.9108 77.718 43.9108 77.7019 43.9108H76.205H72.0525H71.8272C70.9178 43.9108 70.1694 43.1623 70.1694 42.2529C70.1694 41.3434 70.9178 40.595 71.8272 40.595H71.8191ZM92.6945 47.8624V60.7073C92.6945 63.0976 95.1409 62.5423 95.1409 61.1258V48.0717C95.1409 45.8182 92.6945 46.3413 92.6945 47.8624ZM73.7183 58.0434V50.5666C73.7183 50.0837 73.992 49.7377 74.3702 49.7377H86.2725C86.7393 49.7377 87.1014 49.963 87.1175 50.5183L87.1658 57.7295C87.1739 59.0574 86.8037 59.1138 85.8138 59.0896H74.5875C73.8793 59.0896 73.7183 59.162 73.7183 58.0514V58.0434ZM70.8132 49.7377V58.8804C70.8132 60.82 72.1974 62.4135 73.7425 62.4135H86.9083C88.7029 62.4135 90.1676 60.82 90.1676 58.4699V50.7839C90.1676 47.9349 88.9926 46.4218 86.0955 46.4218H74.5553C71.296 46.3494 70.8051 47.5968 70.8051 49.7457L70.8132 49.7377ZM81.1865 76.9163C82.2729 70.9928 82.2729 71.0975 88.8397 71.0975C88.6466 71.5803 88.6788 71.8942 88.4615 72.4817C86.8842 76.9807 84.3653 76.9163 81.1865 76.9163ZM119.082 59.0896H117.022C116.177 59.0896 116.314 58.5665 116.314 57.4961V47.4922C116.314 46.623 116.853 46.7276 118.245 46.7276C119.791 46.7276 120.523 47.4198 120.523 49.287V57.1822C120.523 58.2204 119.871 59.0494 119.058 59.0494L119.082 59.0816V59.0896Z" fill="#F66C4C"/>
<path fill-rule="evenodd" clip-rule="evenodd" d="M52.6662 55.7261C52.5375 55.2995 52.119 54.8247 51.6522 54.9534L39.5729 58.1244C38.8969 58.2934 38.3094 58.7683 38.5589 59.6214L53.4227 115.443C53.8895 116.981 55.3219 117.713 56.7624 118.011C58.8307 118.486 61.1081 118.14 63.0959 117.584C64.3593 117.198 66.7656 116.168 67.7796 115.274C68.7533 114.421 70.902 112.361 70.395 110.775L52.6582 55.7663V55.7261H52.6662ZM14.7462 42.4547C14.2392 42.672 12.9274 43.01 13.3942 44.2494C14.7864 47.8872 16.0096 50.8811 17.3214 54.5269C17.7881 55.7663 18.4641 56.0239 19.5586 55.5571L25.8115 52.9495C27.075 52.4344 27.244 52.1768 26.737 50.8972L23.4858 42.2937C23.0673 41.1348 22.6408 39.4688 21.0393 40.1529C20.4921 40.3702 14.9554 42.3822 14.7059 42.511L14.7462 42.4708V42.4547ZM49.415 31.2355C45.0935 30.817 39.1624 30.7285 35.3077 32.9498C32.5232 34.5353 29.5215 36.7566 26.5278 38.0845C25.8115 38.3823 24.1216 38.7284 24.4596 39.7505L28.1775 50.1567C28.596 51.3559 28.8535 51.6135 30.117 51.4445C31.3 51.2754 32.9014 50.8489 34.3822 51.8308C35.4767 52.6034 36.4504 53.883 37.0862 54.7442C37.5529 55.3398 37.9312 56.2412 38.5186 56.5872C39.1061 56.8448 39.5729 56.6275 40.0396 56.4987L50.091 53.8428C50.6785 53.6255 50.8073 53.1587 50.8958 52.5551C50.936 52.1688 50.936 51.7825 50.936 51.2272C50.936 50.5833 50.936 47.2433 51.105 45.6659C51.1855 44.7645 51.612 44.684 52.4168 44.2977C57.189 42.0684 62.6774 44.1689 66.9828 46.3097C68.0371 46.8248 69.3086 46.1407 69.0511 44.9415C68.5038 42.5834 66.0493 38.7767 63.5224 36.7646C59.4342 33.481 54.5896 31.7426 49.415 31.2436V31.2355Z" fill="#32333B"/>
</svg>
