<svg width="150" height="150" viewBox="0 0 150 150" fill="none" xmlns="http://www.w3.org/2000/svg">
<g clip-path="url(#clip0_78_4799)">
<path fill-rule="evenodd" clip-rule="evenodd" d="M141.509 96.749H88.623C84.4435 96.749 84.608 101.95 88.623 101.95H142.497C147.433 101.95 150 97.4403 150 92.9632C150 89.4409 149.21 84.6676 144.471 84.0092C144.471 72.1582 141.838 64.1588 135.75 54.9085C131.735 48.8513 127.555 45.0327 122.224 41.7408C117.189 38.6134 113.667 37.0991 107.875 35.4861C106.394 35.0581 106.361 34.9264 106.131 33.3134C105.177 27.2233 102.346 27.1246 99.1542 26.927C91.0584 26.927 86.3193 25.6761 84.608 33.873C84.1473 36.1115 84.5093 34.8606 79.7373 36.4737C71.839 39.173 62.8874 45.1644 58.2471 51.1557C51.9943 59.2209 48.5716 65.311 46.959 76.4048C46.597 78.9725 47.6172 79.9601 48.8349 80.1905C50.2829 80.4539 51.9943 79.4663 52.2904 77.162C53.4423 68.3067 57.0953 60.7023 62.4267 54.3818C64.138 52.3408 67.1986 49.3122 69.5023 48.0942L71.0491 71.006C71.3782 73.475 70.4567 77.0961 74.0768 77.0961C77.6969 77.0961 76.4793 73.4092 76.3476 70.9073L75.3274 53.3613C75.0312 50.8265 74.735 47.337 74.735 44.506C76.3147 43.683 77.5982 43.0904 79.4411 42.3662L84.5093 40.5886V83.3179H81.0208C77.5653 83.3179 77.302 88.8483 81.0208 88.8483H142.53C145.261 88.8483 146.248 96.6831 141.542 96.6831L141.509 96.749ZM90.0052 34.1364C90.0052 31.4699 95.8632 32.1941 98.496 32.1941C100.076 32.1941 101.096 33.2146 101.096 34.7948V83.3837H90.0052V34.1364ZM117.057 77.162C119.525 77.162 119.953 74.1663 119.986 71.2694L121.632 48.1271L125.285 50.9911C133.775 58.4967 139.239 71.7303 139.239 83.3508H106.329V40.6215C109.521 41.3786 113.799 43.1563 116.432 44.5389L114.754 70.5781C114.457 73.2446 114.293 77.0632 117.09 77.162H117.057Z" fill="white"/>
<path fill-rule="evenodd" clip-rule="evenodd" d="M44.5234 88.6837C47.7156 90.5272 52.4876 92.1403 51.6648 93.5887C50.4801 95.6626 43.8981 91.9098 41.6602 91.0868C37.349 89.4409 36.2959 88.5191 31.9518 90.4285L15.9246 97.3415C11.8767 99.0862 15.7272 102.378 18.5574 103.201L82.1394 121.899C89.972 124.204 97.6071 124.368 90.5644 112.847L71.5095 79.0384C69.8969 76.2073 68.8109 75.088 65.4541 76.4377L50.6117 82.4949C46.9916 83.9763 43.7993 83.8775 42.45 80.8489C40.9033 77.3266 41.4627 68.6688 40.2451 64.2247C39.554 61.6899 37.3819 61.0973 35.868 58.7601C31.9847 52.7358 21.0257 44.9668 14.3779 41.0824C12.4033 39.9302 10.6261 39.9631 8.65153 40.4569C5.19599 41.3128 1.70753 43.9793 0.226585 47.2383C-0.629073 49.1147 0.292405 50.7607 1.74044 52.242C7.63132 58.1675 23.6585 62.6775 32.3467 64.488C38.3363 65.739 34.6504 79.0055 37.349 83.68C38.3363 85.3589 42.1539 87.3011 44.4905 88.6508L44.5234 88.6837Z" fill="#32333B"/>
</g>
<defs>
<clipPath id="clip0_78_4799">
<rect width="150" height="150" fill="white"/>
</clipPath>
</defs>
</svg>
