<svg width="150" height="150" viewBox="0 0 150 150" fill="none" xmlns="http://www.w3.org/2000/svg">
<path fill-rule="evenodd" clip-rule="evenodd" d="M75.1417 96.5723C73.0423 99.8763 70.7855 104.282 70.8379 109.998C70.8904 116.921 73.882 120.487 76.3488 123.214C77.2935 124.21 78.3432 124.892 79.7603 124.892H84.7988C83.959 123.843 83.6441 122.794 83.4342 121.641C83.2767 120.697 83.5392 120.697 83.959 121.536C84.2739 122.165 84.8513 122.794 85.4286 123.319C85.9534 123.791 86.6882 124.368 87.423 124.892H92.6189C89.9947 121.693 89.2599 119.385 88.7351 115.609C88.4202 113.407 88.7876 113.722 89.3124 114.875C91.4643 119.543 94.8233 121.798 98.9696 124.945H117.392C120.173 124.945 124.057 125.364 120.908 123.896C115.555 121.378 111.881 120.015 108.102 113.879C106.107 110.627 106.212 107.638 106.475 104.177C106.58 102.551 105.897 102.394 104.428 101.974L79.078 94.8941C76.9786 94.3173 76.4013 94.7892 75.1941 96.6248L75.1417 96.5723ZM106.685 28.0805L92.7239 77.1681C89.5749 76.801 87.1081 77.3254 84.5364 79.3707C82.1746 81.2587 80.6525 84.0907 79.3929 87.2898C78.6581 89.2302 80.705 89.7546 83.1193 90.4888L103.221 96.415C106.107 97.2541 107.629 98.1981 108.207 95.7332C108.837 93.1635 109.361 89.9644 108.207 86.2409C106.895 81.9929 104.218 80.7343 102.276 79.9476L116.289 31.5418C118.441 24.0948 108.049 23.0984 106.632 28.0805H106.685Z" fill="#32333B"/>
<path fill-rule="evenodd" clip-rule="evenodd" d="M70.5229 119.753C71.6251 119.753 72.5698 120.644 72.6223 121.746C72.6748 123.266 70.5229 123.738 70.5229 123.529H45.8028C43.8608 123.529 42.3913 123.109 41.3941 122.218C40.3444 121.274 39.7671 119.858 39.5046 117.865L35.6733 88.9681C35.5683 88.4961 35.5158 88.4961 35.2009 88.4436C34.991 88.3912 34.7286 88.3387 34.3612 88.2338C33.3115 87.8667 32.4717 87.4472 31.737 86.8179C31.0022 86.241 30.3724 85.5068 29.7426 84.6152C28.8503 83.3566 28.378 81.9406 28.168 80.5246C27.9581 79.1086 28.0631 77.6402 28.273 76.1193C28.7454 73.2349 29.9525 70.298 30.9497 67.6758C31.3171 66.7318 31.6845 65.8403 31.9994 65.0012C32.0519 64.8438 32.1044 64.6865 32.1568 64.5816C32.3143 64.2145 32.3668 64.1096 32.3143 63.4803L31.632 58.0786C31.3171 57.8688 30.8972 57.7639 30.5298 57.5541C29.9525 57.187 29.4801 56.7675 29.0603 56.243C28.6404 55.7186 28.378 55.0893 28.168 54.3551C27.9056 53.2537 27.9581 52.3097 28.273 51.4182C28.5879 50.5266 29.1652 49.74 29.8475 49.0582C31.1596 47.7996 32.8391 47.7996 34.9385 47.7996C35.2009 47.7996 35.5158 47.7996 35.8307 47.7996C36.4606 47.7996 36.9329 47.7996 37.2478 47.7996C37.6152 47.7996 37.7727 47.7996 37.8776 47.7996C37.9826 47.7996 38.0876 47.6947 38.245 47.5373C38.35 47.4325 38.455 47.3276 38.6124 47.1702C38.9273 46.908 39.2947 46.5409 39.7146 46.2262C40.0295 45.964 40.3969 45.7542 40.7118 45.5445C41.1317 45.2298 41.6565 44.9676 42.2338 44.7054C43.1261 44.3383 43.7559 44.076 44.7006 43.9187C45.068 43.8138 45.2779 43.8138 45.3304 43.7089C45.3829 43.6565 45.4354 43.4992 45.5403 43.2369C45.5928 43.0272 45.7503 42.7125 45.9077 42.3454C46.0127 42.0832 46.1702 41.821 46.2751 41.6112C46.7475 40.8245 46.59 40.9294 47.1674 40.2476C47.4823 39.8281 47.9546 39.2512 48.3745 38.9365C49.0043 38.3597 49.5292 37.9401 49.8965 37.6779C50.4214 37.3108 50.4739 37.3108 51.0512 36.9437C51.891 36.4717 52.5732 36.3143 53.413 35.9472C53.7279 34.8983 53.8854 34.2166 54.4627 33.2726C54.6726 32.9055 54.7776 32.8006 55.04 32.4335C55.3549 32.0139 55.6173 31.6993 56.1947 31.2797C57.3493 30.4406 58.7139 29.9686 60.026 29.8637C61.3381 29.7588 62.6502 30.0211 63.6474 30.6504C63.8049 30.4931 63.9099 30.3357 64.0148 30.1784C65.0645 28.9197 65.7993 28.3429 67.1114 27.6611C68.0561 27.1891 69.1058 26.8744 70.1555 26.7171C70.9428 26.6122 71.73 26.6122 72.4648 26.7171C73.4095 26.822 74.1443 27.0318 74.8266 27.3464C75.5089 27.6086 76.1912 28.0282 76.926 28.5526C77.0834 28.6575 77.1884 28.7624 77.2934 28.8149C78.6055 29.8637 79.2353 30.9651 79.6552 31.7517C79.7602 31.9615 79.8651 32.1188 79.9701 32.2762C80.2325 32.2237 80.4949 32.2237 80.7049 32.1713C81.7546 32.0139 82.2794 31.9615 82.9092 32.0139C85.2185 32.1713 86.9505 32.9579 88.63 34.4788C89.9946 35.685 90.4145 36.5241 90.6769 37.101C90.9393 37.6254 90.9918 37.6254 91.2017 38.2023C91.4117 38.8316 91.6216 39.4085 91.6741 40.1952C92.4089 40.4574 93.0912 40.8245 93.721 41.1916C94.4033 41.6112 94.9806 42.0832 95.5055 42.5027C95.9778 42.8698 96.2927 43.3943 96.4502 43.9187C96.6076 44.3907 96.5551 44.9151 96.2927 45.3871C96.2402 45.4396 96.1878 45.5445 96.1353 45.5969C95.8204 46.0165 95.348 46.1738 94.8756 46.2262C94.4033 46.2787 93.8784 46.1214 93.4061 45.8591C93.3011 45.8067 93.1961 45.7018 93.0912 45.6494L91.5691 44.4431C91.2017 44.2334 90.7294 43.9712 90.257 43.7614C89.2598 43.2894 89.2073 43.4467 88.4726 42.8174C88.2101 42.6076 87.9477 42.3454 87.8952 41.4014C87.8952 40.3525 87.6328 39.5134 87.2129 38.7268C86.7931 37.9401 86.1632 37.3108 85.376 36.7339C84.6412 36.2094 83.644 35.8948 82.5943 35.7899C81.5971 35.7375 80.5999 35.8948 79.7602 36.3143C79.3403 36.5241 79.0254 36.629 78.658 36.629C78.3431 36.629 78.0282 36.5241 77.6083 36.3143C77.2409 36.157 76.821 35.0557 76.7161 34.6361C76.6111 34.2166 76.5061 33.7446 76.0338 33.0628C75.3515 32.0664 74.5117 31.3846 73.6195 30.9651C72.7272 30.5455 71.7825 30.3882 70.8903 30.4406C69.9456 30.4931 69.0533 30.8077 68.2136 31.3846C67.3214 31.9615 66.5866 32.8006 66.0617 33.9544C65.7993 34.5837 65.5894 35.0557 64.9071 35.3179C63.7524 35.7375 63.1226 35.1606 62.5453 34.6361C62.2829 34.3739 62.0204 34.1641 61.758 34.0068C61.1807 33.6921 60.5509 33.6397 59.9211 33.6921C59.2913 33.7446 58.7139 34.0068 58.294 34.4264C57.2444 35.3703 57.2444 35.7899 57.1919 37.2059C57.1394 38.517 56.8245 39.1988 55.3549 39.461C54.8826 39.5659 54.2527 39.6707 53.3605 40.0379C52.2583 40.5099 51.2611 41.2965 50.4739 42.1881C49.6866 43.0796 49.1093 44.1809 48.7944 45.3347C48.322 47.1178 48.322 47.1702 46.2751 47.4325C45.9077 47.4849 45.4354 47.5898 45.0155 47.6947C44.963 47.6947 44.858 47.7471 44.8056 47.7471H60.0785H61.7055H72.9372H74.5642H96.2927C98.7595 47.7471 98.812 51.5231 96.5027 51.5231H65.327C61.0757 51.4706 56.772 51.5231 52.5208 51.5231C47.9546 51.5231 43.3885 51.5755 38.8223 51.5231C38.0876 51.5231 37.3528 51.5231 36.618 51.5231C35.8832 51.5231 35.1484 51.5231 34.4137 51.5231C33.2065 51.5231 31.7894 51.4706 31.7894 53.0964C31.7894 54.6697 33.154 54.6697 34.0463 54.6697C34.1512 54.6697 34.2037 54.6697 34.3087 54.6697C35.0435 54.6697 35.7783 54.6697 36.5655 54.6697C37.3003 54.6697 37.9826 54.6697 38.7174 54.6697C43.1261 54.6173 47.5872 54.6697 51.9959 54.6697C56.4046 54.6697 60.7608 54.7222 65.222 54.6697H94.7707C96.975 54.6697 96.975 58.4457 94.5083 58.4457H45.5928H35.4633L38.9798 85.2445C39.9245 85.2445 41.1841 85.0348 42.4438 84.825C46.2226 84.0383 50.3689 82.0455 53.6754 80.0526C55.25 79.1086 57.1919 77.8499 58.609 76.8011C60.0785 75.6997 61.5481 74.5984 61.968 74.1264C61.4431 73.2349 61.4956 73.2873 61.1807 72.2909C60.7608 70.9273 60.3934 69.826 60.8133 67.6758C60.9707 67.0465 61.1282 66.4172 61.3381 65.8927C62.2304 63.8474 64.0673 62.0643 66.1142 61.2777C67.8462 60.6483 69.6307 60.491 71.2577 60.8581C72.9372 61.2252 74.4592 62.1168 75.7189 63.4279C76.8735 64.6341 77.6083 66.1549 77.8707 67.7807C78.2906 70.1931 77.8707 72.0287 76.6111 74.1264C75.5089 75.9095 73.7244 77.2206 71.6776 77.7451C69.8931 78.2171 68.0037 78.1646 66.2717 77.5353C65.8518 77.378 64.9596 76.9584 64.6447 76.7486C63.5425 77.378 61.7055 78.7415 59.9211 80.0526C55.7223 83.1468 52.6782 84.9823 47.6397 86.7654C45.068 87.657 42.4438 88.3387 39.5046 88.8632L43.0736 116.606C43.1261 117.13 43.231 117.655 43.3885 118.127C43.4935 118.494 43.6509 118.809 43.8084 119.018C44.4382 119.805 46.2751 119.805 47.6922 119.753C49.5816 119.753 70.5229 119.753 70.5229 119.753ZM35.096 84.4054L33.4165 71.3993C33.1016 72.0287 32.7866 73.0775 32.5767 74.1264C32.1568 75.962 31.9469 78.0073 31.9994 78.7939C32.0519 80.2624 32.3668 81.521 32.8916 82.465C33.4165 83.3566 34.1512 83.9859 35.1484 84.4054H35.096ZM68.3186 64.4767C67.5838 64.6341 66.9015 64.8963 66.3242 65.3683C65.3794 66.1025 64.7496 67.2038 64.5397 68.2527C64.2773 69.3016 64.3297 70.5602 64.9596 71.5042L68.5285 68.2003C69.6832 67.1514 70.9953 67.3612 71.6776 68.2003C72.0974 68.7771 72.0974 69.8785 71.3627 70.6127L67.7937 74.074C68.0561 74.1789 68.3186 74.2313 68.581 74.2313C70.208 74.4411 71.6251 74.074 72.8847 72.9202C74.5117 71.3469 74.8791 68.6723 73.7244 66.7843C73.462 66.3647 73.1471 65.9976 72.8322 65.6829C71.6251 64.5816 70.0505 64.1621 68.4235 64.4767H68.3186Z" fill="#F66C4C"/>
</svg>
