<svg width="150" height="150" viewBox="0 0 150 150" fill="none" xmlns="http://www.w3.org/2000/svg">
<path fill-rule="evenodd" clip-rule="evenodd" d="M96.1205 88.3732V68.3555C96.1205 64.7925 94.24 59.7395 93.0728 56.2413C92.3595 54.3626 87.6906 39.8514 87.6906 38.5558C87.4961 36.1589 87.6906 33.3085 87.6906 30.9763C87.6906 23.8503 88.2094 25.0811 78.4177 25.0811H32.3125C29.7835 25.4051 30.432 28.6442 30.432 30.782C30.432 41.9245 30.9508 38.0376 26.8655 50.5405C25.5037 54.4274 24.3365 58.3143 23.1693 62.3308C22.3263 65.0517 22.0021 65.6995 22.0021 68.7442V107.225C22.0021 110.27 21.8075 111.76 25.1795 111.76C25.8928 111.76 26.7358 111.76 27.7085 111.76H30.8859C33.35 111.76 33.5446 107.549 30.9508 107.549H26.0874C25.8928 101.459 26.0874 95.0458 26.0874 89.021C26.0874 82.8019 26.0874 76.7124 26.0874 70.6229C26.0874 66.6064 26.2819 66.2177 27.4491 62.6547L31.8586 48.6618C32.5719 46.6536 33.4149 44.2566 33.8688 42.2484C34.0634 42.2484 34.0634 42.2484 34.193 42.2484H65.1244C66.2916 42.2484 67.3291 41.2119 67.3291 40.0458C67.3291 38.8797 66.2916 37.8432 65.1244 37.8432H34.5821V38.0376C34.5821 37.325 34.5821 36.4828 34.5821 35.5111C34.5821 33.5028 34.5821 30.782 34.5821 29.6159H83.4108C83.4108 32.7902 83.2163 36.2237 83.4108 39.398C83.6053 40.7584 89.636 59.6748 90.3493 61.8126C91.3868 65.3756 91.9056 66.2177 91.9056 70.1047V88.3084C91.9056 91.2884 96.3151 91.2884 96.3151 88.438L96.2502 88.3732H96.1205ZM73.684 67.9021H44.6332C40.4182 67.9021 36.8517 71.4651 36.8517 75.6759V88.8267C36.8517 93.0375 40.4182 96.6005 44.6332 96.6005H47.2918C50.145 96.5357 50.2099 92.2601 47.2918 92.1953H46.5137C43.466 92.1953 41.1315 89.7984 41.1315 86.8184V77.6842C41.1315 74.6394 43.5308 72.3073 46.5137 72.3073H71.8035C74.8512 72.3073 77.1856 74.7042 77.1856 77.6842V78.5263C77.1856 81.0528 81.4006 81.312 81.4006 78.6559V75.6759C81.4006 71.4651 77.8341 67.9021 73.6191 67.9021L73.5543 67.9669L73.684 67.9021Z" fill="#F66C4C"/>
<mask id="mask0_78_4669" style="mask-type:luminance" maskUnits="userSpaceOnUse" x="22" y="25" width="75" height="87">
<path d="M96.1205 88.3732V68.3555C96.1205 64.7925 94.24 59.7395 93.0728 56.2413C92.3595 54.3626 87.6906 39.8514 87.6906 38.5558C87.4961 36.1589 87.6906 33.3085 87.6906 30.9763C87.6906 23.8503 88.2094 25.0811 78.4177 25.0811H32.3125C29.7835 25.4051 30.432 28.6442 30.432 30.782C30.432 41.9245 30.9508 38.0376 26.8655 50.5405C25.5037 54.4274 24.3365 58.3143 23.1693 62.3308C22.3263 65.0517 22.0021 65.6995 22.0021 68.7442V107.225C22.0021 110.27 21.8075 111.76 25.1795 111.76C25.8928 111.76 26.7358 111.76 27.7085 111.76H30.8859C33.35 111.76 33.5446 107.549 30.9508 107.549H26.0874C25.8928 101.459 26.0874 95.0458 26.0874 89.021C26.0874 82.8019 26.0874 76.7124 26.0874 70.6229C26.0874 66.6064 26.2819 66.2177 27.4491 62.6547L31.8586 48.6618C32.5719 46.6536 33.4149 44.2566 33.8688 42.2484C34.0634 42.2484 34.0634 42.2484 34.193 42.2484H65.1244C66.2916 42.2484 67.3291 41.2119 67.3291 40.0458C67.3291 38.8797 66.2916 37.8432 65.1244 37.8432H34.5821V38.0376C34.5821 37.325 34.5821 36.4828 34.5821 35.5111C34.5821 33.5028 34.5821 30.782 34.5821 29.6159H83.4108C83.4108 32.7902 83.2163 36.2237 83.4108 39.398C83.6053 40.7584 89.636 59.6748 90.3493 61.8126C91.3868 65.3756 91.9056 66.2177 91.9056 70.1047V88.3084C91.9056 91.2884 96.3151 91.2884 96.3151 88.438L96.2502 88.3732H96.1205ZM73.684 67.9021H44.6332C40.4182 67.9021 36.8517 71.4651 36.8517 75.6759V88.8267C36.8517 93.0375 40.4182 96.6005 44.6332 96.6005H47.2918C50.145 96.5357 50.2099 92.2601 47.2918 92.1953H46.5137C43.466 92.1953 41.1315 89.7984 41.1315 86.8184V77.6842C41.1315 74.6394 43.5308 72.3073 46.5137 72.3073H71.8035C74.8512 72.3073 77.1856 74.7042 77.1856 77.6842V78.5263C77.1856 81.0528 81.4006 81.312 81.4006 78.6559V75.6759C81.4006 71.4651 77.8341 67.9021 73.6191 67.9021L73.5543 67.9669L73.684 67.9021Z" fill="white"/>
</mask>
<g mask="url(#mask0_78_4669)">
<path d="M96.1208 88.3731H95.5372V88.697L95.8614 88.8265L96.1208 88.3083V88.3731ZM87.6908 38.5557H88.2745V38.4909L87.6908 38.5557ZM32.3128 25.081V24.498H32.2479H32.1831L32.2479 25.081H32.3128ZM23.2344 62.3307L23.7532 62.525L23.2344 62.3955V62.3307ZM26.1524 107.549H25.5688V108.132H26.1524V107.549ZM33.9339 42.2483V41.6652H33.48L33.3503 42.1187L33.9339 42.2483ZM34.6472 37.9079V37.3248H34.0636V37.9079H34.6472ZM34.6472 29.6158V29.0327H34.0636V29.6158H34.6472ZM83.4759 29.6158H84.0595V29.0327H83.4759V29.6158ZM83.4759 39.3978H82.8923L83.4759 39.3331V39.3978ZM90.4144 61.8124L90.9331 61.6829L90.4144 61.8772V61.8124ZM96.3153 88.3731H96.8989V88.0492L96.5747 87.9196L96.3153 88.4379V88.3731ZM73.8139 67.8372V68.4202H74.0733L74.2678 68.2259L73.8788 67.8372H73.8139ZM73.8139 67.7724V67.1893H73.5545L73.36 67.3837L73.7491 67.7724H73.8139ZM96.8341 88.3083V68.2906H95.6669V88.3083H96.8341ZM96.8341 68.2906C96.8341 66.412 96.3802 64.2094 95.7317 62.0716C95.1481 59.9338 94.3699 57.7312 93.7863 55.982L92.684 56.3707C93.2676 58.1846 94.0457 60.2577 94.6293 62.3955C95.2129 64.5333 95.6669 66.6063 95.6669 68.2906H96.8341ZM93.7863 55.9173C93.4621 55.0103 92.1003 50.929 90.8034 46.9126C90.155 44.9043 89.5714 42.8961 89.1175 41.3413C88.9229 40.5639 88.7284 39.8513 88.5987 39.3331C88.5338 39.0739 88.469 38.8796 88.469 38.6852C88.469 38.6205 88.469 38.5557 88.4042 38.4909V38.4261H87.2369C87.2369 38.5557 87.2369 38.75 87.3018 38.9444C87.3666 39.1387 87.3666 39.3978 87.4315 39.657C87.5612 40.1752 87.7557 40.8878 87.9502 41.6652C88.4042 43.22 88.9878 45.2282 89.6362 47.3013C90.9331 51.3177 92.23 55.4638 92.6191 56.3707L93.7215 55.982L93.7863 55.9173ZM88.4042 38.3613C88.2745 36.0292 88.4042 33.2435 88.4042 30.8466H87.2369C87.2369 33.114 87.0424 36.094 87.2369 38.4909L88.4042 38.4261V38.3613ZM88.4042 30.8466C88.4042 29.0975 88.469 27.8019 88.3393 26.8949C88.2096 25.9232 87.9502 25.2106 87.1721 24.7571C86.783 24.5628 86.3939 24.4332 85.8752 24.4332C85.4213 24.3684 84.8377 24.3684 84.1243 24.3684C83.4759 24.3684 82.6329 24.3684 81.7251 24.4332C80.8172 24.4332 79.7149 24.498 78.5476 24.498V25.664C79.7797 25.664 80.8172 25.664 81.7899 25.5993C82.6977 25.5993 83.4759 25.5345 84.1243 25.5345C84.7728 25.5345 85.2916 25.5345 85.7455 25.5993C86.1346 25.664 86.4588 25.7288 86.5885 25.8584C86.9127 25.988 87.1072 26.3119 87.1721 27.0893C87.3018 27.9314 87.2369 29.1623 87.2369 30.9114H88.4042V30.8466ZM78.5476 24.3684H32.4425V25.5345H78.5476V24.3684ZM32.3776 24.3684C31.5995 24.498 31.0159 24.8219 30.6268 25.3401C30.2377 25.8584 30.0432 26.4414 29.9783 27.0893C29.9135 27.6723 29.9135 28.3849 29.9135 28.9679C29.9135 29.6158 29.9783 30.1988 29.9783 30.717H31.1455C31.1455 30.134 31.0807 29.4862 31.0807 28.9032C31.0807 28.3201 31.0807 27.7371 31.1455 27.2188C31.2104 26.7006 31.3401 26.3119 31.5346 26.0527C31.7292 25.7936 31.9885 25.5993 32.5073 25.5345L32.3776 24.4332V24.3684ZM30.0432 30.6523C30.0432 36.2883 30.1729 37.9726 29.7838 39.9161C29.5893 40.8878 29.265 41.8596 28.7463 43.4143C28.2275 44.9691 27.5142 47.1069 26.4767 50.2164L27.579 50.5404C28.6166 47.4308 29.3299 45.3578 29.8486 43.7382C30.3674 42.1835 30.6916 41.0822 30.8862 40.0457C31.2752 37.9726 31.1455 36.094 31.1455 30.5875H29.9783L30.0432 30.6523ZM26.5415 50.2164C25.1798 54.1034 24.0125 57.9903 22.8453 62.0716L23.9477 62.3955C25.1149 58.3142 26.347 54.4921 27.6439 50.6051L26.5415 50.2164ZM22.8453 62.0716C22.4562 63.3672 22.132 64.2741 21.9375 65.1811C21.7429 66.1528 21.6781 67.1246 21.6781 68.6145H22.8453C22.8453 67.1246 22.9102 66.2176 23.1047 65.3754C23.2992 64.5333 23.5586 63.6911 24.0125 62.3307L22.9102 62.0068L22.8453 62.0716ZM21.6781 68.6793V107.16H22.8453V68.6793H21.6781ZM21.6781 107.16C21.6781 107.872 21.6781 108.585 21.6781 109.168C21.7429 109.751 21.8078 110.334 22.0672 110.788C22.3266 111.306 22.7156 111.695 23.2992 111.889C23.8828 112.148 24.5313 112.213 25.4391 112.213V111.047C24.661 111.047 24.0774 110.982 23.7532 110.788C23.4289 110.658 23.2344 110.464 23.1047 110.205C22.975 109.945 22.9102 109.557 22.8453 108.974C22.7805 108.456 22.8453 107.808 22.8453 107.03H21.6781V107.16ZM27.9681 112.278H31.1455V111.112H27.9681V112.278ZM31.1455 112.278C31.9237 112.278 32.5722 111.954 33.0261 111.435C33.4151 110.917 33.6745 110.269 33.6745 109.622C33.6745 108.974 33.5448 108.326 33.0909 107.808C32.637 107.289 32.0534 106.901 31.2104 106.901V108.067C31.6643 108.067 31.9885 108.261 32.1831 108.52C32.3776 108.779 32.5073 109.168 32.5073 109.622C32.5073 110.075 32.3776 110.464 32.1182 110.723C31.9237 110.982 31.5995 111.176 31.1455 111.176V112.342V112.278ZM31.2104 106.901H26.347V108.067H31.2104V106.901ZM26.9306 107.484C26.7361 101.394 26.9306 95.0456 26.9306 88.9561H25.7634C25.7634 94.9808 25.5688 101.459 25.7634 107.549H26.9306V107.484ZM26.9306 88.9561C26.9306 88.9561 26.9306 88.9561 26.9306 88.8913C26.9306 88.8913 26.9306 88.8913 26.9306 88.8265C26.9306 88.8265 26.9306 88.8265 26.9306 88.7618C26.9306 88.7618 26.9306 88.7618 26.9306 88.697C26.9306 88.697 26.9306 88.697 26.9306 88.6322C26.9306 88.6322 26.9306 88.6322 26.9306 88.5674C26.9306 88.5674 26.9306 88.5674 26.9306 88.5026C26.9306 88.5026 26.9306 88.5026 26.9306 88.4379C26.9306 88.4379 26.9306 88.4379 26.9306 88.3731C26.9306 88.3731 26.9306 88.3731 26.9306 88.3083C26.9306 88.3083 26.9306 88.3083 26.9306 88.2435C26.9306 88.2435 26.9306 88.2435 26.9306 88.1787C26.9306 88.1787 26.9306 88.1787 26.9306 88.1139C26.9306 88.1139 26.9306 88.1139 26.9306 88.0492C26.9306 88.0492 26.9306 88.0492 26.9306 87.9844C26.9306 87.9844 26.9306 87.9844 26.9306 87.9196C26.9306 87.9196 26.9306 87.9196 26.9306 87.8548C26.9306 87.8548 26.9306 87.8548 26.9306 87.79C26.9306 87.79 26.9306 87.79 26.9306 87.7253C26.9306 87.7253 26.9306 87.7253 26.9306 87.6605C26.9306 87.6605 26.9306 87.6605 26.9306 87.5957C26.9306 87.5957 26.9306 87.5957 26.9306 87.5309C26.9306 87.5309 26.9306 87.5309 26.9306 87.4661C26.9306 87.4661 26.9306 87.4661 26.9306 87.4013C26.9306 87.4013 26.9306 87.4013 26.9306 87.3366C26.9306 87.3366 26.9306 87.3366 26.9306 87.2718C26.9306 87.2718 26.9306 87.2718 26.9306 87.207C26.9306 87.207 26.9306 87.207 26.9306 87.1422C26.9306 87.1422 26.9306 87.1422 26.9306 87.0774C26.9306 87.0774 26.9306 87.0774 26.9306 87.0126C26.9306 87.0126 26.9306 87.0126 26.9306 86.9479C26.9306 86.9479 26.9306 86.9479 26.9306 86.8831C26.9306 86.8831 26.9306 86.8831 26.9306 86.8183C26.9306 86.8183 26.9306 86.8183 26.9306 86.7535C26.9306 86.7535 26.9306 86.7535 26.9306 86.6887C26.9306 86.6887 26.9306 86.6887 26.9306 86.624C26.9306 86.624 26.9306 86.624 26.9306 86.5592C26.9306 86.5592 26.9306 86.5592 26.9306 86.4944C26.9306 86.4944 26.9306 86.4944 26.9306 86.4296C26.9306 86.4296 26.9306 86.4296 26.9306 86.3648C26.9306 86.3648 26.9306 86.3648 26.9306 86.3C26.9306 86.3 26.9306 86.3 26.9306 86.2353C26.9306 86.2353 26.9306 86.2353 26.9306 86.1705C26.9306 86.1705 26.9306 86.1705 26.9306 86.1057C26.9306 86.1057 26.9306 86.1057 26.9306 86.0409C26.9306 86.0409 26.9306 86.0409 26.9306 85.9761C26.9306 85.9761 26.9306 85.9761 26.9306 85.9114C26.9306 85.9114 26.9306 85.9114 26.9306 85.8466C26.9306 85.8466 26.9306 85.8466 26.9306 85.7818C26.9306 85.7818 26.9306 85.7818 26.9306 85.717C26.9306 85.717 26.9306 85.717 26.9306 85.6522C26.9306 85.6522 26.9306 85.6522 26.9306 85.5874C26.9306 85.5874 26.9306 85.5874 26.9306 85.5227C26.9306 85.5227 26.9306 85.5227 26.9306 85.4579C26.9306 85.4579 26.9306 85.4579 26.9306 85.3931C26.9306 85.3931 26.9306 85.3931 26.9306 85.3283C26.9306 85.3283 26.9306 85.3283 26.9306 85.2635C26.9306 85.2635 26.9306 85.2635 26.9306 85.1987C26.9306 85.1987 26.9306 85.1987 26.9306 85.134C26.9306 85.134 26.9306 85.134 26.9306 85.0692C26.9306 85.0692 26.9306 85.0692 26.9306 85.0044C26.9306 85.0044 26.9306 85.0044 26.9306 84.9396C26.9306 84.9396 26.9306 84.9396 26.9306 84.8748C26.9306 84.8748 26.9306 84.8748 26.9306 84.8101C26.9306 84.8101 26.9306 84.8101 26.9306 84.7453C26.9306 84.7453 26.9306 84.7453 26.9306 84.6805C26.9306 84.6805 26.9306 84.6805 26.9306 84.6157C26.9306 84.6157 26.9306 84.6157 26.9306 84.5509C26.9306 84.5509 26.9306 84.5509 26.9306 84.4861C26.9306 84.4861 26.9306 84.4861 26.9306 84.4214C26.9306 84.4214 26.9306 84.4214 26.9306 84.3566C26.9306 84.3566 26.9306 84.3566 26.9306 84.2918C26.9306 84.2918 26.9306 84.2918 26.9306 84.227C26.9306 84.227 26.9306 84.227 26.9306 84.1622C26.9306 84.1622 26.9306 84.1622 26.9306 84.0975C26.9306 84.0975 26.9306 84.0975 26.9306 84.0327C26.9306 84.0327 26.9306 84.0327 26.9306 83.9679C26.9306 83.9679 26.9306 83.9679 26.9306 83.9031C26.9306 83.9031 26.9306 83.9031 26.9306 83.8383C26.9306 83.8383 26.9306 83.8383 26.9306 83.7735C26.9306 83.7735 26.9306 83.7735 26.9306 83.7088C26.9306 83.7088 26.9306 83.7088 26.9306 83.644C26.9306 83.644 26.9306 83.644 26.9306 83.5792C26.9306 83.5792 26.9306 83.5792 26.9306 83.5144C26.9306 83.5144 26.9306 83.5144 26.9306 83.4496C26.9306 83.4496 26.9306 83.4496 26.9306 83.3849C26.9306 83.3849 26.9306 83.3849 26.9306 83.3201C26.9306 83.3201 26.9306 83.3201 26.9306 83.2553C26.9306 83.2553 26.9306 83.2553 26.9306 83.1905C26.9306 83.1905 26.9306 83.1905 26.9306 83.1257C26.9306 83.1257 26.9306 83.1257 26.9306 83.0609C26.9306 83.0609 26.9306 83.0609 26.9306 82.9962C26.9306 82.9962 26.9306 82.9962 26.9306 82.9314C26.9306 82.9314 26.9306 82.9314 26.9306 82.8666C26.9306 82.8666 26.9306 82.8666 26.9306 82.8018C26.9306 82.8018 26.9306 82.8018 26.9306 82.737C26.9306 82.737 26.9306 82.737 26.9306 82.6722C26.9306 82.6722 26.9306 82.6722 26.9306 82.6075C26.9306 82.6075 26.9306 82.6075 26.9306 82.5427C26.9306 82.5427 26.9306 82.5427 26.9306 82.4779C26.9306 82.4779 26.9306 82.4779 26.9306 82.4131C26.9306 82.4131 26.9306 82.4131 26.9306 82.3483C26.9306 82.3483 26.9306 82.3483 26.9306 82.2836C26.9306 82.2836 26.9306 82.2836 26.9306 82.2188C26.9306 82.2188 26.9306 82.2188 26.9306 82.154C26.9306 82.154 26.9306 82.154 26.9306 82.0892C26.9306 82.0892 26.9306 82.0892 26.9306 82.0244C26.9306 82.0244 26.9306 82.0244 26.9306 81.9596C26.9306 81.9596 26.9306 81.9596 26.9306 81.8949C26.9306 81.8949 26.9306 81.8949 26.9306 81.8301C26.9306 81.8301 26.9306 81.8301 26.9306 81.7653C26.9306 81.7653 26.9306 81.7653 26.9306 81.7005C26.9306 81.7005 26.9306 81.7005 26.9306 81.6357C26.9306 81.6357 26.9306 81.6357 26.9306 81.571C26.9306 81.571 26.9306 81.571 26.9306 81.5062C26.9306 81.5062 26.9306 81.5062 26.9306 81.4414C26.9306 81.4414 26.9306 81.4414 26.9306 81.3766C26.9306 81.3766 26.9306 81.3766 26.9306 81.3118C26.9306 81.3118 26.9306 81.3118 26.9306 81.247C26.9306 81.247 26.9306 81.247 26.9306 81.1823C26.9306 81.1823 26.9306 81.1823 26.9306 81.1175C26.9306 81.1175 26.9306 81.1175 26.9306 81.0527C26.9306 81.0527 26.9306 81.0527 26.9306 80.9879C26.9306 80.9879 26.9306 80.9879 26.9306 80.9231C26.9306 80.9231 26.9306 80.9231 26.9306 80.8584C26.9306 80.8584 26.9306 80.8584 26.9306 80.7936C26.9306 80.7936 26.9306 80.7936 26.9306 80.7288C26.9306 80.7288 26.9306 80.7288 26.9306 80.664C26.9306 80.664 26.9306 80.664 26.9306 80.5992C26.9306 80.5992 26.9306 80.5992 26.9306 80.5344C26.9306 80.5344 26.9306 80.5344 26.9306 80.4697C26.9306 80.4697 26.9306 80.4697 26.9306 80.4049C26.9306 80.4049 26.9306 80.4049 26.9306 80.3401C26.9306 80.3401 26.9306 80.3401 26.9306 80.2753C26.9306 80.2753 26.9306 80.2753 26.9306 80.2105C26.9306 80.2105 26.9306 80.2105 26.9306 80.1457C26.9306 80.1457 26.9306 80.1457 26.9306 80.081C26.9306 80.081 26.9306 80.081 26.9306 80.0162C26.9306 80.0162 26.9306 80.0162 26.9306 79.9514C26.9306 79.9514 26.9306 79.9514 26.9306 79.8866C26.9306 79.8866 26.9306 79.8866 26.9306 79.8218C26.9306 79.8218 26.9306 79.8218 26.9306 79.7571C26.9306 79.7571 26.9306 79.7571 26.9306 79.6923C26.9306 79.6923 26.9306 79.6923 26.9306 79.6275C26.9306 79.6275 26.9306 79.6275 26.9306 79.5627C26.9306 79.5627 26.9306 79.5627 26.9306 79.4979C26.9306 79.4979 26.9306 79.4979 26.9306 79.4331C26.9306 79.4331 26.9306 79.4331 26.9306 79.3684C26.9306 79.3684 26.9306 79.3684 26.9306 79.3036C26.9306 79.3036 26.9306 79.3036 26.9306 79.2388C26.9306 79.2388 26.9306 79.2388 26.9306 79.174C26.9306 79.174 26.9306 79.174 26.9306 79.1092C26.9306 79.1092 26.9306 79.1092 26.9306 79.0445C26.9306 79.0445 26.9306 79.0445 26.9306 78.9797C26.9306 78.9797 26.9306 78.9797 26.9306 78.9149C26.9306 78.9149 26.9306 78.9149 26.9306 78.8501C26.9306 78.8501 26.9306 78.8501 26.9306 78.7853C26.9306 78.7853 26.9306 78.7853 26.9306 78.7205C26.9306 78.7205 26.9306 78.7205 26.9306 78.6558C26.9306 78.6558 26.9306 78.6558 26.9306 78.591C26.9306 78.591 26.9306 78.591 26.9306 78.5262C26.9306 78.5262 26.9306 78.5262 26.9306 78.4614C26.9306 78.4614 26.9306 78.4614 26.9306 78.3966C26.9306 78.3966 26.9306 78.3966 26.9306 78.3319C26.9306 78.3319 26.9306 78.3319 26.9306 78.2671C26.9306 78.2671 26.9306 78.2671 26.9306 78.2023C26.9306 78.2023 26.9306 78.2023 26.9306 78.1375C26.9306 78.1375 26.9306 78.1375 26.9306 78.0727C26.9306 78.0727 26.9306 78.0727 26.9306 78.0079C26.9306 78.0079 26.9306 78.0079 26.9306 77.9432C26.9306 77.9432 26.9306 77.9432 26.9306 77.8784C26.9306 77.8784 26.9306 77.8784 26.9306 77.8136C26.9306 77.8136 26.9306 77.8136 26.9306 77.7488C26.9306 77.7488 26.9306 77.7488 26.9306 77.684C26.9306 77.684 26.9306 77.684 26.9306 77.6193C26.9306 77.6193 26.9306 77.6193 26.9306 77.5545C26.9306 77.5545 26.9306 77.5545 26.9306 77.4897C26.9306 77.4897 26.9306 77.4897 26.9306 77.4249C26.9306 77.4249 26.9306 77.4249 26.9306 77.3601C26.9306 77.3601 26.9306 77.3601 26.9306 77.2953C26.9306 77.2953 26.9306 77.2953 26.9306 77.2306C26.9306 77.2306 26.9306 77.2306 26.9306 77.1658C26.9306 77.1658 26.9306 77.1658 26.9306 77.101C26.9306 77.101 26.9306 77.101 26.9306 77.0362C26.9306 77.0362 26.9306 77.0362 26.9306 76.9714C26.9306 76.9714 26.9306 76.9714 26.9306 76.9066C26.9306 76.9066 26.9306 76.9066 26.9306 76.8419C26.9306 76.8419 26.9306 76.8419 26.9306 76.7771C26.9306 76.7771 26.9306 76.7771 26.9306 76.7123C26.9306 76.7123 26.9306 76.7123 26.9306 76.6475C26.9306 76.6475 26.9306 76.6475 26.9306 76.5827C26.9306 76.5827 26.9306 76.5827 26.9306 76.518C26.9306 76.518 26.9306 76.518 26.9306 76.4532C26.9306 76.4532 26.9306 76.4532 26.9306 76.3884C26.9306 76.3884 26.9306 76.3884 26.9306 76.3236C26.9306 76.3236 26.9306 76.3236 26.9306 76.2588C26.9306 76.2588 26.9306 76.2588 26.9306 76.194C26.9306 76.194 26.9306 76.194 26.9306 76.1293C26.9306 76.1293 26.9306 76.1293 26.9306 76.0645C26.9306 76.0645 26.9306 76.0645 26.9306 75.9997C26.9306 75.9997 26.9306 75.9997 26.9306 75.9349C26.9306 75.9349 26.9306 75.9349 26.9306 75.8701C26.9306 75.8701 26.9306 75.8701 26.9306 75.8054C26.9306 75.8054 26.9306 75.8054 26.9306 75.7406C26.9306 75.7406 26.9306 75.7406 26.9306 75.6758C26.9306 75.6758 26.9306 75.6758 26.9306 75.611C26.9306 75.611 26.9306 75.611 26.9306 75.5462C26.9306 75.5462 26.9306 75.5462 26.9306 75.4814C26.9306 75.4814 26.9306 75.4814 26.9306 75.4167C26.9306 75.4167 26.9306 75.4167 26.9306 75.3519C26.9306 75.3519 26.9306 75.3519 26.9306 75.2871C26.9306 75.2871 26.9306 75.2871 26.9306 75.2223C26.9306 75.2223 26.9306 75.2223 26.9306 75.1575C26.9306 75.1575 26.9306 75.1575 26.9306 75.0928C26.9306 75.0928 26.9306 75.0928 26.9306 75.028C26.9306 75.028 26.9306 75.028 26.9306 74.9632C26.9306 74.9632 26.9306 74.9632 26.9306 74.8984C26.9306 74.8984 26.9306 74.8984 26.9306 74.8336C26.9306 74.8336 26.9306 74.8336 26.9306 74.7688C26.9306 74.7688 26.9306 74.7688 26.9306 74.7041C26.9306 74.7041 26.9306 74.7041 26.9306 74.6393C26.9306 74.6393 26.9306 74.6393 26.9306 74.5745C26.9306 74.5745 26.9306 74.5745 26.9306 74.5097C26.9306 74.5097 26.9306 74.5097 26.9306 74.4449C26.9306 74.4449 26.9306 74.4449 26.9306 74.3801C26.9306 74.3801 26.9306 74.3801 26.9306 74.3154C26.9306 74.3154 26.9306 74.3154 26.9306 74.2506C26.9306 74.2506 26.9306 74.2506 26.9306 74.1858C26.9306 74.1858 26.9306 74.1858 26.9306 74.121C26.9306 74.121 26.9306 74.121 26.9306 74.0562C26.9306 74.0562 26.9306 74.0562 26.9306 73.9915C26.9306 73.9915 26.9306 73.9915 26.9306 73.9267C26.9306 73.9267 26.9306 73.9267 26.9306 73.8619C26.9306 73.8619 26.9306 73.8619 26.9306 73.7971C26.9306 73.7971 26.9306 73.7971 26.9306 73.7323C26.9306 73.7323 26.9306 73.7323 26.9306 73.6675C26.9306 73.6675 26.9306 73.6675 26.9306 73.6028C26.9306 73.6028 26.9306 73.6028 26.9306 73.538C26.9306 73.538 26.9306 73.538 26.9306 73.4732C26.9306 73.4732 26.9306 73.4732 26.9306 73.4084C26.9306 73.4084 26.9306 73.4084 26.9306 73.3436C26.9306 73.3436 26.9306 73.3436 26.9306 73.2789C26.9306 73.2789 26.9306 73.2789 26.9306 73.2141C26.9306 73.2141 26.9306 73.2141 26.9306 73.1493C26.9306 73.1493 26.9306 73.1493 26.9306 73.0845C26.9306 73.0845 26.9306 73.0845 26.9306 73.0197C26.9306 73.0197 26.9306 73.0197 26.9306 72.9549C26.9306 72.9549 26.9306 72.9549 26.9306 72.8902C26.9306 72.8902 26.9306 72.8902 26.9306 72.8254C26.9306 72.8254 26.9306 72.8254 26.9306 72.7606C26.9306 72.7606 26.9306 72.7606 26.9306 72.6958C26.9306 72.6958 26.9306 72.6958 26.9306 72.631C26.9306 72.631 26.9306 72.631 26.9306 72.5662C26.9306 72.5662 26.9306 72.5662 26.9306 72.5015C26.9306 72.5015 26.9306 72.5015 26.9306 72.4367C26.9306 72.4367 26.9306 72.4367 26.9306 72.3719C26.9306 72.3719 26.9306 72.3719 26.9306 72.3071C26.9306 72.3071 26.9306 72.3071 26.9306 72.2423C26.9306 72.2423 26.9306 72.2423 26.9306 72.1776C26.9306 72.1776 26.9306 72.1776 26.9306 72.1128C26.9306 72.1128 26.9306 72.1128 26.9306 72.048C26.9306 72.048 26.9306 72.048 26.9306 71.9832C26.9306 71.9832 26.9306 71.9832 26.9306 71.9184C26.9306 71.9184 26.9306 71.9184 26.9306 71.8536C26.9306 71.8536 26.9306 71.8536 26.9306 71.7889C26.9306 71.7889 26.9306 71.7889 26.9306 71.7241C26.9306 71.7241 26.9306 71.7241 26.9306 71.6593C26.9306 71.6593 26.9306 71.6593 26.9306 71.5945C26.9306 71.5945 26.9306 71.5945 26.9306 71.5297C26.9306 71.5297 26.9306 71.5297 26.9306 71.465C26.9306 71.465 26.9306 71.465 26.9306 71.4002C26.9306 71.4002 26.9306 71.4002 26.9306 71.3354C26.9306 71.3354 26.9306 71.3354 26.9306 71.2706C26.9306 71.2706 26.9306 71.2706 26.9306 71.2058C26.9306 71.2058 26.9306 71.2058 26.9306 71.141C26.9306 71.141 26.9306 71.141 26.9306 71.0763C26.9306 71.0763 26.9306 71.0763 26.9306 71.0115C26.9306 71.0115 26.9306 71.0115 26.9306 70.9467C26.9306 70.9467 26.9306 70.9467 26.9306 70.8819C26.9306 70.8819 26.9306 70.8819 26.9306 70.8171C26.9306 70.8171 26.9306 70.8171 26.9306 70.7524C26.9306 70.7524 26.9306 70.7524 26.9306 70.6876C26.9306 70.6876 26.9306 70.6876 26.9306 70.6228C26.9306 70.6228 26.9306 70.6228 26.9306 70.558C26.9306 70.558 26.9306 70.558 26.9306 70.4932C26.9306 70.4932 26.9306 70.4932 26.9306 70.4284C26.9306 70.4284 26.9306 70.4284 26.9306 70.3637C26.9306 70.3637 26.9306 70.3637 26.9306 70.2989C26.9306 70.2989 26.9306 70.2989 26.9306 70.2341C26.9306 70.2341 26.9306 70.2341 26.9306 70.1693C26.9306 70.1693 26.9306 70.1693 26.9306 70.1045C26.9306 70.1045 26.9306 70.1045 26.9306 70.0397C26.9306 70.0397 26.9306 70.0397 26.9306 69.975C26.9306 69.975 26.9306 69.975 26.9306 69.9102C26.9306 69.9102 26.9306 69.9102 26.9306 69.8454C26.9306 69.8454 26.9306 69.8454 26.9306 69.7806C26.9306 69.7806 26.9306 69.7806 26.9306 69.7158C26.9306 69.7158 26.9306 69.7158 26.9306 69.6511C26.9306 69.6511 26.9306 69.6511 26.9306 69.5863C26.9306 69.5863 26.9306 69.5863 26.9306 69.5215C26.9306 69.5215 26.9306 69.5215 26.9306 69.4567C26.9306 69.4567 26.9306 69.4567 26.9306 69.3919C26.9306 69.3919 26.9306 69.3919 26.9306 69.3271C26.9306 69.3271 26.9306 69.3271 26.9306 69.2624C26.9306 69.2624 26.9306 69.2624 26.9306 69.1976C26.9306 69.1976 26.9306 69.1976 26.9306 69.1328C26.9306 69.1328 26.9306 69.1328 26.9306 69.068C26.9306 69.068 26.9306 69.068 26.9306 69.0032C26.9306 69.0032 26.9306 69.0032 26.9306 68.9385C26.9306 68.9385 26.9306 68.9385 26.9306 68.8737C26.9306 68.8737 26.9306 68.8737 26.9306 68.8089C26.9306 68.8089 26.9306 68.8089 26.9306 68.7441C26.9306 68.7441 26.9306 68.7441 26.9306 68.6793C26.9306 68.6793 26.9306 68.6793 26.9306 68.6145C26.9306 68.6145 26.9306 68.6145 26.9306 68.5498C26.9306 68.5498 26.9306 68.5498 26.9306 68.485C26.9306 68.485 26.9306 68.485 26.9306 68.4202C26.9306 68.4202 26.9306 68.4202 26.9306 68.3554C26.9306 68.3554 26.9306 68.3554 26.9306 68.2906C26.9306 68.2906 26.9306 68.2906 26.9306 68.2259C26.9306 68.2259 26.9306 68.2259 26.9306 68.1611C26.9306 68.1611 26.9306 68.1611 26.9306 68.0963C26.9306 68.0963 26.9306 68.0963 26.9306 68.0315C26.9306 68.0315 26.9306 68.0315 26.9306 67.9667C26.9306 67.9667 26.9306 67.9667 26.9306 67.9019C26.9306 67.9019 26.9306 67.9019 26.9306 67.8372C26.9306 67.8372 26.9306 67.8372 26.9306 67.7724C26.9306 67.7724 26.9306 67.7724 26.9306 67.7076C26.9306 67.7076 26.9306 67.7076 26.9306 67.6428C26.9306 67.6428 26.9306 67.6428 26.9306 67.578C26.9306 67.578 26.9306 67.578 26.9306 67.5133C26.9306 67.5133 26.9306 67.5133 26.9306 67.4485C26.9306 67.4485 26.9306 67.4485 26.9306 67.3837C26.9306 67.3837 26.9306 67.3837 26.9306 67.3189C26.9306 67.3189 26.9306 67.3189 26.9306 67.2541C26.9306 67.2541 26.9306 67.2541 26.9306 67.1893C26.9306 67.1893 26.9306 67.1893 26.9306 67.1246C26.9306 67.1246 26.9306 67.1246 26.9306 67.0598C26.9306 67.0598 26.9306 67.0598 26.9306 66.995C26.9306 66.995 26.9306 66.995 26.9306 66.9302C26.9306 66.9302 26.9306 66.9302 26.9306 66.8654C26.9306 66.8654 26.9306 66.8654 26.9306 66.8006C26.9306 66.8006 26.9306 66.8006 26.9306 66.7359C26.9306 66.7359 26.9306 66.7359 26.9306 66.6711C26.9306 66.6711 26.9306 66.6711 26.9306 66.6063C26.9306 66.6063 26.9306 66.6063 26.9306 66.5415C26.9306 66.5415 26.9306 66.5415 26.9306 66.4767C26.9306 66.4767 26.9306 66.4767 26.9306 66.412C26.9306 66.412 26.9306 66.412 26.9306 66.3472C26.9306 66.3472 26.9306 66.3472 26.9306 66.2824C26.9306 66.2824 26.9306 66.2824 26.9306 66.2176C26.9306 66.2176 26.9306 66.2176 26.9306 66.1528C26.9306 66.1528 26.9306 66.1528 26.9306 66.088C26.9306 66.088 26.9306 66.088 26.9306 66.0233C26.9306 66.0233 26.9306 66.0233 26.9306 65.9585C26.9306 65.9585 26.9306 65.9585 26.9306 65.8937C26.9306 65.8937 26.9306 65.8937 26.9306 65.8289C26.9306 65.8289 26.9306 65.8289 26.9306 65.7641C26.9306 65.7641 26.9306 65.7641 26.9306 65.6994C26.9306 65.6994 26.9306 65.6994 26.9306 65.6346C26.9306 65.6346 26.9306 65.6346 26.9306 65.5698C26.9306 65.5698 26.9306 65.5698 26.9306 65.505C26.9306 65.505 26.9306 65.505 26.9306 65.4402C26.9306 65.4402 26.9306 65.4402 26.9306 65.3754C26.9306 65.3754 26.9306 65.3754 26.9306 65.3107C26.9306 65.3107 26.9306 65.3107 26.9306 65.2459C26.9306 65.2459 26.9306 65.2459 26.9306 65.1811C26.9306 65.1811 26.9306 65.1811 26.9306 65.1163C26.9306 65.1163 26.9306 65.1163 26.9306 65.0515C26.9306 65.0515 26.9306 65.0515 26.9306 64.9868C26.9306 64.9868 26.9306 64.9868 26.9306 64.922C26.9306 64.922 26.9306 64.922 26.9306 64.8572C26.9306 64.8572 26.9306 64.8572 26.9306 64.7924C26.9306 64.7924 26.9306 64.7924 26.9306 64.7276C26.9306 64.7276 26.9306 64.7276 26.9306 64.6628C26.9306 64.6628 26.9306 64.6628 26.9306 64.5981C26.9306 64.5981 26.9306 64.5981 26.9306 64.5333C26.9306 64.5333 26.9306 64.5333 26.9306 64.4685C26.9306 64.4685 26.9306 64.4685 26.9306 64.4037C26.9306 64.4037 26.9306 64.4037 26.9306 64.3389C26.9306 64.3389 26.9306 64.3389 26.9306 64.2741C26.9306 64.2741 26.9306 64.2741 26.9306 64.2094C26.9306 64.2094 26.9306 64.2094 26.9306 64.1446C26.9306 64.1446 26.9306 64.1446 26.9306 64.0798C26.9306 64.0798 26.9306 64.0798 26.9306 64.015C26.9306 64.015 26.9306 64.015 26.9306 63.9502C26.9306 63.9502 26.9306 63.9502 26.9306 63.8855C26.9306 63.8855 26.9306 63.8855 26.9306 63.8207C26.9306 63.8207 26.9306 63.8207 26.9306 63.7559C26.9306 63.7559 26.9306 63.7559 26.9306 63.6911C26.9306 63.6911 26.9306 63.6911 26.9306 63.6263C26.9306 63.6263 26.9306 63.6263 26.9306 63.5615C26.9306 63.5615 26.9306 63.5615 26.9306 63.4968C26.9306 63.4968 26.9306 63.4968 26.9306 63.432C26.9306 63.432 26.9306 63.432 26.9306 63.3672C26.9306 63.3672 26.9306 63.3672 26.9306 63.3024C26.9306 63.3024 26.9306 63.3024 26.9306 63.2376C26.9306 63.2376 26.9306 63.2376 26.9306 63.1729C26.9306 63.1729 26.9306 63.1729 26.9306 63.1081C26.9306 63.1081 26.9306 63.1081 26.9306 63.0433C26.9306 63.0433 26.9306 63.0433 26.9306 62.9785C26.9306 62.9785 26.9306 62.9785 26.9306 62.9137C26.9306 62.9137 26.9306 62.9137 26.9306 62.8489C26.9306 62.8489 26.9306 62.8489 26.9306 62.7842C26.9306 62.7842 26.9306 62.7842 26.9306 62.7194C26.9306 62.7194 26.9306 62.7194 26.9306 62.6546C26.9306 62.6546 26.9306 62.6546 26.9306 62.5898C26.9306 62.5898 26.9306 62.5898 26.9306 62.525C26.9306 62.525 26.9306 62.525 26.9306 62.4603C26.9306 62.4603 26.9306 62.4603 26.9306 62.3955C26.9306 62.3955 26.9306 62.3955 26.9306 62.3307C26.9306 62.3307 26.9306 62.3307 26.9306 62.2659C26.9306 62.2659 26.9306 62.2659 26.9306 62.2011C26.9306 62.2011 26.9306 62.2011 26.9306 62.1363C26.9306 62.1363 26.9306 62.1363 26.9306 62.0716C26.9306 62.0716 26.9306 62.0716 26.9306 62.0068C26.9306 62.0068 26.9306 62.0068 26.9306 61.942C26.9306 61.942 26.9306 61.942 26.9306 61.8772C26.9306 61.8772 26.9306 61.8772 26.9306 61.8124C26.9306 61.8124 26.9306 61.8124 26.9306 61.7477C26.9306 61.7477 26.9306 61.7477 26.9306 61.6829C26.9306 61.6829 26.9306 61.6829 26.9306 61.6181C26.9306 61.6181 26.9306 61.6181 26.9306 61.5533C26.9306 61.5533 26.9306 61.5533 26.9306 61.4885C26.9306 61.4885 26.9306 61.4885 26.9306 61.4237C26.9306 61.4237 26.9306 61.4237 26.9306 61.359C26.9306 61.359 26.9306 61.359 26.9306 61.2942C26.9306 61.2942 26.9306 61.2942 26.9306 61.2294C26.9306 61.2294 26.9306 61.2294 26.9306 61.1646C26.9306 61.1646 26.9306 61.1646 26.9306 61.0998C26.9306 61.0998 26.9306 61.0998 26.9306 61.035C26.9306 61.035 26.9306 61.035 26.9306 60.9703C26.9306 60.9703 26.9306 60.9703 26.9306 60.9055C26.9306 60.9055 26.9306 60.9055 26.9306 60.8407C26.9306 60.8407 26.9306 60.8407 26.9306 60.7759C26.9306 60.7759 26.9306 60.7759 26.9306 60.7111C26.9306 60.7111 26.9306 60.7111 26.9306 60.6464C26.9306 60.6464 26.9306 60.6464 26.9306 60.5816C26.9306 60.5816 26.9306 60.5816 26.9306 60.5168C26.9306 60.5168 26.9306 60.5168 26.9306 60.452C26.9306 60.452 26.9306 60.452 26.9306 60.3872C26.9306 60.3872 26.9306 60.3872 26.9306 60.3224C26.9306 60.3224 26.9306 60.3224 26.9306 60.2577C26.9306 60.2577 26.9306 60.2577 26.9306 60.1929C26.9306 60.1929 26.9306 60.1929 26.9306 60.1281C26.9306 60.1281 26.9306 60.1281 26.9306 60.0633C26.9306 60.0633 26.9306 60.0633 26.9306 59.9985C26.9306 59.9985 26.9306 59.9985 26.9306 59.9338C26.9306 59.9338 26.9306 59.9338 26.9306 59.869C26.9306 59.869 26.9306 59.869 26.9306 59.8042C26.9306 59.8042 26.9306 59.8042 26.9306 59.7394C26.9306 59.7394 26.9306 59.7394 26.9306 59.6746C26.9306 59.6746 26.9306 59.6746 26.9306 59.6098C26.9306 59.6098 26.9306 59.6098 26.9306 59.5451C26.9306 59.5451 26.9306 59.5451 26.9306 59.4803C26.9306 59.4803 26.9306 59.4803 26.9306 59.4155C26.9306 59.4155 26.9306 59.4155 26.9306 59.3507C26.9306 59.3507 26.9306 59.3507 26.9306 59.2859C26.9306 59.2859 26.9306 59.2859 26.9306 59.2211C26.9306 59.2211 26.9306 59.2211 26.9306 59.1564C26.9306 59.1564 26.9306 59.1564 26.9306 59.0916C26.9306 59.0916 26.9306 59.0916 26.9306 59.0268C26.9306 59.0268 26.9306 59.0268 26.9306 58.962C26.9306 58.962 26.9306 58.962 26.9306 58.8972C26.9306 58.8972 26.9306 58.8972 26.9306 58.8325C26.9306 58.8325 26.9306 58.8325 26.9306 58.7677C26.9306 58.7677 26.9306 58.7677 26.9306 58.7029C26.9306 58.7029 26.9306 58.7029 26.9306 58.6381C26.9306 58.6381 26.9306 58.6381 26.9306 58.5733C26.9306 58.5733 26.9306 58.5733 26.9306 58.5085C26.9306 58.5085 26.9306 58.5085 26.9306 58.4438C26.9306 58.4438 26.9306 58.4438 26.9306 58.379C26.9306 58.379 26.9306 58.379 26.9306 58.3142C26.9306 58.3142 26.9306 58.3142 26.9306 58.2494C26.9306 58.2494 26.9306 58.2494 26.9306 58.1846C26.9306 58.1846 26.9306 58.1846 26.9306 58.1199C26.9306 58.1199 26.9306 58.1199 26.9306 58.0551C26.9306 58.0551 26.9306 58.0551 26.9306 57.9903C26.9306 57.9903 26.9306 57.9903 26.9306 57.9255C26.9306 57.9255 26.9306 57.9255 26.9306 57.8607C26.9306 57.8607 26.9306 57.8607 26.9306 57.7959C26.9306 57.7959 26.9306 57.7959 26.9306 57.7312C26.9306 57.7312 26.9306 57.7312 26.9306 57.6664C26.9306 57.6664 26.9306 57.6664 26.9306 57.6016C26.9306 57.6016 26.9306 57.6016 26.9306 57.5368C26.9306 57.5368 26.9306 57.5368 26.9306 57.472C26.9306 57.472 26.9306 57.472 26.9306 57.4073C26.9306 57.4073 26.9306 57.4073 26.9306 57.3425C26.9306 57.3425 26.9306 57.3425 26.9306 57.2777C26.9306 57.2777 26.9306 57.2777 26.9306 57.2129C26.9306 57.2129 26.9306 57.2129 26.9306 57.1481C26.9306 57.1481 26.9306 57.1481 26.9306 57.0833C26.9306 57.0833 26.9306 57.0833 26.9306 57.0186C26.9306 57.0186 26.9306 57.0186 26.9306 56.9538C26.9306 56.9538 26.9306 56.9538 26.9306 56.889C26.9306 56.889 26.9306 56.889 26.9306 56.8242C26.9306 56.8242 26.9306 56.8242 26.9306 56.7594C26.9306 56.7594 26.9306 56.7594 26.9306 56.6946C26.9306 56.6946 26.9306 56.6946 26.9306 56.6299C26.9306 56.6299 26.9306 56.6299 26.9306 56.5651C26.9306 56.5651 26.9306 56.5651 26.9306 56.5003C26.9306 56.5003 26.9306 56.5003 26.9306 56.4355C26.9306 56.4355 26.9306 56.4355 26.9306 56.3707C26.9306 56.3707 26.9306 56.3707 26.9306 56.306C26.9306 56.306 26.9306 56.306 26.9306 56.2412C26.9306 56.2412 26.9306 56.2412 26.9306 56.1764C26.9306 56.1764 26.9306 56.1764 26.9306 56.1116C26.9306 56.1116 26.9306 56.1116 26.9306 56.0468C26.9306 56.0468 26.9306 56.0468 26.9306 55.982C26.9306 55.982 26.9306 55.982 26.9306 55.9173C26.9306 55.9173 26.9306 55.9173 26.9306 55.8525C26.9306 55.8525 26.9306 55.8525 26.9306 55.7877H25.7634C25.7634 55.7877 25.7634 55.7877 25.7634 55.8525C25.7634 55.8525 25.7634 55.8525 25.7634 55.9173C25.7634 55.9173 25.7634 55.9173 25.7634 55.982C25.7634 55.982 25.7634 55.982 25.7634 56.0468C25.7634 56.0468 25.7634 56.0468 25.7634 56.1116C25.7634 56.1116 25.7634 56.1116 25.7634 56.1764C25.7634 56.1764 25.7634 56.1764 25.7634 56.2412C25.7634 56.2412 25.7634 56.2412 25.7634 56.306C25.7634 56.306 25.7634 56.306 25.7634 56.3707C25.7634 56.3707 25.7634 56.3707 25.7634 56.4355C25.7634 56.4355 25.7634 56.4355 25.7634 56.5003C25.7634 56.5003 25.7634 56.5003 25.7634 56.5651C25.7634 56.5651 25.7634 56.5651 25.7634 56.6299C25.7634 56.6299 25.7634 56.6299 25.7634 56.6946C25.7634 56.6946 25.7634 56.6946 25.7634 56.7594C25.7634 56.7594 25.7634 56.7594 25.7634 56.8242C25.7634 56.8242 25.7634 56.8242 25.7634 56.889C25.7634 56.889 25.7634 56.889 25.7634 56.9538C25.7634 56.9538 25.7634 56.9538 25.7634 57.0186C25.7634 57.0186 25.7634 57.0186 25.7634 57.0833C25.7634 57.0833 25.7634 57.0833 25.7634 57.1481C25.7634 57.1481 25.7634 57.1481 25.7634 57.2129C25.7634 57.2129 25.7634 57.2129 25.7634 57.2777C25.7634 57.2777 25.7634 57.2777 25.7634 57.3425C25.7634 57.3425 25.7634 57.3425 25.7634 57.4073C25.7634 57.4073 25.7634 57.4073 25.7634 57.472C25.7634 57.472 25.7634 57.472 25.7634 57.5368C25.7634 57.5368 25.7634 57.5368 25.7634 57.6016C25.7634 57.6016 25.7634 57.6016 25.7634 57.6664C25.7634 57.6664 25.7634 57.6664 25.7634 57.7312C25.7634 57.7312 25.7634 57.7312 25.7634 57.7959C25.7634 57.7959 25.7634 57.7959 25.7634 57.8607C25.7634 57.8607 25.7634 57.8607 25.7634 57.9255C25.7634 57.9255 25.7634 57.9255 25.7634 57.9903C25.7634 57.9903 25.7634 57.9903 25.7634 58.0551C25.7634 58.0551 25.7634 58.0551 25.7634 58.1199C25.7634 58.1199 25.7634 58.1199 25.7634 58.1846C25.7634 58.1846 25.7634 58.1846 25.7634 58.2494C25.7634 58.2494 25.7634 58.2494 25.7634 58.3142C25.7634 58.3142 25.7634 58.3142 25.7634 58.379C25.7634 58.379 25.7634 58.379 25.7634 58.4438C25.7634 58.4438 25.7634 58.4438 25.7634 58.5085C25.7634 58.5085 25.7634 58.5085 25.7634 58.5733C25.7634 58.5733 25.7634 58.5733 25.7634 58.6381C25.7634 58.6381 25.7634 58.6381 25.7634 58.7029C25.7634 58.7029 25.7634 58.7029 25.7634 58.7677C25.7634 58.7677 25.7634 58.7677 25.7634 58.8325C25.7634 58.8325 25.7634 58.8325 25.7634 58.8972C25.7634 58.8972 25.7634 58.8972 25.7634 58.962C25.7634 58.962 25.7634 58.962 25.7634 59.0268C25.7634 59.0268 25.7634 59.0268 25.7634 59.0916C25.7634 59.0916 25.7634 59.0916 25.7634 59.1564C25.7634 59.1564 25.7634 59.1564 25.7634 59.2211C25.7634 59.2211 25.7634 59.2211 25.7634 59.2859C25.7634 59.2859 25.7634 59.2859 25.7634 59.3507C25.7634 59.3507 25.7634 59.3507 25.7634 59.4155C25.7634 59.4155 25.7634 59.4155 25.7634 59.4803C25.7634 59.4803 25.7634 59.4803 25.7634 59.5451C25.7634 59.5451 25.7634 59.5451 25.7634 59.6098C25.7634 59.6098 25.7634 59.6098 25.7634 59.6746C25.7634 59.6746 25.7634 59.6746 25.7634 59.7394C25.7634 59.7394 25.7634 59.7394 25.7634 59.8042C25.7634 59.8042 25.7634 59.8042 25.7634 59.869C25.7634 59.869 25.7634 59.869 25.7634 59.9338C25.7634 59.9338 25.7634 59.9338 25.7634 59.9985C25.7634 59.9985 25.7634 59.9985 25.7634 60.0633C25.7634 60.0633 25.7634 60.0633 25.7634 60.1281C25.7634 60.1281 25.7634 60.1281 25.7634 60.1929C25.7634 60.1929 25.7634 60.1929 25.7634 60.2577C25.7634 60.2577 25.7634 60.2577 25.7634 60.3224C25.7634 60.3224 25.7634 60.3224 25.7634 60.3872C25.7634 60.3872 25.7634 60.3872 25.7634 60.452C25.7634 60.452 25.7634 60.452 25.7634 60.5168C25.7634 60.5168 25.7634 60.5168 25.7634 60.5816C25.7634 60.5816 25.7634 60.5816 25.7634 60.6464C25.7634 60.6464 25.7634 60.6464 25.7634 60.7111C25.7634 60.7111 25.7634 60.7111 25.7634 60.7759C25.7634 60.7759 25.7634 60.7759 25.7634 60.8407C25.7634 60.8407 25.7634 60.8407 25.7634 60.9055C25.7634 60.9055 25.7634 60.9055 25.7634 60.9703C25.7634 60.9703 25.7634 60.9703 25.7634 61.035C25.7634 61.035 25.7634 61.035 25.7634 61.0998C25.7634 61.0998 25.7634 61.0998 25.7634 61.1646C25.7634 61.1646 25.7634 61.1646 25.7634 61.2294C25.7634 61.2294 25.7634 61.2294 25.7634 61.2942C25.7634 61.2942 25.7634 61.2942 25.7634 61.359C25.7634 61.359 25.7634 61.359 25.7634 61.4237C25.7634 61.4237 25.7634 61.4237 25.7634 61.4885C25.7634 61.4885 25.7634 61.4885 25.7634 61.5533C25.7634 61.5533 25.7634 61.5533 25.7634 61.6181C25.7634 61.6181 25.7634 61.6181 25.7634 61.6829C25.7634 61.6829 25.7634 61.6829 25.7634 61.7477C25.7634 61.7477 25.7634 61.7477 25.7634 61.8124C25.7634 61.8124 25.7634 61.8124 25.7634 61.8772C25.7634 61.8772 25.7634 61.8772 25.7634 61.942C25.7634 61.942 25.7634 61.942 25.7634 62.0068C25.7634 62.0068 25.7634 62.0068 25.7634 62.0716C25.7634 62.0716 25.7634 62.0716 25.7634 62.1363C25.7634 62.1363 25.7634 62.1363 25.7634 62.2011C25.7634 62.2011 25.7634 62.2011 25.7634 62.2659C25.7634 62.2659 25.7634 62.2659 25.7634 62.3307C25.7634 62.3307 25.7634 62.3307 25.7634 62.3955C25.7634 62.3955 25.7634 62.3955 25.7634 62.4603C25.7634 62.4603 25.7634 62.4603 25.7634 62.525C25.7634 62.525 25.7634 62.525 25.7634 62.5898C25.7634 62.5898 25.7634 62.5898 25.7634 62.6546C25.7634 62.6546 25.7634 62.6546 25.7634 62.7194C25.7634 62.7194 25.7634 62.7194 25.7634 62.7842C25.7634 62.7842 25.7634 62.7842 25.7634 62.8489C25.7634 62.8489 25.7634 62.8489 25.7634 62.9137C25.7634 62.9137 25.7634 62.9137 25.7634 62.9785C25.7634 62.9785 25.7634 62.9785 25.7634 63.0433C25.7634 63.0433 25.7634 63.0433 25.7634 63.1081C25.7634 63.1081 25.7634 63.1081 25.7634 63.1729C25.7634 63.1729 25.7634 63.1729 25.7634 63.2376C25.7634 63.2376 25.7634 63.2376 25.7634 63.3024C25.7634 63.3024 25.7634 63.3024 25.7634 63.3672C25.7634 63.3672 25.7634 63.3672 25.7634 63.432C25.7634 63.432 25.7634 63.432 25.7634 63.4968C25.7634 63.4968 25.7634 63.4968 25.7634 63.5615C25.7634 63.5615 25.7634 63.5615 25.7634 63.6263C25.7634 63.6263 25.7634 63.6263 25.7634 63.6911C25.7634 63.6911 25.7634 63.6911 25.7634 63.7559C25.7634 63.7559 25.7634 63.7559 25.7634 63.8207C25.7634 63.8207 25.7634 63.8207 25.7634 63.8855C25.7634 63.8855 25.7634 63.8855 25.7634 63.9502C25.7634 63.9502 25.7634 63.9502 25.7634 64.015C25.7634 64.015 25.7634 64.015 25.7634 64.0798C25.7634 64.0798 25.7634 64.0798 25.7634 64.1446C25.7634 64.1446 25.7634 64.1446 25.7634 64.2094C25.7634 64.2094 25.7634 64.2094 25.7634 64.2741C25.7634 64.2741 25.7634 64.2741 25.7634 64.3389C25.7634 64.3389 25.7634 64.3389 25.7634 64.4037C25.7634 64.4037 25.7634 64.4037 25.7634 64.4685C25.7634 64.4685 25.7634 64.4685 25.7634 64.5333C25.7634 64.5333 25.7634 64.5333 25.7634 64.5981C25.7634 64.5981 25.7634 64.5981 25.7634 64.6628C25.7634 64.6628 25.7634 64.6628 25.7634 64.7276C25.7634 64.7276 25.7634 64.7276 25.7634 64.7924C25.7634 64.7924 25.7634 64.7924 25.7634 64.8572C25.7634 64.8572 25.7634 64.8572 25.7634 64.922C25.7634 64.922 25.7634 64.922 25.7634 64.9868C25.7634 64.9868 25.7634 64.9868 25.7634 65.0515C25.7634 65.0515 25.7634 65.0515 25.7634 65.1163C25.7634 65.1163 25.7634 65.1163 25.7634 65.1811C25.7634 65.1811 25.7634 65.1811 25.7634 65.2459C25.7634 65.2459 25.7634 65.2459 25.7634 65.3107C25.7634 65.3107 25.7634 65.3107 25.7634 65.3754C25.7634 65.3754 25.7634 65.3754 25.7634 65.4402C25.7634 65.4402 25.7634 65.4402 25.7634 65.505C25.7634 65.505 25.7634 65.505 25.7634 65.5698C25.7634 65.5698 25.7634 65.5698 25.7634 65.6346C25.7634 65.6346 25.7634 65.6346 25.7634 65.6994C25.7634 65.6994 25.7634 65.6994 25.7634 65.7641C25.7634 65.7641 25.7634 65.7641 25.7634 65.8289C25.7634 65.8289 25.7634 65.8289 25.7634 65.8937C25.7634 65.8937 25.7634 65.8937 25.7634 65.9585C25.7634 65.9585 25.7634 65.9585 25.7634 66.0233C25.7634 66.0233 25.7634 66.0233 25.7634 66.088C25.7634 66.088 25.7634 66.088 25.7634 66.1528C25.7634 66.1528 25.7634 66.1528 25.7634 66.2176C25.7634 66.2176 25.7634 66.2176 25.7634 66.2824C25.7634 66.2824 25.7634 66.2824 25.7634 66.3472C25.7634 66.3472 25.7634 66.3472 25.7634 66.412C25.7634 66.412 25.7634 66.412 25.7634 66.4767C25.7634 66.4767 25.7634 66.4767 25.7634 66.5415C25.7634 66.5415 25.7634 66.5415 25.7634 66.6063C25.7634 66.6063 25.7634 66.6063 25.7634 66.6711C25.7634 66.6711 25.7634 66.6711 25.7634 66.7359C25.7634 66.7359 25.7634 66.7359 25.7634 66.8006C25.7634 66.8006 25.7634 66.8006 25.7634 66.8654C25.7634 66.8654 25.7634 66.8654 25.7634 66.9302C25.7634 66.9302 25.7634 66.9302 25.7634 66.995C25.7634 66.995 25.7634 66.995 25.7634 67.0598C25.7634 67.0598 25.7634 67.0598 25.7634 67.1246C25.7634 67.1246 25.7634 67.1246 25.7634 67.1893C25.7634 67.1893 25.7634 67.1893 25.7634 67.2541C25.7634 67.2541 25.7634 67.2541 25.7634 67.3189C25.7634 67.3189 25.7634 67.3189 25.7634 67.3837C25.7634 67.3837 25.7634 67.3837 25.7634 67.4485C25.7634 67.4485 25.7634 67.4485 25.7634 67.5133C25.7634 67.5133 25.7634 67.5133 25.7634 67.578C25.7634 67.578 25.7634 67.578 25.7634 67.6428C25.7634 67.6428 25.7634 67.6428 25.7634 67.7076C25.7634 67.7076 25.7634 67.7076 25.7634 67.7724C25.7634 67.7724 25.7634 67.7724 25.7634 67.8372C25.7634 67.8372 25.7634 67.8372 25.7634 67.9019C25.7634 67.9019 25.7634 67.9019 25.7634 67.9667C25.7634 67.9667 25.7634 67.9667 25.7634 68.0315C25.7634 68.0315 25.7634 68.0315 25.7634 68.0963C25.7634 68.0963 25.7634 68.0963 25.7634 68.1611C25.7634 68.1611 25.7634 68.1611 25.7634 68.2259C25.7634 68.2259 25.7634 68.2259 25.7634 68.2906C25.7634 68.2906 25.7634 68.2906 25.7634 68.3554C25.7634 68.3554 25.7634 68.3554 25.7634 68.4202C25.7634 68.4202 25.7634 68.4202 25.7634 68.485C25.7634 68.485 25.7634 68.485 25.7634 68.5498C25.7634 68.5498 25.7634 68.5498 25.7634 68.6145C25.7634 68.6145 25.7634 68.6145 25.7634 68.6793C25.7634 68.6793 25.7634 68.6793 25.7634 68.7441C25.7634 68.7441 25.7634 68.7441 25.7634 68.8089C25.7634 68.8089 25.7634 68.8089 25.7634 68.8737C25.7634 68.8737 25.7634 68.8737 25.7634 68.9385C25.7634 68.9385 25.7634 68.9385 25.7634 69.0032C25.7634 69.0032 25.7634 69.0032 25.7634 69.068C25.7634 69.068 25.7634 69.068 25.7634 69.1328C25.7634 69.1328 25.7634 69.1328 25.7634 69.1976C25.7634 69.1976 25.7634 69.1976 25.7634 69.2624C25.7634 69.2624 25.7634 69.2624 25.7634 69.3271C25.7634 69.3271 25.7634 69.3271 25.7634 69.3919C25.7634 69.3919 25.7634 69.3919 25.7634 69.4567C25.7634 69.4567 25.7634 69.4567 25.7634 69.5215C25.7634 69.5215 25.7634 69.5215 25.7634 69.5863C25.7634 69.5863 25.7634 69.5863 25.7634 69.6511C25.7634 69.6511 25.7634 69.6511 25.7634 69.7158C25.7634 69.7158 25.7634 69.7158 25.7634 69.7806C25.7634 69.7806 25.7634 69.7806 25.7634 69.8454C25.7634 69.8454 25.7634 69.8454 25.7634 69.9102C25.7634 69.9102 25.7634 69.9102 25.7634 69.975C25.7634 69.975 25.7634 69.975 25.7634 70.0397C25.7634 70.0397 25.7634 70.0397 25.7634 70.1045C25.7634 70.1045 25.7634 70.1045 25.7634 70.1693C25.7634 70.1693 25.7634 70.1693 25.7634 70.2341C25.7634 70.2341 25.7634 70.2341 25.7634 70.2989C25.7634 70.2989 25.7634 70.2989 25.7634 70.3637C25.7634 70.3637 25.7634 70.3637 25.7634 70.4284C25.7634 70.4284 25.7634 70.4284 25.7634 70.4932C25.7634 70.4932 25.7634 70.4932 25.7634 70.558C25.7634 70.558 25.7634 70.558 25.7634 70.6228C25.7634 70.6228 25.7634 70.6228 25.7634 70.6876C25.7634 70.6876 25.7634 70.6876 25.7634 70.7524C25.7634 70.7524 25.7634 70.7524 25.7634 70.8171C25.7634 70.8171 25.7634 70.8171 25.7634 70.8819C25.7634 70.8819 25.7634 70.8819 25.7634 70.9467C25.7634 70.9467 25.7634 70.9467 25.7634 71.0115C25.7634 71.0115 25.7634 71.0115 25.7634 71.0763C25.7634 71.0763 25.7634 71.0763 25.7634 71.141C25.7634 71.141 25.7634 71.141 25.7634 71.2058C25.7634 71.2058 25.7634 71.2058 25.7634 71.2706C25.7634 71.2706 25.7634 71.2706 25.7634 71.3354C25.7634 71.3354 25.7634 71.3354 25.7634 71.4002C25.7634 71.4002 25.7634 71.4002 25.7634 71.465C25.7634 71.465 25.7634 71.465 25.7634 71.5297C25.7634 71.5297 25.7634 71.5297 25.7634 71.5945C25.7634 71.5945 25.7634 71.5945 25.7634 71.6593C25.7634 71.6593 25.7634 71.6593 25.7634 71.7241C25.7634 71.7241 25.7634 71.7241 25.7634 71.7889C25.7634 71.7889 25.7634 71.7889 25.7634 71.8536C25.7634 71.8536 25.7634 71.8536 25.7634 71.9184C25.7634 71.9184 25.7634 71.9184 25.7634 71.9832C25.7634 71.9832 25.7634 71.9832 25.7634 72.048C25.7634 72.048 25.7634 72.048 25.7634 72.1128C25.7634 72.1128 25.7634 72.1128 25.7634 72.1776C25.7634 72.1776 25.7634 72.1776 25.7634 72.2423C25.7634 72.2423 25.7634 72.2423 25.7634 72.3071C25.7634 72.3071 25.7634 72.3071 25.7634 72.3719C25.7634 72.3719 25.7634 72.3719 25.7634 72.4367C25.7634 72.4367 25.7634 72.4367 25.7634 72.5015C25.7634 72.5015 25.7634 72.5015 25.7634 72.5662C25.7634 72.5662 25.7634 72.5662 25.7634 72.631C25.7634 72.631 25.7634 72.631 25.7634 72.6958C25.7634 72.6958 25.7634 72.6958 25.7634 72.7606C25.7634 72.7606 25.7634 72.7606 25.7634 72.8254C25.7634 72.8254 25.7634 72.8254 25.7634 72.8902C25.7634 72.8902 25.7634 72.8902 25.7634 72.9549C25.7634 72.9549 25.7634 72.9549 25.7634 73.0197C25.7634 73.0197 25.7634 73.0197 25.7634 73.0845C25.7634 73.0845 25.7634 73.0845 25.7634 73.1493C25.7634 73.1493 25.7634 73.1493 25.7634 73.2141C25.7634 73.2141 25.7634 73.2141 25.7634 73.2789C25.7634 73.2789 25.7634 73.2789 25.7634 73.3436C25.7634 73.3436 25.7634 73.3436 25.7634 73.4084C25.7634 73.4084 25.7634 73.4084 25.7634 73.4732C25.7634 73.4732 25.7634 73.4732 25.7634 73.538C25.7634 73.538 25.7634 73.538 25.7634 73.6028C25.7634 73.6028 25.7634 73.6028 25.7634 73.6675C25.7634 73.6675 25.7634 73.6675 25.7634 73.7323C25.7634 73.7323 25.7634 73.7323 25.7634 73.7971C25.7634 73.7971 25.7634 73.7971 25.7634 73.8619C25.7634 73.8619 25.7634 73.8619 25.7634 73.9267C25.7634 73.9267 25.7634 73.9267 25.7634 73.9915C25.7634 73.9915 25.7634 73.9915 25.7634 74.0562C25.7634 74.0562 25.7634 74.0562 25.7634 74.121C25.7634 74.121 25.7634 74.121 25.7634 74.1858C25.7634 74.1858 25.7634 74.1858 25.7634 74.2506C25.7634 74.2506 25.7634 74.2506 25.7634 74.3154C25.7634 74.3154 25.7634 74.3154 25.7634 74.3801C25.7634 74.3801 25.7634 74.3801 25.7634 74.4449C25.7634 74.4449 25.7634 74.4449 25.7634 74.5097C25.7634 74.5097 25.7634 74.5097 25.7634 74.5745C25.7634 74.5745 25.7634 74.5745 25.7634 74.6393C25.7634 74.6393 25.7634 74.6393 25.7634 74.7041C25.7634 74.7041 25.7634 74.7041 25.7634 74.7688C25.7634 74.7688 25.7634 74.7688 25.7634 74.8336C25.7634 74.8336 25.7634 74.8336 25.7634 74.8984C25.7634 74.8984 25.7634 74.8984 25.7634 74.9632C25.7634 74.9632 25.7634 74.9632 25.7634 75.028C25.7634 75.028 25.7634 75.028 25.7634 75.0928C25.7634 75.0928 25.7634 75.0928 25.7634 75.1575C25.7634 75.1575 25.7634 75.1575 25.7634 75.2223C25.7634 75.2223 25.7634 75.2223 25.7634 75.2871C25.7634 75.2871 25.7634 75.2871 25.7634 75.3519C25.7634 75.3519 25.7634 75.3519 25.7634 75.4167C25.7634 75.4167 25.7634 75.4167 25.7634 75.4814C25.7634 75.4814 25.7634 75.4814 25.7634 75.5462C25.7634 75.5462 25.7634 75.5462 25.7634 75.611C25.7634 75.611 25.7634 75.611 25.7634 75.6758C25.7634 75.6758 25.7634 75.6758 25.7634 75.7406C25.7634 75.7406 25.7634 75.7406 25.7634 75.8054C25.7634 75.8054 25.7634 75.8054 25.7634 75.8701C25.7634 75.8701 25.7634 75.8701 25.7634 75.9349C25.7634 75.9349 25.7634 75.9349 25.7634 75.9997C25.7634 75.9997 25.7634 75.9997 25.7634 76.0645C25.7634 76.0645 25.7634 76.0645 25.7634 76.1293C25.7634 76.1293 25.7634 76.1293 25.7634 76.194C25.7634 76.194 25.7634 76.194 25.7634 76.2588C25.7634 76.2588 25.7634 76.2588 25.7634 76.3236C25.7634 76.3236 25.7634 76.3236 25.7634 76.3884C25.7634 76.3884 25.7634 76.3884 25.7634 76.4532C25.7634 76.4532 25.7634 76.4532 25.7634 76.518C25.7634 76.518 25.7634 76.518 25.7634 76.5827C25.7634 76.5827 25.7634 76.5827 25.7634 76.6475C25.7634 76.6475 25.7634 76.6475 25.7634 76.7123C25.7634 76.7123 25.7634 76.7123 25.7634 76.7771C25.7634 76.7771 25.7634 76.7771 25.7634 76.8419C25.7634 76.8419 25.7634 76.8419 25.7634 76.9066C25.7634 76.9066 25.7634 76.9066 25.7634 76.9714C25.7634 76.9714 25.7634 76.9714 25.7634 77.0362C25.7634 77.0362 25.7634 77.0362 25.7634 77.101C25.7634 77.101 25.7634 77.101 25.7634 77.1658C25.7634 77.1658 25.7634 77.1658 25.7634 77.2306C25.7634 77.2306 25.7634 77.2306 25.7634 77.2953C25.7634 77.2953 25.7634 77.2953 25.7634 77.3601C25.7634 77.3601 25.7634 77.3601 25.7634 77.4249C25.7634 77.4249 25.7634 77.4249 25.7634 77.4897C25.7634 77.4897 25.7634 77.4897 25.7634 77.5545C25.7634 77.5545 25.7634 77.5545 25.7634 77.6193C25.7634 77.6193 25.7634 77.6193 25.7634 77.684C25.7634 77.684 25.7634 77.684 25.7634 77.7488C25.7634 77.7488 25.7634 77.7488 25.7634 77.8136C25.7634 77.8136 25.7634 77.8136 25.7634 77.8784C25.7634 77.8784 25.7634 77.8784 25.7634 77.9432C25.7634 77.9432 25.7634 77.9432 25.7634 78.0079C25.7634 78.0079 25.7634 78.0079 25.7634 78.0727C25.7634 78.0727 25.7634 78.0727 25.7634 78.1375C25.7634 78.1375 25.7634 78.1375 25.7634 78.2023C25.7634 78.2023 25.7634 78.2023 25.7634 78.2671C25.7634 78.2671 25.7634 78.2671 25.7634 78.3319C25.7634 78.3319 25.7634 78.3319 25.7634 78.3966C25.7634 78.3966 25.7634 78.3966 25.7634 78.4614C25.7634 78.4614 25.7634 78.4614 25.7634 78.5262C25.7634 78.5262 25.7634 78.5262 25.7634 78.591C25.7634 78.591 25.7634 78.591 25.7634 78.6558C25.7634 78.6558 25.7634 78.6558 25.7634 78.7205C25.7634 78.7205 25.7634 78.7205 25.7634 78.7853C25.7634 78.7853 25.7634 78.7853 25.7634 78.8501C25.7634 78.8501 25.7634 78.8501 25.7634 78.9149C25.7634 78.9149 25.7634 78.9149 25.7634 78.9797C25.7634 78.9797 25.7634 78.9797 25.7634 79.0445C25.7634 79.0445 25.7634 79.0445 25.7634 79.1092C25.7634 79.1092 25.7634 79.1092 25.7634 79.174C25.7634 79.174 25.7634 79.174 25.7634 79.2388C25.7634 79.2388 25.7634 79.2388 25.7634 79.3036C25.7634 79.3036 25.7634 79.3036 25.7634 79.3684C25.7634 79.3684 25.7634 79.3684 25.7634 79.4331C25.7634 79.4331 25.7634 79.4331 25.7634 79.4979C25.7634 79.4979 25.7634 79.4979 25.7634 79.5627C25.7634 79.5627 25.7634 79.5627 25.7634 79.6275C25.7634 79.6275 25.7634 79.6275 25.7634 79.6923C25.7634 79.6923 25.7634 79.6923 25.7634 79.7571C25.7634 79.7571 25.7634 79.7571 25.7634 79.8218C25.7634 79.8218 25.7634 79.8218 25.7634 79.8866C25.7634 79.8866 25.7634 79.8866 25.7634 79.9514C25.7634 79.9514 25.7634 79.9514 25.7634 80.0162C25.7634 80.0162 25.7634 80.0162 25.7634 80.081C25.7634 80.081 25.7634 80.081 25.7634 80.1457C25.7634 80.1457 25.7634 80.1457 25.7634 80.2105C25.7634 80.2105 25.7634 80.2105 25.7634 80.2753C25.7634 80.2753 25.7634 80.2753 25.7634 80.3401C25.7634 80.3401 25.7634 80.3401 25.7634 80.4049C25.7634 80.4049 25.7634 80.4049 25.7634 80.4697C25.7634 80.4697 25.7634 80.4697 25.7634 80.5344C25.7634 80.5344 25.7634 80.5344 25.7634 80.5992C25.7634 80.5992 25.7634 80.5992 25.7634 80.664C25.7634 80.664 25.7634 80.664 25.7634 80.7288C25.7634 80.7288 25.7634 80.7288 25.7634 80.7936C25.7634 80.7936 25.7634 80.7936 25.7634 80.8584C25.7634 80.8584 25.7634 80.8584 25.7634 80.9231C25.7634 80.9231 25.7634 80.9231 25.7634 80.9879C25.7634 80.9879 25.7634 80.9879 25.7634 81.0527C25.7634 81.0527 25.7634 81.0527 25.7634 81.1175C25.7634 81.1175 25.7634 81.1175 25.7634 81.1823C25.7634 81.1823 25.7634 81.1823 25.7634 81.247C25.7634 81.247 25.7634 81.247 25.7634 81.3118C25.7634 81.3118 25.7634 81.3118 25.7634 81.3766C25.7634 81.3766 25.7634 81.3766 25.7634 81.4414C25.7634 81.4414 25.7634 81.4414 25.7634 81.5062C25.7634 81.5062 25.7634 81.5062 25.7634 81.571C25.7634 81.571 25.7634 81.571 25.7634 81.6357C25.7634 81.6357 25.7634 81.6357 25.7634 81.7005C25.7634 81.7005 25.7634 81.7005 25.7634 81.7653C25.7634 81.7653 25.7634 81.7653 25.7634 81.8301C25.7634 81.8301 25.7634 81.8301 25.7634 81.8949C25.7634 81.8949 25.7634 81.8949 25.7634 81.9596C25.7634 81.9596 25.7634 81.9596 25.7634 82.0244C25.7634 82.0244 25.7634 82.0244 25.7634 82.0892C25.7634 82.0892 25.7634 82.0892 25.7634 82.154C25.7634 82.154 25.7634 82.154 25.7634 82.2188C25.7634 82.2188 25.7634 82.2188 25.7634 82.2836C25.7634 82.2836 25.7634 82.2836 25.7634 82.3483C25.7634 82.3483 25.7634 82.3483 25.7634 82.4131C25.7634 82.4131 25.7634 82.4131 25.7634 82.4779C25.7634 82.4779 25.7634 82.4779 25.7634 82.5427C25.7634 82.5427 25.7634 82.5427 25.7634 82.6075C25.7634 82.6075 25.7634 82.6075 25.7634 82.6722C25.7634 82.6722 25.7634 82.6722 25.7634 82.737C25.7634 82.737 25.7634 82.737 25.7634 82.8018C25.7634 82.8018 25.7634 82.8018 25.7634 82.8666C25.7634 82.8666 25.7634 82.8666 25.7634 82.9314C25.7634 82.9314 25.7634 82.9314 25.7634 82.9962C25.7634 82.9962 25.7634 82.9962 25.7634 83.0609C25.7634 83.0609 25.7634 83.0609 25.7634 83.1257C25.7634 83.1257 25.7634 83.1257 25.7634 83.1905C25.7634 83.1905 25.7634 83.1905 25.7634 83.2553C25.7634 83.2553 25.7634 83.2553 25.7634 83.3201C25.7634 83.3201 25.7634 83.3201 25.7634 83.3849C25.7634 83.3849 25.7634 83.3849 25.7634 83.4496C25.7634 83.4496 25.7634 83.4496 25.7634 83.5144C25.7634 83.5144 25.7634 83.5144 25.7634 83.5792C25.7634 83.5792 25.7634 83.5792 25.7634 83.644C25.7634 83.644 25.7634 83.644 25.7634 83.7088C25.7634 83.7088 25.7634 83.7088 25.7634 83.7735C25.7634 83.7735 25.7634 83.7735 25.7634 83.8383C25.7634 83.8383 25.7634 83.8383 25.7634 83.9031C25.7634 83.9031 25.7634 83.9031 25.7634 83.9679C25.7634 83.9679 25.7634 83.9679 25.7634 84.0327C25.7634 84.0327 25.7634 84.0327 25.7634 84.0975C25.7634 84.0975 25.7634 84.0975 25.7634 84.1622C25.7634 84.1622 25.7634 84.1622 25.7634 84.227C25.7634 84.227 25.7634 84.227 25.7634 84.2918C25.7634 84.2918 25.7634 84.2918 25.7634 84.3566C25.7634 84.3566 25.7634 84.3566 25.7634 84.4214C25.7634 84.4214 25.7634 84.4214 25.7634 84.4861C25.7634 84.4861 25.7634 84.4861 25.7634 84.5509C25.7634 84.5509 25.7634 84.5509 25.7634 84.6157C25.7634 84.6157 25.7634 84.6157 25.7634 84.6805C25.7634 84.6805 25.7634 84.6805 25.7634 84.7453C25.7634 84.7453 25.7634 84.7453 25.7634 84.8101C25.7634 84.8101 25.7634 84.8101 25.7634 84.8748C25.7634 84.8748 25.7634 84.8748 25.7634 84.9396C25.7634 84.9396 25.7634 84.9396 25.7634 85.0044C25.7634 85.0044 25.7634 85.0044 25.7634 85.0692C25.7634 85.0692 25.7634 85.0692 25.7634 85.134C25.7634 85.134 25.7634 85.134 25.7634 85.1987C25.7634 85.1987 25.7634 85.1987 25.7634 85.2635C25.7634 85.2635 25.7634 85.2635 25.7634 85.3283C25.7634 85.3283 25.7634 85.3283 25.7634 85.3931C25.7634 85.3931 25.7634 85.3931 25.7634 85.4579C25.7634 85.4579 25.7634 85.4579 25.7634 85.5227C25.7634 85.5227 25.7634 85.5227 25.7634 85.5874C25.7634 85.5874 25.7634 85.5874 25.7634 85.6522C25.7634 85.6522 25.7634 85.6522 25.7634 85.717C25.7634 85.717 25.7634 85.717 25.7634 85.7818C25.7634 85.7818 25.7634 85.7818 25.7634 85.8466C25.7634 85.8466 25.7634 85.8466 25.7634 85.9114C25.7634 85.9114 25.7634 85.9114 25.7634 85.9761C25.7634 85.9761 25.7634 85.9761 25.7634 86.0409C25.7634 86.0409 25.7634 86.0409 25.7634 86.1057C25.7634 86.1057 25.7634 86.1057 25.7634 86.1705C25.7634 86.1705 25.7634 86.1705 25.7634 86.2353C25.7634 86.2353 25.7634 86.2353 25.7634 86.3C25.7634 86.3 25.7634 86.3 25.7634 86.3648C25.7634 86.3648 25.7634 86.3648 25.7634 86.4296C25.7634 86.4296 25.7634 86.4296 25.7634 86.4944C25.7634 86.4944 25.7634 86.4944 25.7634 86.5592C25.7634 86.5592 25.7634 86.5592 25.7634 86.624C25.7634 86.624 25.7634 86.624 25.7634 86.6887C25.7634 86.6887 25.7634 86.6887 25.7634 86.7535C25.7634 86.7535 25.7634 86.7535 25.7634 86.8183C25.7634 86.8183 25.7634 86.8183 25.7634 86.8831C25.7634 86.8831 25.7634 86.8831 25.7634 86.9479C25.7634 86.9479 25.7634 86.9479 25.7634 87.0126C25.7634 87.0126 25.7634 87.0126 25.7634 87.0774C25.7634 87.0774 25.7634 87.0774 25.7634 87.1422C25.7634 87.1422 25.7634 87.1422 25.7634 87.207C25.7634 87.207 25.7634 87.207 25.7634 87.2718C25.7634 87.2718 25.7634 87.2718 25.7634 87.3366C25.7634 87.3366 25.7634 87.3366 25.7634 87.4013C25.7634 87.4013 25.7634 87.4013 25.7634 87.4661C25.7634 87.4661 25.7634 87.4661 25.7634 87.5309C25.7634 87.5309 25.7634 87.5309 25.7634 87.5957C25.7634 87.5957 25.7634 87.5957 25.7634 87.6605C25.7634 87.6605 25.7634 87.6605 25.7634 87.7253C25.7634 87.7253 25.7634 87.7253 25.7634 87.79C25.7634 87.79 25.7634 87.79 25.7634 87.8548C25.7634 87.8548 25.7634 87.8548 25.7634 87.9196C25.7634 87.9196 25.7634 87.9196 25.7634 87.9844C25.7634 87.9844 25.7634 87.9844 25.7634 88.0492C25.7634 88.0492 25.7634 88.0492 25.7634 88.1139C25.7634 88.1139 25.7634 88.1139 25.7634 88.1787C25.7634 88.1787 25.7634 88.1787 25.7634 88.2435C25.7634 88.2435 25.7634 88.2435 25.7634 88.3083C25.7634 88.3083 25.7634 88.3083 25.7634 88.3731C25.7634 88.3731 25.7634 88.3731 25.7634 88.4379C25.7634 88.4379 25.7634 88.4379 25.7634 88.5026C25.7634 88.5026 25.7634 88.5026 25.7634 88.5674C25.7634 88.5674 25.7634 88.5674 25.7634 88.6322C25.7634 88.6322 25.7634 88.6322 25.7634 88.697C25.7634 88.697 25.7634 88.697 25.7634 88.7618C25.7634 88.7618 25.7634 88.7618 25.7634 88.8265C25.7634 88.8265 25.7634 88.8265 25.7634 88.8913C25.7634 88.8913 25.7634 88.8913 25.7634 88.9561H26.9306ZM26.9306 70.558C26.9306 68.5498 26.9954 67.5133 27.1251 66.4767C27.3197 65.505 27.6439 64.5333 28.2275 62.7842L27.1251 62.3955C26.5415 64.1446 26.2173 65.1811 26.0228 66.2824C25.8282 67.3837 25.7634 68.5498 25.7634 70.558H26.9306ZM28.2275 62.7842L32.637 48.7912L31.5346 48.4673L27.1251 62.4603L28.2275 62.7842ZM32.637 48.7912C33.2855 46.783 34.1933 44.3861 34.6472 42.313L33.5448 42.0539C33.0909 44.0622 32.2479 46.3943 31.5346 48.4025L32.637 48.7912ZM34.4527 42.7665H65.384V41.6004H34.4527V42.7665ZM65.384 42.7665C66.8754 42.7665 68.1075 41.4709 68.1075 40.0457H66.9403C66.9403 40.8878 66.1621 41.6652 65.3191 41.6652V42.8313L65.384 42.7665ZM68.1075 40.0457C68.1075 38.5557 66.8106 37.3248 65.384 37.3248V38.4909C66.227 38.4909 67.0051 39.2683 67.0051 40.1104H68.1723L68.1075 40.0457ZM65.384 37.3248H34.8417V38.4909H65.384V37.3248ZM34.2581 37.9079V38.1022H35.4254V37.9079H34.2581ZM34.8417 30.2636H83.6704V29.0975H34.8417V30.2636ZM83.0868 29.6805C83.0868 32.8549 82.8923 36.2883 83.0868 39.5274L84.254 39.4626C84.0595 36.2883 84.254 32.9196 84.254 29.6805H83.0868ZM83.0868 39.5274C83.0868 39.7218 83.2165 40.24 83.411 40.8878C83.6056 41.5357 83.865 42.3778 84.1243 43.4143C84.708 45.4226 85.5509 47.9491 86.3291 50.5404C87.9502 55.7229 89.6362 60.9703 90.0253 62.0716L91.1277 61.7477C90.8034 60.6464 89.1175 55.399 87.4315 50.2164C86.5885 47.6252 85.8103 45.0987 85.2267 43.0904C84.9025 42.1187 84.6431 41.2117 84.5134 40.6287C84.3189 39.9809 84.254 39.5922 84.1892 39.4626L83.022 39.5922L83.0868 39.5274ZM90.0253 62.0716C91.0628 65.6346 91.5167 66.412 91.5167 70.1693H92.684C92.684 66.2176 92.1003 65.2459 91.1277 61.7477L90.0253 62.0716ZM91.5167 70.1693V88.3731H92.684V70.1693H91.5167ZM91.5167 88.3731C91.5167 89.28 91.841 89.9926 92.3597 90.5109C92.8785 90.9643 93.5918 91.2235 94.2402 91.2235C94.8887 91.2235 95.602 91.0291 96.1208 90.5757C96.6395 90.1222 97.0286 89.4096 97.0286 88.5026H95.8614C95.8614 89.0857 95.6669 89.4096 95.3426 89.6687C95.0184 89.9278 94.6293 90.0574 94.2402 90.0574C93.7863 90.0574 93.3973 89.9278 93.1379 89.6687C92.8785 89.4096 92.6191 89.0209 92.6191 88.4379H91.4519L91.5167 88.3731ZM96.7692 87.9844L96.7044 87.9196L96.1856 88.9561L96.2505 89.0209L96.7692 87.9844ZM74.0084 67.3837H44.9576V68.5498H74.0084V67.3837ZM44.9576 67.3837C40.4185 67.3837 36.6574 71.2058 36.6574 75.6758H37.8246C37.8246 71.7889 41.0669 68.485 45.0225 68.485V67.3189L44.9576 67.3837ZM36.6574 75.6758V88.8265H37.8246V75.6758H36.6574ZM36.6574 88.8265C36.6574 93.3613 40.4833 97.1186 44.9576 97.1186V95.9526C41.0669 95.9526 37.7598 92.7135 37.7598 88.7618H36.5926L36.6574 88.8265ZM44.9576 97.1186H47.6163V95.9526H44.9576V97.1186ZM47.6163 97.1186C48.4593 97.1186 49.1726 96.7947 49.6265 96.2117C50.0804 95.6934 50.3398 94.9808 50.3398 94.333C50.3398 93.6852 50.1453 92.9726 49.6914 92.4543C49.2375 91.9361 48.5242 91.5474 47.6163 91.5474V92.7135C48.1999 92.7135 48.589 92.9078 48.8484 93.2317C49.1078 93.5556 49.2375 93.9443 49.2375 94.333C49.2375 94.7865 49.1078 95.1752 48.8484 95.4343C48.589 95.6934 48.1999 95.9526 47.6812 95.9526V97.1186H47.6163ZM47.6163 91.5474H46.8382V92.7135H47.6163V91.5474ZM46.8382 91.5474C44.1147 91.5474 41.9748 89.4096 41.9748 86.6887H40.8075C40.8075 90.0574 43.4662 92.6487 46.7733 92.6487V91.4826L46.8382 91.5474ZM41.9748 86.6887V77.5545H40.8075V86.6887H41.9748ZM41.9748 77.5545C41.9748 74.8336 44.1147 72.6958 46.8382 72.6958V71.5297C43.4662 71.5297 40.8724 74.1858 40.8724 77.4897H42.0396L41.9748 77.5545ZM46.8382 72.6958H72.1279V71.5297H46.8382V72.6958ZM72.1279 72.6958C74.8514 72.6958 76.9913 74.8336 76.9913 77.5545H78.1586C78.1586 74.1858 75.4999 71.5945 72.1928 71.5945V72.7606L72.1279 72.6958ZM76.9913 77.5545V78.3966H78.1586V77.5545H76.9913ZM76.9913 78.3966C76.9913 80.081 78.4179 80.9231 79.65 80.9879C80.2985 80.9879 80.9469 80.8584 81.4657 80.4697C81.9844 80.081 82.3735 79.4331 82.3735 78.591H81.2063C81.2063 79.1092 81.0118 79.3684 80.7524 79.5627C80.493 79.7571 80.1039 79.8866 79.65 79.8866C78.807 79.8218 78.0937 79.3036 78.0937 78.4614H76.9265L76.9913 78.3966ZM82.3735 78.5262V75.5462H81.2063V78.5262H82.3735ZM82.3735 75.5462C82.3735 71.0115 78.5476 67.2541 74.0733 67.2541V68.4202C77.964 68.4202 81.2711 71.6593 81.2711 75.611H82.4384L82.3735 75.5462ZM73.6194 67.3837L73.5545 67.4485L74.3327 68.2259L74.3975 68.1611L73.6194 67.3837Z" fill="#F66C4C"/>
</g>
<path fill-rule="evenodd" clip-rule="evenodd" d="M89.8304 97.7017C90.6733 96.8596 90.9976 95.6935 89.8304 94.5274L86.7826 91.4827L81.9192 86.7536C79.066 84.0327 77.38 81.1823 72.776 80.6641C67.3938 79.9515 64.4757 83.5145 62.3358 85.5227C56.6294 91.2235 50.6637 97.1835 44.9572 102.884C41.5853 106.059 38.4078 109.492 34.971 112.666C33.0905 114.545 31.0803 116.683 30.9506 117.201C29.9131 119.922 32.6366 120.246 34.8413 120.246H64.9297C66.6157 120.246 67.4586 119.209 68.3016 118.562C77.5745 109.103 76.0831 110.464 89.8952 97.637H89.8304V97.7017ZM70.1173 120.311C69.0798 121.347 68.9501 121.995 69.404 123.355C70.1173 125.04 73.8135 124.91 75.6292 124.91H122.577C124.782 124.91 128.284 125.623 128.673 123.032C128.867 121.477 126.144 119.339 125.301 118.497L105.717 98.9326C101.178 94.3979 96.4446 94.2035 93.3969 97.0539L70.1173 120.181V120.375H70.0525L70.1173 120.311Z" fill="#32333B"/>
</svg>
