<svg width="150" height="150" viewBox="0 0 150 150" fill="none" xmlns="http://www.w3.org/2000/svg">
<path fill-rule="evenodd" clip-rule="evenodd" d="M23.6906 94.6755L42.2877 83.9878C43.521 85.0221 44.8035 86.0071 46.0368 87.0414L31.5833 95.3651C31.4846 95.4143 31.386 95.5128 31.3366 95.6113C31.2873 95.6606 31.2873 95.7591 31.2873 95.8576C31.2873 95.9561 31.3366 96.0053 31.3366 96.0546C31.386 96.1531 31.4846 96.2516 31.6326 96.3008L73.9571 120.631C74.2037 120.779 74.549 120.878 74.8944 120.878C75.1903 120.878 75.5356 120.828 75.7329 120.73L118.205 96.3008C118.304 96.2516 118.403 96.1531 118.452 96.0546C118.501 96.0053 118.501 95.9068 118.501 95.8083C118.501 95.7098 118.452 95.6606 118.452 95.6113C118.403 95.5128 118.304 95.4143 118.156 95.3651L104.443 87.4847L108.438 84.5788L126.443 94.9218C126.641 95.0203 126.789 95.168 126.887 95.3651C126.986 95.5128 127.035 95.7098 127.035 95.8576C127.035 96.0546 126.986 96.2023 126.887 96.3501C126.789 96.4979 126.69 96.6456 126.493 96.7441L76.0289 125.754C75.6836 125.951 75.289 126 74.845 126C74.4011 126 73.9078 125.852 73.5625 125.655L23.592 96.9411C23.3946 96.8426 23.2466 96.6949 23.148 96.4979C23.0493 96.3008 23 96.1038 23 95.8576C23 95.6606 23.0493 95.4143 23.148 95.2173C23.2466 95.0203 23.444 94.8233 23.6413 94.7248L23.6906 94.6755Z" fill="#F66C4C"/>
<path fill-rule="evenodd" clip-rule="evenodd" d="M24.4305 52.6155L73.8091 24.2463C74.1051 24.0493 74.549 24 74.9437 24C75.3876 24 75.8316 24.1478 76.1769 24.3448L124.865 52.32C125.95 52.9603 126.443 53.5021 126.443 54.0438C126.443 54.5856 125.901 55.1274 124.914 55.7184L75.9796 83.8414C75.6836 84.0384 75.2397 84.0877 74.845 84.0877C74.4011 84.0877 73.9571 83.9399 73.6118 83.7429L24.3319 55.4229C23.4933 54.9304 23 54.4871 23 54.0438C23 53.6006 23.444 53.1573 24.3812 52.6155H24.4305ZM74.0558 29.073L31.4846 53.5513C31.386 53.6006 31.2873 53.6991 31.238 53.7976C31.1887 53.8468 31.1887 53.9453 31.1887 53.9946C31.1887 54.0931 31.238 54.1424 31.238 54.2409C31.2873 54.3886 31.4353 54.4871 31.6326 54.5856L73.9571 78.9162C74.2531 79.064 74.5984 79.1625 74.9437 79.1625C75.289 79.1625 75.6343 79.1132 75.8809 78.9655L118.452 54.4871C118.551 54.4379 118.649 54.3394 118.699 54.2409C118.748 54.1916 118.748 54.0931 118.748 54.0438C118.748 53.9453 118.699 53.8961 118.699 53.7976C118.649 53.6498 118.501 53.5513 118.304 53.4528L75.9796 29.1222C75.6836 28.9745 75.3383 28.876 74.993 28.876C74.6477 28.876 74.3024 28.9252 74.0558 29.073Z" fill="#F66C4C"/>
<path fill-rule="evenodd" clip-rule="evenodd" d="M23.6906 94.6755L42.2877 83.9878C43.521 85.0221 44.8035 86.0071 46.0368 87.0414L31.5833 95.3651C31.4846 95.4143 31.386 95.5128 31.3366 95.6113C31.2873 95.6606 31.2873 95.7591 31.2873 95.8576C31.2873 95.9561 31.3366 96.0053 31.3366 96.0546C31.386 96.1531 31.4846 96.2516 31.6326 96.3008L73.9571 120.631C74.2037 120.779 74.549 120.878 74.8944 120.878C75.1903 120.878 75.5356 120.828 75.7329 120.73L118.205 96.3008C118.304 96.2516 118.403 96.1531 118.452 96.0546C118.501 96.0053 118.501 95.9068 118.501 95.8083C118.501 95.7098 118.452 95.6606 118.452 95.6113C118.403 95.5128 118.304 95.4143 118.156 95.3651L104.443 87.4847L108.438 84.5788L126.443 94.9218C126.641 95.0203 126.789 95.168 126.887 95.3651C126.986 95.5128 127.035 95.7098 127.035 95.8576C127.035 96.0546 126.986 96.2023 126.887 96.3501C126.789 96.4979 126.69 96.6456 126.493 96.7441L76.0289 125.754C75.6836 125.951 75.289 126 74.845 126C74.4011 126 73.9078 125.852 73.5625 125.655L23.592 96.9411C23.3946 96.8426 23.2466 96.6949 23.148 96.4979C23.0493 96.3008 23 96.1038 23 95.8576C23 95.6606 23.0493 95.4143 23.148 95.2173C23.2466 95.0203 23.444 94.8233 23.6413 94.7248L23.6906 94.6755Z" fill="#F66C4C"/>
<path fill-rule="evenodd" clip-rule="evenodd" d="M24.3814 73.0554L39.7227 64.2393C52.8936 71.8241 54.4722 72.7106 72.28 82.9551C74.4999 83.5461 75.9304 83.8416 75.9797 83.8416C90.2852 75.6165 97.1913 71.6271 110.066 64.2393L124.372 72.4644C126.542 73.6957 127.677 74.4345 125.556 75.6658L75.9797 104.183C75.3878 104.528 74.3519 104.478 73.6613 104.084L24.3814 75.7643C22.8028 74.8285 22.8028 73.9912 24.3814 73.0554ZM108.142 76.6016C106.811 77.1926 106.021 78.3746 106.367 79.2119C106.761 80.0492 108.142 80.2955 109.474 79.7045C110.806 79.1134 111.595 77.9314 111.25 77.0941C110.855 76.2568 109.474 76.0105 108.142 76.6016ZM116.084 72.2181C114.753 72.8091 113.963 73.9912 114.309 74.8285C114.703 75.6658 116.084 75.912 117.416 75.321C118.748 74.73 119.537 73.5479 119.192 72.7106C118.798 71.8734 117.416 71.6271 116.084 72.2181ZM102.124 72.2181C100.792 72.8091 100.003 73.9912 100.348 74.8285C100.743 75.6658 102.124 75.912 103.456 75.321C104.788 74.73 105.577 73.5479 105.232 72.7106C104.837 71.8734 103.456 71.6271 102.124 72.2181ZM109.08 68.1794C107.748 68.7705 106.958 69.9525 107.304 70.7898C107.698 71.6271 109.08 71.8734 110.412 71.2823C111.743 70.6913 112.533 69.5092 112.187 68.672C111.793 67.8347 110.412 67.5884 109.08 68.1794ZM90.8278 87.3878C89.4959 87.9788 88.7067 89.1609 89.052 89.9982C89.4466 90.8355 90.8278 91.0817 92.1597 90.4907C93.4916 89.8997 94.2809 88.7176 93.9356 87.8803C93.5409 87.043 92.1597 86.7968 90.8278 87.3878ZM99.6578 81.773C98.3259 82.3641 97.5366 83.5461 97.8819 84.3834C98.2765 85.2207 99.6578 85.467 100.99 84.8759C102.322 84.2849 103.111 83.1029 102.766 82.2656C102.371 81.4283 100.99 81.182 99.6578 81.773ZM83.7738 82.8566C82.4419 83.4476 81.6526 84.6297 81.9979 85.467C82.3925 86.3042 83.7738 86.5505 85.1056 85.9595C86.4375 85.3685 87.2268 84.1864 86.8815 83.3491C86.4869 82.5118 85.1056 82.2656 83.7738 82.8566ZM93.5903 77.4388C92.2584 78.0299 91.4691 79.2119 91.8144 80.0492C92.2091 80.8865 93.5903 81.1328 94.9222 80.5417C96.2541 79.9507 97.0433 78.7687 96.698 77.9314C96.3034 77.0941 94.9222 76.8478 93.5903 77.4388ZM73.8092 96.992C72.4774 97.583 71.6881 98.7651 72.0334 99.6023C72.428 100.44 73.8092 100.686 75.1411 100.095C76.473 99.5038 77.2623 98.3218 76.917 97.4845C76.5224 96.6472 75.1411 96.401 73.8092 96.992ZM82.1952 91.6727C80.8633 92.2638 80.0741 93.4458 80.4194 94.2831C80.814 95.1204 82.1952 95.3667 83.5271 94.7756C84.859 94.1846 85.6483 93.0025 85.303 92.1653C84.9083 91.328 83.5271 91.0817 82.1952 91.6727ZM30.5968 72.6121C29.2649 73.2032 28.4757 74.3852 28.821 75.2225C29.2156 76.0598 30.5968 76.306 31.9287 75.715C33.2606 75.124 34.0499 73.9419 33.7046 73.1047C33.3099 72.2674 31.9287 72.0211 30.5968 72.6121ZM39.4761 77.5866C38.1442 78.1776 37.3549 79.3597 37.7002 80.197C38.0949 81.0343 39.4761 81.2805 40.808 80.6895C42.1399 80.0985 42.9291 78.9164 42.5838 78.0791C42.1892 77.2418 40.808 76.9956 39.4761 77.5866ZM48.1087 82.0686C46.7768 82.6596 45.9876 83.8416 46.3329 84.6789C46.7275 85.5162 48.1087 85.7625 49.4406 85.1714C50.7725 84.5804 51.5618 83.3984 51.2165 82.5611C50.8218 81.7238 49.4406 81.4775 48.1087 82.0686ZM57.2346 87.24C55.9027 87.8311 55.1135 89.0131 55.4588 89.8504C55.8534 90.6877 57.2346 90.934 58.5665 90.3429C59.8984 89.7519 60.6877 88.5698 60.3424 87.7326C59.9477 86.8953 58.5665 86.649 57.2346 87.24ZM66.3112 92.4608C64.9793 93.0518 64.19 94.2339 64.5353 95.0711C64.93 95.9084 66.3112 96.1547 67.6431 95.5637C68.975 94.9726 69.7642 93.7906 69.4189 92.9533C69.0243 92.116 67.6431 91.8697 66.3112 92.4608ZM38.4895 68.1794C37.1576 68.7705 36.3684 69.9525 36.7137 70.7898C37.1083 71.6271 38.4895 71.8734 39.8214 71.2823C41.1533 70.6913 41.9426 69.5092 41.5973 68.672C41.2026 67.8347 39.8214 67.5884 38.4895 68.1794ZM46.9248 73.0554C45.5929 73.6464 44.8037 74.8285 45.149 75.6658C45.5436 76.5031 46.9248 76.7493 48.2567 76.1583C49.5886 75.5673 50.3779 74.3852 50.0326 73.5479C49.6379 72.7106 48.2567 72.4644 46.9248 73.0554ZM55.8041 77.8821C54.4722 78.4731 53.6829 79.6552 54.0282 80.4925C54.4229 81.3298 55.8041 81.576 57.136 80.985C58.4679 80.394 59.2571 79.2119 58.9118 78.3746C58.5172 77.5374 57.136 77.2911 55.8041 77.8821ZM64.782 83.1029C63.4501 83.6939 62.6608 84.8759 63.0061 85.7132C63.4008 86.5505 64.782 86.7968 66.1139 86.2057C67.4458 85.6147 68.235 84.4327 67.8897 83.5954C67.4951 82.7581 66.1139 82.5118 64.782 83.1029ZM74.4505 88.1266C73.1186 88.7176 72.3294 89.8997 72.6747 90.7369C73.0693 91.5742 74.4505 91.8205 75.7824 91.2295C77.1143 90.6384 77.9036 89.4564 77.5583 88.6191C77.1636 87.7818 75.7824 87.5356 74.4505 88.1266Z" fill="#32333B"/>
<path fill-rule="evenodd" clip-rule="evenodd" d="M24.4305 52.6155L73.8091 24.2463C74.1051 24.0493 74.549 24 74.9437 24C75.3876 24 75.8316 24.1478 76.1769 24.3448L124.865 52.32C125.95 52.9603 126.443 53.5021 126.443 54.0438C126.443 54.5856 125.901 55.1274 124.914 55.7184L75.9796 83.8414C75.6836 84.0384 75.2397 84.0877 74.845 84.0877C74.4011 84.0877 73.9571 83.9399 73.6118 83.7429L24.3319 55.4229C23.4933 54.9304 23 54.4871 23 54.0438C23 53.6006 23.444 53.1573 24.3812 52.6155H24.4305ZM74.0558 29.073L31.4846 53.5513C31.386 53.6006 31.2873 53.6991 31.238 53.7976C31.1887 53.8468 31.1887 53.9453 31.1887 53.9946C31.1887 54.0931 31.238 54.1424 31.238 54.2409C31.2873 54.3886 31.4353 54.4871 31.6326 54.5856L73.9571 78.9162C74.2531 79.064 74.5984 79.1625 74.9437 79.1625C75.289 79.1625 75.6343 79.1132 75.8809 78.9655L118.452 54.4871C118.551 54.4379 118.649 54.3394 118.699 54.2409C118.748 54.1916 118.748 54.0931 118.748 54.0438C118.748 53.9453 118.699 53.8961 118.699 53.7976C118.649 53.6498 118.501 53.5513 118.304 53.4528L75.9796 29.1222C75.6836 28.9745 75.3383 28.876 74.993 28.876C74.6477 28.876 74.3024 28.9252 74.0558 29.073Z" fill="#F66C4C"/>
</svg>
