<svg width="150" height="150" viewBox="0 0 150 150" fill="none" xmlns="http://www.w3.org/2000/svg">
<path fill-rule="evenodd" clip-rule="evenodd" d="M40.0598 37.2369C38.8347 35.2155 40.4427 31.4798 43.9905 34.7294C47.1299 37.5951 53.3321 43.9663 60.6829 49.1093C70.4074 55.9154 81.6378 61.4677 85.4919 62.568C86.5384 62.7983 87.5593 63.0541 88.6058 63.31H88.6313C89.4736 63.5915 90.5456 63.7706 91.5921 63.9497C92.2812 64.0776 92.9703 64.18 93.5829 64.3335L93.6595 64.3591C94.808 64.6405 98.9684 65.664 100.704 67.2504C101.648 68.1204 101.955 69.1438 100.934 70.2697C100.015 71.2676 98.7132 70.7814 96.7478 70.0394C94.5273 69.195 91.3879 67.9924 87.1254 68.453C86.666 68.5042 86.2066 68.5553 85.7982 68.5809C84.0371 68.76 82.9906 68.8368 80.9232 69.5788C79.0089 70.2441 77.4775 70.9605 76.0737 71.8561C74.6699 72.7516 73.4192 73.8262 72.041 75.1824C71.4284 75.7964 70.8413 76.4105 70.3053 77.0502C69.7693 77.6899 69.2844 78.3551 68.825 79.0972C67.3446 81.5791 66.4768 83.5493 65.9663 85.6218C65.4559 87.6944 65.3282 89.8948 65.3282 92.8629C65.3282 94.9866 65.9408 97.5709 66.8852 100.002C67.8551 102.509 69.1823 104.838 70.5606 106.296C70.7903 106.526 71.02 106.757 71.2242 106.961C72.9853 108.752 74.5678 110.339 76.8649 111.618C78.8047 112.718 80.5658 113.205 81.9186 113.614C82.4036 113.767 82.8375 113.895 83.2203 114.023C84.0371 114.305 84.5986 114.765 84.9049 115.303C85.1091 115.661 85.2112 116.019 85.2112 116.403C85.2112 116.787 85.0835 117.119 84.8538 117.426C84.5731 117.81 84.1392 118.092 83.5521 118.22C82.327 118.475 80.3872 117.861 78.3453 116.915C75.4101 115.559 72.2196 113.486 70.8413 112.386L70.8158 112.36L59.5599 102.612C58.4879 101.767 57.1351 100.59 55.8079 99.3876C54.4807 98.2106 53.179 96.9824 52.2346 96.0357C52.0049 95.8054 51.8007 95.6007 51.571 95.3705C49.7588 93.605 45.1135 88.7434 45.1135 87.1826C45.1135 86.7221 45.2666 86.2615 45.5474 85.9033C45.7771 85.5962 46.0834 85.366 46.4407 85.238C46.7981 85.1101 47.2064 85.1101 47.6403 85.238C48.1253 85.3915 48.6613 85.7498 49.1462 86.3894C50.1161 87.6688 54.1999 92.1721 57.033 94.8843C59.0749 96.8545 61.1168 98.7479 62.4951 99.8482C62.4696 99.7714 62.4441 99.7202 62.4185 99.6435C62.342 99.4388 62.2654 99.2341 62.2143 99.0038C60.8616 94.0399 60.8361 89.1272 62.0612 84.5472C63.2863 79.9159 65.7366 75.6173 69.3099 71.984C70.969 70.2952 72.8832 68.888 74.9762 67.7366C76.6097 66.841 78.3198 66.099 80.0809 65.5361C76.5076 64.7429 66.145 59.5231 57.0841 53.0752C48.9165 47.2414 41.8975 40.205 40.0853 37.2113L40.0598 37.2369ZM133.094 87.0547C132.685 86.2103 131.868 85.5707 130.618 85.673C130.235 85.6986 129.903 85.7753 129.622 85.9033C129.112 86.108 128.703 86.4662 128.448 86.9012C128.193 87.3362 128.065 87.8735 128.116 88.462C128.142 88.8202 128.218 89.204 128.397 89.5622C128.601 90.0484 128.908 90.381 129.316 90.6113C129.775 90.8671 130.337 90.9951 130.95 90.9695C132.149 90.9439 132.889 90.2787 133.196 89.4087C133.323 89.0249 133.4 88.6155 133.374 88.2061C133.349 87.7967 133.272 87.3873 133.094 87.0291V87.0547ZM123.624 85.6474C122.093 85.6474 120.893 85.3915 120.893 83.6005C120.893 83.012 121.097 82.5002 121.455 82.142C121.812 81.7838 122.297 81.5791 122.91 81.5791H131.154C132.787 81.5791 134.37 82.3467 135.544 83.5237C136.718 84.7007 137.484 86.2871 137.484 87.9247C137.484 89.9716 136.794 91.7115 135.697 92.9653C134.548 94.2702 132.94 95.0378 131.154 95.0378C129.699 95.0378 129.342 94.9611 128.627 94.8075C128.321 94.7564 127.963 94.6796 127.427 94.5773C126.764 94.4749 126.1 94.347 125.487 94.2446C125.105 94.1679 124.722 94.1167 124.39 94.0655C124.033 94.0143 123.675 93.9632 123.318 93.912C121.225 93.6305 119.362 93.3747 119.362 91.4557C119.362 89.8693 120.332 89.4599 121.557 89.4599C122.144 89.4599 122.807 89.5622 123.42 89.6646C123.701 89.7157 123.982 89.7669 124.237 89.7925C124.211 89.6134 124.186 89.4343 124.186 89.2808C124.033 88.027 123.931 87.1315 124.62 85.5707H124.492C124.186 85.5707 123.905 85.5962 123.701 85.5962L123.624 85.6474ZM128.933 104.582C128.244 104.633 127.58 104.914 127.172 105.401C126.789 105.836 126.585 106.296 126.534 106.782C126.457 107.32 126.585 107.882 126.815 108.471C127.121 109.187 127.759 109.648 128.474 109.801C128.908 109.904 129.393 109.904 129.852 109.801C130.286 109.699 130.72 109.494 131.052 109.213C131.588 108.752 131.919 108.062 131.843 107.115C131.792 106.27 131.46 105.656 130.975 105.247C130.694 104.991 130.362 104.838 130.031 104.735C129.673 104.633 129.316 104.582 128.933 104.607V104.582ZM121.889 102.688C121.276 102.305 120.868 101.742 120.868 100.923C120.868 100.334 121.072 99.8226 121.429 99.4644C121.787 99.1061 122.271 98.9015 122.884 98.9015H122.935L131.205 100.718H131.23C133.553 101.435 134.931 103.047 135.544 104.863C135.901 105.938 135.978 107.089 135.799 108.19C135.62 109.29 135.212 110.364 134.574 111.286C133.502 112.846 131.766 113.921 129.546 113.921C127.606 113.921 126.687 113.614 125.258 113.128C124.849 113 124.415 112.846 123.931 112.693C123.369 112.514 122.807 112.36 122.246 112.181C121.327 111.9 120.383 111.644 119.54 111.337C119.004 111.158 118.724 111.055 118.417 110.953C117.32 110.569 116.273 110.211 115.099 109.904C114.972 109.878 114.844 109.827 114.716 109.801C113.313 109.443 111.398 108.932 111.398 107.166C111.398 106.578 111.603 106.066 111.96 105.708C112.317 105.349 112.802 105.145 113.415 105.145C113.747 105.145 115.431 105.631 117.32 106.219C119.234 106.808 121.378 107.524 122.425 107.908C122.45 105.17 122.603 104.761 123.65 103.174C123.012 103.098 122.374 102.919 121.863 102.586L121.889 102.688ZM115.201 116.224C114.716 115.789 114.053 115.533 113.313 115.584C112.445 115.635 111.73 116.096 111.271 116.684C111.092 116.94 110.939 117.196 110.862 117.503C110.76 117.785 110.735 118.092 110.76 118.373C110.811 118.987 111.118 119.601 111.756 120.087C112.598 120.727 113.338 120.957 113.925 120.906C114.257 120.881 114.563 120.778 114.819 120.625C115.099 120.471 115.329 120.241 115.508 119.985C115.942 119.397 116.171 118.68 116.12 118.117C116.069 117.375 115.737 116.684 115.201 116.224ZM104.533 110.262C103.231 109.367 102.006 108.497 102.006 107.217C102.006 106.629 102.21 106.117 102.567 105.759C102.925 105.401 103.41 105.196 104.022 105.196C104.711 105.196 106.498 106.475 108.489 107.908C110.403 109.29 112.521 110.799 113.798 111.337C114.053 111.439 114.385 111.516 114.665 111.567C114.819 111.593 114.997 111.618 115.15 111.669C116.478 112.002 117.779 112.846 118.698 113.998C119.566 115.072 120.128 116.429 120.128 117.836C120.128 120.062 119.413 121.751 118.29 122.953C117.652 123.644 116.886 124.156 116.044 124.488C115.201 124.821 114.308 125 113.44 125C111.756 125 110.071 124.412 108.846 123.26L106.013 120.804C105.528 120.369 105.018 119.985 104.507 119.576C103.997 119.192 103.486 118.783 102.976 118.322C102.822 118.194 102.644 118.04 102.465 117.887C101.572 117.196 100.423 116.275 100.423 115.098C100.423 114.509 100.627 113.998 100.985 113.64C101.342 113.281 101.827 113.077 102.44 113.077C103.384 113.077 104.328 113.947 105.298 114.842C105.885 115.379 106.472 115.917 107.008 116.224C107.11 115.635 107.315 115.124 107.595 114.637C107.953 113.998 108.412 113.486 108.821 113.128C108.565 112.974 108.336 112.795 108.08 112.642C107.187 112.053 106.268 111.465 105.4 110.825C105.12 110.62 104.839 110.416 104.558 110.236L104.533 110.262ZM93.4042 86.7988C93.4042 86.8244 93.4042 86.85 93.4042 86.8756C93.4553 87.1315 93.5829 87.5664 93.7871 88.0014C93.9402 88.3085 94.1189 88.5899 94.2976 88.7434C94.8591 89.2296 95.5738 89.4343 96.2884 89.3831C96.6457 89.3575 97.0286 89.2552 97.3604 89.1017C97.6922 88.9481 97.973 88.7178 98.2282 88.462C98.6366 88.0014 98.8663 87.3617 98.8153 86.6197C98.7642 85.8777 98.4324 85.1869 97.8964 84.7263C97.4115 84.2913 96.7478 84.0354 96.0077 84.0866C95.9056 84.0866 95.829 84.1122 95.7524 84.1122C94.9101 84.2401 94.3231 84.7007 93.9402 85.2636C93.5574 85.8009 93.3787 86.415 93.4042 86.8244V86.7988ZM83.9094 82.0652C83.4245 81.7326 83.1182 81.2465 83.1182 80.4533C83.1182 78.8925 84.0881 78.4575 85.2622 78.4575C85.9769 78.4575 86.7681 78.6366 87.3807 78.7901C87.5849 78.8413 87.7635 78.8669 87.8911 78.8925C89.9586 79.3019 91.5665 79.4554 93.2766 79.6345C94.1444 79.7368 95.0122 79.8136 96.0077 79.9415C96.3395 79.9927 96.6202 80.0183 96.8755 80.0183C97.5391 80.0695 97.9475 80.095 98.7642 80.4789C100.806 81.4 102.006 82.9352 102.516 84.6239C102.874 85.7754 102.899 87.0035 102.644 88.1805C102.389 89.3319 101.853 90.4322 101.087 91.3277C99.9893 92.6071 98.3814 93.477 96.4671 93.477C94.3231 93.477 93.4298 93.1188 92.077 92.5815C91.5921 92.4024 91.0561 92.1721 90.3669 91.9418C88.9121 91.4557 86.3087 90.4833 83.8074 89.511C81.6889 88.6667 79.647 87.8223 78.4729 87.2594C77.5796 86.8244 77.0946 86.3127 76.8649 85.7754C76.7118 85.3915 76.7118 85.0333 76.7883 84.7007C76.8649 84.3681 77.0436 84.061 77.2988 83.8307C77.6817 83.4469 78.2432 83.1911 78.8047 83.1911C79.3152 83.1911 81.3826 84.061 83.6542 85.0077C85.8492 85.9289 88.2485 86.9268 89.397 87.2338C89.4481 85.0589 89.882 83.9587 90.1372 83.4214C90.1372 83.4214 90.1372 83.4214 90.1117 83.4214C89.8054 83.3958 89.3715 83.3446 88.7589 83.2422C88.1464 83.1399 87.5849 83.0375 87.0744 82.9608C86.5384 82.8584 85.9769 82.7561 85.4153 82.6282C84.8538 82.5002 84.3178 82.3723 83.8839 82.0652H83.9094ZM90.3159 83.1911C90.2904 83.0887 90.2904 83.1399 90.2648 83.2167C90.2904 83.2167 90.3159 83.2422 90.3159 83.1911ZM110.684 97.8268C110.684 97.8524 110.684 97.878 110.684 97.9036C110.811 98.6712 111.169 99.362 111.705 99.8226C112.19 100.258 112.828 100.488 113.542 100.437C114.844 100.334 115.635 99.5923 115.916 98.6968C116.044 98.3385 116.069 97.9547 116.044 97.5709C116.018 97.1871 115.916 96.8033 115.763 96.4707C115.355 95.6263 114.512 94.9866 113.287 95.0634C113.185 95.0634 113.108 95.089 113.032 95.089C112.19 95.2169 111.603 95.6775 111.22 96.2404C110.837 96.7777 110.658 97.3918 110.684 97.8012V97.8268ZM104.966 93.4003C104.15 93.0165 103.537 92.4024 103.537 91.4557C103.537 89.9204 104.507 89.4599 105.834 89.4599C106.83 89.4599 108.029 89.7669 109.101 90.0228C109.51 90.1251 109.918 90.2275 110.301 90.3042C111.373 90.5089 112.445 90.7136 113.491 90.8927C113.747 90.9439 113.976 90.9695 114.768 91.123C116.171 91.3789 117.55 92.2233 118.545 93.4003C119.489 94.5005 120.102 95.8822 120.102 97.3918C120.102 99.4388 119.413 101.204 118.315 102.432C117.167 103.737 115.559 104.505 113.772 104.505C111.347 104.505 107.902 103.814 104.303 102.842C99.3002 101.511 93.9913 99.6179 90.8264 98.3641C90.2393 98.1338 89.6012 97.9291 88.9631 97.6989C87.6869 97.2895 86.4363 96.8801 85.6195 96.266C85.3388 96.0613 85.1091 95.831 84.9304 95.5496C84.7517 95.2681 84.6496 94.9611 84.6496 94.6028C84.6496 94.0143 84.8538 93.5026 85.2112 93.1444C85.5685 92.7862 86.0534 92.5815 86.666 92.5815C87.0744 92.5815 89.5757 93.477 92.7406 94.6284C97.5391 96.3428 103.946 98.6456 106.625 99.1829C106.345 98.3385 106.294 97.4174 106.472 96.4963C106.625 95.6519 107.008 94.8075 107.595 94.0143C106.753 93.9376 105.758 93.7841 104.966 93.4003ZM90.2393 110.416C90.2393 110.441 90.2393 110.467 90.2393 110.492C90.3669 111.234 90.7243 111.951 91.2603 112.411C91.7452 112.846 92.3833 113.077 93.098 113.025C94.3997 112.923 95.1909 112.181 95.4717 111.286C95.5993 110.927 95.6248 110.544 95.5993 110.16C95.5738 109.776 95.4717 109.392 95.3185 109.059C94.9101 108.215 94.0679 107.575 92.8427 107.652C92.7406 107.652 92.6641 107.678 92.5875 107.678C91.7452 107.806 91.1582 108.266 90.7753 108.829C90.3925 109.367 90.2138 109.981 90.2393 110.39V110.416ZM112.241 77.2805C112.241 77.3317 112.241 77.3828 112.266 77.4084C112.394 78.176 112.726 78.8669 113.262 79.353C113.747 79.7624 114.359 80.0183 115.099 79.9671C116.401 79.8648 117.192 79.1227 117.473 78.2272C117.601 77.869 117.626 77.4852 117.601 77.0758C117.575 76.692 117.473 76.3082 117.294 75.9755C116.886 75.1312 116.044 74.5427 114.87 74.645C114.793 74.645 114.716 74.6706 114.665 74.6706C114.002 74.773 113.364 75.1056 112.879 75.5917C112.419 76.0523 112.164 76.6664 112.215 77.2805H112.241ZM69.8714 97.5198C69.2334 95.4216 68.9781 93.17 68.9781 90.4833C68.9781 86.2871 70.7392 82.1932 73.5468 78.9436C76.38 75.6685 80.2851 73.2633 84.5731 72.4701C85.5685 72.291 88.3506 72.2143 91.0305 72.1375C93.3277 72.0863 95.5482 72.0096 96.416 71.9072H96.4416L106.115 71.1652C107.238 71.114 108.54 71.0117 109.867 70.9093C111.883 70.7558 113.951 70.5767 115.559 70.5767C117.345 70.5767 118.8 71.3699 119.821 72.5213C121.021 73.8518 121.659 75.6685 121.659 77.3572C121.659 79.3786 120.995 81.0162 119.923 82.142C118.775 83.3702 117.141 84.0354 115.355 84.0354H105.528C104.941 84.0354 104.43 83.8307 104.073 83.4725C103.716 83.1143 103.512 82.6282 103.512 82.0141C103.512 80.2486 104.864 79.9415 106.702 79.9415C107.085 79.9415 107.544 79.9671 108.004 79.9671C108.259 79.9671 108.489 79.9927 108.769 79.9927C108.412 79.1483 108.233 78.3807 108.233 77.6131C108.208 76.8199 108.336 76.0523 108.54 75.1568C106.83 75.1824 105.043 75.3615 103.307 75.515C102.516 75.5917 101.699 75.6685 101.036 75.7197L93.2001 76.1291C92.5364 76.1547 91.6942 76.1802 90.8008 76.1802C88.5037 76.2058 85.7982 76.2314 84.2923 76.7176C82.6333 77.2293 81.1529 77.9202 79.8257 78.7645C78.4984 79.6089 77.3499 80.6324 76.38 81.835C74.5933 84.1122 73.4448 86.85 73.1129 89.7413C72.7811 92.4791 73.215 95.3193 74.5167 97.9803C75.4356 99.8482 77.2988 102.023 79.4428 104.019C81.7144 106.143 84.2923 108.087 86.3342 109.264C86.3852 108.906 86.4363 108.599 86.5384 108.292C86.6915 107.806 86.8957 107.396 87.1254 106.987C87.5849 106.219 87.8656 105.938 88.0953 105.708C88.1719 105.631 88.2485 105.554 88.325 105.452C87.6869 105.145 86.666 104.505 85.6195 103.763C83.7818 102.484 81.7655 100.923 81.1529 100.36L77.9114 97.3151C77.8603 97.2639 77.7838 97.1871 77.6817 97.1104C76.916 96.3939 75.2314 94.8075 75.2569 93.2211C75.2569 92.7862 75.4101 92.3512 75.6653 92.0442C75.895 91.7627 76.2013 91.5324 76.5586 91.4301C76.916 91.3277 77.3243 91.3021 77.7327 91.4557C78.2177 91.6092 78.7281 91.9674 79.1876 92.5815C81.1529 94.8075 82.9651 96.5475 84.9049 98.1083C86.8447 99.6691 88.9631 101.076 91.5665 102.612C93.2256 103.584 93.3787 103.609 93.736 103.635C93.9913 103.661 94.3231 103.686 95.0633 103.916C97.2838 104.607 98.7132 106.245 99.3513 108.164C99.7086 109.213 99.8107 110.364 99.6575 111.439C99.5044 112.539 99.096 113.588 98.4069 114.509C97.2583 116.07 95.3185 117.145 92.613 117.145C90.5201 117.145 87.5338 115.072 85.4919 113.665C85.1601 113.435 84.8538 113.23 84.5986 113.051L84.5731 113.025C80.4893 110.288 76.3034 107.499 73.1895 103.609C71.5815 101.588 70.5351 99.6691 69.897 97.5709L69.8714 97.5198Z" fill="#F66C4C"/>
<path fill-rule="evenodd" clip-rule="evenodd" d="M34.4191 55.557C32.6835 55.6338 31.0755 55.7105 29.9269 55.7105H26.6599L28.1913 52.8192C29.6462 50.0558 30.9734 47.3436 32.3006 44.657C32.9642 43.2753 33.6534 41.9192 34.317 40.5375C34.6233 39.8978 34.9806 39.2581 35.3635 38.5673C36.9714 35.6248 39.0899 31.7356 38.3497 29.1001C38.2221 28.6395 38.0179 28.2046 37.7627 27.7952C37.1501 26.7973 36.1802 25.9529 35.0827 25.4668C34.0107 24.9806 32.7856 24.8527 31.5604 25.1853C31.101 25.3132 30.6161 25.5179 30.1566 25.825C28.2424 27.0276 26.4812 30.8656 25.0774 33.8849C24.7456 34.6269 24.4138 35.3177 24.0054 36.1365C23.6226 36.9041 22.9334 38.2347 22.0912 39.8978C18.722 46.4992 12.6729 58.3716 12.2135 60.2394C11.2691 64.0775 13.5663 65.8941 16.9609 66.7385C21.1468 67.762 26.9662 67.5061 31.586 67.3014C33.3216 67.2247 34.9296 67.1479 36.0781 67.1479H39.3451L37.8137 70.0392C36.3589 72.8026 35.0316 75.5148 33.7044 78.2015C33.0408 79.5832 32.3517 80.9393 31.6881 82.321C31.3818 82.9606 31.0244 83.6003 30.6416 84.2912C29.0336 87.2337 26.9151 91.1229 27.6553 93.7583C27.7829 94.2189 27.9871 94.6539 28.2424 95.0633C28.8549 96.0612 29.8248 96.9055 30.9223 97.3917C31.9943 97.8778 33.2195 98.0058 34.4446 97.6731C34.904 97.5452 35.389 97.3405 35.8484 97.0335C37.7627 95.8309 39.5238 91.9928 40.9276 88.9736C41.2594 88.2316 41.5912 87.5407 41.9996 86.7475C42.3825 85.9799 43.0716 84.6494 43.9139 82.9862C47.283 76.3848 53.3321 64.5125 53.7915 62.6446C54.7359 58.8066 52.4388 56.9899 49.0441 56.1455C44.8583 55.122 39.0389 55.3779 34.4191 55.5826V55.557Z" fill="#32333B"/>
</svg>
