<svg width="151" height="164" viewBox="0 0 151 164" fill="none" xmlns="http://www.w3.org/2000/svg">
<path fill-rule="evenodd" clip-rule="evenodd" d="M32.6021 20.4998L0.493164 82.0001L32.6021 143.501L32.6187 143.469L32.6338 143.501L64.7361 82.0001L32.6338 20.4998L32.6187 20.531L32.6021 20.4998ZM43.3291 82.0001L32.6271 102.5L32.6121 102.531L32.5954 102.5L21.8952 82.0001L32.6021 61.5008L32.6187 61.4691L32.6338 61.5008L43.3291 82.0001Z" fill="white" fill-opacity="0.1"/>
<path fill-rule="evenodd" clip-rule="evenodd" d="M118.227 20.4993L107.527 0H43.0956L85.8979 82.0001L43.0956 164H107.527L118.227 143.5H75.1977L107.3 82.0001L75.1977 20.4993H118.227Z" fill="white" fill-opacity="0.1"/>
<path fill-rule="evenodd" clip-rule="evenodd" d="M107.36 40.9899L107.365 40.9992L128.767 82.0002L107.365 123.001L107.36 123.01H128.762L128.767 123.001L150.169 82.0002L128.767 40.9992L128.762 40.9899H107.36Z" fill="white" fill-opacity="0.1"/>
</svg>
