<svg width="24" height="24" fill="none" xmlns="http://www.w3.org/2000/svg"><path d="M18.12 4c.488 0 .913 0 1.262.027.36.029.725.092 1.079.268l.192.104a2.77 2.77 0 011.037 1.092l.064.134c.137.312.191.63.218.941C22 6.91 22 7.326 22 7.8v8.4c0 .473 0 .89-.028 1.234-.027.31-.08.63-.218.941l-.065.134a2.77 2.77 0 01-1.036 1.092l-.192.104c-.354.176-.72.24-1.08.268-.348.027-.773.027-1.26.027H5.88c-.488 0-.913 0-1.262-.027a3.046 3.046 0 01-.946-.207l-.133-.06a2.781 2.781 0 01-1.12-1.008l-.108-.19c-.186-.353-.253-.719-.283-1.074C2 17.09 2 16.674 2 16.2V7.8c0-.473 0-.89.028-1.234.03-.355.097-.72.283-1.075l.109-.19c.272-.43.66-.779 1.12-1.006l.132-.06a3.05 3.05 0 01.946-.208C4.968 4 5.392 4 5.88 4h12.24zm-4.412 7.962a2.841 2.841 0 01-3.223.134l-.193-.134-6.29-4.756C4 7.371 4 7.566 4 7.8v8.4c0 .507.001.825.021 1.066.02.227.05.294.061.314l.063.1a.788.788 0 00.282.233l.096.031c.054.013.134.026.254.036.252.02.583.02 1.103.02h12.24c.52 0 .851 0 1.103-.02.24-.02.32-.052.35-.067l.109-.064a.765.765 0 00.236-.269l.027-.079c.012-.048.024-.121.034-.235.02-.24.021-.559.021-1.066V7.8c0-.235 0-.43-.003-.594l-6.289 4.756zm-2.21-1.595l.115.072c.28.146.632.122.889-.072L18.275 6H5.724l5.774 4.367z" fill="#F66C4C"/></svg>