<svg width="36" height="36" fill="none" xmlns="http://www.w3.org/2000/svg"><path d="M9.213 22.706a3.215 3.215 0 012.272 5.485 3.214 3.214 0 01-2.272.942H8v1.213l-.005.102a1 1 0 01-1.99 0L6 30.346v-6.64l.005-.101A1 1 0 017 22.706h2.213zm8.514.006a4.32 4.32 0 010 8.629l-.214.005h-1.66a1 1 0 01-1-1v-6.64a1 1 0 011-1h1.66l.214.006zm11.508 0a1 1 0 010 1.99l-.102.004H26.26v1.873h2.32a1 1 0 010 2h-2.32v1.767a1 1 0 01-2 0v-6.64a1 1 0 011-1h3.873l.102.006zm-12.381 6.634h.659l.23-.011a2.32 2.32 0 000-4.617l-.23-.012h-.66v4.64zM8 27.133h1.213a1.214 1.214 0 000-2.427H8v2.427zM21.486 5.005a1 1 0 01.609.288l7.746 7.746c.187.187.293.442.293.707v5.533a1 1 0 01-2 0v-4.533h-6.747a1 1 0 01-.995-.9l-.005-.1V7H8.108A.107.107 0 008 7.106V19.28l-.005.103a1 1 0 01-1.99 0L6 19.279V7.106A2.107 2.107 0 018.106 5h13.282l.098.005zm.9 7.741h4.333l-4.332-4.333v4.333z" fill="#fff"/></svg>