<svg width="2115" height="3683" fill="none" xmlns="http://www.w3.org/2000/svg"><g clip-path="url(#clip0_2005_468)"><path d="M1762.51 2455.19l-352.54 613.87-352.06 613.44-.33-.56-.23-.39-.21.4-.28.53-352.1-613.42-352.272-613.87L.288 1841.5l352.2-613.69L704.76 613.939 1056.86.519l.28.536.21.398.23-.389.33-.566 352.28 613.441 352.32 613.871 352.2 613.69-352.2 613.69zm-351.89-613.81l-352.27-613.82h0l-.55-.94-.23-.39-.21.4-.49.94h0l-352.324 613.81-.071.12.071.12 352.104 613.81h0l.49.94.21.4.23-.39.55-.94h0l352.49-613.82.07-.12-.07-.12z" stroke="#fff" stroke-opacity=".3" stroke-width=".5"/></g><defs><clipPath id="clip0_2005_468"><path fill="#fff" d="M0 0h2115v3683H0z"/></clipPath></defs></svg>