<svg width="275" height="53" fill="none" xmlns="http://www.w3.org/2000/svg"><path d="M73.501 31.012h-.55l-4.557-6.354v10.426h-3.757v-16.47h3.78l5.084 6.939 4.794-6.941h3.547v1.22l-8.34 11.18zm8.333.324H78.07v3.77h3.764v-3.77zm25.189-10.557c1.624-1.627 3.741-2.45 6.33-2.45 2.588 0 4.656.777 6.28 2.332 1.623 1.555 2.471 3.63 2.471 6.196 0 2.476-.824 4.525-2.495 6.127-1.672 1.602-3.739 2.404-6.256 2.404-2.569 0-4.658-.778-6.306-2.332-1.647-1.555-2.445-3.63-2.445-6.199 0-2.43.8-4.452 2.421-6.078zm2.965 9.638a4.47 4.47 0 003.365 1.437c1.504 0 2.68-.472 3.504-1.391.824-.919 1.247-2.145 1.247-3.606 0-1.46-.447-2.684-1.365-3.603a4.602 4.602 0 00-3.386-1.391c-1.389 0-2.517.47-3.413 1.39-.895.921-1.341 2.121-1.341 3.604a4.956 4.956 0 001.389 3.56zm16.114 4.688V18.612h9.409v3.534h-5.647v12.959h-3.762zm13.618-14.326c1.623-1.627 3.741-2.45 6.329-2.45 2.589 0 4.658.777 6.28 2.332 1.622 1.555 2.471 3.63 2.471 6.196 0 2.476-.823 4.525-2.493 6.127-1.669 1.602-3.741 2.404-6.258 2.404-2.568 0-4.658-.778-6.305-2.332-1.648-1.555-2.446-3.63-2.446-6.199 0-2.43.8-4.452 2.422-6.078zm2.965 9.638a4.471 4.471 0 003.364 1.437c1.505 0 2.682-.472 3.504-1.391.822-.919 1.248-2.145 1.248-3.606 0-1.46-.448-2.684-1.365-3.603a4.608 4.608 0 00-3.387-1.391c-1.389 0-2.517.47-3.41 1.39-.894.921-1.341 2.121-1.341 3.604a4.954 4.954 0 001.387 3.56zm16.113 4.688V18.612h9.41v3.534h-5.647v12.959h-3.763zm16.708 0h-3.763V18.612c.282 0 1.082 0 2.376-.024 1.293-.024 2.21-.024 2.658-.024 2.324 0 4.017.518 5.08 1.555 1.059 1.012 1.576 2.334 1.576 3.912a5.325 5.325 0 01-1.669 3.934c-1.101 1.06-2.587 1.603-4.424 1.603-.612.01-1.225-.015-1.834-.072v5.609zm0-12.96v3.772c.569.072 1.143.111 1.717.117 1.2 0 2.212-.59 2.212-2.021 0-1.274-.754-1.91-2.282-1.91-.079-.005-.62.019-1.647.043zm8.296 12.96l6.846-16.493h3.363l6.845 16.493h-4.021l-1.365-3.464h-6.517l-1.363 3.464h-3.788zm8.422-11.664l-1.858 4.66h3.693l-1.835-4.66zm21.452 11.664v-6.636h-5.999v6.645h-3.763V18.62h3.763v6.314h5.999V18.62h3.765v16.493l-3.765-.01zm18.702 0v-6.636h-5.999v6.645h-3.764V18.62h3.764v6.314h5.999V18.62h3.765v16.493l-3.765-.01zm12.221-.005h-3.284V18.609h3.774l-.013 10.25 7.305-10.24h3.302v1.214l-11.084 15.269zm16.24.005V18.612h3.764v7.185l5.387-7.185h4.516l-6.186 7.61 6.68 8.883h-4.77l-5.621-7.847v7.847h-3.77zM100.604 24.978V35.11H96.84v-6.64h-6v6.645h-3.762V18.62h3.762v6.357h9.764zm0-6.366H96.84v3.77h3.764v-3.77zM255.676 31.33h-3.765v3.77h3.765v-3.77z" fill="#fff"/><path fill-rule="evenodd" clip-rule="evenodd" d="M44.732 11.794L25.56.7 6.39 11.794l.01.005-.01.006 19.17 11.09 19.172-11.09-.01-.006.01-.005zM25.56 15.499l-6.39-3.697-.01-.005.01-.006 6.39-3.696 6.39 3.699.01.005-.01.006-6.39 3.694z" fill="#F66C4C"/><path fill-rule="evenodd" clip-rule="evenodd" d="M44.732 41.375l6.39-3.697v-22.26L25.56 30.207 0 15.42v22.26l6.39 3.696V26.509L25.56 37.6l19.172-11.09v14.865z" fill="#F66C4C"/><path fill-rule="evenodd" clip-rule="evenodd" d="M38.344 37.62l-.002.002-12.781 7.394-12.78-7.394-.004-.001v7.394l.003.001 12.78 7.394 12.782-7.394.002-.001V37.62z" fill="#F66C4C"/></svg>