<svg width="250" height="144" viewBox="0 0 250 144" fill="none" xmlns="http://www.w3.org/2000/svg">
<g clip-path="url(#clip0_482_4214)">
<path fill-rule="evenodd" clip-rule="evenodd" d="M56.036 111.975C56.8307 109.074 59.5066 105.569 64.4521 101.334L80.9229 88.989C82.0129 88.1714 83.1227 87.4529 84.2127 86.6371C86.11 84.9407 86.2729 83.9377 85.471 82.9868L75.2721 75.3423C67.9424 80.8348 66.4926 81.9207 59.1647 87.4151C57.7489 88.5388 56.0252 91.3373 56.0252 94.1214C56.0234 96.7794 56.0234 99.4393 56.0234 102.099C56.027 105.391 56.0324 108.683 56.036 111.975Z" fill="#EA5558"/>
<path fill-rule="evenodd" clip-rule="evenodd" d="M71.2753 31.0254C70.4806 33.9265 67.8047 37.4328 62.8592 41.6665L46.3884 54.0113C45.2984 54.8289 44.1886 55.5474 43.0986 56.365C41.2013 58.0614 41.0384 59.0626 41.8385 60.0135L52.0392 67.658C59.3689 62.1655 60.8169 61.0796 68.1466 55.5852C69.5624 54.4615 71.2861 51.663 71.2861 48.8807C71.2879 46.2209 71.2879 43.561 71.2879 40.9012C71.2843 37.6093 71.2789 34.3173 71.2753 31.0254Z" fill="#008DD2"/>
<path fill-rule="evenodd" clip-rule="evenodd" d="M41.4446 58.0308C42.3718 58.87 61.062 58.8663 63.5625 58.9564L51.5289 67.9732C48.4199 65.6429 45.309 63.3126 42.1999 60.9823C41.5019 60.2494 40.6015 59.3994 41.4446 58.0308Z" fill="url(#paint0_radial_482_4214)"/>
<path fill-rule="evenodd" clip-rule="evenodd" d="M43.1019 56.3125C41.8096 57.6091 42.973 60.7354 45.7653 62.6947L47.8344 64.1569L65.576 77.0347L65.6226 94.827L65.1285 95.4501C60.72 92.1456 50.4871 84.0274 43.1914 78.8716C41.7523 77.7929 40 75.0466 40 72.2643C40.0072 69.2011 40.0143 66.1379 40.0215 63.0746C39.9535 59.0012 42.019 57.1805 43.1019 56.3125Z" fill="#FEFEFE"/>
<path fill-rule="evenodd" clip-rule="evenodd" d="M85.866 84.9693C84.9388 84.1319 66.2468 84.1355 63.748 84.0455L75.7816 75.0269C78.8907 77.3571 82.0015 79.6874 85.1106 82.0195C85.8087 82.7524 86.709 83.6006 85.866 84.9693Z" fill="#AE2220"/>
<path fill-rule="evenodd" clip-rule="evenodd" d="M84.2081 86.6892C85.5005 85.3908 84.337 82.2645 81.5448 80.307L79.4756 78.8429L61.734 65.9652L61.6875 48.1747L62.1815 47.5498C66.5901 50.8543 76.8212 58.9725 84.1186 64.1283C85.5577 65.2088 87.3101 67.9533 87.3101 70.7374C87.3029 73.7988 87.2957 76.862 87.2886 79.9253C87.3566 84.0005 85.291 85.8194 84.2081 86.6892Z" fill="#FEFEFE"/>
<path fill-rule="evenodd" clip-rule="evenodd" d="M84.2611 86.5938C85.5302 85.3368 84.3882 82.1745 81.6407 80.1305L79.6056 78.6034L62.154 65.524L62.1504 47.575L62.1826 47.5498C69.5123 53.0442 76.842 58.5367 84.1716 64.0311C85.5875 65.1548 87.3111 67.9533 87.3111 70.7374C87.304 73.7988 87.2968 76.862 87.2897 79.9253C87.3559 84.0023 85.3261 85.7582 84.2611 86.5938Z" fill="url(#paint1_radial_482_4214)"/>
<path d="M107.472 73.2823V74.876L109.064 74.849C109.975 74.8328 110.807 74.7032 111.559 74.4636C112.312 74.2241 112.958 73.8856 113.499 73.4498C114.038 73.0122 114.457 72.4863 114.754 71.8686C115.051 71.2527 115.201 70.5684 115.201 69.8139C115.201 68.1697 114.675 66.8983 113.624 65.9997C112.574 65.0993 111.118 64.6509 109.259 64.6509H104.32V82.951H106.244V74.849V73.2823V66.1924H109.314C110.598 66.1924 111.584 66.4823 112.271 67.0658C112.958 67.6475 113.304 68.5047 113.304 69.6338C113.304 70.9196 112.885 71.8488 112.047 72.4215C111.211 72.996 109.928 73.2823 108.197 73.2823H107.472ZM129.567 75.4919C129.567 74.3952 129.409 73.3903 129.094 72.4737C128.778 71.5571 128.33 70.7773 127.754 70.1344C127.177 69.4933 126.476 68.9927 125.649 68.6325C124.82 68.2724 123.904 68.0923 122.9 68.0923C121.895 68.0923 120.979 68.2724 120.152 68.6325C119.325 68.9927 118.622 69.4933 118.045 70.1344C117.469 70.7773 117.023 71.5571 116.706 72.4737C116.391 73.3903 116.232 74.3952 116.232 75.4919C116.232 76.6048 116.391 77.6151 116.706 78.5227C117.023 79.4303 117.469 80.2101 118.045 80.8602C118.622 81.5121 119.325 82.0163 120.152 82.3765C120.979 82.7367 121.895 82.9168 122.9 82.9168C123.904 82.9168 124.82 82.7367 125.649 82.3765C126.476 82.0163 127.177 81.5121 127.754 80.8602C128.33 80.2101 128.778 79.4303 129.094 78.5227C129.409 77.6151 129.567 76.6048 129.567 75.4919ZM127.643 75.4919C127.643 76.3833 127.532 77.2009 127.308 77.9447C127.084 78.6902 126.764 79.3277 126.345 79.859C125.926 80.3902 125.429 80.8008 124.852 81.0925C124.276 81.3843 123.626 81.5301 122.9 81.5301C122.175 81.5301 121.523 81.3843 120.947 81.0925C120.37 80.8008 119.873 80.3902 119.454 79.859C119.037 79.3277 118.715 78.6902 118.493 77.9447C118.269 77.2009 118.158 76.3833 118.158 75.4919C118.158 74.6185 118.269 73.8135 118.493 73.077C118.715 72.3405 119.037 71.7066 119.454 71.1753C119.873 70.6441 120.37 70.2299 120.947 69.9291C121.523 69.6302 122.175 69.4807 122.9 69.4807C123.626 69.4807 124.276 69.6302 124.852 69.9291C125.429 70.2299 125.926 70.6441 126.345 71.1753C126.764 71.7066 127.084 72.3405 127.308 73.077C127.532 73.8135 127.643 74.6185 127.643 75.4919ZM141.536 80.4496C141.481 80.5361 141.359 80.6387 141.173 80.7576C140.988 80.8782 140.756 80.9935 140.476 81.1051C140.197 81.2168 139.88 81.3158 139.528 81.4005C139.173 81.4869 138.821 81.5301 138.468 81.5301C137.648 81.5301 136.915 81.3789 136.263 81.0799C135.613 80.7792 135.055 80.3596 134.589 79.8211C134.124 79.2809 133.766 78.6398 133.516 77.8942C133.265 77.1487 133.14 76.3221 133.14 75.4145C133.14 74.5249 133.265 73.7109 133.516 72.9743C133.766 72.2378 134.129 71.6129 134.604 71.0979C135.078 70.5846 135.649 70.1867 136.319 69.9039C136.988 69.6212 137.741 69.4807 138.579 69.4807C138.876 69.4807 139.179 69.5095 139.485 69.5708C139.793 69.6302 140.081 69.6986 140.351 69.7761C140.62 69.8517 140.867 69.9291 141.09 70.0066C141.312 70.084 141.481 70.1488 141.592 70.1993L141.76 68.6848C141.368 68.5461 140.876 68.4146 140.281 68.285C139.685 68.1571 139.034 68.0923 138.329 68.0923C137.267 68.0923 136.301 68.2724 135.427 68.6325C134.552 68.9927 133.804 69.4969 133.181 70.1488C132.558 70.7989 132.075 71.5787 131.729 72.4863C131.386 73.3939 131.214 74.3952 131.214 75.4919C131.214 76.6228 131.377 77.6421 131.702 78.5497C132.028 79.4574 132.488 80.2353 133.082 80.8872C133.678 81.5373 134.403 82.038 135.259 82.3891C136.114 82.7403 137.072 82.9168 138.133 82.9168C139.082 82.9168 139.834 82.8177 140.392 82.6214C140.951 82.4233 141.388 82.1964 141.704 81.9407L141.536 80.4496ZM153.477 80.4496C153.421 80.5361 153.299 80.6387 153.113 80.7576C152.927 80.8782 152.696 80.9935 152.417 81.1051C152.138 81.2168 151.821 81.3158 151.468 81.4005C151.114 81.4869 150.761 81.5301 150.409 81.5301C149.589 81.5301 148.855 81.3789 148.204 81.0799C147.554 80.7792 146.995 80.3596 146.53 79.8211C146.065 79.2809 145.707 78.6398 145.456 77.8942C145.205 77.1487 145.08 76.3221 145.08 75.4145C145.08 74.5249 145.205 73.7109 145.456 72.9743C145.707 72.2378 146.07 71.6129 146.544 71.0979C147.019 70.5846 147.59 70.1867 148.259 69.9039C148.928 69.6212 149.682 69.4807 150.52 69.4807C150.817 69.4807 151.119 69.5095 151.425 69.5708C151.733 69.6302 152.021 69.6986 152.292 69.7761C152.56 69.8517 152.807 69.9291 153.031 70.0066C153.253 70.084 153.421 70.1488 153.532 70.1993L153.7 68.6848C153.308 68.5461 152.816 68.4146 152.222 68.285C151.626 68.1571 150.974 68.0923 150.269 68.0923C149.208 68.0923 148.241 68.2724 147.368 68.6325C146.492 68.9927 145.744 69.4969 145.121 70.1488C144.498 70.7989 144.015 71.5787 143.67 72.4863C143.326 73.3939 143.154 74.3952 143.154 75.4919C143.154 76.6228 143.317 77.6421 143.643 78.5497C143.969 79.4574 144.429 80.2353 145.023 80.8872C145.619 81.5373 146.344 82.038 147.199 82.3891C148.055 82.7403 149.013 82.9168 150.072 82.9168C151.021 82.9168 151.774 82.8177 152.333 82.6214C152.891 82.4233 153.328 82.1964 153.645 81.9407L153.477 80.4496Z" fill="#5B5B5B"/>
<path fill-rule="evenodd" clip-rule="evenodd" d="M182.702 81.5785C182.248 82.0612 181.709 82.4718 181.072 82.7401C180.248 83.084 179.379 83.2749 178.475 83.2749C177.111 83.2749 175.827 82.9364 174.872 82.0071C173.957 81.1157 173.577 80.0064 173.577 78.7908C173.577 77.2367 174.233 75.9725 175.63 75.0865C177.241 74.0655 179.454 73.8259 181.36 73.8259H181.895L181.915 74.1393C181.92 74.2113 181.924 74.2834 181.929 74.3554C181.94 74.5247 181.943 74.6975 181.943 74.8686C181.943 75.0199 181.943 75.1712 181.943 75.3242C181.943 75.5565 181.897 75.8591 181.557 75.8591C180.261 75.8825 178.566 76.0356 177.449 76.7037C176.622 77.2007 176.198 77.8778 176.198 78.7908C176.198 79.4319 176.336 80.1001 176.81 80.5953C177.295 81.1031 178.109 81.2148 178.804 81.2148C179.908 81.2148 180.898 80.9248 181.58 80.0947C182.305 79.2122 182.538 78.1065 182.538 77.0188V72.9435C182.538 72.1872 182.409 71.2651 181.802 70.6979C181.236 70.1684 180.438 70.0136 179.656 70.0136C178.963 70.0136 178.278 70.1162 177.614 70.2909C176.971 70.462 176.346 70.7033 175.79 71.0454L175.441 71.2597L174.576 69.5868L174.838 69.4265C175.049 69.2986 175.29 69.1816 175.512 69.0699C175.888 68.8826 176.284 68.7242 176.683 68.5837C177.157 68.4144 177.646 68.2794 178.14 68.1659C178.663 68.0453 179.2 67.9786 179.738 67.9786C181.167 67.9786 182.622 68.2722 183.653 69.2428C184.691 70.2207 184.993 71.5965 184.993 72.9183V80.5124C184.993 80.7826 184.993 81.0509 184.993 81.321C184.993 81.5407 185.001 81.7586 185.02 81.9747C185.036 82.1404 185.045 82.3259 185.017 82.4898C185.006 82.5402 184.997 82.5906 184.988 82.641L184.94 82.9166L182.702 82.9526V81.5785ZM159.314 66.9918V82.9238H156.691V64.6021H171.324V82.9238H168.729V66.9918H159.314ZM190.275 72.9651L196.071 68.283H199.395L192.121 74.1699L200 82.9472H196.721L190.275 75.5746V82.9472H187.82V68.2578H190.275V72.9651Z" fill="#5B5B5B"/>
</g>
<defs>
<radialGradient id="paint0_radial_482_4214" cx="0" cy="0" r="1" gradientUnits="userSpaceOnUse" gradientTransform="translate(53.41 65.164) scale(14.1803 14.2672)">
<stop stop-color="#008DD2"/>
<stop offset="1" stop-color="#163E72"/>
</radialGradient>
<radialGradient id="paint1_radial_482_4214" cx="0" cy="0" r="1" gradientUnits="userSpaceOnUse" gradientTransform="translate(74.6927 57.3894) rotate(180) scale(31.7155 31.909)">
<stop stop-color="#F08365"/>
<stop offset="0.34902" stop-color="#E95044"/>
<stop offset="1" stop-color="#E31E24"/>
</radialGradient>
<clipPath id="clip0_482_4214">
<rect width="160" height="81" fill="white" transform="translate(40 31)"/>
</clipPath>
</defs>
</svg>
