<svg width="34" height="34" fill="none" xmlns="http://www.w3.org/2000/svg"><path d="M17.032 34h-.074C7.608 34 0 26.39 0 17.037v-.074C0 7.61 7.607 0 16.958 0h.074c9.35 0 16.958 7.61 16.958 16.963v.074C33.99 26.391 26.383 34 17.032 34zm-.074-32.85C8.24 1.15 1.15 8.245 1.15 16.964v.074c0 8.72 7.09 15.812 15.807 15.812h.074c8.717 0 15.808-7.093 15.808-15.812v-.074c0-8.72-7.091-15.812-15.808-15.812h-.074z" fill="#F66C4C"/><path d="M6.795 16.44l.137-.066c.78-.36 1.57-.7 2.36-1.037.043 0 .114-.05.154-.066l.183-.078c.117-.051.235-.1.351-.151l.703-.3 1.405-.602 2.81-1.203 2.811-1.203 2.81-1.202c.938-.4 1.875-.803 2.812-1.203.208-.09.433-.223.657-.262.187-.034.37-.098.559-.134.358-.068.752-.095 1.095.053.119.052.228.124.319.215.435.43.374 1.137.282 1.743l-1.924 12.658c-.087.579-.207 1.214-.664 1.58-.387.31-.936.344-1.414.213-.477-.132-.898-.41-1.311-.683l-5.141-3.404c-.407-.269-.86-.621-.856-1.11.002-.295.178-.557.358-.79 1.489-1.944 3.637-3.279 5.235-5.132.225-.26.402-.733.093-.883-.184-.09-.396.032-.564.148-2.112 1.467-4.223 2.936-6.336 4.403-.689.48-1.412.972-2.242 1.089-.743.106-1.491-.101-2.21-.313a108.11 108.11 0 01-1.804-.547c-.32-.099-.648-.206-.894-.43-.247-.224-.388-.602-.24-.901.094-.188.274-.306.464-.403l.002.001z" fill="#F66C4C"/></svg>