<svg width="34" height="34" fill="none" xmlns="http://www.w3.org/2000/svg"><path d="M17.032 34h-.074C7.608 34 0 26.39 0 17.037v-.074C0 7.61 7.607 0 16.958 0h.074c9.35 0 16.958 7.61 16.958 16.963v.074C33.99 26.391 26.383 34 17.032 34zm-.074-32.85C8.24 1.15 1.15 8.245 1.15 16.964v.074c0 8.72 7.09 15.812 15.807 15.812h.074c8.717 0 15.808-7.093 15.808-15.812v-.074c0-8.72-7.091-15.812-15.808-15.812h-.074z" fill="#F66C4C"/><path d="M20.196 21.804c-4.203 0-7.622-3.421-7.623-7.625a1.936 1.936 0 012.253-1.905c.227.038.444.115.643.231a.108.108 0 01.053.077l.444 2.8a.107.107 0 01-.027.09 1.918 1.918 0 01-.906.565l-.168.047.063.163a5.687 5.687 0 003.2 3.2l.162.065.047-.168a1.92 1.92 0 01.565-.907.106.106 0 01.072-.028.11.11 0 01.019.001l2.8.445c.033.005.06.024.077.053a1.94 1.94 0 01.258.964 1.935 1.935 0 01-1.932 1.932z" fill="#F66C4C"/><path d="M27.65 16.078a10.317 10.317 0 00-3.305-6.692 10.31 10.31 0 00-7-2.734C11.641 6.652 7 11.295 7 17.001a10.3 10.3 0 001.528 5.405l-2.23 4.937 7.139-.76c1.241.508 2.555.766 3.907.766.356 0 .72-.018 1.086-.056.322-.035.648-.085.968-.15 4.777-.965 8.264-5.206 8.292-10.087V17c0-.311-.014-.622-.042-.922l.001-.001zm-13.938 8.338l-3.95.42 1.18-2.613-.236-.316-.054-.073a8.19 8.19 0 01-1.565-4.832c0-4.555 3.704-8.261 8.258-8.261 4.266 0 7.883 3.33 8.231 7.58a8.509 8.509 0 01.026.877 8.238 8.238 0 01-7.336 8.014 8.168 8.168 0 01-4.403-.722l-.15-.072-.001-.002z" fill="#F66C4C"/></svg>