<svg width="60" height="60" fill="none" xmlns="http://www.w3.org/2000/svg"><path d="M30.057 60h-.132C13.425 60 0 46.571 0 30.066v-.132C0 13.429 13.425 0 29.925 0h.132c16.5 0 29.925 13.429 29.925 29.934v.132C59.982 46.571 46.558 60 30.057 60zm-.132-57.97C14.543 2.03 2.03 14.549 2.03 29.935v.132c0 15.386 12.513 27.903 27.895 27.903h.132c15.382 0 27.895-12.517 27.895-27.903v-.132c0-15.386-12.513-27.903-27.895-27.903h-.132z" fill="#F66C4C"/><path d="M34.36 36c-5.718 0-10.37-4.296-10.371-9.574C23.99 25.088 25.17 24 26.617 24c.149 0 .296.012.437.035.31.047.604.144.875.29a.138.138 0 01.072.097l.604 3.515a.128.128 0 01-.036.113 2.65 2.65 0 01-1.234.71l-.228.059.086.204c.78 1.832 2.367 3.295 4.353 4.018l.22.08.065-.21c.133-.438.4-.831.769-1.139a.15.15 0 01.098-.034l.025.001 3.809.558a.15.15 0 01.106.066 2.318 2.318 0 01.35 1.211c0 1.337-1.178 2.425-2.627 2.426z" fill="#F66C4C"/><path d="M43.936 28.751a14.137 14.137 0 00-4.325-9.052C37.104 17.314 33.851 16 30.449 16c-7.467 0-13.542 6.28-13.542 14 0 2.59.692 5.114 2 7.313l-2.918 6.68 9.344-1.03A13.04 13.04 0 0030.447 44c.466 0 .943-.025 1.422-.076.422-.047.848-.115 1.266-.203 6.253-1.306 10.818-7.043 10.854-13.646V30c0-.42-.018-.84-.054-1.247l.001-.002zm-18.243 11.28l-5.17.57 1.544-3.536-.309-.428c-.023-.03-.045-.062-.07-.098a11.333 11.333 0 01-2.049-6.537c0-6.163 4.85-11.176 10.81-11.176 5.584 0 10.317 4.504 10.773 10.254.024.308.038.618.038.923l-.003.265c-.114 5.155-3.598 9.533-8.47 10.648a9.975 9.975 0 01-1.133.193 10.392 10.392 0 01-5.763-.976l-.196-.099-.002-.003z" fill="#F66C4C"/></svg>