<svg width="200" height="200" fill="none" xmlns="http://www.w3.org/2000/svg"><path fill="#F66C4C" d="M0 0h200v200H0z"/><path fill-rule="evenodd" clip-rule="evenodd" d="M162.25 52.61L100 17 37.75 52.61l.031.02-.032.016L100 88.249l62.251-35.603-.031-.017.031-.018zM100 64.509l-20.75-11.87-.031-.016.031-.019L100 40.736l20.749 11.875.032.018-.032.017-20.75 11.862z" fill="#fff"/><path fill-rule="evenodd" clip-rule="evenodd" d="M162.251 147.574L183 135.707V64.249l-83 47.47-83-47.47v71.458l20.75 11.867V99.852L100 135.455l62.251-35.603v47.722z" fill="#fff"/><path fill-rule="evenodd" clip-rule="evenodd" d="M141.51 135.522l-.009.006L100 159.264l-41.501-23.736-.01-.006v23.736l.01.006L99.999 183l41.502-23.736.009-.006v-23.736z" fill="#fff"/></svg>