<svg width="36" height="36" fill="none" xmlns="http://www.w3.org/2000/svg"><path d="M31.5 23a1 1 0 011 1v.3c0 1.243 0 2.236-.065 3.037-.058.71-.171 1.337-.42 1.915l-.115.245a5.5 5.5 0 01-2.211 2.3l-.192.103c-.646.33-1.348.47-2.16.535-.8.066-1.794.065-3.037.065H11.7c-1.243 0-2.236 0-3.037-.065-.71-.058-1.337-.171-1.915-.42l-.245-.115a5.5 5.5 0 01-2.3-2.211l-.103-.192c-.33-.646-.47-1.348-.536-2.16-.065-.8-.064-1.794-.064-3.037V24a1 1 0 112 0v.3c0 1.276 0 2.174.058 2.874.056.688.162 1.098.324 1.415l.135.241a3.5 3.5 0 001.394 1.288l.123.059c.3.129.69.216 1.292.265.7.058 1.598.058 2.874.058h12.6c1.276 0 2.174 0 2.874-.058.688-.056 1.098-.162 1.415-.324l.241-.135a3.5 3.5 0 001.288-1.394l.059-.123c.129-.3.216-.69.265-1.292.058-.7.058-1.598.058-2.874V24a1 1 0 011-1zm-8.207-5.707a1 1 0 111.414 1.414l-4.94 4.94a2.5 2.5 0 01-3.345.171l-.19-.172-4.939-4.939-.068-.076a1 1 0 011.406-1.406l.076.068 4.94 4.94.078.063a.5.5 0 00.628-.064l4.94-4.939zM18 3.5a1 1 0 011 1V21a1 1 0 11-2 0V4.5a1 1 0 011-1z" fill="#fff"/></svg>