<svg width="24" height="24" fill="none" xmlns="http://www.w3.org/2000/svg"><path d="M10.661 8.472a5.126 5.126 0 013.19 1.321l.182.174.069.076a1 1 0 01-1.408 1.407l-.076-.07-.111-.105a3.124 3.124 0 00-1.944-.805l-.154-.004a3.128 3.128 0 00-2.098.81l-.112.105-2.651 2.652h-.001a3.125 3.125 0 104.42 4.42l1.856-1.857a1 1 0 011.414 1.414l-1.856 1.855v.001a5.126 5.126 0 11-7.248-7.248l2.652-2.651.183-.174a5.125 5.125 0 013.441-1.327l.252.006zm5.581-5.841a5.126 5.126 0 013.624 8.75l-2.651 2.652a5.125 5.125 0 01-3.372 1.494l-.252.007a5.13 5.13 0 01-3.624-1.5l-.069-.077a1 1 0 011.483-1.339l.111.107a3.125 3.125 0 002.099.81l.153-.005a3.124 3.124 0 002.057-.912l2.651-2.651.107-.112a3.125 3.125 0 00-4.526-4.308l-1.856 1.856a1 1 0 01-1.414-1.414l1.855-1.856a5.125 5.125 0 013.624-1.502z" fill="#fff"/></svg>