<svg width="24" height="24" fill="none" xmlns="http://www.w3.org/2000/svg"><path d="M7.333 13.333a3.334 3.334 0 110 6.669 3.334 3.334 0 010-6.669zm9.334 0a3.334 3.334 0 11-.002 6.668 3.334 3.334 0 01.002-6.668zm-9.334 2a1.334 1.334 0 10.002 2.668 1.334 1.334 0 00-.002-2.668zm9.334 0a1.334 1.334 0 100 2.669 1.334 1.334 0 000-2.669zM7.333 4a3.334 3.334 0 110 6.668 3.334 3.334 0 010-6.668zm9.334 0a3.333 3.333 0 110 6.667 3.333 3.333 0 010-6.667zM7.333 6a1.333 1.333 0 100 2.667 1.333 1.333 0 000-2.667zm9.334 0a1.334 1.334 0 100 2.668 1.334 1.334 0 000-2.668z" fill="#F66C4C"/></svg>