<svg width="18" height="20" fill="none" xmlns="http://www.w3.org/2000/svg"><path fill-rule="evenodd" clip-rule="evenodd" d="M2.5 2.75v8a1 1 0 11-2 0V2.5A1.75 1.75 0 012.25.75h9a1 1 0 01.708.293l5.25 5.25A1 1 0 0117.5 7v3.75a1 1 0 11-2 0V8h-4.25a1 1 0 01-1-1V2.75H2.5zm9.75 1.414L14.086 6H12.25V4.164zM.5 13.75a1 1 0 011-1H3a2.5 2.5 0 010 5h-.5v.5a1 1 0 11-2 0v-4.5zm2 2H3a.5.5 0 000-1h-.5v1zm4-2a1 1 0 011-1h1.125a3.25 3.25 0 110 6.5H7.5a1 1 0 01-1-1v-4.5zm2 1v2.5h.125a1.25 1.25 0 000-2.5H8.5zm4.375-1a1 1 0 011-1H16.5a1 1 0 110 2h-1.625v.625h1.25a1 1 0 110 2h-1.25v.875a1 1 0 11-2 0v-4.5z" fill="#fff"/></svg>