<svg width="24" height="24" fill="none" xmlns="http://www.w3.org/2000/svg"><path d="M6.096 3.233a2.827 2.827 0 012.4.072l.162.09c.372.23.707.578 1.083.955l.178.178c.283.284.539.532.715.802l.107.179a2.828 2.828 0 010 2.724l-.107.18c-.176.27-.432.518-.715.8l-.06.06.023.05.23.454a12.362 12.362 0 002.176 2.935 12.345 12.345 0 003.39 2.406l.048.023.06-.06c.283-.283.531-.539.802-.715l.179-.107a2.827 2.827 0 012.903.107l.2.147c.197.159.39.356.602.568l.178.178.314.314c.302.308.565.601.731.93l.072.153c.31.717.31 1.531 0 2.248l-.072.153c-.166.329-.429.623-.731.93l-.458.458c-.397.397-.71.72-1.1.972l-.172.103a4.124 4.124 0 01-1.616.472l-.227.008a3.928 3.928 0 01-1.065-.16l-.356-.099a18.396 18.396 0 01-8.003-4.708 18.4 18.4 0 01-4.543-7.455l-.165-.548c-.124-.435-.228-.786-.253-1.226L3 7.609a4.077 4.077 0 01.48-1.843l.103-.172c.253-.39.575-.703.972-1.1l.458-.458c.307-.302.601-.565.93-.731l.153-.072zM7.594 5.09a.829.829 0 00-.657-.04l-.09.04a.925.925 0 00-.195.15l-.539.525-.144.144c-.386.386-.555.56-.658.701l-.088.137A2.12 2.12 0 005 7.605l.008.155c.016.153.061.326.175.725l.146.489a16.4 16.4 0 004.052 6.646 16.397 16.397 0 007.135 4.198l.332.092c.271.073.385.09.549.091l.098-.005c.244-.02.571-.112.759-.218l.137-.088c.14-.103.315-.272.7-.658l.145-.144c.54-.54.634-.652.675-.734l.04-.09a.829.829 0 000-.567l-.04-.09a.921.921 0 00-.15-.194l-.525-.54-.178-.177a18.33 18.33 0 00-.353-.347l-.125-.105a.827.827 0 00-.796-.059l-.106.059c-.05.033-.123.098-.478.452-.062.063-.143.147-.24.228l-.103.079a1.963 1.963 0 01-1.439.329l-.21-.048a1.93 1.93 0 01-.225-.082l-.17-.08a14.346 14.346 0 01-3.939-2.795 14.365 14.365 0 01-2.527-3.408l-.268-.53c-.023-.048-.051-.105-.08-.171l-.082-.225a1.955 1.955 0 01.281-1.65l.08-.102c.08-.097.164-.178.227-.24.354-.355.42-.427.452-.478l.059-.106c.1-.219.1-.471 0-.69l-.059-.106c-.033-.05-.097-.122-.452-.478l-.178-.178c-.406-.407-.57-.56-.661-.628l-.072-.047z" fill="#F66C4C"/></svg>