<svg width="60" height="60" fill="none" xmlns="http://www.w3.org/2000/svg"><path d="M30.057 60h-.132C13.425 60 0 46.571 0 30.066v-.132C0 13.429 13.425 0 29.925 0h.132c16.5 0 29.925 13.429 29.925 29.934v.132C59.982 46.571 46.558 60 30.057 60zm-.132-57.97C14.543 2.03 2.03 14.549 2.03 29.935v.132c0 15.386 12.513 27.903 27.895 27.903h.132c15.382 0 27.895-12.517 27.895-27.903v-.132c0-15.386-12.513-27.903-27.895-27.903h-.132z" fill="#F66C4C"/><path d="M15.71 29.029c.061-.031.123-.06.184-.087 1.05-.48 2.116-.928 3.18-1.377.056 0 .153-.066.207-.087l.246-.104.473-.2.947-.398 1.893-.798 3.787-1.595 3.787-1.595 3.787-1.595 3.787-1.595c.28-.12.584-.296.885-.348.253-.044.499-.13.753-.177.482-.09 1.014-.127 1.476.07a1.4 1.4 0 01.43.285c.585.571.503 1.508.38 2.311l-2.593 16.787c-.117.768-.279 1.61-.894 2.096-.521.41-1.262.456-1.905.282-.644-.175-1.21-.543-1.767-.905l-6.926-4.514c-.549-.358-1.16-.825-1.154-1.473.004-.391.24-.739.483-1.049 2.005-2.576 4.9-4.347 7.053-6.804.303-.346.542-.972.125-1.172-.248-.119-.533.043-.76.197l-8.536 5.84c-.928.634-1.902 1.288-3.021 1.443-1.002.14-2.01-.134-2.978-.415-.812-.235-1.623-.476-2.43-.725-.43-.131-.873-.273-1.205-.57-.332-.298-.522-.799-.322-1.196.125-.249.368-.406.624-.534l.003.002z" fill="#F66C4C"/></svg>