<svg width="1289" height="2243" viewBox="0 0 1289 2243" fill="none" xmlns="http://www.w3.org/2000/svg">
<g clip-path="url(#clip0_2005_380)">
<path fill-rule="evenodd" clip-rule="evenodd" d="M644.751 2243L859.445 1869.18L1074.31 1495.32L1289 1121.5L1074.31 747.678L859.578 373.822L644.751 -2.8161e-05L644.416 0.571405L644.115 -2.81888e-05L429.388 373.822L214.694 747.678L-8.78893e-05 1121.5L214.694 1495.32L429.388 1869.18L644.115 2243L644.416 2242.43L644.751 2243ZM429.522 1121.5L644.249 747.678L644.55 747.106L644.884 747.678L859.578 1121.5L644.751 1495.32L644.416 1495.89L644.115 1495.32L429.522 1121.5Z" fill="#F66C4C" fill-opacity="0.3"/>
<path fill-rule="evenodd" clip-rule="evenodd" d="M644.739 2242L849.773 1884.84L1054.97 1527.66L1260 1170.5L1054.97 813.344L849.901 456.156L644.74 99L644.42 99.5459L644.133 99L439.067 456.156L234.034 813.344L29.0001 1170.5L234.034 1527.66L439.067 1884.84L644.133 2242L644.42 2241.45L644.739 2242ZM439.195 1170.5L644.26 813.344L644.548 812.798L644.867 813.344L849.901 1170.5L644.74 1527.66L644.42 1528.2L644.133 1527.66L439.195 1170.5Z" fill="#383942"/>
</g>
<defs>
<clipPath id="clip0_2005_380">
<rect width="1289" height="2243" fill="white"/>
</clipPath>
</defs>
</svg>
