<svg width="2115" height="3683" viewBox="0 0 2115 3683" fill="none" xmlns="http://www.w3.org/2000/svg">
<g clip-path="url(#clip0_2005_468)">
<path d="M1762.51 2455.19L1409.97 3069.06L1057.91 3682.5L1057.58 3681.94L1057.35 3681.55L1057.14 3681.95L1056.86 3682.48L704.76 3069.06L352.488 2455.19L0.288005 1841.5L352.488 1227.81L704.76 613.939L1056.86 0.518508L1057.14 1.05464L1057.35 1.45308L1057.58 1.06441L1057.91 0.498001L1410.19 613.939L1762.51 1227.81L2114.71 1841.5L1762.51 2455.19ZM1410.62 1841.38L1058.35 1227.56L1058.35 1227.56L1057.8 1226.62L1057.57 1226.23L1057.36 1226.63L1056.87 1227.57L1056.87 1227.57L704.546 1841.38L704.475 1841.5L704.546 1841.62L1056.65 2455.43L1056.65 2455.43L1057.14 2456.37L1057.35 2456.77L1057.58 2456.38L1058.13 2455.44L1058.13 2455.44L1410.62 1841.62L1410.69 1841.5L1410.62 1841.38Z" stroke="white" stroke-opacity="0.3" stroke-width="0.5"/>
</g>
<defs>
<clipPath id="clip0_2005_468">
<rect width="2115" height="3683" fill="white"/>
</clipPath>
</defs>
</svg>
