<svg width="1289" height="2243" fill="none" xmlns="http://www.w3.org/2000/svg"><g clip-path="url(#clip0_2005_380)" fill-rule="evenodd" clip-rule="evenodd"><path d="M644.751 2243l214.694-373.82 214.865-373.86L1289 1121.5l-214.69-373.822-214.732-373.856L644.751 0l-.335.571-.301-.571-214.727 373.822-214.694 373.856L0 1121.5l214.694 373.82 214.694 373.86L644.115 2243l.301-.57.335.57zM429.522 1121.5l214.727-373.822.301-.572.334.572L859.578 1121.5l-214.827 373.82-.335.57-.301-.57-214.593-373.82z" fill="#F66C4C" fill-opacity=".3"/><path d="M644.739 2242l205.034-357.16 205.197-357.18L1260 1170.5l-205.03-357.156-205.069-357.188L644.74 99l-.32.546-.287-.546-205.066 357.156-205.033 357.188L29 1170.5l205.034 357.16 205.033 357.18L644.133 2242l.287-.55.319.55zM439.195 1170.5L644.26 813.344l.288-.546.319.546L849.901 1170.5 644.74 1527.66l-.32.54-.287-.54-204.938-357.16z" fill="#383942"/></g><defs><clipPath id="clip0_2005_380"><path fill="#fff" d="M0 0h1289v2243H0z"/></clipPath></defs></svg>