<svg width="28" height="24" viewBox="0 0 28 24" fill="none" xmlns="http://www.w3.org/2000/svg">
<path d="M16.6465 5.64628C16.8173 5.47554 17.0814 5.45376 17.2754 5.58183L17.3535 5.64628L22.6465 10.9392L22.749 11.0535C23.1974 11.6033 23.1973 12.3962 22.749 12.9461L22.6465 13.0603L17.3535 18.3533C17.1583 18.5486 16.8417 18.5486 16.6465 18.3533C16.4513 18.158 16.4513 17.8415 16.6465 17.6463L21.793 12.4998H5C4.72386 12.4998 4.5 12.2759 4.5 11.9998C4.50011 11.7237 4.72393 11.4998 5 11.4998H21.793L16.6465 6.35331L16.582 6.27518C16.454 6.08112 16.4757 5.8171 16.6465 5.64628Z" fill="#F66C4C"/>
</svg>
