<svg width="36" height="36" viewBox="0 0 36 36" fill="none" xmlns="http://www.w3.org/2000/svg">
<path d="M31.5 23C32.0523 23 32.5 23.4477 32.5 24V24.2998C32.5 25.5434 32.5009 26.5364 32.4355 27.3369C32.3775 28.0475 32.2636 28.6739 32.0156 29.252L31.9004 29.4971C31.406 30.4672 30.6356 31.2672 29.6885 31.7979L29.4971 31.9004C28.8513 32.2294 28.1491 32.3692 27.3369 32.4355C26.5364 32.5009 25.5434 32.5 24.2998 32.5H11.7002C10.4566 32.5 9.46362 32.5009 8.66309 32.4355C7.95247 32.3775 7.32606 32.2636 6.74805 32.0156L6.50293 31.9004C5.53276 31.406 4.73283 30.6356 4.20215 29.6885L4.09961 29.4971C3.77057 28.8513 3.63081 28.1491 3.56445 27.3369C3.49906 26.5364 3.5 25.5434 3.5 24.2998V24C3.5 23.4477 3.94772 23 4.5 23C5.05228 23 5.5 23.4477 5.5 24V24.2998C5.5 25.5762 5.50044 26.4737 5.55762 27.1738C5.61387 27.8624 5.7204 28.272 5.88184 28.5889L6.0166 28.8301C6.35287 29.3783 6.83494 29.8246 7.41113 30.1182L7.53418 30.1768C7.83424 30.306 8.22356 30.3931 8.82617 30.4424C9.52634 30.4996 10.4238 30.5 11.7002 30.5H24.2998C25.5762 30.5 26.4737 30.4996 27.1738 30.4424C27.8624 30.3861 28.272 30.2796 28.5889 30.1182L28.8301 29.9834C29.3783 29.6471 29.8246 29.1651 30.1182 28.5889L30.1768 28.4658C30.306 28.1658 30.3931 27.7764 30.4424 27.1738C30.4996 26.4737 30.5 25.5762 30.5 24.2998V24C30.5 23.4477 30.9477 23 31.5 23ZM23.293 17.293C23.6835 16.9024 24.3165 16.9024 24.707 17.293C25.0976 17.6835 25.0976 18.3165 24.707 18.707L19.7676 23.6465C18.8523 24.5617 17.4038 24.6192 16.4219 23.8184L16.2324 23.6465L11.293 18.707L11.2246 18.6309C10.9043 18.2381 10.9269 17.6591 11.293 17.293C11.6591 16.9269 12.2381 16.9043 12.6309 17.2246L12.707 17.293L17.6465 22.2324L17.7246 22.2959C17.9187 22.4243 18.1825 22.4033 18.3535 22.2324L23.293 17.293ZM18 3.5C18.5523 3.5 19 3.94772 19 4.5V21C19 21.5523 18.5523 22 18 22C17.4477 22 17 21.5523 17 21V4.5C17 3.94772 17.4477 3.5 18 3.5Z" fill="white"/>
</svg>
