<svg width="24" height="24" viewBox="0 0 24 24" fill="none" xmlns="http://www.w3.org/2000/svg">
<path d="M10.6611 8.47168C11.2479 8.5006 11.8262 8.63018 12.3701 8.85547C12.9142 9.08085 13.4151 9.39831 13.8506 9.79297L14.0332 9.9668L14.1016 10.043C14.4217 10.4356 14.399 11.0148 14.0332 11.3809C13.6671 11.7469 13.0871 11.7705 12.6943 11.4502L12.6182 11.3809L12.5068 11.2754C12.2413 11.0348 11.9362 10.8415 11.6045 10.7041C11.2728 10.5667 10.9204 10.4873 10.5625 10.4697L10.4092 10.4658C9.9988 10.4658 9.59203 10.5471 9.21289 10.7041C8.88119 10.8415 8.57603 11.0348 8.31055 11.2754L8.19922 11.3809L5.54785 14.0332H5.54688C5.25658 14.3233 5.02633 14.6678 4.86914 15.0469C4.71192 15.4261 4.63095 15.8327 4.63086 16.2432C4.63077 16.6536 4.71115 17.0602 4.86816 17.4395C5.02515 17.8186 5.25579 18.1629 5.5459 18.4531C5.83617 18.7434 6.18127 18.9738 6.56055 19.1309C6.93979 19.2879 7.34638 19.3692 7.75684 19.3691C8.16725 19.369 8.574 19.2881 8.95312 19.1309C9.33225 18.9736 9.67671 18.7425 9.9668 18.4521L11.8232 16.5957C12.2137 16.2055 12.8468 16.2054 13.2373 16.5957C13.6277 16.9861 13.6276 17.6192 13.2373 18.0098L11.3809 19.8652L11.3818 19.8662C10.906 20.3425 10.3406 20.7207 9.71875 20.9785C9.09691 21.2363 8.42999 21.369 7.75684 21.3691C7.08368 21.3693 6.41686 21.236 5.79492 20.9785C5.17312 20.721 4.60776 20.344 4.13184 19.8682C3.65579 19.3921 3.27807 18.8261 3.02051 18.2041C2.76307 17.5822 2.6307 16.9152 2.63086 16.2422C2.63108 15.5692 2.76379 14.9029 3.02148 14.2812C3.27927 13.6595 3.65673 13.0939 4.13281 12.6182L6.78516 9.9668L6.96777 9.79297C7.40315 9.39849 7.90333 9.08079 8.44727 8.85547C9.06906 8.59791 9.73615 8.46582 10.4092 8.46582L10.6611 8.47168ZM16.2422 2.63086C16.9153 2.6307 17.5822 2.76303 18.2041 3.02051C18.826 3.27802 19.3912 3.65591 19.8672 4.13184C20.3432 4.6078 20.721 5.17303 20.9785 5.79492C21.236 6.41686 21.3693 7.08368 21.3691 7.75684C21.369 8.43006 21.2354 9.09686 20.9775 9.71875C20.7197 10.3406 20.3424 10.906 19.8662 11.3818L19.8652 11.3809L17.2148 14.0332C16.739 14.5091 16.1735 14.886 15.5518 15.1436C15.0077 15.3689 14.4296 15.4984 13.8428 15.5273L13.5908 15.5342C12.9178 15.5342 12.2507 15.4011 11.6289 15.1436C11.0074 14.886 10.4425 14.5089 9.9668 14.0332L9.89844 13.957C9.57784 13.5643 9.60059 12.9844 9.9668 12.6182C10.3573 12.228 10.9904 12.228 11.3809 12.6182L11.4922 12.7246C11.7577 12.9652 12.0629 13.1585 12.3945 13.2959C12.7737 13.4529 13.1804 13.5342 13.5908 13.5342L13.7441 13.5303C14.102 13.5127 14.4544 13.4333 14.7861 13.2959C15.1653 13.1389 15.5106 12.9083 15.8008 12.6182L18.4521 9.9668L18.5586 9.85547C18.7993 9.59011 18.9923 9.28474 19.1299 8.95312C19.2871 8.574 19.369 8.16725 19.3691 7.75684C19.3692 7.3464 19.2879 6.93977 19.1309 6.56055C18.9738 6.18127 18.7434 5.83617 18.4531 5.5459C18.1629 5.25576 17.8186 5.02517 17.4395 4.86816C17.0603 4.71115 16.6536 4.6308 16.2432 4.63086C15.8327 4.63095 15.426 4.71194 15.0469 4.86914C14.6678 5.02631 14.3233 5.25661 14.0332 5.54688L12.1768 7.40332C11.7863 7.79382 11.1532 7.79378 10.7627 7.40332C10.3722 7.0128 10.3722 6.37978 10.7627 5.98926L12.6182 4.13281C13.0938 3.65686 13.6587 3.27925 14.2803 3.02148C14.9021 2.76367 15.5691 2.63105 16.2422 2.63086Z" fill="white"/>
</svg>
