<svg width="24" height="24" viewBox="0 0 24 24" fill="none" xmlns="http://www.w3.org/2000/svg">
<path d="M18.1201 4C18.6081 4 19.0329 3.99963 19.3818 4.02734C19.7415 4.05594 20.1066 4.1194 20.4609 4.29492L20.6533 4.39941C21.091 4.66041 21.4512 5.03664 21.6895 5.49121L21.7539 5.625C21.8912 5.93676 21.9455 6.25525 21.9717 6.56641C22.0005 6.90976 22 7.32681 22 7.7998V16.2002C22 16.6732 22.0005 17.0902 21.9717 17.4336C21.9455 17.7447 21.8912 18.0632 21.7539 18.375L21.6895 18.5088C21.4512 18.9634 21.091 19.3396 20.6533 19.6006L20.4609 19.7051C20.1066 19.8806 19.7415 19.9441 19.3818 19.9727C19.0329 20.0004 18.6081 20 18.1201 20H5.87988C5.39193 20 4.96708 20.0004 4.61816 19.9727C4.30329 19.9476 3.98423 19.8959 3.67188 19.7656L3.53906 19.7051C3.08005 19.4777 2.69216 19.1299 2.41992 18.6982L2.31055 18.5088C2.12505 18.1549 2.05825 17.7894 2.02832 17.4336C1.99947 17.0902 2 16.6732 2 16.2002V7.7998C2 7.32681 1.99947 6.90976 2.02832 6.56641C2.05825 6.21063 2.12505 5.84515 2.31055 5.49121L2.41992 5.30176C2.69216 4.87013 3.08005 4.5223 3.53906 4.29492L3.67188 4.23438C3.98423 4.10409 4.30329 4.05238 4.61816 4.02734C4.96708 3.99963 5.39193 4 5.87988 4H18.1201ZM13.708 11.9619C12.7642 12.6755 11.4727 12.7201 10.4854 12.0957L10.292 11.9619L4.00195 7.20605C3.99976 7.37086 4 7.56513 4 7.7998V16.2002C4 16.7071 4.0013 17.0254 4.02148 17.2656C4.04058 17.4929 4.07136 17.5597 4.08203 17.5801L4.14453 17.6807C4.21591 17.7761 4.31208 17.8563 4.42676 17.9131L4.52344 17.9443C4.57711 17.9566 4.65726 17.97 4.77734 17.9795C5.02864 17.9994 5.36014 18 5.87988 18H18.1201C18.6399 18 18.9714 17.9994 19.2227 17.9795C19.4631 17.9604 19.5427 17.9282 19.5732 17.9131L19.6816 17.8486C19.783 17.7769 19.8634 17.6842 19.918 17.5801L19.9453 17.501C19.9568 17.4533 19.9689 17.3796 19.9785 17.2656C19.9987 17.0254 20 16.7071 20 16.2002V7.7998C20 7.56512 19.9993 7.37086 19.9971 7.20605L13.708 11.9619ZM11.498 10.3672L11.6133 10.4395C11.8935 10.5849 12.2454 10.561 12.502 10.3672L18.2754 6H5.72363L11.498 10.3672Z" fill="#F66C4C"/>
</svg>
