<svg width="24" height="24" viewBox="0 0 24 24" fill="none" xmlns="http://www.w3.org/2000/svg">
<path d="M7.33301 13.333C9.17396 13.333 10.667 14.826 10.667 16.667C10.6668 18.5078 9.17385 20 7.33301 20C5.49232 19.9998 4.00018 18.5077 4 16.667C4 14.8262 5.49221 13.3332 7.33301 13.333ZM16.667 13.333C18.5078 13.3332 20 14.8262 20 16.667C19.9998 18.5077 18.5077 19.9998 16.667 20C14.8262 20 13.3332 18.5078 13.333 16.667C13.333 14.826 14.826 13.333 16.667 13.333ZM7.33301 15.333C6.59678 15.3332 6 15.9307 6 16.667C6.00018 17.4031 6.59689 17.9998 7.33301 18C8.06928 18 8.66682 17.4032 8.66699 16.667C8.66699 15.9306 8.06939 15.333 7.33301 15.333ZM16.667 15.333C15.9306 15.333 15.333 15.9306 15.333 16.667C15.3332 17.4032 15.9307 18 16.667 18C17.4031 17.9998 17.9998 17.4031 18 16.667C18 15.9307 17.4032 15.3332 16.667 15.333ZM7.33301 4C9.17385 4 10.6668 5.49221 10.667 7.33301C10.667 9.17396 9.17396 10.667 7.33301 10.667C5.49221 10.6668 4 9.17385 4 7.33301C4.00018 5.49232 5.49232 4.00018 7.33301 4ZM16.667 4C18.5077 4.00018 19.9998 5.49232 20 7.33301C20 9.17385 18.5078 10.6668 16.667 10.667C14.826 10.667 13.333 9.17396 13.333 7.33301C13.3332 5.49221 14.8262 4 16.667 4ZM7.33301 6C6.59689 6.00018 6.00018 6.59689 6 7.33301C6 8.06928 6.59678 8.66682 7.33301 8.66699C8.06939 8.66699 8.66699 8.06939 8.66699 7.33301C8.66682 6.59678 8.06928 6 7.33301 6ZM16.667 6C15.9307 6 15.3332 6.59678 15.333 7.33301C15.333 8.06939 15.9306 8.66699 16.667 8.66699C17.4032 8.66682 18 8.06928 18 7.33301C17.9998 6.59689 17.4031 6.00018 16.667 6Z" fill="#F66C4C"/>
</svg>
