<svg width="36" height="36" viewBox="0 0 36 36" fill="none" xmlns="http://www.w3.org/2000/svg">
<path d="M9.21289 22.7061C10.065 22.7061 10.8828 23.045 11.4854 23.6475C12.0879 24.25 12.4267 25.0678 12.4268 25.9199C12.4267 26.7719 12.0877 27.5889 11.4854 28.1914C10.8828 28.794 10.0651 29.1328 9.21289 29.1328H8V30.3457L7.99512 30.4482C7.94401 30.9526 7.51781 31.3457 7 31.3457C6.48216 31.3457 6.056 30.9526 6.00488 30.4482L6 30.3457V23.7061L6.00488 23.6045C6.05606 23.1002 6.48221 22.7061 7 22.7061H9.21289ZM17.7275 22.7119C18.795 22.7649 19.808 23.2124 20.5674 23.9717C21.3774 24.7817 21.8329 25.8808 21.833 27.0264C21.833 28.1719 21.3774 29.271 20.5674 30.0811C19.808 30.8403 18.795 31.2878 17.7275 31.3408L17.5127 31.3457H15.8535C15.3012 31.3457 14.8535 30.898 14.8535 30.3457V23.7061C14.8539 23.1541 15.3014 22.7061 15.8535 22.7061H17.5127L17.7275 22.7119ZM29.2354 22.7119C29.7393 22.7632 30.1325 23.1887 30.1328 23.7061C30.1328 24.2237 29.7395 24.6498 29.2354 24.7012L29.1328 24.7061H26.2598V26.5791H28.5791C29.1311 26.5791 29.5786 27.0272 29.5791 27.5791C29.5791 28.1314 29.1314 28.5791 28.5791 28.5791H26.2598V30.3457C26.2598 30.8979 25.812 31.3456 25.2598 31.3457C24.7075 31.3457 24.2598 30.898 24.2598 30.3457V23.7061C24.2601 23.1541 24.7077 22.7061 25.2598 22.7061H29.1328L29.2354 22.7119ZM16.8535 29.3457H17.5127L17.7422 29.335C18.2732 29.2823 18.7726 29.0476 19.1533 28.667C19.5882 28.232 19.833 27.6415 19.833 27.0264C19.8329 26.4112 19.5883 25.8207 19.1533 25.3857C18.7726 25.0052 18.2732 24.7705 17.7422 24.7178L17.5127 24.7061H16.8535V29.3457ZM8 27.1328H9.21289C9.53465 27.1328 9.84376 27.0049 10.0713 26.7773C10.2985 26.5499 10.4267 26.2414 10.4268 25.9199C10.4267 25.5983 10.2987 25.289 10.0713 25.0615C9.84378 24.8341 9.53456 24.7061 9.21289 24.7061H8V27.1328ZM21.4863 5.00488C21.7152 5.02761 21.9307 5.12898 22.0947 5.29297L29.8408 13.0391C30.0282 13.2264 30.1336 13.4812 30.1338 13.7461V19.2793C30.1338 19.8316 29.686 20.2793 29.1338 20.2793C28.5816 20.2792 28.1338 19.8315 28.1338 19.2793V14.7461H21.3867C21.1215 14.7461 20.8672 14.6407 20.6797 14.4531C20.5158 14.2891 20.4144 14.0744 20.3916 13.8457L20.3867 13.7461L20.3877 7H8.10645C8.07833 7.00005 8.05118 7.01143 8.03125 7.03125C8.01139 7.05111 8.00015 7.07837 8 7.10645V19.2793L7.99512 19.3818C7.94399 19.8862 7.5178 20.2793 7 20.2793C6.48217 20.2793 6.05601 19.8862 6.00488 19.3818L6 19.2793V7.10645C6.00015 6.54794 6.22225 6.01212 6.61719 5.61719C7.01219 5.2223 7.5479 5.00005 8.10645 5H21.3877L21.4863 5.00488ZM22.3867 12.7461H26.7188L22.3867 8.41309V12.7461Z" fill="white"/>
</svg>
