<svg width="18" height="20" viewBox="0 0 18 20" fill="none" xmlns="http://www.w3.org/2000/svg">
<path fill-rule="evenodd" clip-rule="evenodd" d="M2.5 2.75V10.75C2.5 11.3023 2.05228 11.75 1.5 11.75C0.947715 11.75 0.5 11.3023 0.5 10.75V2.5C0.5 2.03587 0.684374 1.59075 1.01256 1.26256C1.34075 0.934375 1.78587 0.75 2.25 0.75H11.2507C11.5159 0.75 11.7703 0.855357 11.9578 1.04289L17.2078 6.29289C17.3954 6.48043 17.5007 6.73478 17.5007 7V10.75C17.5007 11.3023 17.053 11.75 16.5007 11.75C15.9484 11.75 15.5007 11.3023 15.5007 10.75V8H11.25C10.9848 8 10.7304 7.89462 10.5428 7.70706C10.3553 7.51949 10.25 7.2651 10.25 6.99986L10.2506 2.75H2.5ZM12.2504 4.16388L14.0865 6H12.2501L12.2504 4.16388ZM0.5 13.75C0.5 13.1977 0.947715 12.75 1.5 12.75H3C3.66304 12.75 4.29893 13.0134 4.76777 13.4822C5.23661 13.9511 5.5 14.587 5.5 15.25C5.5 15.913 5.23661 16.5489 4.76777 17.0178C4.29893 17.4866 3.66304 17.75 3 17.75H2.5V18.25C2.5 18.8023 2.05228 19.25 1.5 19.25C0.947715 19.25 0.5 18.8023 0.5 18.25V16.75V13.75ZM2.5 15.75H3C3.13261 15.75 3.25978 15.6973 3.35355 15.6036C3.44732 15.5098 3.5 15.3826 3.5 15.25C3.5 15.1174 3.44732 14.9902 3.35355 14.8964C3.25978 14.8027 3.13261 14.75 3 14.75H2.5V15.75ZM6.5 13.75C6.5 13.1977 6.94772 12.75 7.5 12.75H8.625C9.48695 12.75 10.3136 13.0924 10.9231 13.7019C11.5326 14.3114 11.875 15.138 11.875 16C11.875 16.862 11.5326 17.6886 10.9231 18.2981C10.3136 18.9076 9.48695 19.25 8.625 19.25H7.5C6.94772 19.25 6.5 18.8023 6.5 18.25V13.75ZM8.5 14.75V17.25H8.625C8.95652 17.25 9.27446 17.1183 9.50888 16.8839C9.7433 16.6495 9.875 16.3315 9.875 16C9.875 15.6685 9.7433 15.3505 9.50888 15.1161C9.27446 14.8817 8.95652 14.75 8.625 14.75H8.5ZM12.875 13.75C12.875 13.1977 13.3227 12.75 13.875 12.75H16.5C17.0523 12.75 17.5 13.1977 17.5 13.75C17.5 14.3023 17.0523 14.75 16.5 14.75H14.875V15.375H16.125C16.6773 15.375 17.125 15.8227 17.125 16.375C17.125 16.9273 16.6773 17.375 16.125 17.375H14.875V18.25C14.875 18.8023 14.4273 19.25 13.875 19.25C13.3227 19.25 12.875 18.8023 12.875 18.25V16.375V13.75Z" fill="white"/>
</svg>
