<svg width="24" height="24" viewBox="0 0 24 24" fill="none" xmlns="http://www.w3.org/2000/svg">
<path d="M6.0957 3.2334C6.86393 2.90038 7.7438 2.92418 8.49609 3.30469L8.6582 3.39551C9.03023 3.62555 9.36504 3.97344 9.74121 4.34961L9.91895 4.52832C10.2022 4.81153 10.4579 5.05952 10.6338 5.33008L10.7412 5.50879C11.2074 6.35643 11.2076 7.38582 10.7412 8.2334L10.6338 8.41211C10.4578 8.68268 10.2022 8.93061 9.91895 9.21387C9.89455 9.23826 9.8748 9.25686 9.8584 9.27344C9.86492 9.28712 9.8726 9.30303 9.88184 9.32227L10.1123 9.77734C10.6734 10.8312 11.3982 11.822 12.2881 12.7119C13.305 13.7288 14.4536 14.5304 15.6777 15.1182L15.7256 15.1406C15.7422 15.1242 15.7617 15.1055 15.7861 15.0811C16.0694 14.7978 16.3173 14.5422 16.5879 14.3662L16.7666 14.2588C17.6748 13.7591 18.7914 13.7951 19.6699 14.3662L19.8701 14.5127C20.0671 14.672 20.2594 14.8688 20.4717 15.0811L20.6504 15.2588L20.9639 15.5732C21.2661 15.8807 21.5287 16.1745 21.6953 16.5039L21.7666 16.6562C22.0772 17.3732 22.0774 18.1874 21.7666 18.9043L21.6953 19.0566C21.5286 19.3859 21.2661 19.6799 20.9639 19.9873L20.5059 20.4453C20.1093 20.8419 19.796 21.1643 19.4062 21.417L19.2344 21.5205C18.7833 21.7739 18.1623 21.9528 17.6182 21.9922L17.3906 22C16.9886 21.9988 16.6702 21.9331 16.3262 21.8408L15.9697 21.7412C13.0383 20.9092 10.2723 19.3387 7.9668 17.0332C5.80541 14.8718 4.29038 12.3058 3.42383 9.57812L3.25879 9.03027C3.13514 8.59465 3.03101 8.24367 3.00586 7.80371L3 7.60938C2.99827 7.01825 3.19002 6.28105 3.47949 5.76562L3.58301 5.59375C3.83566 5.20401 4.15814 4.89068 4.55469 4.49414L5.0127 4.03613C5.32014 3.73386 5.61402 3.4714 5.94336 3.30469L6.0957 3.2334ZM7.59375 5.08887C7.38838 4.98499 7.15004 4.97198 6.93652 5.0498L6.84668 5.08887C6.80569 5.10962 6.75752 5.14359 6.65234 5.23926L6.11328 5.76367L5.96875 5.9082C5.58308 6.29388 5.41424 6.4686 5.31055 6.60938L5.22266 6.74609C5.1023 6.96085 4.99928 7.35767 5 7.60352L5.00781 7.75879C5.02386 7.91203 5.06923 8.08488 5.18262 8.48438L5.3291 8.97266C6.10112 11.4029 7.45135 13.6896 9.38086 15.6191C11.4391 17.6773 13.9039 19.0761 16.5156 19.8174L16.8477 19.9092C17.1192 19.9817 17.2326 19.9995 17.3965 20L17.4951 19.9951C17.7387 19.9742 18.066 19.8827 18.2539 19.7773L18.3906 19.6895C18.5314 19.5858 18.7061 19.4169 19.0918 19.0312L19.2363 18.8867C19.7767 18.3463 19.8696 18.2354 19.9111 18.1533L19.9502 18.0635C20.0169 17.8805 20.017 17.6791 19.9502 17.4961L19.9111 17.4062C19.8904 17.3653 19.8565 17.3171 19.7607 17.2119L19.2363 16.6729L19.0576 16.4951C18.8804 16.3179 18.7738 16.213 18.7051 16.1484L18.5801 16.043C18.3401 15.8869 18.0393 15.8673 17.7842 15.9844L17.6777 16.043C17.6272 16.0759 17.5548 16.1405 17.2002 16.4951C17.1378 16.5575 17.0569 16.6417 16.96 16.7227L16.8574 16.8018C16.4493 17.0938 15.9142 17.2131 15.418 17.1309L15.208 17.083C15.125 17.0588 15.0497 17.0296 14.9834 17.001L14.8125 16.9209C13.3877 16.2368 12.0528 15.3047 10.874 14.126C9.84257 13.0945 8.99953 11.9439 8.34668 10.7178L8.0791 10.1875C8.05632 10.1401 8.0276 10.0827 7.99902 10.0166L7.91699 9.79199C7.7565 9.24134 7.86448 8.60901 8.19824 8.14258L8.27734 8.04004C8.35833 7.94314 8.44246 7.86222 8.50488 7.7998C8.85936 7.44533 8.92407 7.37281 8.95703 7.32227L9.01562 7.21582C9.1159 6.99724 9.11575 6.745 9.01562 6.52637L8.95703 6.41992C8.92416 6.36937 8.86012 6.29762 8.50488 5.94238L8.32715 5.76367C7.92087 5.3574 7.75693 5.2045 7.66602 5.13574L7.59375 5.08887Z" fill="#F66C4C"/>
</svg>
