<svg width="60" height="60" viewBox="0 0 60 60" fill="none" xmlns="http://www.w3.org/2000/svg">
<path d="M30.0572 60H29.9252C13.4246 60 0 46.5714 0 30.066V29.934C0 13.4286 13.4246 0 29.9252 0H30.0572C46.5577 0 59.9823 13.4286 59.9823 29.934V30.066C59.9823 46.5714 46.5577 60 30.0572 60ZM29.9252 2.03094C14.5433 2.03094 2.03034 14.5476 2.03034 29.934V30.066C2.03034 45.4524 14.5433 57.9691 29.9252 57.9691H30.0572C45.439 57.9691 57.952 45.4524 57.952 30.066V29.934C57.952 14.5476 45.439 2.03094 30.0572 2.03094H29.9252Z" fill="#F66C4C"/>
<path d="M15.7094 29.0286C15.7714 28.998 15.8334 28.969 15.8938 28.9416C16.9448 28.4623 18.0098 28.0136 19.0732 27.5649C19.1305 27.5649 19.2266 27.4993 19.2808 27.4779C19.363 27.4428 19.4452 27.4092 19.5273 27.3741C19.6854 27.307 19.8436 27.2413 20.0001 27.1742C20.3163 27.0414 20.631 26.9086 20.9472 26.7758C21.5781 26.5103 22.209 26.2447 22.8399 25.9776C24.1017 25.4465 25.3651 24.9138 26.6269 24.3827C27.8887 23.8516 29.152 23.3189 30.4139 22.7877C31.6757 22.2566 32.939 21.724 34.2008 21.1928C35.4626 20.6617 36.726 20.129 37.9878 19.5979C38.2683 19.4788 38.5722 19.3018 38.8729 19.2499C39.1256 19.2057 39.372 19.1202 39.6262 19.0729C40.1083 18.9828 40.64 18.9462 41.102 19.1431C41.2616 19.2118 41.4089 19.3079 41.5313 19.4285C42.1173 19.9993 42.0351 20.9364 41.9111 21.7392C41.0477 27.3344 40.1843 32.9312 39.3193 38.5264C39.2015 39.2941 39.0403 40.1366 38.4249 40.6219C37.904 41.0325 37.1631 41.0783 36.5198 40.9043C35.8765 40.7288 35.3091 40.3609 34.7526 39.9992C32.4445 38.4943 30.1348 36.9895 27.8267 35.4846C27.278 35.1274 26.6672 34.6604 26.6734 34.0118C26.6765 33.621 26.9137 33.2731 27.1555 32.9632C29.1613 30.3869 32.0554 28.6165 34.2086 26.1592C34.5124 25.8128 34.7511 25.187 34.3341 24.9871C34.0861 24.868 33.8009 25.0298 33.5745 25.184C30.7285 27.1299 27.8841 29.0774 25.038 31.0234C24.1095 31.6583 23.136 32.3115 22.0168 32.4672C21.0155 32.6076 20.0079 32.3329 19.0391 32.0521C18.2268 31.817 17.416 31.5759 16.6084 31.3271C16.179 31.1958 15.7357 31.0539 15.404 30.7563C15.0723 30.4586 14.8816 29.958 15.0816 29.5612C15.2071 29.3124 15.4505 29.1552 15.7063 29.027L15.7094 29.0286Z" fill="#F66C4C"/>
</svg>
