<svg width="34" height="34" viewBox="0 0 34 34" fill="none" xmlns="http://www.w3.org/2000/svg">
<path d="M17.0324 34H16.9576C7.60727 34 0 26.3905 0 17.0374V16.9626C0 7.60952 7.60727 0 16.9576 0H17.0324C26.3827 0 33.99 7.60952 33.99 16.9626V17.0374C33.99 26.3905 26.3827 34 17.0324 34ZM16.9576 1.15087C8.24121 1.15087 1.15053 8.24365 1.15053 16.9626V17.0374C1.15053 25.7564 8.24121 32.8491 16.9576 32.8491H17.0324C25.7488 32.8491 32.8395 25.7564 32.8395 17.0374V16.9626C32.8395 8.24365 25.7488 1.15087 17.0324 1.15087H16.9576Z" fill="#F66C4C"/>
<path d="M6.79529 16.4401C6.84131 16.4171 6.88735 16.3953 6.93222 16.3745C7.71228 16.0132 8.50269 15.6748 9.29195 15.3365C9.33452 15.3365 9.40584 15.287 9.44611 15.2708C9.50708 15.2444 9.56807 15.2191 9.62905 15.1926C9.7464 15.142 9.86376 15.0925 9.97997 15.0418C10.2147 14.9417 10.4482 14.8416 10.6829 14.7415C11.1512 14.5412 11.6194 14.341 12.0877 14.1396C13.0242 13.7391 13.9619 13.3374 14.8985 12.9369C15.835 12.5364 16.7727 12.1347 17.7092 11.7342C18.6457 11.3337 19.5834 10.9321 20.5199 10.5316C21.4565 10.1311 22.3941 9.72943 23.3307 9.32893C23.5389 9.23916 23.7644 9.10567 23.9876 9.06654C24.1752 9.03317 24.3581 8.96872 24.5468 8.93304C24.9046 8.86514 25.2992 8.83751 25.6421 8.98597C25.7606 9.03776 25.8699 9.11027 25.9608 9.20119C26.3957 9.63161 26.3347 10.3382 26.2426 10.9436C25.6018 15.1627 24.961 19.3829 24.319 23.602C24.2315 24.1808 24.1119 24.8161 23.6551 25.1821C23.2685 25.4917 22.7186 25.5262 22.2411 25.395C21.7636 25.2627 21.3426 24.9853 20.9295 24.7125C19.2164 23.5778 17.5021 22.443 15.789 21.3083C15.3817 21.039 14.9284 20.6868 14.933 20.1977C14.9353 19.9031 15.1113 19.6407 15.2908 19.4071C16.7796 17.4644 18.9276 16.1294 20.5257 14.2765C20.7512 14.0153 20.9284 13.5434 20.6189 13.3926C20.4348 13.3029 20.2231 13.4249 20.0551 13.5411C17.9427 15.0085 15.8315 16.477 13.7192 17.9443C13.03 18.4231 12.3075 18.9156 11.4768 19.033C10.7336 19.1389 9.98572 18.9318 9.26665 18.72C8.66377 18.5428 8.06202 18.3609 7.4626 18.1733C7.1439 18.0744 6.81485 17.9673 6.56864 17.7429C6.32243 17.5185 6.18093 17.141 6.32935 16.8418C6.42254 16.6542 6.60318 16.5357 6.79301 16.439L6.79529 16.4401Z" fill="#F66C4C"/>
</svg>
