<svg width="24" height="24" viewBox="0 0 24 24" fill="none" xmlns="http://www.w3.org/2000/svg">
<path d="M12 3C15.3137 3 18 5.68629 18 9C18 10.874 17.1399 12.5462 15.7939 13.6465C16.7047 13.9741 17.5369 14.4171 18.2568 14.957C19.894 16.1849 21 17.9578 21 20C21 20.5523 20.5523 21 20 21C19.4477 21 19 20.5523 19 20C19 18.7285 18.3149 17.5013 17.0566 16.5576C15.798 15.6137 14.0137 15 12 15C9.98632 15 8.20196 15.6137 6.94336 16.5576C5.68507 17.5013 5 18.7285 5 20C5 20.5523 4.55228 21 4 21C3.44772 21 3 20.5523 3 20C3 17.9578 4.10602 16.1849 5.74316 14.957C6.46291 14.4172 7.29471 13.974 8.20508 13.6465C6.85949 12.5462 6 10.8738 6 9C6 5.68629 8.68629 3 12 3ZM12 5C9.79086 5 8 6.79086 8 9C8 11.2091 9.79086 13 12 13C14.2091 13 16 11.2091 16 9C16 6.79086 14.2091 5 12 5Z" fill="#F66C4C"/>
</svg>
