<svg width="60" height="60" viewBox="0 0 60 60" fill="none" xmlns="http://www.w3.org/2000/svg">
<path d="M30.0572 60H29.9252C13.4246 60 0 46.5714 0 30.066V29.934C0 13.4286 13.4246 0 29.9252 0H30.0572C46.5577 0 59.9824 13.4286 59.9824 29.934V30.066C59.9824 46.5714 46.5577 60 30.0572 60ZM29.9252 2.03094C14.5433 2.03094 2.03034 14.5476 2.03034 29.934V30.066C2.03034 45.4524 14.5433 57.9691 29.9252 57.9691H30.0572C45.439 57.9691 57.952 45.4524 57.952 30.066V29.934C57.952 14.5476 45.439 2.03094 30.0572 2.03094H29.9252Z" fill="#F66C4C"/>
<path d="M34.3606 36C28.6425 36 23.9903 31.7043 23.9888 26.426C23.9903 25.088 25.1706 24 26.617 24C26.7657 24 26.9128 24.0116 27.0537 24.0347C27.3636 24.0824 27.6579 24.1792 27.9287 24.3251C27.9678 24.3468 27.9944 24.3814 28.0007 24.4219L28.6049 27.9374C28.6127 27.9778 28.5986 28.0197 28.5689 28.0501C28.2355 28.3911 27.8097 28.6367 27.3354 28.7595L27.1069 28.8188L27.193 29.0225C27.9725 30.8547 29.5598 32.3184 31.5461 33.0408L31.7669 33.1217L31.831 32.9108C31.9641 32.473 32.2302 32.0799 32.5996 31.7722C32.6262 31.7491 32.6622 31.7375 32.6982 31.7375C32.706 31.7375 32.7139 31.7375 32.7233 31.739L36.5317 32.2967C36.5771 32.3039 36.6147 32.327 36.6381 32.3631C36.7947 32.6131 36.8995 32.8862 36.9528 33.1723C36.9778 33.2995 36.9888 33.4338 36.9888 33.574C36.9888 34.9105 35.8101 35.9986 34.3606 36Z" fill="#F66C4C"/>
<path d="M43.9361 28.7513C43.6394 25.2856 42.1033 22.0705 39.611 19.6993C37.1036 17.3141 33.8508 16 30.4488 16C22.9824 16 16.9074 22.2807 16.9074 30C16.9074 32.5907 17.5986 35.1145 18.9073 37.3129L15.9888 43.9922L25.3332 42.9631C26.9581 43.6512 28.6778 44 30.4473 44C30.9127 44 31.3901 43.9751 31.8689 43.9237C32.2906 43.877 32.7168 43.8085 33.1354 43.7213C39.3881 42.415 43.9526 36.6777 43.9888 30.0747V30C43.9888 29.5796 43.9707 29.1593 43.9346 28.7529L43.9361 28.7513ZM25.6931 40.0314L20.5232 40.6012L22.0668 37.0654L21.758 36.6372C21.7355 36.6061 21.7129 36.575 21.6873 36.5391C20.347 34.6257 19.6392 32.365 19.6392 30.0016C19.6392 23.8392 24.4883 18.8258 30.4488 18.8258C36.0329 18.8258 40.7661 23.3301 41.2224 29.0798C41.2464 29.3881 41.26 29.698 41.26 30.0031C41.26 30.0903 41.2585 30.1759 41.257 30.2678C41.1425 35.4228 37.6593 39.8009 32.7861 40.9157C32.4141 41.0013 32.0331 41.0667 31.6536 41.1088C31.259 41.1555 30.8539 41.1788 30.4518 41.1788C29.0197 41.1788 27.6282 40.8923 26.3135 40.3256C26.1674 40.2649 26.0244 40.1995 25.8903 40.1326L25.6946 40.0345L25.6931 40.0314Z" fill="#F66C4C"/>
</svg>
