<svg width="34" height="34" viewBox="0 0 34 34" fill="none" xmlns="http://www.w3.org/2000/svg">
<path d="M17.0324 34H16.9576C7.60728 34 0 26.3905 0 17.0374V16.9626C0 7.60952 7.60728 0 16.9576 0H17.0324C26.3827 0 33.99 7.60952 33.99 16.9626V17.0374C33.99 26.3905 26.3827 34 17.0324 34ZM16.9576 1.15087C8.24122 1.15087 1.15053 8.24365 1.15053 16.9626V17.0374C1.15053 25.7564 8.24122 32.8491 16.9576 32.8491H17.0324C25.7488 32.8491 32.8395 25.7564 32.8395 17.0374V16.9626C32.8395 8.24365 25.7488 1.15087 17.0324 1.15087H16.9576Z" fill="#F66C4C"/>
<path d="M20.1964 21.8043C15.9935 21.8043 12.5741 18.3828 12.573 14.1787C12.5741 13.113 13.4416 12.2464 14.5047 12.2464C14.614 12.2464 14.7222 12.2556 14.8257 12.274C15.0535 12.312 15.2698 12.3891 15.4689 12.5053C15.4976 12.5226 15.5172 12.5502 15.5218 12.5824L15.9659 15.3825C15.9717 15.4147 15.9613 15.4481 15.9394 15.4723C15.6944 15.7439 15.3814 15.9395 15.0328 16.0373L14.8649 16.0845L14.9281 16.2468C15.5011 17.7061 16.6677 18.8719 18.1277 19.4473L18.29 19.5118L18.3371 19.3438C18.4349 18.9951 18.6305 18.682 18.902 18.4369C18.9216 18.4185 18.9481 18.4093 18.9745 18.4093C18.9803 18.4093 18.986 18.4093 18.9929 18.4104L21.7922 18.8547C21.8255 18.8604 21.8531 18.8788 21.8704 18.9076C21.9855 19.1067 22.0625 19.3242 22.1017 19.5521C22.1201 19.6534 22.1281 19.7604 22.1281 19.872C22.1281 20.9366 21.2618 21.8032 20.1964 21.8043Z" fill="#F66C4C"/>
<path d="M27.6493 16.0776C27.4227 13.5158 26.2491 11.1392 24.345 9.38647C22.4294 7.62335 19.9442 6.65202 17.3452 6.65202C11.6409 6.65202 6.99968 11.2946 6.99968 17.0006C6.99968 18.9156 7.52776 20.7812 8.52757 22.4062L6.29785 27.3434L13.4369 26.5827C14.6783 27.0914 15.9922 27.3492 17.3441 27.3492C17.6996 27.3492 18.0643 27.3308 18.4302 27.2928C18.7523 27.2583 19.0779 27.2076 19.3978 27.1432C24.1747 26.1776 27.662 21.9367 27.6896 17.0558V17.0006C27.6896 16.6899 27.6758 16.3791 27.6482 16.0788L27.6493 16.0776ZM13.7119 24.4156L9.7621 24.8368L10.9414 22.2232L10.7055 21.9067C10.6883 21.8837 10.671 21.8607 10.6515 21.8342C9.62748 20.4198 9.08673 18.7488 9.08673 17.0018C9.08673 12.4466 12.7914 8.74084 17.3452 8.74084C21.6114 8.74084 25.2275 12.0703 25.5761 16.3204C25.5945 16.5483 25.6048 16.7773 25.6048 17.0029C25.6048 17.0674 25.6037 17.1306 25.6025 17.1985C25.5151 21.0091 22.8539 24.2453 19.1308 25.0693C18.8466 25.1326 18.5556 25.1809 18.2656 25.212C17.9642 25.2465 17.6547 25.2638 17.3475 25.2638C16.2534 25.2638 15.1903 25.052 14.1859 24.6331C14.0743 24.5882 13.965 24.5399 13.8626 24.4904L13.713 24.4179L13.7119 24.4156Z" fill="#F66C4C"/>
</svg>
