<svg width="277" height="167" fill="none" xmlns="http://www.w3.org/2000/svg"><path fill="#F66C4C" d="M0 0h277v167H0z"/><g clip-path="url(#clip0_2002_346)"><path d="M133.155 50c.107 1.313-.144 2.884-.005 4.164.015.13.01.23.129.309h1.616v1.789h3.481v-1.79h1.616l.124-.133v-3.176c4.256 1.449 8.031 4.568 10.51 8.559 5.281 8.504 4.476 19.474-1.813 27.06-.478.578-.992 1.136-1.569 1.593 4.149-9.891-6.632-19.246-9.616-27.772l-.99-3.089c-.908 3.778-2.877 7.178-4.774 10.458-3.58 6.19-8.864 12.506-5.793 20.312.735 1.865 2.381 4.128 3.936 5.278-7.984-1.56-14.453-8.424-16.134-16.978-2.586-13.15 6.314-25.732 18.668-26.49l.199-.094h.415z" fill="#fff"/><path d="M206 99.825c-.511 2.188-3.093 2.875-4.346.979-.887-1.342-.271-3.387 1.2-3.882 1.471-.494 2.676.417 3.145 1.92v.983H206zm-.348-.48c0-1.213-.912-2.196-2.035-2.196-1.124 0-2.036.984-2.036 2.197s.912 2.197 2.036 2.197c1.123 0 2.035-.984 2.035-2.197z" fill="#32333B"/><path d="M71.083 101.972H71v14.491h.083v-14.491z" fill="#B1B4E3"/><path d="M147.243 88.375c-2.966 7.07-11.263 9.61-17.237 5.188-1.556-1.15-3.202-3.413-3.936-5.278-3.071-7.806 2.213-14.123 5.793-20.312 1.897-3.28 3.866-6.68 4.773-10.458l.991 3.089c2.985 8.526 13.766 17.88 9.615 27.772h.001zM130.337 74.69c.234-.502.622-1.079.882-1.598.062-.123.15-.201.112-.37l-.494.604c-.244.407-.437.863-.666 1.274-1.9 3.411-3.127 6.453-2.462 10.575.461 2.854 1.935 5.343 3.835 7.32l.209-.057c.208-1.067.826-1.863 1.402-2.717a9.259 9.259 0 01-1.738-1.75c-3.021-4.008-3.196-8.732-1.08-13.28v-.001zm-59.254 27.282c2.245.239 5.314-.466 7.42.354 2.111.822 2.965 3.629 1.49 5.551-.154.199-.602.459-.542.67.018.059.793.528.953.672 2.082 1.879 1.588 5.657-.85 6.862-1.533.759-6.186.535-8.057.472l-.041-14.314-.042 14.314c-.12-.008-.238.029-.331-.09v-14.491zm2.569 5.725h3.273c.147 0 .777-.312.917-.442.655-.608.572-2.02-.207-2.471-.076-.044-.5-.218-.544-.218h-3.44v3.131zm0 6.261h3.44c.077 0 .61-.085.726-.11 1.995-.419 1.787-3.012.078-3.53-.205-.062-.796-.205-.97-.205h-3.274v3.846-.001zm114.365-2.772l.252-.061 6.063-9.223 2.138.07v14.581h-2.569v-9.035c-.309.253-.551.655-.78.992a388.2 388.2 0 00-5.353 8.043h-2.32v-14.447c0-.029.109-.136.082-.223h2.362l.125.134v9.169zm-3.992-1.943c0 4.239-3.184 7.676-7.112 7.676-3.927 0-7.111-3.437-7.111-7.676 0-4.24 3.184-7.676 7.111-7.676 3.928 0 7.112 3.436 7.112 7.676zm-2.455-.004c0-2.776-2.084-5.025-4.656-5.025-2.571 0-4.656 2.249-4.656 5.025 0 2.776 2.085 5.025 4.656 5.025 2.572 0 4.656-2.249 4.656-5.025zm-49.824 2.752c-1.639 4.717-7.053 6.447-10.849 3.436-4.101-3.253-3.761-10.074.631-12.812 3.847-2.399 8.696-.531 10.219 3.919h-2.694c-2.86-4.652-9.596-1.7-8.455 3.849.889 4.324 6.214 5.233 8.455 1.608h2.694-.001zm14.751 0c-2.114 6.317-10.542 6.622-13.082.39-2.478-6.08 2.756-12.382 8.624-10.472 1.938.631 3.889 2.5 4.458 4.626h-2.611c-3.11-4.813-10.022-1.437-8.388 4.313 1.128 3.971 6.266 4.591 8.305 1.144h2.694v-.001zm-53.784-10.019v2.684h-7.044v2.549l.124.134h3.19l-1.698 2.594h-1.492l-.124.134v3.668l.124.134h6.92v2.684h-9.53v-14.581h9.53z" fill="#32333B"/><path d="M117.575 101.972v2.549l-.125.135h-6.712c-.029 0-.092-.159-.208.044v2.505l.125.134h3.19l-1.657 2.594h-1.658v3.936h7.045v2.684h-9.531v-14.581h9.531zm-10.774 14.581h-2.735l-3.77-10.735-3.771 10.735H93.79l5.179-14.492c.064-.093.153-.082.244-.094.455-.059 1.707-.057 2.164 0 .119.015.219.009.279.146l5.145 14.439v.001zm58.343-14.581v.179c.152.085.314-.088.331-.09 1.495-.138 2.974 1.286 3.34 2.791.61 2.513-.523 4.797-2.892 5.34l-4.592.188v6.172c-.715-.026-1.44.035-2.154 0v-14.403c1.832-.057 3.682.079 5.515 0 .16-.007.332.092.286-.179.054 0 .113-.006.166 0v.002zm.881 2.988a2.698 2.698 0 00-.84-.305c-.917-.11-2.111.023-3.07.005-.291-.005-.541-.162-.859.003l.027 2.951c.06.088.164.077.251.087.72.094 2.152.047 2.909 0 .914-.057 1.925-.09 2.025-1.301.038-.464-.037-1.176-.443-1.44zm-8.754-2.988v2.684h-3.895v11.897h-2.569v-11.897h-3.895v-2.684h10.359zm32.735-2.862l5.304-2.996-5.304 8.005v-5.01z" fill="#32333B"/><path d="M164.978 101.972c.046.271-.127.172-.286.179-1.832.079-3.682-.058-5.515 0v14.403c-.138-.008-.277.006-.415 0v-14.582c1.588.019 3.18-.022 4.77-.004.488.006.953.005 1.447.004h-.001zm-93.481 14.581c-.027-.001-.055.002-.083 0l.042-14.313.041 14.313zm93.978-14.492c-.017.002-.179.174-.331.09v-.179c.11.013.219.071.331.089z" fill="#32333B"/><path d="M130.337 74.689c-2.116 4.548-1.942 9.272 1.08 13.28a9.294 9.294 0 001.738 1.75c-.576.855-1.194 1.65-1.402 2.717l-.209.057c-1.9-1.977-3.374-4.466-3.835-7.32-.665-4.122.561-7.163 2.462-10.575l.165-.089v.179h.001z" fill="#F6F6F9"/><path d="M130.171 74.6c.229-.412.422-.868.666-1.275l.494-.604c.038.169-.05.247-.112.37-.261.518-.648 1.095-.882 1.598v-.179l-.166.09z" fill="#BFC5E7"/><path d="M202.685 97.857c.709-.028 1.958-.144 1.725 1.01-.077.379-.436.46-.47.522-.136.25.799 1.055.9 1.33-.859.114-.899-1.452-1.823-1.162v1.164h-.332v-2.863zm1.304 1.228c.469-.628-.417-1.212-.936-.875l-.036 1.078c.24.021.816.007.972-.203z" fill="#32333B"/></g><defs><clipPath id="clip0_2002_346"><path fill="#fff" transform="translate(71 50)" d="M0 0h135v67H0z"/></clipPath></defs></svg>