<svg width="150" height="150" fill="none" xmlns="http://www.w3.org/2000/svg"><path fill-rule="evenodd" clip-rule="evenodd" d="M126.817 41.348H106.76a36.987 36.987 0 015.058 5.647c2.326 3.085 2.326 3.376 4.244 6.52 1.57 2.561 4.128 9.43 4.825 14.204.175 1.456-.639 1.805-1.511 1.805-1.047 0-2.209-.466-2.384-1.805-.349-2.095-1.104-4.657-1.569-6.054-.756-2.212-1.803-4.832-2.849-6.637-1.163-2.037-2.384-4.075-3.837-5.88-2.035-2.56-3.546-3.958-5.813-6.112-2.849-2.794-6.628-4.948-10.29-6.52-6.279-2.736-11.162-3.668-18.72-3.668-9.127 0-20.405 4.425-26.974 11.003-2.267 2.329-3.895 3.842-5.814 6.462a41.006 41.006 0 00-5.406 10.071 40.057 40.057 0 00-1.92 7.336c-.116 1.34-1.337 1.805-2.383 1.805-.872 0-1.686-.29-1.512-1.805 1.337-8.674 5.93-18.046 11.976-24.392 11.454-12.051 28.779-17 44.939-12.925.698.175 2.558.291 4.651.291l11.278-.058h8.488c1.046 0 1.918.931 1.918 1.98a1.937 1.937 0 01-1.918 1.92h-13.72c1.337.7 3.314 2.213 4.128 2.62.639.35.93.291 1.569.291h23.603c2.267 0 2.5 3.9 0 3.9zM34.034 84.02c-.175-.932-.756-1.747-2.267-1.572-.872.058-1.57.699-1.337 1.921 1.104 5.822 3.546 11.76 6.918 16.592 1.627 2.386 4.476 5.472 4.941 6.229H23.802c-.988 0-1.802.815-1.802 1.804 0 .99.814 1.805 1.802 1.805h22.382c.64.582 2.442 1.979 4.36 3.144H35.662c-.989 0-1.803.815-1.803 1.804 0 .99.814 1.805 1.803 1.805h21.451c1.105 0 5.058 1.688 7.5 2.212 10.522 2.271 21.045 1.572 30.579-3.26 10.929-5.53 19.359-14.379 23.37-25.673.814-2.212 1.337-4.192 1.802-6.578.233-1.165-.465-1.805-1.337-1.921-1.57-.117-2.093.698-2.267 1.571-.872 3.96-2.791 8.15-4.36 11.236-8.779 17.29-31.044 26.372-50.229 19.91-4.767-1.572-9.301-4.075-13.255-7.219-6.976-5.472-13.022-15.078-14.94-23.985l.058.175zm21.917-16.3c-.291 1.222-1.395 1.804-2.384 1.804-.93 0-1.802-.524-1.628-1.805.233-1.979 1.86-4.599 2.965-6.229.407-.64.698-1.047 1.105-1.571 1.57-2.096 3.604-.524 3.604.465 0 1.34-1.046 2.387-1.802 3.551-.698 1.048-1.57 2.504-1.86 3.784zm.581 16.3c3.43 7.393 11.22 12.167 19.359 11.876 7.732-.233 15.115-4.832 18.37-11.876.524-1.106 1.28-1.514 2.268-1.572 1.22-.058 1.918 1.048 1.57 2.096-1.977 4.424-4.593 7.859-8.198 10.479-4.185 3.027-9.243 4.657-14.359 4.715-6.278.058-12.673-2.27-17.731-7.393-2.383-2.387-3.779-4.89-5.058-7.801-.407-1.048.291-2.154 1.57-2.096.988.058 1.744.466 2.267 1.572h-.058zm-7.5 0c3.954 11.177 13.372 18.396 25.813 19.036 12.382.641 22.788-7.277 26.916-19.036.407-1.164 1.337-1.63 2.383-1.572 1.105 0 1.686.873 1.512 1.98-.465 2.794-2.267 6.345-4.07 8.965-3.371 4.831-8.894 8.907-14.242 11.177-8.43 3.609-18.894 2.503-27.266-1.863-6.104-3.144-10.232-7.277-13.429-13.972-.64-1.28-1.279-2.91-1.511-4.366-.175-1.048.407-1.98 1.511-1.98.988 0 1.977.408 2.384 1.573v.058zm-.58-16.3c-.466 2.503-4.012 2.328-3.838 0 .35-1.922.64-3.086 1.512-5.007 1.395-3.202 3.023-5.88 5.232-8.383 2.849-3.26 6.104-5.822 10-7.743 5.348-2.678 9.359-3.26 15.754-3.26 6.336 0 11.86 2.445 16.626 5.764 4.302 2.968 7.907 7.102 10.232 11.934 1.628 3.376 2.035 5.472 2.267 6.694.233 2.33-3.372 2.504-3.837 0-.755-2.62-1.744-5.18-3.08-7.218-3.547-5.414-7.5-9.024-13.604-11.469C69.845 42.63 52.87 51.768 48.393 67.72h.058zm-7.035-1.456a9.192 9.192 0 00-.29 1.456c-.233 1.106-1.221 1.746-2.21 1.804-.93.058-1.918-.524-1.802-1.805.058-.64.233-1.28.349-1.92h.116c2.965-11.586 11.278-21.89 21.8-26.256 9.71-4.075 21.104-4.832 30.87-.407 3.198 1.455 5.93 2.969 8.662 5.006 4.186 3.144 7.907 7.277 10.406 11.992 1.686 3.144 3.779 7.627 4.302 11.644.117 1.28-.872 1.863-1.802 1.804-.988-.058-1.918-.698-2.209-1.804-.116-.524-.174-1.048-.291-1.456-.813-3.027-1.976-5.763-3.43-8.5-3.604-6.694-9.94-12.283-16.975-15.135-16.51-6.753-34.764-.466-43.892 14.67-.523.931-.93 1.746-1.395 2.736-1.046 2.038-1.628 4.075-2.209 6.23v-.059zm.174 17.989c.291 1.048.582 2.037.93 2.969a41.469 41.469 0 004.128 7.975 21.425 21.425 0 001.802 2.387c3.256 3.784 7.093 6.811 11.627 9.082 3.023 1.513 8.662 3.434 13.139 3.434 6.569 0 10.057-.291 16.045-2.736 4.07-1.63 8.022-5.064 9.01-5.064 1.687 0 2.559 1.862 1.512 3.143-1.744 2.096-8.197 5.065-9.708 5.705-3.372 1.514-8.953 2.853-13.72 2.853-9.36 0-16.685-2.445-23.603-7.335-.872-.641-1.918-1.339-2.732-2.154-2.907-2.853-4.244-3.842-6.744-7.627-2.848-4.25-4.476-7.8-5.523-12.4-.29-1.28.524-2.037 1.803-2.037 1.511 0 1.86.99 2.093 1.805h-.059zm85.052-53.617h-6.977a1.937 1.937 0 00-1.918 1.921c0 1.048.872 1.921 1.918 1.921h6.977a1.937 1.937 0 001.918-1.92 1.937 1.937 0 00-1.918-1.922zm-98.016 83.307h-4.825c-.988 0-1.802.815-1.802 1.804 0 .99.814 1.805 1.802 1.805h4.825c.989 0 1.803-.815 1.803-1.805 0-.989-.814-1.804-1.803-1.804zm33.835-59.206c0 5.123 5.406-.465 11.22-.465 4.418 0 5.871-.175 10.057 1.63 3.605 1.572 7.209 4.657 9.243 7.8.698 1.107 1.628 2.446 1.977 4.017.29 1.223 1.395 1.805 2.384 1.805.93 0 1.802-.524 1.627-1.805-.348-3.26-2.79-6.578-4.767-8.615-5.232-5.356-9.883-8.733-19.533-8.733-3.43 0-12.15 2.154-12.15 4.366h-.058zm46.74 29.516c-1.163 4.25-2.848 8.034-5.523 11.526-.639.874-1.686 2.504-.697 3.493.697.699 2.267.699 3.255-.465 1.279-1.398 2.558-3.377 3.895-6.346 1.105-2.387 2.384-5.705 2.907-8.034.291-1.28-.523-2.037-1.802-2.037-1.512 0-1.86.99-2.093 1.805l.058.058z" fill="#F66C4C"/><path d="M121.469 71.212H94.843c-.77 0-1.395.678-1.395 1.514v6.52c0 .836.625 1.514 1.395 1.514h26.626c.77 0 1.395-.678 1.395-1.514v-6.52c0-.836-.625-1.514-1.395-1.514zm-66.042 0H28.802c-.771 0-1.396.678-1.396 1.514v6.52c0 .836.625 1.514 1.396 1.514h26.625c.77 0 1.395-.678 1.395-1.514v-6.52c0-.836-.624-1.514-1.395-1.514z" fill="#32333B"/></svg>