<svg width="150" height="150" fill="none" xmlns="http://www.w3.org/2000/svg"><path fill-rule="evenodd" clip-rule="evenodd" d="M40.06 37.237c-1.225-2.022.383-5.757 3.93-2.508 3.14 2.866 9.342 9.237 16.693 14.38 9.724 6.806 20.955 12.359 24.809 13.459 1.046.23 2.067.486 3.114.742h.025c.843.282 1.915.46 2.961.64.69.128 1.378.23 1.99.383l.078.026c1.148.282 5.308 1.305 7.044 2.891.944.87 1.251 1.894.23 3.02-.919.998-2.22.511-4.186-.23-2.22-.845-5.36-2.048-9.623-1.587-.459.051-.918.102-1.327.128-1.76.179-2.807.256-4.875.998-1.914.665-3.445 1.382-4.85 2.277-1.403.896-2.654 1.97-4.032 3.326-.613.614-1.2 1.228-1.736 1.868-.536.64-1.02 1.305-1.48 2.047-1.48 2.482-2.348 4.452-2.859 6.525-.51 2.072-.638 4.273-.638 7.24 0 2.125.613 4.709 1.557 7.14.97 2.507 2.297 4.836 3.676 6.294l.663.665c1.761 1.791 3.344 3.378 5.64 4.657 1.94 1.1 3.702 1.587 5.055 1.996.485.153.919.281 1.301.409.817.282 1.379.742 1.685 1.28.204.358.306.716.306 1.1 0 .384-.127.716-.357 1.023-.28.384-.715.666-1.302.794-1.225.255-3.165-.359-5.207-1.305-2.935-1.356-6.125-3.429-7.504-4.529l-.025-.026-11.256-9.748c-1.072-.845-2.425-2.022-3.752-3.224a84.824 84.824 0 01-4.237-4.017c-1.812-1.766-6.457-6.628-6.457-8.188 0-.46.153-.922.433-1.28.23-.307.536-.537.894-.665.357-.128.765-.128 1.2 0 .484.153 1.02.512 1.505 1.151.97 1.28 5.054 5.783 7.887 8.495 2.042 1.97 4.084 3.864 5.462 4.964-.025-.077-.05-.128-.076-.204-.077-.205-.154-.41-.205-.64-1.352-4.964-1.378-9.877-.153-14.457 1.225-4.631 3.676-8.93 7.249-12.563 1.659-1.689 3.573-3.096 5.666-4.247a28.997 28.997 0 015.105-2.2c-3.573-.794-13.936-6.014-22.997-12.462-8.168-5.834-15.187-12.87-16.999-15.864l-.025.026zm93.034 49.818c-.409-.845-1.226-1.484-2.476-1.382a2.852 2.852 0 00-.996.23c-.51.205-.919.563-1.174.998a2.62 2.62 0 00-.332 1.561c.026.358.102.742.281 1.1.204.486.511.819.919 1.05.459.255 1.021.383 1.634.358 1.199-.026 1.939-.691 2.246-1.561a3.21 3.21 0 00.178-1.203c-.025-.41-.102-.819-.28-1.177v.026zm-9.47-1.408c-1.531 0-2.731-.256-2.731-2.047 0-.588.204-1.1.562-1.458.357-.358.842-.563 1.455-.563h8.244c1.633 0 3.216.768 4.39 1.945 1.174 1.177 1.94 2.763 1.94 4.4 0 2.048-.69 3.787-1.787 5.041-1.149 1.305-2.757 2.073-4.543 2.073-1.455 0-1.812-.077-2.527-.23-.306-.052-.664-.128-1.2-.23-.663-.103-1.327-.231-1.94-.333-.382-.077-.765-.128-1.097-.18l-1.072-.153c-2.093-.282-3.956-.537-3.956-2.456 0-1.587.97-1.996 2.195-1.996.587 0 1.25.102 1.863.205.281.05.562.102.817.127a3.776 3.776 0 01-.051-.511c-.153-1.254-.255-2.15.434-3.71h-.128c-.306 0-.587.025-.791.025l-.077.051zm5.309 18.935c-.689.051-1.353.332-1.761.819-.383.435-.587.895-.638 1.381-.077.538.051 1.1.281 1.689.306.716.944 1.177 1.659 1.33a3.11 3.11 0 001.378 0 2.933 2.933 0 001.2-.588c.536-.461.867-1.151.791-2.098-.051-.845-.383-1.459-.868-1.868a2.457 2.457 0 00-.944-.512 3.18 3.18 0 00-1.098-.128v-.025zm-7.044-1.894c-.613-.383-1.021-.946-1.021-1.765 0-.589.204-1.1.561-1.459.358-.358.842-.563 1.455-.563h.051l8.27 1.817h.025c2.323.717 3.701 2.329 4.314 4.145a7.02 7.02 0 01.255 3.327 7.599 7.599 0 01-1.225 3.096c-1.072 1.56-2.808 2.635-5.028 2.635-1.94 0-2.859-.307-4.288-.793-.409-.128-.843-.282-1.327-.435-.562-.179-1.124-.333-1.685-.512-.919-.281-1.863-.537-2.706-.844-.536-.179-.816-.282-1.123-.384-1.097-.384-2.144-.742-3.318-1.049-.127-.026-.255-.077-.383-.103-1.403-.358-3.318-.869-3.318-2.635 0-.588.205-1.1.562-1.458.357-.359.842-.563 1.455-.563.332 0 2.016.486 3.905 1.074 1.914.589 4.058 1.305 5.105 1.689.025-2.738.178-3.147 1.225-4.734-.638-.076-1.276-.255-1.787-.588l.026.102zm-6.688 13.536a2.543 2.543 0 00-1.888-.64c-.868.051-1.583.512-2.042 1.1-.179.256-.332.512-.409.819a2.053 2.053 0 00-.102.87c.051.614.358 1.228.996 1.714.842.64 1.582.87 2.169.819.332-.025.638-.128.894-.281.28-.154.51-.384.689-.64.434-.588.663-1.305.612-1.868-.051-.742-.383-1.433-.919-1.893zm-10.668-5.962c-1.302-.895-2.527-1.765-2.527-3.045 0-.588.204-1.1.561-1.458.358-.358.843-.563 1.455-.563.689 0 2.476 1.279 4.467 2.712 1.914 1.382 4.032 2.891 5.309 3.429.255.102.587.179.867.23.154.026.332.051.485.102 1.328.333 2.629 1.177 3.548 2.329.868 1.074 1.43 2.431 1.43 3.838 0 2.226-.715 3.915-1.838 5.117a6.072 6.072 0 01-2.246 1.535 7.142 7.142 0 01-2.604.512c-1.684 0-3.369-.588-4.594-1.74l-2.833-2.456c-.485-.435-.995-.819-1.506-1.228a21.92 21.92 0 01-1.531-1.254c-.154-.128-.332-.282-.511-.435-.893-.691-2.042-1.612-2.042-2.789 0-.589.204-1.1.562-1.458.357-.359.842-.563 1.455-.563.944 0 1.888.87 2.858 1.765.587.537 1.174 1.075 1.71 1.382.102-.589.307-1.1.587-1.587a5.824 5.824 0 011.226-1.509c-.256-.154-.485-.333-.741-.486-.893-.589-1.812-1.177-2.68-1.817-.28-.205-.561-.409-.842-.589l-.025.026zM93.404 86.799v.077c.051.255.179.69.383 1.125.153.307.332.589.51.742.562.487 1.277.691 1.991.64a3.17 3.17 0 001.072-.281c.332-.154.613-.384.868-.64.409-.46.638-1.1.587-1.842-.05-.742-.383-1.433-.919-1.894a2.543 2.543 0 00-1.888-.64c-.102 0-.179.026-.256.026a2.613 2.613 0 00-1.812 1.152c-.383.537-.561 1.151-.536 1.56V86.8zm-9.495-4.734c-.485-.332-.79-.819-.79-1.612 0-1.56.97-1.996 2.143-1.996.715 0 1.506.18 2.119.333.204.051.382.077.51.102 2.068.41 3.675.563 5.386.743.867.102 1.735.179 2.73.306.332.052.613.077.868.077.664.052 1.073.077 1.89.46 2.041.922 3.241 2.457 3.751 4.146.358 1.151.383 2.38.128 3.556a7.298 7.298 0 01-1.557 3.148c-1.098 1.28-2.706 2.149-4.62 2.149-2.144 0-3.037-.358-4.39-.895-.485-.18-1.02-.41-1.71-.64-1.455-.486-4.058-1.459-6.56-2.431-2.118-.844-4.16-1.689-5.334-2.252-.893-.435-1.378-.946-1.608-1.484a1.756 1.756 0 01-.077-1.074c.077-.333.256-.64.51-.87.384-.384.945-.64 1.507-.64.51 0 2.578.87 4.85 1.817 2.194.92 4.594 1.919 5.742 2.226.051-2.175.485-3.275.74-3.813h-.025c-.307-.025-.74-.076-1.353-.179-.613-.102-1.174-.205-1.685-.281-.536-.103-1.097-.205-1.659-.333-.561-.128-1.097-.256-1.531-.563h.025zm6.407 1.126c-.026-.102-.026-.051-.051.026.025 0 .05.025.05-.026zm20.368 14.636v.077c.127.767.485 1.458 1.021 1.919a2.441 2.441 0 001.837.614c1.302-.103 2.093-.845 2.374-1.74.128-.359.153-.742.128-1.126a3.192 3.192 0 00-.281-1.1c-.408-.845-1.251-1.484-2.476-1.408-.102 0-.179.026-.255.026a2.613 2.613 0 00-1.812 1.151c-.383.538-.562 1.152-.536 1.561v.026zm-5.718-4.427c-.816-.384-1.429-.998-1.429-1.944 0-1.536.97-1.996 2.297-1.996.996 0 2.195.307 3.267.563.409.102.817.205 1.2.281 1.072.205 2.144.41 3.19.589.256.05.485.076 1.277.23 1.403.256 2.782 1.1 3.777 2.277.944 1.1 1.557 2.482 1.557 3.992 0 2.047-.689 3.812-1.787 5.04-1.148 1.305-2.756 2.073-4.543 2.073-2.425 0-5.87-.691-9.469-1.663-5.003-1.331-10.312-3.224-13.477-4.478-.587-.23-1.225-.435-1.863-.665-1.276-.41-2.527-.819-3.343-1.433a2.623 2.623 0 01-.69-.716 1.719 1.719 0 01-.28-.947c0-.589.204-1.1.561-1.459.358-.358.842-.563 1.455-.563.408 0 2.91.896 6.075 2.047 4.798 1.715 11.205 4.018 13.884 4.555a5.314 5.314 0 01-.153-2.687c.153-.844.536-1.688 1.123-2.482-.842-.076-1.837-.23-2.629-.614zm-14.727 17.016v.076c.128.742.485 1.459 1.021 1.919a2.44 2.44 0 001.838.614c1.302-.102 2.093-.844 2.374-1.739.127-.359.153-.742.127-1.126a3.182 3.182 0 00-.28-1.101c-.409-.844-1.251-1.484-2.476-1.407-.102 0-.179.026-.255.026a2.613 2.613 0 00-1.813 1.151c-.383.538-.561 1.152-.536 1.561v.026zm22.002-33.135c0 .05 0 .102.025.127.128.768.46 1.459.996 1.945.485.41 1.097.665 1.837.614 1.302-.102 2.093-.844 2.374-1.74.128-.358.153-.742.128-1.151a2.73 2.73 0 00-.307-1.1c-.408-.845-1.25-1.433-2.424-1.331-.077 0-.154.026-.205.026a3.264 3.264 0 00-1.786.92c-.46.461-.715 1.075-.664 1.69h.026zM69.871 97.52c-.638-2.098-.893-4.35-.893-7.037 0-4.196 1.761-8.29 4.569-11.54 2.833-3.275 6.738-5.68 11.026-6.473.996-.179 3.778-.256 6.458-.332 2.297-.052 4.517-.128 5.385-.23h.026l9.673-.743c1.123-.051 2.425-.153 3.752-.256 2.016-.153 4.084-.332 5.692-.332 1.786 0 3.241.793 4.262 1.944 1.2 1.33 1.838 3.147 1.838 4.836 0 2.022-.664 3.66-1.736 4.785-1.148 1.228-2.782 1.893-4.568 1.893h-9.827c-.587 0-1.098-.204-1.455-.563-.357-.358-.561-.844-.561-1.458 0-1.765 1.352-2.072 3.19-2.072.383 0 .842.025 1.302.025.255 0 .485.026.765.026-.357-.845-.536-1.612-.536-2.38-.025-.793.103-1.56.307-2.456-1.71.025-3.497.205-5.233.358-.791.077-1.608.153-2.271.205l-7.836.41c-.664.025-1.506.05-2.4.05-2.296.026-5.002.051-6.508.538a18.335 18.335 0 00-4.466 2.046 14.149 14.149 0 00-3.446 3.071 15.745 15.745 0 00-3.267 7.906 14.645 14.645 0 001.404 8.24c.919 1.867 2.782 4.042 4.926 6.038 2.271 2.124 4.85 4.068 6.891 5.245.051-.358.102-.665.204-.972.154-.486.358-.896.587-1.305.46-.768.74-1.049.97-1.279.077-.077.154-.154.23-.256-.638-.307-1.659-.947-2.706-1.689-1.837-1.279-3.853-2.84-4.466-3.403l-3.242-3.045a1.96 1.96 0 00-.23-.205c-.765-.716-2.45-2.302-2.424-3.889 0-.435.153-.87.408-1.177.23-.281.536-.512.894-.614a1.85 1.85 0 011.174.026c.485.153.995.511 1.455 1.126 1.965 2.226 3.777 3.966 5.717 5.526 1.94 1.561 4.058 2.968 6.662 4.504 1.659.972 1.812.997 2.169 1.023.255.026.587.051 1.327.281 2.22.691 3.65 2.329 4.288 4.248.358 1.049.46 2.2.306 3.275a6.6 6.6 0 01-1.25 3.07c-1.149 1.561-3.088 2.636-5.794 2.636-2.093 0-5.08-2.073-7.121-3.48-.332-.23-.638-.435-.893-.614l-.026-.026c-4.084-2.737-8.27-5.526-11.383-9.416-1.608-2.021-2.655-3.94-3.293-6.038l-.026-.051z" fill="#F66C4C"/><path fill-rule="evenodd" clip-rule="evenodd" d="M34.42 55.557c-1.736.077-3.345.154-4.493.154H26.66l1.531-2.892c1.455-2.763 2.782-5.475 4.11-8.162.663-1.382 1.352-2.738 2.016-4.12.306-.64.664-1.279 1.047-1.97 1.607-2.942 3.726-6.831 2.986-9.467a4.994 4.994 0 00-.587-1.305 6.096 6.096 0 00-2.68-2.328 5.178 5.178 0 00-3.523-.282 4.89 4.89 0 00-1.403.64c-1.915 1.203-3.676 5.04-5.08 8.06a57.3 57.3 0 01-1.072 2.252c-.382.767-1.072 2.098-1.914 3.76-3.369 6.602-9.418 18.475-9.878 20.342-.944 3.839 1.353 5.655 4.748 6.5 4.186 1.023 10.005.767 14.625.562 1.736-.076 3.344-.153 4.492-.153h3.267l-1.531 2.891c-1.455 2.764-2.782 5.476-4.11 8.162-.663 1.382-1.352 2.738-2.016 4.12-.306.64-.664 1.28-1.046 1.97-1.608 2.943-3.727 6.832-2.987 9.467.128.46.332.896.587 1.305a6.096 6.096 0 002.68 2.329 5.178 5.178 0 003.523.281 4.865 4.865 0 001.403-.64c1.915-1.202 3.676-5.04 5.08-8.06A42.61 42.61 0 0142 86.748c.383-.768 1.072-2.099 1.914-3.762 3.369-6.601 9.418-18.474 9.877-20.341.945-3.838-1.352-5.655-4.747-6.5-4.186-1.023-10.005-.767-14.625-.562v-.026z" fill="#32333B"/></svg>