<svg width="150" height="150" fill="none" xmlns="http://www.w3.org/2000/svg"><path fill-rule="evenodd" clip-rule="evenodd" d="M96.12 88.373V68.356c0-3.563-1.88-8.616-3.047-12.115-.713-1.878-5.382-16.39-5.382-17.685-.195-2.397 0-5.247 0-7.58 0-7.126.518-5.895-9.273-5.895H32.312c-2.528.324-1.88 3.563-1.88 5.701 0 11.143.519 7.256-3.566 19.759-1.362 3.886-2.53 7.773-3.697 11.79-.843 2.72-1.167 3.368-1.167 6.413v38.481c0 3.045-.194 4.535 3.178 4.535h5.706c2.464 0 2.659-4.211.065-4.211h-4.864c-.194-6.09 0-12.503 0-18.528V70.623c0-4.017.195-4.405 1.362-7.968l4.41-13.993c.713-2.008 1.556-4.405 2.01-6.414h31.255c1.168 0 2.205-1.036 2.205-2.202s-1.037-2.203-2.205-2.203H34.582v-8.227h48.829c0 3.174-.195 6.608 0 9.782.194 1.36 6.225 20.277 6.938 22.415 1.038 3.563 1.557 4.405 1.557 8.292v18.203c0 2.98 4.41 2.98 4.41.13l-.066-.065h-.13zm-22.436-20.47h-29.05c-4.216 0-7.782 3.562-7.782 7.773v13.15c0 4.212 3.566 7.775 7.781 7.775h2.659c2.853-.065 2.918-4.34 0-4.406h-.778c-3.048 0-5.383-2.397-5.383-5.377v-9.134c0-3.045 2.4-5.377 5.383-5.377h25.29c3.047 0 5.382 2.397 5.382 5.377v.842c0 2.527 4.215 2.786 4.215.13v-2.98c0-4.21-3.567-7.774-7.782-7.774l-.065.065.13-.065z" fill="#fff"/><mask id="a" style="mask-type:luminance" maskUnits="userSpaceOnUse" x="22" y="25" width="75" height="87"><path d="M96.12 88.373V68.356c0-3.563-1.88-8.616-3.047-12.115-.713-1.878-5.382-16.39-5.382-17.685-.195-2.397 0-5.247 0-7.58 0-7.126.518-5.895-9.273-5.895H32.312c-2.528.324-1.88 3.563-1.88 5.701 0 11.143.519 7.256-3.566 19.759-1.362 3.886-2.53 7.773-3.697 11.79-.843 2.72-1.167 3.368-1.167 6.413v38.481c0 3.045-.194 4.535 3.178 4.535h5.706c2.464 0 2.659-4.211.065-4.211h-4.864c-.194-6.09 0-12.503 0-18.528V70.623c0-4.017.195-4.405 1.362-7.968l4.41-13.993c.713-2.008 1.556-4.405 2.01-6.414h31.255c1.168 0 2.205-1.036 2.205-2.202s-1.037-2.203-2.205-2.203H34.582v-8.227h48.829c0 3.174-.195 6.608 0 9.782.194 1.36 6.225 20.277 6.938 22.415 1.038 3.563 1.557 4.405 1.557 8.292v18.203c0 2.98 4.41 2.98 4.41.13l-.066-.065h-.13zm-22.436-20.47h-29.05c-4.216 0-7.782 3.562-7.782 7.773v13.15c0 4.212 3.566 7.775 7.781 7.775h2.659c2.853-.065 2.918-4.34 0-4.406h-.778c-3.048 0-5.383-2.397-5.383-5.377v-9.134c0-3.045 2.4-5.377 5.383-5.377h25.29c3.047 0 5.382 2.397 5.382 5.377v.842c0 2.527 4.215 2.786 4.215.13v-2.98c0-4.21-3.567-7.774-7.782-7.774l-.065.065.13-.065z" fill="#fff"/></mask><g mask="url(#a)"><path d="M96.12 88.373h-.583v.324l.324.13.26-.519v.065zm-8.43-49.817h.585v-.065l-.584.065zM32.314 25.08v-.583h-.13l.065.583h.065zm-9.079 37.25l.52.194-.52-.13v-.064zm2.918 45.218h-.583v.583h.583v-.583zm7.782-65.3v-.584h-.454l-.13.454.584.13zm.713-4.341v-.583h-.583v.583h.583zm0-8.292v-.583h-.583v.583h.583zm48.829 0h.584v-.583h-.584v.583zm0 9.782h-.584l.584-.065v.065zm6.938 22.414l.52-.13-.52.195v-.065zm5.901 26.561h.584v-.324l-.324-.13-.26.519v-.065zM73.814 67.837v.583h.26l.194-.194-.39-.389h-.064zm0-.065v-.583h-.26l-.194.195.39.388h.064zm23.02 20.536V68.291h-1.167v20.017h1.167zm0-20.017c0-1.879-.454-4.082-1.102-6.22-.584-2.137-1.362-4.34-1.946-6.089l-1.102.389c.584 1.814 1.362 3.887 1.945 6.024.584 2.138 1.038 4.211 1.038 5.896h1.167zm-3.048-12.374c-.324-.907-1.686-4.988-2.983-9.004-.648-2.009-1.232-4.017-1.685-5.572-.195-.777-.39-1.49-.52-2.008-.064-.26-.129-.453-.129-.648 0-.065 0-.13-.065-.194v-.065h-1.167c0 .13 0 .324.065.518.065.195.065.454.13.713.13.518.324 1.23.518 2.008.454 1.555 1.038 3.563 1.686 5.636 1.297 4.017 2.594 8.163 2.983 9.07l1.103-.389.064-.065zm-5.382-17.556c-.13-2.332 0-5.117 0-7.514h-1.167c0 2.267-.195 5.247 0 7.644l1.167-.065v-.065zm0-7.514c0-1.75.065-3.045-.065-3.952-.13-.972-.389-1.684-1.167-2.138-.389-.194-.778-.324-1.297-.324-.454-.065-1.037-.065-1.75-.065-.65 0-1.492 0-2.4.065-.908 0-2.01.065-3.177.065v1.166c1.232 0 2.27 0 3.242-.065.908 0 1.686-.064 2.334-.064.649 0 1.168 0 1.622.064.389.065.713.13.843.26.324.129.518.453.583 1.23.13.842.065 2.073.065 3.822h1.167v-.064zm-9.856-6.479H32.443v1.167h46.105v-1.167zm-46.17 0c-.779.13-1.362.454-1.751.972-.39.518-.584 1.101-.649 1.75-.065.582-.065 1.295-.065 1.878 0 .648.065 1.23.065 1.749h1.167c0-.583-.064-1.23-.064-1.814 0-.583 0-1.166.064-1.684.065-.518.195-.907.39-1.166.194-.26.453-.454.972-.518l-.13-1.102v-.065zm-2.335 6.284c0 5.636.13 7.32-.26 9.264-.194.972-.518 1.944-1.037 3.498l-2.27 6.802 1.103.324c1.038-3.11 1.75-5.182 2.27-6.802.518-1.554.843-2.656 1.037-3.692.39-2.073.26-3.952.26-9.459h-1.168l.065.065zm-3.502 19.564c-1.361 3.887-2.529 7.774-3.696 11.856l1.103.323c1.167-4.08 2.399-7.903 3.696-11.79l-1.102-.389zm-3.696 11.856c-.389 1.295-.713 2.202-.907 3.11-.195.97-.26 1.943-.26 3.433h1.167c0-1.49.065-2.397.26-3.24.194-.842.454-1.684.907-3.044l-1.102-.324-.065.065zm-1.167 6.607v38.481h1.167V68.68h-1.167zm0 38.481v2.008c.065.583.13 1.166.39 1.62.259.518.648.907 1.231 1.101.584.259 1.232.324 2.14.324v-1.166c-.778 0-1.362-.065-1.686-.259a1.161 1.161 0 01-.648-.583c-.13-.26-.195-.648-.26-1.231-.064-.518 0-1.166 0-1.944h-1.167v.13zm6.29 5.118h3.177v-1.166h-3.177v1.166zm3.177 0c.779 0 1.427-.324 1.881-.843.39-.518.648-1.166.648-1.813 0-.648-.13-1.296-.583-1.814-.454-.519-1.038-.907-1.88-.907v1.166c.453 0 .777.194.972.453.195.259.324.648.324 1.102 0 .453-.13.842-.389 1.101-.194.259-.519.453-.973.453v1.166-.064zm.065-5.377h-4.863v1.166h4.863v-1.166zm-4.28.583c-.194-6.09 0-12.438 0-18.528h-1.167c0 6.025-.194 12.503 0 18.593h1.168v-.065zm0-18.528V55.788h-1.167v33.168h1.168zm0-18.398c0-2.008.065-3.045.195-4.081.195-.972.519-1.944 1.102-3.693l-1.102-.389c-.584 1.75-.908 2.786-1.102 3.887-.195 1.102-.26 2.268-.26 4.276h1.168zm1.297-7.774l4.41-13.993-1.102-.324-4.41 13.993 1.102.324zm4.41-13.993c.648-2.008 1.556-4.405 2.01-6.478l-1.102-.26c-.454 2.01-1.297 4.341-2.01 6.35l1.102.388zm1.816-6.024h30.931V41.6H34.453v1.166zm30.931 0c1.491 0 2.724-1.296 2.724-2.721H66.94c0 .842-.778 1.62-1.62 1.62v1.165l.064-.065zm2.724-2.721c0-1.49-1.297-2.721-2.724-2.721v1.166c.843 0 1.621.777 1.621 1.62h1.167l-.064-.065zm-2.724-2.721H34.842v1.166h30.542v-1.166zm-31.126.583v.194h1.167v-.194h-1.167zm.584-7.644H83.67v-1.166H34.842v1.166zm48.245-.584c0 3.175-.195 6.608 0 9.847l1.167-.064c-.195-3.175 0-6.543 0-9.783h-1.167zm0 9.847c0 .195.13.713.324 1.36.195.649.454 1.49.713 2.527.584 2.009 1.427 4.535 2.205 7.126 1.621 5.183 3.307 10.43 3.696 11.532l1.103-.324c-.325-1.102-2.01-6.349-3.697-11.532a244.617 244.617 0 01-2.204-7.126c-.325-.971-.584-1.878-.714-2.461-.194-.648-.259-1.037-.324-1.166l-1.167.13.065-.066zm6.938 22.545c1.038 3.563 1.492 4.34 1.492 8.097h1.167c0-3.951-.584-4.923-1.556-8.421l-1.103.324zm1.492 8.097v18.204h1.167V70.17h-1.167zm0 18.204c0 .907.324 1.62.843 2.138a2.956 2.956 0 001.88.713c.649 0 1.362-.195 1.88-.648.52-.454.909-1.166.909-2.073H95.86c0 .583-.194.907-.518 1.166a1.765 1.765 0 01-1.103.388c-.454 0-.843-.13-1.102-.388a1.68 1.68 0 01-.519-1.231h-1.167l.065-.065zm5.252-.389l-.065-.064-.518 1.036.064.065.52-1.037zm-22.76-20.6H44.957v1.166h29.05v-1.166zm-29.051 0c-4.54 0-8.3 3.822-8.3 8.292h1.167c0-3.887 3.242-7.191 7.197-7.191v-1.166l-.064.065zm-8.3 8.292v13.15h1.167v-13.15h-1.168zm0 13.15c0 4.535 3.825 8.293 8.3 8.293v-1.166c-3.891 0-7.198-3.24-7.198-7.191h-1.167l.064.064zm8.3 8.293h2.658v-1.166h-2.658v1.166zm2.658 0c.843 0 1.557-.324 2.01-.907a2.95 2.95 0 00.714-1.879c0-.648-.195-1.36-.649-1.879-.454-.518-1.167-.907-2.075-.907v1.166c.584 0 .973.195 1.232.519.26.324.39.712.39 1.101 0 .454-.13.842-.39 1.101-.259.26-.648.519-1.167.519v1.166h-.065zm0-5.572h-.778v1.166h.778v-1.166zm-.778 0c-2.723 0-4.863-2.137-4.863-4.858h-1.168c0 3.368 2.66 5.96 5.966 5.96v-1.166l.065.064zm-4.863-4.858v-9.134h-1.168v9.134h1.168zm0-9.134c0-2.721 2.14-4.86 4.863-4.86V71.53c-3.372 0-5.966 2.656-5.966 5.96h1.168l-.065.065zm4.863-4.86h25.29V71.53h-25.29v1.166zm25.29 0c2.723 0 4.863 2.139 4.863 4.86h1.168c0-3.37-2.66-5.96-5.966-5.96v1.166l-.065-.065zm4.863 4.86v.842h1.168v-.843H76.99zm0 .842c0 1.684 1.427 2.526 2.659 2.59.648 0 1.297-.129 1.816-.517.518-.389.908-1.037.908-1.879h-1.168c0 .518-.194.777-.454.972-.259.194-.648.324-1.102.324-.843-.065-1.556-.583-1.556-1.426h-1.167l.064-.064zm5.383.13v-2.98h-1.168v2.98h1.168zm0-2.98c0-4.535-3.826-8.293-8.3-8.293v1.166c3.89 0 7.197 3.24 7.197 7.191h1.167l-.064-.065zm-8.755-8.163l-.064.064.778.778.064-.065-.778-.777z" fill="#fff"/></g><path fill-rule="evenodd" clip-rule="evenodd" d="M89.83 97.702c.843-.842 1.168-2.008 0-3.175l-3.047-3.044-4.864-4.73c-2.853-2.72-4.539-5.57-9.143-6.089-5.382-.713-8.3 2.85-10.44 4.859l-17.379 17.361c-3.372 3.175-6.55 6.608-9.986 9.782-1.88 1.879-3.89 4.017-4.02 4.535-1.038 2.721 1.686 3.045 3.89 3.045H64.93c1.686 0 2.529-1.037 3.372-1.684 9.272-9.459 7.781-8.098 21.593-20.925h-.065v.065zM70.117 120.31c-1.037 1.036-1.167 1.684-.713 3.044.713 1.685 4.41 1.555 6.225 1.555h46.948c2.205 0 5.707.713 6.096-1.878.194-1.555-2.529-3.693-3.372-4.535l-19.584-19.564c-4.539-4.535-9.272-4.73-12.32-1.88l-23.28 23.128v.194h-.065l.065-.064z" fill="#32333B"/></svg>