<svg width="150" height="150" fill="none" xmlns="http://www.w3.org/2000/svg"><path fill-rule="evenodd" clip-rule="evenodd" d="M75.142 96.572c-2.1 3.304-4.356 7.71-4.304 13.426.052 6.923 3.044 10.489 5.51 13.216.945.996 1.995 1.678 3.412 1.678h5.04c-.84-1.049-1.155-2.098-1.365-3.251-.157-.944.105-.944.525-.105.315.629.892 1.258 1.47 1.783a24.04 24.04 0 001.994 1.573h5.196c-2.624-3.199-3.36-5.507-3.884-9.283-.315-2.202.053-1.887.577-.734 2.152 4.668 5.511 6.923 9.658 10.07h18.422c2.781 0 6.665.419 3.516-1.049-5.353-2.518-9.027-3.881-12.806-10.017-1.995-3.252-1.89-6.241-1.627-9.702.105-1.626-.578-1.783-2.047-2.203l-25.35-7.08c-2.1-.577-2.677-.105-3.884 1.73l-.052-.052zm31.543-68.492L92.724 77.168c-3.15-.367-5.616.157-8.188 2.203-2.361 1.888-3.883 4.72-5.143 7.919-.735 1.94 1.312 2.465 3.726 3.199l20.102 5.926c2.886.84 4.408 1.783 4.986-.682.63-2.57 1.154-5.769 0-9.492-1.312-4.248-3.989-5.507-5.931-6.293l14.013-48.406c2.152-7.447-8.24-8.444-9.657-3.462h.053z" fill="#32333B"/><path fill-rule="evenodd" clip-rule="evenodd" d="M70.523 119.753c1.102 0 2.047.891 2.1 1.993.052 1.52-2.1 1.992-2.1 1.783h-24.72c-1.942 0-3.412-.42-4.409-1.311-1.05-.944-1.627-2.36-1.89-4.353l-3.83-28.897c-.106-.472-.158-.472-.473-.524-.21-.053-.472-.105-.84-.21-1.05-.367-1.89-.787-2.624-1.416-.735-.577-1.365-1.311-1.994-2.203-.893-1.258-1.365-2.674-1.575-4.09-.21-1.416-.105-2.885.105-4.406.472-2.884 1.68-5.821 2.677-8.443.367-.944.735-1.836 1.05-2.675.052-.157.104-.315.157-.42.157-.367.21-.471.157-1.1l-.682-5.402c-.315-.21-.735-.315-1.102-.525a5.857 5.857 0 01-1.47-1.311c-.42-.524-.682-1.154-.892-1.888-.262-1.101-.21-2.045.105-2.937.315-.891.892-1.678 1.575-2.36 1.312-1.258 2.991-1.258 5.09-1.258h2.94c.105 0 .21-.105.367-.263l.367-.367c.315-.262.683-.63 1.103-.944.314-.262.682-.472.997-.681.42-.315.944-.577 1.522-.84.892-.367 1.522-.629 2.467-.786.367-.105.577-.105.63-.21.052-.053.104-.21.21-.472.052-.21.21-.525.367-.892.105-.262.262-.524.367-.734.473-.786.315-.682.892-1.363.315-.42.788-.997 1.207-1.311a16.91 16.91 0 011.523-1.26c.524-.366.577-.366 1.154-.733.84-.472 1.522-.63 2.362-.997.315-1.049.472-1.73 1.05-2.674.21-.367.315-.472.577-.84.315-.42.577-.734 1.155-1.153a7.619 7.619 0 013.831-1.416c1.312-.105 2.624.157 3.621.786.158-.157.263-.314.368-.472 1.05-1.258 1.784-1.835 3.096-2.517a10.27 10.27 0 013.044-.944 8.51 8.51 0 012.31 0c.944.105 1.68.315 2.362.63.682.262 1.364.681 2.099 1.206.157.104.262.21.367.262 1.313 1.049 1.942 2.15 2.362 2.937.105.21.21.367.315.524.263-.052.525-.052.735-.105 1.05-.157 1.574-.21 2.204-.157 2.31.157 4.041.944 5.721 2.465 1.365 1.206 1.785 2.045 2.047 2.622.262.524.315.524.525 1.101.21.63.42 1.206.472 1.993.735.262 1.417.63 2.047.997.682.42 1.26.891 1.784 1.31.473.368.788.892.945 1.417a1.82 1.82 0 01-.157 1.468c-.053.053-.105.157-.158.21-.315.42-.787.577-1.26.63-.472.052-.997-.106-1.469-.368-.105-.052-.21-.157-.315-.21l-1.522-1.206c-.367-.21-.84-.472-1.312-.682-.997-.472-1.05-.314-1.784-.944-.263-.21-.525-.472-.578-1.416 0-1.049-.262-1.888-.682-2.674-.42-.787-1.05-1.416-1.837-1.993-.735-.525-1.732-.84-2.782-.944-.997-.053-1.994.105-2.834.524-.42.21-.735.315-1.102.315-.315 0-.63-.105-1.05-.315-.367-.157-.787-1.258-.892-1.678-.105-.42-.21-.891-.682-1.573-.683-.997-1.522-1.678-2.415-2.098a5.638 5.638 0 00-2.729-.524c-.944.052-1.837.367-2.676.944-.893.576-1.627 1.416-2.152 2.57-.263.629-.473 1.1-1.155 1.363-1.155.42-1.784-.157-2.362-.682a4.138 4.138 0 00-.787-.63c-.577-.314-1.207-.366-1.837-.314a2.602 2.602 0 00-1.627.734c-1.05.944-1.05 1.364-1.102 2.78-.053 1.311-.367 1.993-1.837 2.255-.472.105-1.102.21-1.994.577-1.103.472-2.1 1.259-2.887 2.15a7.95 7.95 0 00-1.68 3.147c-.472 1.783-.472 1.835-2.519 2.097-.367.053-.84.158-1.26.263-.052 0-.157.052-.21.052h51.488c2.466 0 2.519 3.776.21 3.776H65.327c-4.251-.052-8.555 0-12.806 0-4.566 0-9.133.052-13.699 0h-4.408c-1.208 0-2.625-.052-2.625 1.573 0 1.574 1.365 1.574 2.257 1.574h4.671c4.41-.053 8.87 0 13.279 0 4.409 0 8.765.052 13.226 0h29.549c2.204 0 2.204 3.776-.263 3.776H35.463l3.517 26.799c.945 0 2.204-.21 3.464-.42 3.779-.787 7.925-2.78 11.231-4.772 1.575-.944 3.517-2.203 4.934-3.252 1.47-1.101 2.94-2.203 3.359-2.675-.525-.891-.472-.839-.787-1.835-.42-1.364-.788-2.465-.368-4.615.158-.63.315-1.259.525-1.783.892-2.046 2.73-3.829 4.776-4.615 1.732-.63 3.517-.787 5.144-.42 1.68.367 3.201 1.259 4.46 2.57a8.157 8.157 0 012.153 4.353c.42 2.412 0 4.248-1.26 6.345a8.225 8.225 0 01-4.933 3.62c-1.785.471-3.674.419-5.406-.21-.42-.158-1.312-.578-1.627-.787-1.102.629-2.94 1.993-4.724 3.304-4.199 3.094-7.243 4.93-12.281 6.712-2.572.892-5.196 1.574-8.135 2.098l3.569 27.743c.052.524.157 1.049.315 1.521.104.367.262.682.42.891.63.787 2.466.787 3.883.735h22.83zM35.096 84.405L33.416 71.4c-.314.63-.63 1.678-.84 2.727-.42 1.836-.63 3.881-.577 4.668.053 1.468.368 2.727.893 3.671.524.892 1.26 1.52 2.256 1.94h-.052zm33.223-19.928c-.735.157-1.418.42-1.995.891a4.996 4.996 0 00-1.784 2.885c-.263 1.049-.21 2.307.42 3.251l3.569-3.304c1.154-1.049 2.466-.839 3.149 0 .42.577.42 1.678-.315 2.413l-3.57 3.461c.263.105.526.157.788.157 1.627.21 3.044-.157 4.304-1.31 1.627-1.574 1.994-4.249.84-6.137a6.285 6.285 0 00-.893-1.101c-1.207-1.101-2.781-1.52-4.408-1.206h-.105z" fill="#fff"/></svg>