<svg width="151" height="164" fill="none" xmlns="http://www.w3.org/2000/svg"><path fill-rule="evenodd" clip-rule="evenodd" d="M32.602 20.5L.493 82l32.11 61.501.016-.032.015.032 32.102-61.5L32.634 20.5l-.015.031-.017-.031zM43.33 82l-10.702 20.5-.015.031-.017-.031-10.7-20.5 10.707-20.5.017-.03.015.03L43.329 82z" fill="#fff" fill-opacity=".1"/><path fill-rule="evenodd" clip-rule="evenodd" d="M118.227 20.5L107.527 0H43.096l42.802 82-42.802 82h64.431l10.7-20.5h-43.03L107.3 82 75.198 20.5h43.029z" fill="#fff" fill-opacity=".1"/><path fill-rule="evenodd" clip-rule="evenodd" d="M107.36 40.99l.005.01 21.402 41-21.402 41.001-.005.009h21.402l.005-.009 21.402-41-21.402-41.002-.005-.01H107.36z" fill="#fff" fill-opacity=".1"/></svg>