<svg xmlns="http://www.w3.org/2000/svg" width="0" height="0" class="hidden">

  <!-- icons -->
  <symbol id="file-pdf" viewBox="0 0 154 154">
    <path
      d="M28.8711 81.8125V28.875C28.8711 27.5986 29.3781 26.3746 30.2806 25.472C31.1832 24.5695 32.4072 24.0625 33.6836 24.0625H91.4383L125.126 57.75V81.8125"
      stroke-width="2" stroke-linecap="round" stroke-linejoin="round" />
    <path d="M91.4375 24.0625V57.75H125.13" stroke-width="2"
      stroke-linecap="round" stroke-linejoin="round" />
    <path
      d="M28.875 120.312H38.5C41.0527 120.312 43.5009 119.298 45.3059 117.493C47.1109 115.688 48.125 113.24 48.125 110.688C48.125 108.135 47.1109 105.687 45.3059 103.882C43.5009 102.077 41.0527 101.062 38.5 101.062H28.875V129.938"
      stroke-width="2" stroke-linecap="round" stroke-linejoin="round" />
    <path
      d="M74.5938 129.938C78.4228 129.937 82.095 128.416 84.8026 125.709C87.5102 123.001 89.0312 119.329 89.0312 115.5C89.0312 111.671 87.5102 107.999 84.8026 105.291C82.095 102.584 78.4228 101.063 74.5938 101.062H67.375V129.938H74.5938Z"
      stroke-width="2" stroke-linecap="round" stroke-linejoin="round" />
    <path d="M125.125 101.062H108.281V129.938" stroke-width="2"
      stroke-linecap="round" stroke-linejoin="round" />
    <path d="M122.719 117.906H108.281" stroke-width="2" stroke-linecap="round"
      stroke-linejoin="round" />
  </symbol>

  <symbol id="download" viewBox="0 0 10 10">
    <g clip-path="url(#clip0_53_1557)">
      <path
        d="M5.5 1.25C5.5 0.973858 5.27614 0.75 5 0.75C4.72386 0.75 4.5 0.973858 4.5 1.25L5.5 1.25ZM4.5 5.83333C4.5 6.10948 4.72386 6.33333 5 6.33333C5.27614 6.33333 5.5 6.10948 5.5 5.83333L4.5 5.83333ZM7.02022 5.35355C7.21548 5.15829 7.21548 4.84171 7.02022 4.64645C6.82496 4.45118 6.50838 4.45118 6.31311 4.64645L7.02022 5.35355ZM5.29463 6.37204L4.94107 6.01849H4.94107L5.29463 6.37204ZM4.70537 6.37204L5.05893 6.01849H5.05893L4.70537 6.37204ZM3.68689 4.64645C3.49162 4.45118 3.17504 4.45118 2.97978 4.64645C2.78452 4.84171 2.78452 5.15829 2.97978 5.35355L3.68689 4.64645ZM1.75 6.66667C1.75 6.39052 1.52614 6.16667 1.25 6.16667C0.973858 6.16667 0.75 6.39052 0.75 6.66667H1.75ZM9.25 6.66667C9.25 6.39052 9.02614 6.16667 8.75 6.16667C8.47386 6.16667 8.25 6.39052 8.25 6.66667H9.25ZM8.06749 8.61376L7.84049 8.16825L7.84049 8.16825L8.06749 8.61376ZM8.61376 8.06749L9.05926 8.29448L9.05926 8.29448L8.61376 8.06749ZM1.38624 8.06749L0.940739 8.29448L1.38624 8.06749ZM1.93251 8.61376L1.70552 9.05926H1.70552L1.93251 8.61376ZM4.5 1.25L4.5 5.83333L5.5 5.83333L5.5 1.25L4.5 1.25ZM6.31311 4.64645L4.94107 6.01849L5.64818 6.72559L7.02022 5.35355L6.31311 4.64645ZM5.05893 6.01849L3.68689 4.64645L2.97978 5.35355L4.35182 6.72559L5.05893 6.01849ZM4.94107 6.01849C4.97362 5.98594 5.02638 5.98594 5.05893 6.01849L4.35182 6.72559C4.7098 7.08357 5.2902 7.08357 5.64818 6.72559L4.94107 6.01849ZM0.75 6.66667V6.75H1.75V6.66667H0.75ZM3.25 9.25H6.75V8.25H3.25V9.25ZM9.25 6.75V6.66667H8.25V6.75H9.25ZM6.75 9.25C7.09178 9.25 7.37819 9.25039 7.61171 9.23131C7.85107 9.21175 8.07855 9.16928 8.29448 9.05926L7.84049 8.16825C7.78903 8.19448 7.7078 8.22013 7.53028 8.23463C7.34692 8.24961 7.10828 8.25 6.75 8.25V9.25ZM8.25 6.75C8.25 7.10828 8.24961 7.34692 8.23463 7.53028C8.22013 7.7078 8.19448 7.78903 8.16825 7.84049L9.05926 8.29448C9.16928 8.07856 9.21175 7.85107 9.23131 7.61171C9.25039 7.37819 9.25 7.09178 9.25 6.75H8.25ZM8.29448 9.05926C8.62377 8.89148 8.89148 8.62377 9.05926 8.29448L8.16825 7.84049C8.09635 7.98161 7.98161 8.09635 7.84049 8.16825L8.29448 9.05926ZM0.75 6.75C0.75 7.09178 0.749611 7.37819 0.768691 7.61171C0.788247 7.85107 0.830717 8.07856 0.940739 8.29448L1.83175 7.84049C1.80552 7.78903 1.77987 7.7078 1.76537 7.53028C1.75039 7.34692 1.75 7.10828 1.75 6.75H0.75ZM3.25 8.25C2.89172 8.25 2.65308 8.24961 2.46972 8.23463C2.2922 8.22013 2.21097 8.19448 2.15951 8.16825L1.70552 9.05926C1.92145 9.16928 2.14893 9.21175 2.38829 9.23131C2.62181 9.25039 2.90822 9.25 3.25 9.25V8.25ZM0.940739 8.29448C1.10852 8.62377 1.37623 8.89148 1.70552 9.05926L2.15951 8.16825C2.01839 8.09635 1.90365 7.98161 1.83175 7.84049L0.940739 8.29448Z"
      />
    </g>
    <defs>
      <clipPath id="clip0_53_1557">
        <rect width="10" height="10" />
      </clipPath>
    </defs>
  </symbol>

  <symbol id="products-1" xmlns="http://www.w3.org/2000/svg">
    <path fill-rule="evenodd" clip-rule="evenodd"
      d="M70.96 58.016c0-.557.349-1.115.838-1.394l14.043-7.874 14.043-7.874a1.648 1.648 0 011.606 0l13.904 8.223 13.903 8.222c.489.279.838.836.838 1.394l-.139 16.096-.14 16.097c0 .557-.35 1.114-.839 1.393l-14.043 7.874-14.043 7.874a1.646 1.646 0 01-1.606 0L85.42 99.825l-13.903-8.223c-.489-.278-.838-.836-.838-1.393l.14-16.097.14-16.096zm15.859 8.362c4.401-7.456 14.112-9.965 21.658-5.505 7.545 4.46 10.061 14.075 5.589 21.601-4.401 7.456-14.113 9.965-21.658 5.505-7.546-4.46-10.06-14.076-5.59-21.601z"
      fill="#32333B" />
    <path class="change-color" fill-rule="evenodd" clip-rule="evenodd"
      d="M70.82 121.983c-.28-.07-1.049-.836-1.817-1.603-.839-.836-1.747-1.811-1.887-2.09-.279-.488-.908-1.812-1.327-2.927-.28-.697-.49-1.324-.42-1.602v-.07h.07c1.608.209 7.546-.976 10.69-1.672.42-.07.769-.14 1.118-.21 1.118-.209 2.305-.557 3.353-.836.14-.069.28-.069.49-.139 2.165-.558 4.75-1.324 7.196-2.16 2.026-.697 4.052-1.394 5.659-2.091.14-.069.35-.139.489-.209.489-.278.908-.487 1.537-.418h.07v.07c.07.836.14 1.672.14 2.578 0 .836.07 1.742.14 2.509v.069h-.07c-.909.209-7.267 2.997-13.415 5.714-6.078 2.648-11.877 5.226-12.156 5.157l.14-.07zm-7.546-12.821l-3.563-8.014h.14c3.982-.488 6.846-.906 9.71-1.533 2.865-.627 5.73-1.393 9.712-2.508.699-.21 1.258-.418 1.886-.627.63-.21 1.188-.419 1.887-.627.419-.14.698-.21.978-.349.28-.07.489-.209.838-.279l5.73-2.09c1.187 2.787 2.375 5.644 3.632 8.431l-.07.07c-.558.418-2.445 1.115-4.68 1.881-3.913 1.324-8.874 2.788-10.061 3.136-.839.209-1.677.418-2.445.627-.42.07-.839.209-1.258.279-1.677.418-3.563.766-5.45 1.115-1.886.279-3.772.557-5.519.697h-1.468l.21-.14-.21-.069zm-5.38-12.613c-.28-.278-.768-1.254-1.327-2.439-1.048-2.299-2.236-5.365-2.376-5.644l-.07-.14h.14c.21 0 .769 0 1.467-.069.978-.07 2.096-.279 2.515-.348 2.655-.418 5.24-.906 7.756-1.533 2.585-.558 5.1-1.255 7.615-2.02l7.545-2.51c.42-.139.839-.348 1.258-.557.838-.418 1.677-.766 2.445-.975h.07c1.188 2.857 2.445 5.713 3.633 8.57l-7.336 2.718c-.978.279-1.816.557-2.655.766-4.401 1.324-6.148 1.812-12.575 3.206-.63.14-3.284.557-5.45.836-1.327.14-2.445.279-2.725.14l-.07-.07v-.07l.14.14zm25.431-53.167l-10.13 4.39c-1.048-2.3-2.026-4.599-3.074-6.898v-.07a68.345 68.345 0 011.886-2.787c1.258-1.742 2.864-3.763 3.563-4.738.35-.418.699-.767.978-1.115.35-.349.699-.767.978-1.115l.07-.07.07.07c.56.418 1.886 3.693 3.144 6.69.978 2.438 1.956 4.738 2.445 5.434l.07.07-.14.07.14.07zm-31.23 40.485l-2.515-5.992c-.07-.14-.14-.349-.28-.488-.279-.488-.488-.976-.418-1.672v-.07h.07c.628-.07 1.187-.14 1.746-.21 2.096-.208 3.563-.348 6.148-.905 1.328-.279 2.585-.558 3.843-.836 1.257-.279 2.515-.627 3.842-.976l.49-.14a55.43 55.43 0 003.213-.905l9.153-3.205c.21-.07.349-.14.489-.21.489-.208.908-.417 1.397-.557h.07l3.703 8.362-.07.07c-.838.557-3.843 1.602-5.869 2.3-.629.208-1.118.417-1.467.487-1.747.627-4.471 1.394-7.266 2.16-3.004.767-6.008 1.463-8.034 1.812l-6.009.906c-.42.07-.838.07-1.188.07h-.908l-.07.208-.07-.209zm-5.38-12.682c-.279-.418-.419-.766-.558-1.115-.21-.487-.42-.975-.908-1.602l-.42-.418c-.21-.28-.419-.488-.629-.767-.07-.07-.14-.209-.21-.279-.279-.348-.488-.627-.907-.975l-.14-.07c10.48-4.53 20.89-9.058 31.37-13.588v.14c.14.836.14 1.463.21 2.02.069 1.185.139 1.952.838 3.624.14.279.279.627.489 1.045.628 1.394 1.537 3.275 1.746 4.181v.07l-.07.07c-.419.278-1.537.766-2.794 1.254-1.677.627-3.563 1.324-4.472 1.602l-3.703 1.115a70.708 70.708 0 01-5.729 1.533c-1.886.488-3.772.906-5.868 1.324-.42.07-.769.14-1.188.21-.28.069-.489.069-.768.139-.21 0-.35.07-.49.07-.489.069-.908.139-1.467.208-.349.07-.628.07-.908.14-.35.07-.699.07-1.048.139-.42.07-.768.07-1.188.07-.349 0-.698 0-.978.07h-.14l.07-.14-.14-.07zm-2.724-10.94l-2.934-6.968v-.07c2.096-4.11 5.589-7.246 9.71-9.128 4.193-1.95 9.014-2.578 13.555-1.672.14 0 .21.07.35.07.628.139.907.209 1.187.487.21.21.35.558.559 1.185.14.348.35.836.629 1.394.14.278.279.696.419 1.045.419 1.045.908 2.3 1.327 2.926l.07.07c-8.314 3.623-16.628 7.177-24.872 10.8l.07-.208-.07.07zm-19.842-6.271c.28-.07.42-.07.56-.14 1.606-.348 2.724-.627 4.61-.487 1.328.07 2.446.209 3.494.488a25.95 25.95 0 013.493 1.184c.21.07.768 1.115 1.327 2.3.908 1.95 1.887 4.529 1.956 4.808v.07l-10.06 4.39c-1.887-4.182-3.703-8.362-5.59-12.613l.14-.07.07.07zm1.886-5.226c.14-.348.28-.697.42-.976.14-.278.28-.557.489-.766.489-.697 2.236-1.394 3.493-1.882.35-.139.629-.209.838-.348l1.258-.557c1.537-.697 3.074-1.324 4.681-2.021L69.212 28.4c.63-.279 1.048-.418 1.537-.348.56.07 1.188.278 2.236.696l.14.07-3.424 4.39c-.419.557-.768 1.115-1.117 1.603-.21.278-.35.557-.49.766-.07.14-.209.279-.349.418-.419.627-.978 1.394-1.257 2.09l-.07.07h-.07c-2.236-.836-5.03-1.045-7.755-.836a27.712 27.712 0 00-8.733 2.09c-1.957.837-3.703 1.743-5.31 2.858-1.607 1.114-3.004 2.438-4.471 4.11-.42.489-1.118 1.325-1.677 2.23-.42.558-.769 1.185-.909 1.673l-.07.07-.07-.07c-2.095-.836-3.982-1.324-5.798-1.533a23.758 23.758 0 00-5.45 0h-.14l.07-.14v.14zm1.398 22.995c1.118.418 1.397.279 2.236-.14.21-.139.489-.209.768-.348.42-.21.978-.418 1.677-.697 2.236-.975 5.45-2.369 6.148-2.578h.07l2.026 2.23-.629.14c-.838.278-1.327.766-1.537 1.323-.07.279-.14.558-.14.836 0 .279.07.558.14.836.21.627.699 1.115 1.258 1.324 1.746.697 2.655.906 3.283.976.42.07.63.14.839.279.28.209.419.557.768 1.393.14.279.21.558.42.976.14.278.279.697.489 1.115.558 1.184 1.257 2.717 1.467 3.553l.07.14-.14-.07c-.839-.279-1.677.07-2.306.627-.21.21-.419.558-.559.836-.14.349-.14.627-.07.976.14.836.839 1.672 2.446 2.3.419.139 1.048.348 1.607.418.559.139 1.117.139 1.467.139h.07a786.848 786.848 0 003.144 7.386l-.21-.07c-.978-.348-1.816-.07-2.375.488-.21.21-.42.558-.56.836-.139.349-.139.697-.139 1.046.07.836.699 1.742 1.956 2.229.978.418 1.957.558 2.865.628.21 0 .419.069.559.069h.07a577.36 577.36 0 003.213 7.177h-.559c-.768 0-1.886 0-2.445 1.464-.699 1.672.629 2.717 2.096 3.275 1.188.487 2.515.697 3.004.766.14 0 .21.07.28.07.35.279.768 1.254 1.257 2.578.769 1.951 1.747 4.599 3.214 6.062l.838.837c.21.209.42.487.7.696.488.488.907.976 1.327 1.324 1.117 1.185 1.676 1.812 2.585 1.812.838 0 1.956-.488 4.192-1.533.838-.418 1.886-.836 3.144-1.394l7.894-3.414a327.135 327.135 0 015.52-2.369l2.375-1.045 5.869-2.509c.14-.07.35-.139.489-.209.908-.348.978-.418 1.467-1.603.07-.209.07-1.115.07-2.229-.07-1.812-.21-4.251-.28-4.948-.069-.697-.209-.975-.349-1.324-.07-.209-.209-.488-.279-.906v-.069l.209-.14c1.048-.696 2.655-1.811 1.817-3.623-.07-.21-.21-.418-.35-.627-.279-.349-.698-.627-1.117-.697-.42-.14-.909-.07-1.468.14-.279.139-.558.278-.838.557l-.07.07c-1.257-2.788-2.445-5.505-3.703-8.293l.07-.07c.35-.348.629-.487.908-.696.49-.279.769-.488 1.188-1.533.28-.697.14-1.324-.28-1.882-.209-.278-.488-.557-.838-.696-.349-.21-.698-.279-1.048-.349-.559-.07-1.187.14-1.537.697l-.07.07-.07-.07c-.558-.418-1.257-2.09-1.676-3.275-.14-.279-.21-.557-.28-.697-.14-.278-.28-.627-.489-.975-.489-1.115-1.118-2.44-1.257-3.136v-.14c.21-.348.559-.557.908-.766.559-.348 1.048-.766 1.257-1.602a2.39 2.39 0 00-.21-1.603c-.279-.488-.768-.836-1.396-1.115-.839-.348-1.328-.07-1.747.209-.21.14-.42.21-.629.279h-.07c-1.187-2.718-2.445-5.435-3.633-8.153l.07-.07c.14-.139.28-.209.49-.348 1.047-.767 2.305-1.742 1.606-3.414-.07-.21-.21-.419-.35-.627-.279-.349-.698-.628-1.117-.697-.42-.14-.908-.07-1.467.139-.28.14-.56.279-.839.558l-.07.07-.07-.07c-.209-.28-.558-1.046-.977-1.882a50.816 50.816 0 01-1.328-3.066c-.28-.836-.35-2.648-.42-4.111 0-.697-.069-1.394-.139-1.742v-.07h.07c.699-.14 3.633-1.463 5.729-2.369.699-.279 1.258-.557 1.677-.697 2.655-1.115 2.655-2.16 1.677-4.32-.14-.348-.28-.697-.49-1.115-.21-.418-.419-.906-.628-1.394l-4.262-9.755c-.28-.697-.559-1.254-.769-1.812-.628-1.602-.978-2.3-1.537-2.787-.489-.418-1.257-.627-2.724-.976a43.919 43.919 0 01-2.585-.627 43.777 43.777 0 01-1.538-.418c-2.095-.557-3.074-.836-4.052-.697-.838.14-1.746.558-3.353 1.325-.978.418-2.236 1.045-3.843 1.742L31.835 39.34c-.28.14-.77.348-1.398.557-2.166.906-5.729 2.37-6.218 2.788-.28.209-1.188 1.811-2.236 3.693-1.257 2.23-2.585 4.877-2.934 5.644-.42 1.115 1.956 6.271 3.214 8.78.21.488.419.836.489 1.115.14.278.28.766.559 1.324 1.048 2.648 3.144 7.734 4.192 8.152l.14.07-.21.279z"
      fill="#F66C4C" />
  </symbol>

  <symbol id="products-2" xmlns="http://www.w3.org/2000/svg">
    <path class="change-color" fill-rule="evenodd" clip-rule="evenodd"
      d="M23.69 94.675l18.598-10.687c1.233 1.034 2.516 2.02 3.749 3.053l-14.454 8.324a.594.594 0 00-.246.246c-.05.05-.05.148-.05.247 0 .098.05.147.05.197a.505.505 0 00.296.246l42.324 24.33c.247.148.592.247.937.247.296 0 .642-.05.839-.148l42.472-24.43a.59.59 0 00.247-.245c.049-.05.049-.148.049-.247 0-.098-.049-.147-.049-.197a.504.504 0 00-.296-.246l-13.713-7.88 3.995-2.906 18.005 10.343a.96.96 0 01.444.443.946.946 0 01.148.493.829.829 0 01-.148.492c-.098.148-.197.296-.394.394l-50.464 29.01c-.345.197-.74.246-1.184.246a2.76 2.76 0 01-1.282-.345L23.592 96.941a.966.966 0 01-.444-.443 1.362 1.362 0 01-.148-.64c0-.197.05-.444.148-.64.099-.198.296-.395.493-.493l.05-.05zm.74-42.06l49.38-28.369c.295-.197.739-.246 1.134-.246.444 0 .888.148 1.233.345l48.688 27.975c1.085.64 1.578 1.182 1.578 1.724s-.542 1.083-1.529 1.674L75.98 83.841c-.296.197-.74.247-1.135.247-.444 0-.888-.148-1.233-.345l-49.28-28.32c-.839-.493-1.332-.936-1.332-1.38 0-.442.444-.886 1.381-1.428h.05zm49.626-23.542L31.485 53.551a.594.594 0 00-.247.247c-.05.049-.05.147-.05.197 0 .098.05.147.05.246.05.148.197.246.395.345l42.324 24.33c.296.148.641.246.987.246.345 0 .69-.049.937-.197l42.571-24.478a.596.596 0 00.247-.246c.049-.05.049-.148.049-.197 0-.099-.049-.148-.049-.246-.05-.148-.198-.247-.395-.345L75.98 29.123a2.25 2.25 0 00-.987-.247c-.345 0-.69.05-.937.197z"
      fill="#F66C4C" />
    <path class="change-color" fill-rule="evenodd" clip-rule="evenodd"
      d="M23.69 94.675l18.598-10.687c1.233 1.034 2.516 2.02 3.749 3.053l-14.454 8.324a.594.594 0 00-.246.246c-.05.05-.05.148-.05.247 0 .098.05.147.05.197a.505.505 0 00.296.246l42.324 24.33c.247.148.592.247.937.247.296 0 .642-.05.839-.148l42.472-24.43a.59.59 0 00.247-.245c.049-.05.049-.148.049-.247 0-.098-.049-.147-.049-.197a.504.504 0 00-.296-.246l-13.713-7.88 3.995-2.906 18.005 10.343a.96.96 0 01.444.443.946.946 0 01.148.493.829.829 0 01-.148.492c-.098.148-.197.296-.394.394l-50.464 29.01c-.345.197-.74.246-1.184.246a2.76 2.76 0 01-1.282-.345L23.592 96.941a.966.966 0 01-.444-.443 1.362 1.362 0 01-.148-.64c0-.197.05-.444.148-.64.099-.198.296-.395.493-.493l.05-.05z"
      fill="#F66C4C" />
    <path fill-rule="evenodd" clip-rule="evenodd"
      d="M24.381 73.055l15.342-8.816c13.17 7.585 14.75 8.472 32.557 18.716 2.22.591 3.65.887 3.7.887 14.305-8.225 21.211-12.215 34.086-19.603l14.306 8.225c2.17 1.232 3.305 1.97 1.184 3.202L75.98 104.183c-.592.345-1.628.295-2.319-.099l-49.28-28.32c-1.578-.935-1.578-1.773 0-2.709zm83.761 3.547c-1.331.59-2.121 1.773-1.775 2.61.394.837 1.775 1.084 3.107.492 1.332-.59 2.121-1.773 1.776-2.61-.395-.837-1.776-1.084-3.108-.492zm7.942-4.384c-1.331.591-2.121 1.773-1.775 2.61.394.838 1.775 1.084 3.107.493 1.332-.591 2.121-1.773 1.776-2.61-.394-.838-1.776-1.084-3.108-.493zm-13.96 0c-1.332.591-2.121 1.773-1.776 2.61.395.838 1.776 1.084 3.108.493 1.332-.591 2.121-1.773 1.776-2.61-.395-.838-1.776-1.084-3.108-.493zm6.956-4.039c-1.332.591-2.122 1.773-1.776 2.61.394.838 1.776 1.084 3.108.493 1.331-.59 2.121-1.773 1.775-2.61-.394-.837-1.775-1.084-3.107-.493zM90.828 87.388c-1.332.59-2.121 1.773-1.776 2.61.395.837 1.776 1.084 3.108.493 1.332-.591 2.12-1.773 1.776-2.61-.395-.838-1.776-1.084-3.108-.493zm8.83-5.615c-1.332.591-2.121 1.773-1.776 2.61.394.838 1.776 1.084 3.108.493 1.332-.591 2.121-1.773 1.776-2.61-.395-.838-1.776-1.084-3.108-.493zm-15.884 1.084c-1.332.59-2.121 1.773-1.776 2.61.394.837 1.776 1.084 3.108.493 1.332-.591 2.12-1.774 1.776-2.61-.395-.838-1.776-1.084-3.108-.493zm9.816-5.418c-1.332.59-2.12 1.773-1.776 2.61.395.837 1.776 1.084 3.108.493 1.332-.591 2.121-1.773 1.776-2.61-.395-.838-1.776-1.084-3.108-.493zM73.81 96.992c-1.333.591-2.122 1.773-1.777 2.61.395.838 1.776 1.084 3.108.493 1.332-.591 2.121-1.773 1.776-2.61-.395-.838-1.776-1.084-3.108-.493zm8.385-5.32c-1.332.592-2.12 1.774-1.776 2.611.395.837 1.776 1.084 3.108.493 1.332-.591 2.121-1.773 1.776-2.61-.395-.838-1.776-1.084-3.108-.493zm-51.598-19.06c-1.332.591-2.121 1.773-1.776 2.61.395.838 1.776 1.084 3.108.493 1.332-.591 2.12-1.773 1.776-2.61-.395-.838-1.776-1.084-3.108-.493zm8.88 4.975c-1.333.59-2.122 1.773-1.777 2.61.395.837 1.776 1.084 3.108.492 1.332-.59 2.121-1.773 1.776-2.61-.395-.837-1.776-1.083-3.108-.492zm8.632 4.482c-1.332.59-2.121 1.773-1.776 2.61.395.837 1.776 1.084 3.108.492 1.331-.59 2.12-1.773 1.776-2.61-.395-.837-1.776-1.084-3.108-.492zm9.126 5.171c-1.332.591-2.121 1.773-1.776 2.61.394.838 1.776 1.084 3.107.493 1.332-.591 2.122-1.773 1.776-2.61-.394-.838-1.776-1.084-3.107-.493zm9.076 5.22c-1.332.592-2.121 1.774-1.776 2.611.395.837 1.776 1.084 3.108.493 1.332-.591 2.121-1.773 1.776-2.61-.395-.838-1.776-1.084-3.108-.493zM38.49 68.18c-1.331.59-2.12 1.772-1.775 2.61.394.837 1.776 1.083 3.107.492 1.332-.59 2.122-1.773 1.776-2.61-.394-.837-1.776-1.084-3.108-.493zm8.436 4.875c-1.332.591-2.121 1.773-1.776 2.61.395.838 1.776 1.084 3.108.493 1.332-.59 2.12-1.773 1.776-2.61-.395-.837-1.776-1.084-3.108-.493zm8.88 4.827c-1.333.591-2.122 1.773-1.777 2.61.395.838 1.776 1.084 3.108.493 1.332-.591 2.121-1.773 1.776-2.61-.395-.838-1.776-1.084-3.108-.493zm8.977 5.22c-1.332.592-2.121 1.774-1.776 2.611.395.838 1.776 1.084 3.108.493 1.332-.591 2.121-1.773 1.776-2.61-.395-.838-1.776-1.084-3.108-.493zm9.669 5.025c-1.332.59-2.122 1.773-1.776 2.61.394.837 1.776 1.084 3.107.493 1.332-.592 2.122-1.774 1.776-2.61-.394-.838-1.776-1.084-3.108-.493z"
      fill="#32333B" />
    <path class="change-color" fill-rule="evenodd" clip-rule="evenodd"
      d="M24.43 52.615l49.38-28.369c.295-.197.739-.246 1.134-.246.444 0 .888.148 1.233.345l48.688 27.975c1.085.64 1.578 1.182 1.578 1.724s-.542 1.083-1.529 1.674L75.98 83.841c-.296.197-.74.247-1.135.247-.444 0-.888-.148-1.233-.345l-49.28-28.32c-.839-.493-1.332-.936-1.332-1.38 0-.442.444-.886 1.381-1.428h.05zm49.626-23.542L31.485 53.551a.594.594 0 00-.247.247c-.05.049-.05.147-.05.197 0 .098.05.147.05.246.05.148.197.246.395.345l42.324 24.33c.296.148.641.246.987.246.345 0 .69-.049.937-.197l42.571-24.478a.596.596 0 00.247-.246c.049-.05.049-.148.049-.197 0-.099-.049-.148-.049-.246-.05-.148-.198-.247-.395-.345L75.98 29.123a2.25 2.25 0 00-.987-.247c-.345 0-.69.05-.937.197z"
      fill="#F66C4C" />
  </symbol>

  <symbol id="products-3" xmlns="http://www.w3.org/2000/svg">
    <path class="change-color" fill-rule="evenodd" clip-rule="evenodd"
      d="M96.12 88.373V68.356c0-3.563-1.88-8.616-3.047-12.115-.713-1.878-5.382-16.39-5.382-17.685-.195-2.397 0-5.247 0-7.58 0-7.126.518-5.895-9.273-5.895H32.312c-2.528.324-1.88 3.563-1.88 5.701 0 11.143.519 7.256-3.566 19.759-1.362 3.886-2.53 7.773-3.697 11.79-.843 2.72-1.167 3.368-1.167 6.413v38.481c0 3.045-.194 4.535 3.178 4.535h5.706c2.464 0 2.659-4.211.065-4.211h-4.864c-.194-6.09 0-12.503 0-18.528V70.623c0-4.017.195-4.405 1.362-7.968l4.41-13.993c.713-2.008 1.556-4.405 2.01-6.414h31.255c1.168 0 2.205-1.036 2.205-2.202s-1.037-2.203-2.205-2.203H34.582v-8.227h48.829c0 3.174-.195 6.608 0 9.782.194 1.36 6.225 20.277 6.938 22.415 1.038 3.563 1.557 4.405 1.557 8.292v18.203c0 2.98 4.41 2.98 4.41.13l-.066-.065h-.13zm-22.436-20.47h-29.05c-4.216 0-7.782 3.562-7.782 7.773v13.15c0 4.212 3.566 7.775 7.781 7.775h2.659c2.853-.065 2.918-4.34 0-4.406h-.778c-3.048 0-5.383-2.397-5.383-5.377v-9.134c0-3.045 2.4-5.377 5.383-5.377h25.29c3.047 0 5.382 2.397 5.382 5.377v.842c0 2.527 4.215 2.786 4.215.13v-2.98c0-4.21-3.567-7.774-7.782-7.774l-.065.065.13-.065z"
      fill="#F66C4C" />
    <mask id="a" style="mask-type:luminance" maskUnits="userSpaceOnUse" x="22" y="25" width="75"
      height="87">
      <path
        d="M96.12 88.373V68.356c0-3.563-1.88-8.616-3.047-12.115-.713-1.878-5.382-16.39-5.382-17.685-.195-2.397 0-5.247 0-7.58 0-7.126.518-5.895-9.273-5.895H32.312c-2.528.324-1.88 3.563-1.88 5.701 0 11.143.519 7.256-3.566 19.759-1.362 3.886-2.53 7.773-3.697 11.79-.843 2.72-1.167 3.368-1.167 6.413v38.481c0 3.045-.194 4.535 3.178 4.535h5.706c2.464 0 2.659-4.211.065-4.211h-4.864c-.194-6.09 0-12.503 0-18.528V70.623c0-4.017.195-4.405 1.362-7.968l4.41-13.993c.713-2.008 1.556-4.405 2.01-6.414h31.255c1.168 0 2.205-1.036 2.205-2.202s-1.037-2.203-2.205-2.203H34.582v-8.227h48.829c0 3.174-.195 6.608 0 9.782.194 1.36 6.225 20.277 6.938 22.415 1.038 3.563 1.557 4.405 1.557 8.292v18.203c0 2.98 4.41 2.98 4.41.13l-.066-.065h-.13zm-22.436-20.47h-29.05c-4.216 0-7.782 3.562-7.782 7.773v13.15c0 4.212 3.566 7.775 7.781 7.775h2.659c2.853-.065 2.918-4.34 0-4.406h-.778c-3.048 0-5.383-2.397-5.383-5.377v-9.134c0-3.045 2.4-5.377 5.383-5.377h25.29c3.047 0 5.382 2.397 5.382 5.377v.842c0 2.527 4.215 2.786 4.215.13v-2.98c0-4.21-3.567-7.774-7.782-7.774l-.065.065.13-.065z"
        fill="#fff" />
    </mask>
    <g mask="url(#a)">
      <path class="change-color"
        d="M96.12 88.373h-.583v.324l.324.13.26-.519v.065zm-8.43-49.817h.585v-.065l-.584.065zM32.314 25.08v-.583h-.13l.065.583h.065zm-9.079 37.25l.52.194-.52-.13v-.064zm2.918 45.218h-.583v.583h.583v-.583zm7.782-65.3v-.584h-.454l-.13.454.584.13zm.713-4.341v-.583h-.583v.583h.583zm0-8.292v-.583h-.583v.583h.583zm48.829 0h.584v-.583h-.584v.583zm0 9.782h-.584l.584-.065v.065zm6.938 22.414l.52-.13-.52.195v-.065zm5.901 26.561h.584v-.324l-.324-.13-.26.519v-.065zM73.814 67.837v.583h.26l.194-.194-.39-.389h-.064zm0-.065v-.583h-.26l-.194.195.39.388h.064zm23.02 20.536V68.291h-1.167v20.017h1.167zm0-20.017c0-1.879-.454-4.082-1.102-6.22-.584-2.137-1.362-4.34-1.946-6.089l-1.102.389c.584 1.814 1.362 3.887 1.945 6.024.584 2.138 1.038 4.211 1.038 5.896h1.167zm-3.048-12.374c-.324-.907-1.686-4.988-2.983-9.004-.648-2.009-1.232-4.017-1.685-5.572-.195-.777-.39-1.49-.52-2.008-.064-.26-.129-.453-.129-.648 0-.065 0-.13-.065-.194v-.065h-1.167c0 .13 0 .324.065.518.065.195.065.454.13.713.13.518.324 1.23.518 2.008.454 1.555 1.038 3.563 1.686 5.636 1.297 4.017 2.594 8.163 2.983 9.07l1.103-.389.064-.065zm-5.382-17.556c-.13-2.332 0-5.117 0-7.514h-1.167c0 2.267-.195 5.247 0 7.644l1.167-.065v-.065zm0-7.514c0-1.75.065-3.045-.065-3.952-.13-.972-.389-1.684-1.167-2.138-.389-.194-.778-.324-1.297-.324-.454-.065-1.037-.065-1.75-.065-.65 0-1.492 0-2.4.065-.908 0-2.01.065-3.177.065v1.166c1.232 0 2.27 0 3.242-.065.908 0 1.686-.064 2.334-.064.649 0 1.168 0 1.622.064.389.065.713.13.843.26.324.129.518.453.583 1.23.13.842.065 2.073.065 3.822h1.167v-.064zm-9.856-6.479H32.443v1.167h46.105v-1.167zm-46.17 0c-.779.13-1.362.454-1.751.972-.39.518-.584 1.101-.649 1.75-.065.582-.065 1.295-.065 1.878 0 .648.065 1.23.065 1.749h1.167c0-.583-.064-1.23-.064-1.814 0-.583 0-1.166.064-1.684.065-.518.195-.907.39-1.166.194-.26.453-.454.972-.518l-.13-1.102v-.065zm-2.335 6.284c0 5.636.13 7.32-.26 9.264-.194.972-.518 1.944-1.037 3.498l-2.27 6.802 1.103.324c1.038-3.11 1.75-5.182 2.27-6.802.518-1.554.843-2.656 1.037-3.692.39-2.073.26-3.952.26-9.459h-1.168l.065.065zm-3.502 19.564c-1.361 3.887-2.529 7.774-3.696 11.856l1.103.323c1.167-4.08 2.399-7.903 3.696-11.79l-1.102-.389zm-3.696 11.856c-.389 1.295-.713 2.202-.907 3.11-.195.97-.26 1.943-.26 3.433h1.167c0-1.49.065-2.397.26-3.24.194-.842.454-1.684.907-3.044l-1.102-.324-.065.065zm-1.167 6.607v38.481h1.167V68.68h-1.167zm0 38.481v2.008c.065.583.13 1.166.39 1.62.259.518.648.907 1.231 1.101.584.259 1.232.324 2.14.324v-1.166c-.778 0-1.362-.065-1.686-.259a1.161 1.161 0 01-.648-.583c-.13-.26-.195-.648-.26-1.231-.064-.518 0-1.166 0-1.944h-1.167v.13zm6.29 5.118h3.177v-1.166h-3.177v1.166zm3.177 0c.779 0 1.427-.324 1.881-.843.39-.518.648-1.166.648-1.813 0-.648-.13-1.296-.583-1.814-.454-.519-1.038-.907-1.88-.907v1.166c.453 0 .777.194.972.453.195.259.324.648.324 1.102 0 .453-.13.842-.389 1.101-.194.259-.519.453-.973.453v1.166-.064zm.065-5.377h-4.863v1.166h4.863v-1.166zm-4.28.583c-.194-6.09 0-12.438 0-18.528h-1.167c0 6.025-.194 12.503 0 18.593h1.168v-.065zm0-18.528V55.788h-1.167v33.168h1.168zm0-18.398c0-2.008.065-3.045.195-4.081.195-.972.519-1.944 1.102-3.693l-1.102-.389c-.584 1.75-.908 2.786-1.102 3.887-.195 1.102-.26 2.268-.26 4.276h1.168zm1.297-7.774l4.41-13.993-1.102-.324-4.41 13.993 1.102.324zm4.41-13.993c.648-2.008 1.556-4.405 2.01-6.478l-1.102-.26c-.454 2.01-1.297 4.341-2.01 6.35l1.102.388zm1.816-6.024h30.931V41.6H34.453v1.166zm30.931 0c1.491 0 2.724-1.296 2.724-2.721H66.94c0 .842-.778 1.62-1.62 1.62v1.165l.064-.065zm2.724-2.721c0-1.49-1.297-2.721-2.724-2.721v1.166c.843 0 1.621.777 1.621 1.62h1.167l-.064-.065zm-2.724-2.721H34.842v1.166h30.542v-1.166zm-31.126.583v.194h1.167v-.194h-1.167zm.584-7.644H83.67v-1.166H34.842v1.166zm48.245-.584c0 3.175-.195 6.608 0 9.847l1.167-.064c-.195-3.175 0-6.543 0-9.783h-1.167zm0 9.847c0 .195.13.713.324 1.36.195.649.454 1.49.713 2.527.584 2.009 1.427 4.535 2.205 7.126 1.621 5.183 3.307 10.43 3.696 11.532l1.103-.324c-.325-1.102-2.01-6.349-3.697-11.532a244.617 244.617 0 01-2.204-7.126c-.325-.971-.584-1.878-.714-2.461-.194-.648-.259-1.037-.324-1.166l-1.167.13.065-.066zm6.938 22.545c1.038 3.563 1.492 4.34 1.492 8.097h1.167c0-3.951-.584-4.923-1.556-8.421l-1.103.324zm1.492 8.097v18.204h1.167V70.17h-1.167zm0 18.204c0 .907.324 1.62.843 2.138a2.956 2.956 0 001.88.713c.649 0 1.362-.195 1.88-.648.52-.454.909-1.166.909-2.073H95.86c0 .583-.194.907-.518 1.166a1.765 1.765 0 01-1.103.388c-.454 0-.843-.13-1.102-.388a1.68 1.68 0 01-.519-1.231h-1.167l.065-.065zm5.252-.389l-.065-.064-.518 1.036.064.065.52-1.037zm-22.76-20.6H44.957v1.166h29.05v-1.166zm-29.051 0c-4.54 0-8.3 3.822-8.3 8.292h1.167c0-3.887 3.242-7.191 7.197-7.191v-1.166l-.064.065zm-8.3 8.292v13.15h1.167v-13.15h-1.168zm0 13.15c0 4.535 3.825 8.293 8.3 8.293v-1.166c-3.891 0-7.198-3.24-7.198-7.191h-1.167l.064.064zm8.3 8.293h2.658v-1.166h-2.658v1.166zm2.658 0c.843 0 1.557-.324 2.01-.907a2.95 2.95 0 00.714-1.879c0-.648-.195-1.36-.649-1.879-.454-.518-1.167-.907-2.075-.907v1.166c.584 0 .973.195 1.232.519.26.324.39.712.39 1.101 0 .454-.13.842-.39 1.101-.259.26-.648.519-1.167.519v1.166h-.065zm0-5.572h-.778v1.166h.778v-1.166zm-.778 0c-2.723 0-4.863-2.137-4.863-4.858h-1.168c0 3.368 2.66 5.96 5.966 5.96v-1.166l.065.064zm-4.863-4.858v-9.134h-1.168v9.134h1.168zm0-9.134c0-2.721 2.14-4.86 4.863-4.86V71.53c-3.372 0-5.966 2.656-5.966 5.96h1.168l-.065.065zm4.863-4.86h25.29V71.53h-25.29v1.166zm25.29 0c2.723 0 4.863 2.139 4.863 4.86h1.168c0-3.37-2.66-5.96-5.966-5.96v1.166l-.065-.065zm4.863 4.86v.842h1.168v-.843H76.99zm0 .842c0 1.684 1.427 2.526 2.659 2.59.648 0 1.297-.129 1.816-.517.518-.389.908-1.037.908-1.879h-1.168c0 .518-.194.777-.454.972-.259.194-.648.324-1.102.324-.843-.065-1.556-.583-1.556-1.426h-1.167l.064-.064zm5.383.13v-2.98h-1.168v2.98h1.168zm0-2.98c0-4.535-3.826-8.293-8.3-8.293v1.166c3.89 0 7.197 3.24 7.197 7.191h1.167l-.064-.065zm-8.755-8.163l-.064.064.778.778.064-.065-.778-.777z"
        fill="#F66C4C" />
    </g>
    <path fill-rule="evenodd" clip-rule="evenodd"
      d="M89.83 97.702c.843-.842 1.168-2.008 0-3.175l-3.047-3.044-4.864-4.73c-2.853-2.72-4.539-5.57-9.143-6.089-5.382-.713-8.3 2.85-10.44 4.859l-17.379 17.361c-3.372 3.175-6.55 6.608-9.986 9.782-1.88 1.879-3.89 4.017-4.02 4.535-1.038 2.721 1.686 3.045 3.89 3.045H64.93c1.686 0 2.529-1.037 3.372-1.684 9.272-9.459 7.781-8.098 21.593-20.925h-.065v.065zM70.117 120.31c-1.037 1.036-1.167 1.684-.713 3.044.713 1.685 4.41 1.555 6.225 1.555h46.948c2.205 0 5.707.713 6.096-1.878.194-1.555-2.529-3.693-3.372-4.535l-19.584-19.564c-4.539-4.535-9.272-4.73-12.32-1.88l-23.28 23.128v.194h-.065l.065-.064z"
      fill="#32333B" />
  </symbol>

  <symbol id="products-4" xmlns="http://www.w3.org/2000/svg">
    <path class="change-color" fill-rule="evenodd" clip-rule="evenodd"
      d="M126.817 41.348H106.76a36.987 36.987 0 015.058 5.647c2.326 3.085 2.326 3.376 4.244 6.52 1.57 2.561 4.128 9.43 4.825 14.204.175 1.456-.639 1.805-1.511 1.805-1.047 0-2.209-.466-2.384-1.805-.349-2.095-1.104-4.657-1.569-6.054-.756-2.212-1.803-4.832-2.849-6.637-1.163-2.037-2.384-4.075-3.837-5.88-2.035-2.56-3.546-3.958-5.813-6.112-2.849-2.794-6.628-4.948-10.29-6.52-6.279-2.736-11.162-3.668-18.72-3.668-9.127 0-20.405 4.425-26.974 11.003-2.267 2.329-3.895 3.842-5.814 6.462a41.006 41.006 0 00-5.406 10.071 40.057 40.057 0 00-1.92 7.336c-.116 1.34-1.337 1.805-2.383 1.805-.872 0-1.686-.29-1.512-1.805 1.337-8.674 5.93-18.046 11.976-24.392 11.454-12.051 28.779-17 44.939-12.925.698.175 2.558.291 4.651.291l11.278-.058h8.488c1.046 0 1.918.931 1.918 1.98a1.937 1.937 0 01-1.918 1.92h-13.72c1.337.7 3.314 2.213 4.128 2.62.639.35.93.291 1.569.291h23.603c2.267 0 2.5 3.9 0 3.9zM34.034 84.02c-.175-.932-.756-1.747-2.267-1.572-.872.058-1.57.699-1.337 1.921 1.104 5.822 3.546 11.76 6.918 16.592 1.627 2.386 4.476 5.472 4.941 6.229H23.802c-.988 0-1.802.815-1.802 1.804 0 .99.814 1.805 1.802 1.805h22.382c.64.582 2.442 1.979 4.36 3.144H35.662c-.989 0-1.803.815-1.803 1.804 0 .99.814 1.805 1.803 1.805h21.451c1.105 0 5.058 1.688 7.5 2.212 10.522 2.271 21.045 1.572 30.579-3.26 10.929-5.53 19.359-14.379 23.37-25.673.814-2.212 1.337-4.192 1.802-6.578.233-1.165-.465-1.805-1.337-1.921-1.57-.117-2.093.698-2.267 1.571-.872 3.96-2.791 8.15-4.36 11.236-8.779 17.29-31.044 26.372-50.229 19.91-4.767-1.572-9.301-4.075-13.255-7.219-6.976-5.472-13.022-15.078-14.94-23.985l.058.175zm21.917-16.3c-.291 1.222-1.395 1.804-2.384 1.804-.93 0-1.802-.524-1.628-1.805.233-1.979 1.86-4.599 2.965-6.229.407-.64.698-1.047 1.105-1.571 1.57-2.096 3.604-.524 3.604.465 0 1.34-1.046 2.387-1.802 3.551-.698 1.048-1.57 2.504-1.86 3.784zm.581 16.3c3.43 7.393 11.22 12.167 19.359 11.876 7.732-.233 15.115-4.832 18.37-11.876.524-1.106 1.28-1.514 2.268-1.572 1.22-.058 1.918 1.048 1.57 2.096-1.977 4.424-4.593 7.859-8.198 10.479-4.185 3.027-9.243 4.657-14.359 4.715-6.278.058-12.673-2.27-17.731-7.393-2.383-2.387-3.779-4.89-5.058-7.801-.407-1.048.291-2.154 1.57-2.096.988.058 1.744.466 2.267 1.572h-.058zm-7.5 0c3.954 11.177 13.372 18.396 25.813 19.036 12.382.641 22.788-7.277 26.916-19.036.407-1.164 1.337-1.63 2.383-1.572 1.105 0 1.686.873 1.512 1.98-.465 2.794-2.267 6.345-4.07 8.965-3.371 4.831-8.894 8.907-14.242 11.177-8.43 3.609-18.894 2.503-27.266-1.863-6.104-3.144-10.232-7.277-13.429-13.972-.64-1.28-1.279-2.91-1.511-4.366-.175-1.048.407-1.98 1.511-1.98.988 0 1.977.408 2.384 1.573v.058zm-.58-16.3c-.466 2.503-4.012 2.328-3.838 0 .35-1.922.64-3.086 1.512-5.007 1.395-3.202 3.023-5.88 5.232-8.383 2.849-3.26 6.104-5.822 10-7.743 5.348-2.678 9.359-3.26 15.754-3.26 6.336 0 11.86 2.445 16.626 5.764 4.302 2.968 7.907 7.102 10.232 11.934 1.628 3.376 2.035 5.472 2.267 6.694.233 2.33-3.372 2.504-3.837 0-.755-2.62-1.744-5.18-3.08-7.218-3.547-5.414-7.5-9.024-13.604-11.469C69.845 42.63 52.87 51.768 48.393 67.72h.058zm-7.035-1.456a9.192 9.192 0 00-.29 1.456c-.233 1.106-1.221 1.746-2.21 1.804-.93.058-1.918-.524-1.802-1.805.058-.64.233-1.28.349-1.92h.116c2.965-11.586 11.278-21.89 21.8-26.256 9.71-4.075 21.104-4.832 30.87-.407 3.198 1.455 5.93 2.969 8.662 5.006 4.186 3.144 7.907 7.277 10.406 11.992 1.686 3.144 3.779 7.627 4.302 11.644.117 1.28-.872 1.863-1.802 1.804-.988-.058-1.918-.698-2.209-1.804-.116-.524-.174-1.048-.291-1.456-.813-3.027-1.976-5.763-3.43-8.5-3.604-6.694-9.94-12.283-16.975-15.135-16.51-6.753-34.764-.466-43.892 14.67-.523.931-.93 1.746-1.395 2.736-1.046 2.038-1.628 4.075-2.209 6.23v-.059zm.174 17.989c.291 1.048.582 2.037.93 2.969a41.469 41.469 0 004.128 7.975 21.425 21.425 0 001.802 2.387c3.256 3.784 7.093 6.811 11.627 9.082 3.023 1.513 8.662 3.434 13.139 3.434 6.569 0 10.057-.291 16.045-2.736 4.07-1.63 8.022-5.064 9.01-5.064 1.687 0 2.559 1.862 1.512 3.143-1.744 2.096-8.197 5.065-9.708 5.705-3.372 1.514-8.953 2.853-13.72 2.853-9.36 0-16.685-2.445-23.603-7.335-.872-.641-1.918-1.339-2.732-2.154-2.907-2.853-4.244-3.842-6.744-7.627-2.848-4.25-4.476-7.8-5.523-12.4-.29-1.28.524-2.037 1.803-2.037 1.511 0 1.86.99 2.093 1.805h-.059zm85.052-53.617h-6.977a1.937 1.937 0 00-1.918 1.921c0 1.048.872 1.921 1.918 1.921h6.977a1.937 1.937 0 001.918-1.92 1.937 1.937 0 00-1.918-1.922zm-98.016 83.307h-4.825c-.988 0-1.802.815-1.802 1.804 0 .99.814 1.805 1.802 1.805h4.825c.989 0 1.803-.815 1.803-1.805 0-.989-.814-1.804-1.803-1.804zm33.835-59.206c0 5.123 5.406-.465 11.22-.465 4.418 0 5.871-.175 10.057 1.63 3.605 1.572 7.209 4.657 9.243 7.8.698 1.107 1.628 2.446 1.977 4.017.29 1.223 1.395 1.805 2.384 1.805.93 0 1.802-.524 1.627-1.805-.348-3.26-2.79-6.578-4.767-8.615-5.232-5.356-9.883-8.733-19.533-8.733-3.43 0-12.15 2.154-12.15 4.366h-.058zm46.74 29.516c-1.163 4.25-2.848 8.034-5.523 11.526-.639.874-1.686 2.504-.697 3.493.697.699 2.267.699 3.255-.465 1.279-1.398 2.558-3.377 3.895-6.346 1.105-2.387 2.384-5.705 2.907-8.034.291-1.28-.523-2.037-1.802-2.037-1.512 0-1.86.99-2.093 1.805l.058.058z"
      fill="#F66C4C" />
    <path
      d="M121.469 71.212H94.843c-.77 0-1.395.678-1.395 1.514v6.52c0 .836.625 1.514 1.395 1.514h26.626c.77 0 1.395-.678 1.395-1.514v-6.52c0-.836-.625-1.514-1.395-1.514zm-66.042 0H28.802c-.771 0-1.396.678-1.396 1.514v6.52c0 .836.625 1.514 1.396 1.514h26.625c.77 0 1.395-.678 1.395-1.514v-6.52c0-.836-.624-1.514-1.395-1.514z"
      fill="#32333B" />
  </symbol>

  <symbol id="products-5" xmlns="http://www.w3.org/2000/svg">
    <path class="change-color" fill-rule="evenodd" clip-rule="evenodd"
      d="M40.06 37.237c-1.225-2.022.383-5.757 3.93-2.508 3.14 2.866 9.342 9.237 16.693 14.38 9.724 6.806 20.955 12.359 24.809 13.459 1.046.23 2.067.486 3.114.742h.025c.843.282 1.915.46 2.961.64.69.128 1.378.23 1.99.383l.078.026c1.148.282 5.308 1.305 7.044 2.891.944.87 1.251 1.894.23 3.02-.919.998-2.22.511-4.186-.23-2.22-.845-5.36-2.048-9.623-1.587-.459.051-.918.102-1.327.128-1.76.179-2.807.256-4.875.998-1.914.665-3.445 1.382-4.85 2.277-1.403.896-2.654 1.97-4.032 3.326-.613.614-1.2 1.228-1.736 1.868-.536.64-1.02 1.305-1.48 2.047-1.48 2.482-2.348 4.452-2.859 6.525-.51 2.072-.638 4.273-.638 7.24 0 2.125.613 4.709 1.557 7.14.97 2.507 2.297 4.836 3.676 6.294l.663.665c1.761 1.791 3.344 3.378 5.64 4.657 1.94 1.1 3.702 1.587 5.055 1.996.485.153.919.281 1.301.409.817.282 1.379.742 1.685 1.28.204.358.306.716.306 1.1 0 .384-.127.716-.357 1.023-.28.384-.715.666-1.302.794-1.225.255-3.165-.359-5.207-1.305-2.935-1.356-6.125-3.429-7.504-4.529l-.025-.026-11.256-9.748c-1.072-.845-2.425-2.022-3.752-3.224a84.824 84.824 0 01-4.237-4.017c-1.812-1.766-6.457-6.628-6.457-8.188 0-.46.153-.922.433-1.28.23-.307.536-.537.894-.665.357-.128.765-.128 1.2 0 .484.153 1.02.512 1.505 1.151.97 1.28 5.054 5.783 7.887 8.495 2.042 1.97 4.084 3.864 5.462 4.964-.025-.077-.05-.128-.076-.204-.077-.205-.154-.41-.205-.64-1.352-4.964-1.378-9.877-.153-14.457 1.225-4.631 3.676-8.93 7.249-12.563 1.659-1.689 3.573-3.096 5.666-4.247a28.997 28.997 0 015.105-2.2c-3.573-.794-13.936-6.014-22.997-12.462-8.168-5.834-15.187-12.87-16.999-15.864l-.025.026zm93.034 49.818c-.409-.845-1.226-1.484-2.476-1.382a2.852 2.852 0 00-.996.23c-.51.205-.919.563-1.174.998a2.62 2.62 0 00-.332 1.561c.026.358.102.742.281 1.1.204.486.511.819.919 1.05.459.255 1.021.383 1.634.358 1.199-.026 1.939-.691 2.246-1.561a3.21 3.21 0 00.178-1.203c-.025-.41-.102-.819-.28-1.177v.026zm-9.47-1.408c-1.531 0-2.731-.256-2.731-2.047 0-.588.204-1.1.562-1.458.357-.358.842-.563 1.455-.563h8.244c1.633 0 3.216.768 4.39 1.945 1.174 1.177 1.94 2.763 1.94 4.4 0 2.048-.69 3.787-1.787 5.041-1.149 1.305-2.757 2.073-4.543 2.073-1.455 0-1.812-.077-2.527-.23-.306-.052-.664-.128-1.2-.23-.663-.103-1.327-.231-1.94-.333-.382-.077-.765-.128-1.097-.18l-1.072-.153c-2.093-.282-3.956-.537-3.956-2.456 0-1.587.97-1.996 2.195-1.996.587 0 1.25.102 1.863.205.281.05.562.102.817.127a3.776 3.776 0 01-.051-.511c-.153-1.254-.255-2.15.434-3.71h-.128c-.306 0-.587.025-.791.025l-.077.051zm5.309 18.935c-.689.051-1.353.332-1.761.819-.383.435-.587.895-.638 1.381-.077.538.051 1.1.281 1.689.306.716.944 1.177 1.659 1.33a3.11 3.11 0 001.378 0 2.933 2.933 0 001.2-.588c.536-.461.867-1.151.791-2.098-.051-.845-.383-1.459-.868-1.868a2.457 2.457 0 00-.944-.512 3.18 3.18 0 00-1.098-.128v-.025zm-7.044-1.894c-.613-.383-1.021-.946-1.021-1.765 0-.589.204-1.1.561-1.459.358-.358.842-.563 1.455-.563h.051l8.27 1.817h.025c2.323.717 3.701 2.329 4.314 4.145a7.02 7.02 0 01.255 3.327 7.599 7.599 0 01-1.225 3.096c-1.072 1.56-2.808 2.635-5.028 2.635-1.94 0-2.859-.307-4.288-.793-.409-.128-.843-.282-1.327-.435-.562-.179-1.124-.333-1.685-.512-.919-.281-1.863-.537-2.706-.844-.536-.179-.816-.282-1.123-.384-1.097-.384-2.144-.742-3.318-1.049-.127-.026-.255-.077-.383-.103-1.403-.358-3.318-.869-3.318-2.635 0-.588.205-1.1.562-1.458.357-.359.842-.563 1.455-.563.332 0 2.016.486 3.905 1.074 1.914.589 4.058 1.305 5.105 1.689.025-2.738.178-3.147 1.225-4.734-.638-.076-1.276-.255-1.787-.588l.026.102zm-6.688 13.536a2.543 2.543 0 00-1.888-.64c-.868.051-1.583.512-2.042 1.1-.179.256-.332.512-.409.819a2.053 2.053 0 00-.102.87c.051.614.358 1.228.996 1.714.842.64 1.582.87 2.169.819.332-.025.638-.128.894-.281.28-.154.51-.384.689-.64.434-.588.663-1.305.612-1.868-.051-.742-.383-1.433-.919-1.893zm-10.668-5.962c-1.302-.895-2.527-1.765-2.527-3.045 0-.588.204-1.1.561-1.458.358-.358.843-.563 1.455-.563.689 0 2.476 1.279 4.467 2.712 1.914 1.382 4.032 2.891 5.309 3.429.255.102.587.179.867.23.154.026.332.051.485.102 1.328.333 2.629 1.177 3.548 2.329.868 1.074 1.43 2.431 1.43 3.838 0 2.226-.715 3.915-1.838 5.117a6.072 6.072 0 01-2.246 1.535 7.142 7.142 0 01-2.604.512c-1.684 0-3.369-.588-4.594-1.74l-2.833-2.456c-.485-.435-.995-.819-1.506-1.228a21.92 21.92 0 01-1.531-1.254c-.154-.128-.332-.282-.511-.435-.893-.691-2.042-1.612-2.042-2.789 0-.589.204-1.1.562-1.458.357-.359.842-.563 1.455-.563.944 0 1.888.87 2.858 1.765.587.537 1.174 1.075 1.71 1.382.102-.589.307-1.1.587-1.587a5.824 5.824 0 011.226-1.509c-.256-.154-.485-.333-.741-.486-.893-.589-1.812-1.177-2.68-1.817-.28-.205-.561-.409-.842-.589l-.025.026zM93.404 86.799v.077c.051.255.179.69.383 1.125.153.307.332.589.51.742.562.487 1.277.691 1.991.64a3.17 3.17 0 001.072-.281c.332-.154.613-.384.868-.64.409-.46.638-1.1.587-1.842-.05-.742-.383-1.433-.919-1.894a2.543 2.543 0 00-1.888-.64c-.102 0-.179.026-.256.026a2.613 2.613 0 00-1.812 1.152c-.383.537-.561 1.151-.536 1.56V86.8zm-9.495-4.734c-.485-.332-.79-.819-.79-1.612 0-1.56.97-1.996 2.143-1.996.715 0 1.506.18 2.119.333.204.051.382.077.51.102 2.068.41 3.675.563 5.386.743.867.102 1.735.179 2.73.306.332.052.613.077.868.077.664.052 1.073.077 1.89.46 2.041.922 3.241 2.457 3.751 4.146.358 1.151.383 2.38.128 3.556a7.298 7.298 0 01-1.557 3.148c-1.098 1.28-2.706 2.149-4.62 2.149-2.144 0-3.037-.358-4.39-.895-.485-.18-1.02-.41-1.71-.64-1.455-.486-4.058-1.459-6.56-2.431-2.118-.844-4.16-1.689-5.334-2.252-.893-.435-1.378-.946-1.608-1.484a1.756 1.756 0 01-.077-1.074c.077-.333.256-.64.51-.87.384-.384.945-.64 1.507-.64.51 0 2.578.87 4.85 1.817 2.194.92 4.594 1.919 5.742 2.226.051-2.175.485-3.275.74-3.813h-.025c-.307-.025-.74-.076-1.353-.179-.613-.102-1.174-.205-1.685-.281-.536-.103-1.097-.205-1.659-.333-.561-.128-1.097-.256-1.531-.563h.025zm6.407 1.126c-.026-.102-.026-.051-.051.026.025 0 .05.025.05-.026zm20.368 14.636v.077c.127.767.485 1.458 1.021 1.919a2.441 2.441 0 001.837.614c1.302-.103 2.093-.845 2.374-1.74.128-.359.153-.742.128-1.126a3.192 3.192 0 00-.281-1.1c-.408-.845-1.251-1.484-2.476-1.408-.102 0-.179.026-.255.026a2.613 2.613 0 00-1.812 1.151c-.383.538-.562 1.152-.536 1.561v.026zm-5.718-4.427c-.816-.384-1.429-.998-1.429-1.944 0-1.536.97-1.996 2.297-1.996.996 0 2.195.307 3.267.563.409.102.817.205 1.2.281 1.072.205 2.144.41 3.19.589.256.05.485.076 1.277.23 1.403.256 2.782 1.1 3.777 2.277.944 1.1 1.557 2.482 1.557 3.992 0 2.047-.689 3.812-1.787 5.04-1.148 1.305-2.756 2.073-4.543 2.073-2.425 0-5.87-.691-9.469-1.663-5.003-1.331-10.312-3.224-13.477-4.478-.587-.23-1.225-.435-1.863-.665-1.276-.41-2.527-.819-3.343-1.433a2.623 2.623 0 01-.69-.716 1.719 1.719 0 01-.28-.947c0-.589.204-1.1.561-1.459.358-.358.842-.563 1.455-.563.408 0 2.91.896 6.075 2.047 4.798 1.715 11.205 4.018 13.884 4.555a5.314 5.314 0 01-.153-2.687c.153-.844.536-1.688 1.123-2.482-.842-.076-1.837-.23-2.629-.614zm-14.727 17.016v.076c.128.742.485 1.459 1.021 1.919a2.44 2.44 0 001.838.614c1.302-.102 2.093-.844 2.374-1.739.127-.359.153-.742.127-1.126a3.182 3.182 0 00-.28-1.101c-.409-.844-1.251-1.484-2.476-1.407-.102 0-.179.026-.255.026a2.613 2.613 0 00-1.813 1.151c-.383.538-.561 1.152-.536 1.561v.026zm22.002-33.135c0 .05 0 .102.025.127.128.768.46 1.459.996 1.945.485.41 1.097.665 1.837.614 1.302-.102 2.093-.844 2.374-1.74.128-.358.153-.742.128-1.151a2.73 2.73 0 00-.307-1.1c-.408-.845-1.25-1.433-2.424-1.331-.077 0-.154.026-.205.026a3.264 3.264 0 00-1.786.92c-.46.461-.715 1.075-.664 1.69h.026zM69.871 97.52c-.638-2.098-.893-4.35-.893-7.037 0-4.196 1.761-8.29 4.569-11.54 2.833-3.275 6.738-5.68 11.026-6.473.996-.179 3.778-.256 6.458-.332 2.297-.052 4.517-.128 5.385-.23h.026l9.673-.743c1.123-.051 2.425-.153 3.752-.256 2.016-.153 4.084-.332 5.692-.332 1.786 0 3.241.793 4.262 1.944 1.2 1.33 1.838 3.147 1.838 4.836 0 2.022-.664 3.66-1.736 4.785-1.148 1.228-2.782 1.893-4.568 1.893h-9.827c-.587 0-1.098-.204-1.455-.563-.357-.358-.561-.844-.561-1.458 0-1.765 1.352-2.072 3.19-2.072.383 0 .842.025 1.302.025.255 0 .485.026.765.026-.357-.845-.536-1.612-.536-2.38-.025-.793.103-1.56.307-2.456-1.71.025-3.497.205-5.233.358-.791.077-1.608.153-2.271.205l-7.836.41c-.664.025-1.506.05-2.4.05-2.296.026-5.002.051-6.508.538a18.335 18.335 0 00-4.466 2.046 14.149 14.149 0 00-3.446 3.071 15.745 15.745 0 00-3.267 7.906 14.645 14.645 0 001.404 8.24c.919 1.867 2.782 4.042 4.926 6.038 2.271 2.124 4.85 4.068 6.891 5.245.051-.358.102-.665.204-.972.154-.486.358-.896.587-1.305.46-.768.74-1.049.97-1.279.077-.077.154-.154.23-.256-.638-.307-1.659-.947-2.706-1.689-1.837-1.279-3.853-2.84-4.466-3.403l-3.242-3.045a1.96 1.96 0 00-.23-.205c-.765-.716-2.45-2.302-2.424-3.889 0-.435.153-.87.408-1.177.23-.281.536-.512.894-.614a1.85 1.85 0 011.174.026c.485.153.995.511 1.455 1.126 1.965 2.226 3.777 3.966 5.717 5.526 1.94 1.561 4.058 2.968 6.662 4.504 1.659.972 1.812.997 2.169 1.023.255.026.587.051 1.327.281 2.22.691 3.65 2.329 4.288 4.248.358 1.049.46 2.2.306 3.275a6.6 6.6 0 01-1.25 3.07c-1.149 1.561-3.088 2.636-5.794 2.636-2.093 0-5.08-2.073-7.121-3.48-.332-.23-.638-.435-.893-.614l-.026-.026c-4.084-2.737-8.27-5.526-11.383-9.416-1.608-2.021-2.655-3.94-3.293-6.038l-.026-.051z"
      fill="#F66C4C" />
    <path fill-rule="evenodd" clip-rule="evenodd"
      d="M34.42 55.557c-1.736.077-3.345.154-4.493.154H26.66l1.531-2.892c1.455-2.763 2.782-5.475 4.11-8.162.663-1.382 1.352-2.738 2.016-4.12.306-.64.664-1.279 1.047-1.97 1.607-2.942 3.726-6.831 2.986-9.467a4.994 4.994 0 00-.587-1.305 6.096 6.096 0 00-2.68-2.328 5.178 5.178 0 00-3.523-.282 4.89 4.89 0 00-1.403.64c-1.915 1.203-3.676 5.04-5.08 8.06a57.3 57.3 0 01-1.072 2.252c-.382.767-1.072 2.098-1.914 3.76-3.369 6.602-9.418 18.475-9.878 20.342-.944 3.839 1.353 5.655 4.748 6.5 4.186 1.023 10.005.767 14.625.562 1.736-.076 3.344-.153 4.492-.153h3.267l-1.531 2.891c-1.455 2.764-2.782 5.476-4.11 8.162-.663 1.382-1.352 2.738-2.016 4.12-.306.64-.664 1.28-1.046 1.97-1.608 2.943-3.727 6.832-2.987 9.467.128.46.332.896.587 1.305a6.096 6.096 0 002.68 2.329 5.178 5.178 0 003.523.281 4.865 4.865 0 001.403-.64c1.915-1.202 3.676-5.04 5.08-8.06A42.61 42.61 0 0142 86.748c.383-.768 1.072-2.099 1.914-3.762 3.369-6.601 9.418-18.474 9.877-20.341.945-3.838-1.352-5.655-4.747-6.5-4.186-1.023-10.005-.767-14.625-.562v-.026z"
      fill="#32333B" />
  </symbol>

  <symbol id="products-6" xmlns="http://www.w3.org/2000/svg">
    <path fill-rule="evenodd" clip-rule="evenodd"
      d="M75.142 96.572c-2.1 3.304-4.356 7.71-4.304 13.426.052 6.923 3.044 10.489 5.51 13.216.945.996 1.995 1.678 3.412 1.678h5.04c-.84-1.049-1.155-2.098-1.365-3.251-.157-.944.105-.944.525-.105.315.629.892 1.258 1.47 1.783a24.04 24.04 0 001.994 1.573h5.196c-2.624-3.199-3.36-5.507-3.884-9.283-.315-2.202.053-1.887.577-.734 2.152 4.668 5.511 6.923 9.658 10.07h18.422c2.781 0 6.665.419 3.516-1.049-5.353-2.518-9.027-3.881-12.806-10.017-1.995-3.252-1.89-6.241-1.627-9.702.105-1.626-.578-1.783-2.047-2.203l-25.35-7.08c-2.1-.577-2.677-.105-3.884 1.73l-.052-.052zm31.543-68.492L92.724 77.168c-3.15-.367-5.616.157-8.188 2.203-2.361 1.888-3.883 4.72-5.143 7.919-.735 1.94 1.312 2.465 3.726 3.199l20.102 5.926c2.886.84 4.408 1.783 4.986-.682.63-2.57 1.154-5.769 0-9.492-1.312-4.248-3.989-5.507-5.931-6.293l14.013-48.406c2.152-7.447-8.24-8.444-9.657-3.462h.053z"
      fill="#32333B" />
    <path class="change-color" fill-rule="evenodd" clip-rule="evenodd"
      d="M70.523 119.753c1.102 0 2.047.891 2.1 1.993.052 1.52-2.1 1.992-2.1 1.783h-24.72c-1.942 0-3.412-.42-4.409-1.311-1.05-.944-1.627-2.36-1.89-4.353l-3.83-28.897c-.106-.472-.158-.472-.473-.524-.21-.053-.472-.105-.84-.21-1.05-.367-1.89-.787-2.624-1.416-.735-.577-1.365-1.311-1.994-2.203-.893-1.258-1.365-2.674-1.575-4.09-.21-1.416-.105-2.885.105-4.406.472-2.884 1.68-5.821 2.677-8.443.367-.944.735-1.836 1.05-2.675.052-.157.104-.315.157-.42.157-.367.21-.471.157-1.1l-.682-5.402c-.315-.21-.735-.315-1.102-.525a5.857 5.857 0 01-1.47-1.311c-.42-.524-.682-1.154-.892-1.888-.262-1.101-.21-2.045.105-2.937.315-.891.892-1.678 1.575-2.36 1.312-1.258 2.991-1.258 5.09-1.258h2.94c.105 0 .21-.105.367-.263l.367-.367c.315-.262.683-.63 1.103-.944.314-.262.682-.472.997-.681.42-.315.944-.577 1.522-.84.892-.367 1.522-.629 2.467-.786.367-.105.577-.105.63-.21.052-.053.104-.21.21-.472.052-.21.21-.525.367-.892.105-.262.262-.524.367-.734.473-.786.315-.682.892-1.363.315-.42.788-.997 1.207-1.311a16.91 16.91 0 011.523-1.26c.524-.366.577-.366 1.154-.733.84-.472 1.522-.63 2.362-.997.315-1.049.472-1.73 1.05-2.674.21-.367.315-.472.577-.84.315-.42.577-.734 1.155-1.153a7.619 7.619 0 013.831-1.416c1.312-.105 2.624.157 3.621.786.158-.157.263-.314.368-.472 1.05-1.258 1.784-1.835 3.096-2.517a10.27 10.27 0 013.044-.944 8.51 8.51 0 012.31 0c.944.105 1.68.315 2.362.63.682.262 1.364.681 2.099 1.206.157.104.262.21.367.262 1.313 1.049 1.942 2.15 2.362 2.937.105.21.21.367.315.524.263-.052.525-.052.735-.105 1.05-.157 1.574-.21 2.204-.157 2.31.157 4.041.944 5.721 2.465 1.365 1.206 1.785 2.045 2.047 2.622.262.524.315.524.525 1.101.21.63.42 1.206.472 1.993.735.262 1.417.63 2.047.997.682.42 1.26.891 1.784 1.31.473.368.788.892.945 1.417a1.82 1.82 0 01-.157 1.468c-.053.053-.105.157-.158.21-.315.42-.787.577-1.26.63-.472.052-.997-.106-1.469-.368-.105-.052-.21-.157-.315-.21l-1.522-1.206c-.367-.21-.84-.472-1.312-.682-.997-.472-1.05-.314-1.784-.944-.263-.21-.525-.472-.578-1.416 0-1.049-.262-1.888-.682-2.674-.42-.787-1.05-1.416-1.837-1.993-.735-.525-1.732-.84-2.782-.944-.997-.053-1.994.105-2.834.524-.42.21-.735.315-1.102.315-.315 0-.63-.105-1.05-.315-.367-.157-.787-1.258-.892-1.678-.105-.42-.21-.891-.682-1.573-.683-.997-1.522-1.678-2.415-2.098a5.638 5.638 0 00-2.729-.524c-.944.052-1.837.367-2.676.944-.893.576-1.627 1.416-2.152 2.57-.263.629-.473 1.1-1.155 1.363-1.155.42-1.784-.157-2.362-.682a4.138 4.138 0 00-.787-.63c-.577-.314-1.207-.366-1.837-.314a2.602 2.602 0 00-1.627.734c-1.05.944-1.05 1.364-1.102 2.78-.053 1.311-.367 1.993-1.837 2.255-.472.105-1.102.21-1.994.577-1.103.472-2.1 1.259-2.887 2.15a7.95 7.95 0 00-1.68 3.147c-.472 1.783-.472 1.835-2.519 2.097-.367.053-.84.158-1.26.263-.052 0-.157.052-.21.052h51.488c2.466 0 2.519 3.776.21 3.776H65.327c-4.251-.052-8.555 0-12.806 0-4.566 0-9.133.052-13.699 0h-4.408c-1.208 0-2.625-.052-2.625 1.573 0 1.574 1.365 1.574 2.257 1.574h4.671c4.41-.053 8.87 0 13.279 0 4.409 0 8.765.052 13.226 0h29.549c2.204 0 2.204 3.776-.263 3.776H35.463l3.517 26.799c.945 0 2.204-.21 3.464-.42 3.779-.787 7.925-2.78 11.231-4.772 1.575-.944 3.517-2.203 4.934-3.252 1.47-1.101 2.94-2.203 3.359-2.675-.525-.891-.472-.839-.787-1.835-.42-1.364-.788-2.465-.368-4.615.158-.63.315-1.259.525-1.783.892-2.046 2.73-3.829 4.776-4.615 1.732-.63 3.517-.787 5.144-.42 1.68.367 3.201 1.259 4.46 2.57a8.157 8.157 0 012.153 4.353c.42 2.412 0 4.248-1.26 6.345a8.225 8.225 0 01-4.933 3.62c-1.785.471-3.674.419-5.406-.21-.42-.158-1.312-.578-1.627-.787-1.102.629-2.94 1.993-4.724 3.304-4.199 3.094-7.243 4.93-12.281 6.712-2.572.892-5.196 1.574-8.135 2.098l3.569 27.743c.052.524.157 1.049.315 1.521.104.367.262.682.42.891.63.787 2.466.787 3.883.735h22.83zM35.096 84.405L33.416 71.4c-.314.63-.63 1.678-.84 2.727-.42 1.836-.63 3.881-.577 4.668.053 1.468.368 2.727.893 3.671.524.892 1.26 1.52 2.256 1.94h-.052zm33.223-19.928c-.735.157-1.418.42-1.995.891a4.996 4.996 0 00-1.784 2.885c-.263 1.049-.21 2.307.42 3.251l3.569-3.304c1.154-1.049 2.466-.839 3.149 0 .42.577.42 1.678-.315 2.413l-3.57 3.461c.263.105.526.157.788.157 1.627.21 3.044-.157 4.304-1.31 1.627-1.574 1.994-4.249.84-6.137a6.285 6.285 0 00-.893-1.101c-1.207-1.101-2.781-1.52-4.408-1.206h-.105z"
      fill="#F66C4C" />
  </symbol>

  <symbol id="products-7" xmlns="http://www.w3.org/2000/svg">
    <path class="change-color" fill-rule="evenodd" clip-rule="evenodd"
      d="M73.18 101.592h9.873c1.385 0 2.173-.274 2.173 1.521v4.257c.025 1.489-.378 1.699-1.577 1.699h-9.4c-.675 0-1.223.692-1.223 1.561s.54 1.561 1.224 1.561h10.782c1.545 0 2.769-1.384 2.769-3.356v-7.026c0-1.835-1.143-3.324-2.608-3.324h-7.822L80.47 80.24c3.147 0 5.73.105 8.144-2.664.894-1.038 1.843-2.905 2.31-4.539.193-.66.241-1.384.435-1.94 3.01 0 4.917.347 6.381-1.802.322-.483.54-1.038.733-1.562.241-.692.297-1.006.788-1.489.435-.45 1.143-.587 1.875-.587l9.826.032c1.465 0 2.664-.21 3.203-.523a4.135 4.135 0 001.9-2.769c1.979 0 3.613.21 4.941-.764 2.277-1.626 2.06-4.636 2.06-7.34h12.844c1.11 0 1.658-.62 1.794-1.352v-.66c-.104-.692-.595-1.312-1.303-1.312h-13.327c0-2.39.161-4.845-2.06-6.51-1.465-1.071-2.793-.766-4.941-.766-.435-1.038-.54-1.352-1.28-2.108-.571-.588-1.384-1.006-2.277-1.006h-4.427c-.973 0-1.625.418-1.625 1.658 0 1.175.676 1.625 1.625 1.625h4.427c.812 0 1.279.588 1.279 1.699v15.13c0 2.044-1.408 1.658-2.929 1.698h-10.019c-1.03 0-1.875.274-2.334.556-.974.587-1.626 1.561-2.093 2.736-.595 1.561-.844 2.254-2.631 2.254-2.881.032-5.754 0-8.635 0-1.763 0-2.31.104-3.477.965-2.173 1.594-2.527 3.984-3.01 6.922-.24 1.561-.57 3.082-.812 4.571L74.756 98.43h-1.65l-2.816.032h-.241c-.676 0-1.224.692-1.224 1.562 0 .869.54 1.561 1.224 1.561 1.038 0 2.092.016 3.146 0l-.016.008zM58.242 45.464a1.31 1.31 0 011.304 1.304v17.054c0 .87 1.19 1.416 1.762 1.698 1.577.829 3.638 2.286 4.233 4.636.322 1.312.137 3.839-.105 5.159l-.86 4.917c-.258 1.964-2.986 1.4-2.447-.966.08-.378.16-.829.241-1.247l.692-3.944c.298-1.803.298-3.638-1.223-4.708-1.9-1.352-4.724-1.457-4.917-6.028V46.768a1.31 1.31 0 011.304-1.304h.016zm13.576-4.869h30.976c1.738 0 1.795 3.292.137 3.292l-25.165.024h-5.939c-.91 0-1.658-.749-1.658-1.658 0-.91.749-1.658 1.658-1.658h-.008zm20.876 7.267v12.845c0 2.39 2.446 1.835 2.446.419V48.072c0-2.254-2.447-1.73-2.447-.21zM73.718 58.043v-7.476c0-.483.274-.83.652-.83h11.902c.467 0 .83.226.846.781l.048 7.212c.008 1.327-.362 1.384-1.352 1.36H74.588c-.709 0-.87.072-.87-1.039v-.008zm-2.905-8.305v9.142c0 1.94 1.384 3.533 2.93 3.533h13.165c1.795 0 3.26-1.593 3.26-3.943v-7.686c0-2.85-1.175-4.362-4.073-4.362h-11.54c-3.259-.073-3.75 1.175-3.75 3.324l.008-.008zm10.373 27.178c1.087-5.923 1.087-5.819 7.654-5.819-.193.483-.161.797-.379 1.385-1.577 4.499-4.096 4.434-7.275 4.434zm37.896-17.826h-2.06c-.845 0-.708-.524-.708-1.594V47.492c0-.869.539-.764 1.931-.764 1.546 0 2.278.692 2.278 2.559v7.895c0 1.038-.652 1.867-1.465 1.867l.024.033v.008z"
      fill="#F66C4C" />
    <path fill-rule="evenodd" clip-rule="evenodd"
      d="M52.666 55.726c-.128-.426-.547-.901-1.014-.773l-12.08 3.171c-.675.17-1.263.644-1.013 1.497l14.864 55.822c.466 1.538 1.899 2.27 3.34 2.568 2.068.475 4.345.129 6.333-.427 1.263-.386 3.67-1.416 4.684-2.31.973-.853 3.122-2.913 2.615-4.499L52.658 55.766v-.04h.008zm-37.92-13.271c-.507.217-1.819.555-1.352 1.794 1.392 3.638 2.616 6.632 3.927 10.278.467 1.24 1.143 1.497 2.238 1.03l6.252-2.608c1.264-.515 1.433-.772.926-2.052l-3.251-8.603c-.419-1.16-.845-2.825-2.447-2.141-.547.217-6.084 2.23-6.333 2.358l.04-.04v-.016zm34.669-11.22c-4.322-.418-10.253-.506-14.107 1.715-2.785 1.585-5.787 3.807-8.78 5.134-.716.298-2.406.644-2.068 1.666l3.717 10.407c.419 1.199.677 1.457 1.94 1.288 1.183-.17 2.784-.596 4.265.386 1.095.772 2.068 2.052 2.704 2.913.467.596.845 1.497 1.433 1.843.587.258 1.054.04 1.52-.088l10.052-2.656c.587-.218.716-.684.805-1.288.04-.386.04-.773.04-1.328 0-.644 0-3.984.169-5.561.08-.901.507-.982 1.312-1.368 4.772-2.23 10.26-.13 14.566 2.012 1.054.515 2.326-.17 2.068-1.369-.547-2.358-3.002-6.164-5.529-8.176-4.088-3.284-8.932-5.022-14.107-5.521v-.009z"
      fill="#32333B" />
  </symbol>

  <symbol id="products-8" xmlns="http://www.w3.org/2000/svg">
    <g clip-path="url(#clip0_78_4740)" fill-rule="evenodd" clip-rule="evenodd">
      <path class="change-color"
        d="M141.509 96.749H88.623c-4.18 0-4.015 5.201 0 5.201h53.874c4.936 0 7.503-4.51 7.503-8.987 0-3.522-.79-8.295-5.529-8.954 0-11.85-2.633-19.85-8.721-29.1-4.015-6.058-8.195-9.876-13.526-13.168-5.035-3.128-8.557-4.642-14.349-6.255-1.481-.428-1.514-.56-1.744-2.173-.954-6.09-3.785-6.188-6.977-6.386-8.096 0-12.835-1.25-14.546 6.946-.46 2.239-.099.988-4.87 2.6-7.899 2.7-16.85 8.691-21.49 14.683-6.254 8.065-9.676 14.155-11.289 25.249-.362 2.567.658 3.555 1.876 3.785 1.448.264 3.16-.724 3.455-3.028 1.152-8.855 4.805-16.46 10.137-22.78 1.711-2.041 4.772-5.07 7.075-6.288l1.547 22.912c.33 2.469-.592 6.09 3.028 6.09s2.402-3.687 2.27-6.189l-1.02-17.546c-.296-2.534-.592-6.024-.592-8.855a44.794 44.794 0 014.706-2.14l5.068-1.777v42.729h-3.488c-3.456 0-3.719 5.53 0 5.53h61.509c2.731 0 3.718 7.835-.988 7.835l-.033.066zM90.005 34.136c0-2.666 5.858-1.942 8.491-1.942 1.58 0 2.6 1.02 2.6 2.6v48.59h-11.09V34.136zm27.052 43.026c2.468 0 2.896-2.996 2.929-5.893l1.646-23.142 3.653 2.864c8.49 7.506 13.954 20.74 13.954 32.36h-32.91V40.62c3.192.758 7.47 2.535 10.103 3.918l-1.678 26.04c-.297 2.666-.461 6.484 2.336 6.583h-.033z"
        fill="#F66C4C" />
      <path
        d="M44.523 88.684c3.193 1.843 7.965 3.456 7.142 4.905-1.185 2.074-7.767-1.68-10.005-2.502-4.311-1.646-5.364-2.568-9.708-.659l-16.027 6.913c-4.048 1.745-.198 5.037 2.632 5.86l63.582 18.698c7.833 2.305 15.468 2.469 8.425-9.052L71.51 79.038c-1.613-2.83-2.7-3.95-6.056-2.6l-14.842 6.057c-3.62 1.481-6.813 1.382-8.162-1.646-1.547-3.522-.987-12.18-2.205-16.624-.691-2.535-2.863-3.128-4.377-5.465-3.883-6.024-14.842-13.793-21.49-17.678-1.975-1.152-3.752-1.119-5.726-.625-3.456.856-6.944 3.522-8.425 6.781-.856 1.877.065 3.523 1.513 5.004 5.891 5.925 21.919 10.436 30.607 12.246 5.99 1.251 2.303 14.517 5.002 19.192.987 1.679 4.805 3.621 7.142 4.97l.032.034z"
        fill="#32333B" />
    </g>
    <defs>
      <clipPath id="clip0_78_4740">
        <path fill="#fff" d="M0 0h150v150H0z" />
      </clipPath>
    </defs>
  </symbol>

</svg>