<svg xmlns="http://www.w3.org/2000/svg" width="0" height="0" class="hidden">

  <!-- icons -->
  <symbol id="file-pdf" viewBox="0 0 154 154">
    <path
      d="M28.8711 81.8125V28.875C28.8711 27.5986 29.3781 26.3746 30.2806 25.472C31.1832 24.5695 32.4072 24.0625 33.6836 24.0625H91.4383L125.126 57.75V81.8125"
      stroke-width="2" stroke-linecap="round" stroke-linejoin="round" />
    <path d="M91.4375 24.0625V57.75H125.13" stroke-width="2"
      stroke-linecap="round" stroke-linejoin="round" />
    <path
      d="M28.875 120.312H38.5C41.0527 120.312 43.5009 119.298 45.3059 117.493C47.1109 115.688 48.125 113.24 48.125 110.688C48.125 108.135 47.1109 105.687 45.3059 103.882C43.5009 102.077 41.0527 101.062 38.5 101.062H28.875V129.938"
      stroke-width="2" stroke-linecap="round" stroke-linejoin="round" />
    <path
      d="M74.5938 129.938C78.4228 129.937 82.095 128.416 84.8026 125.709C87.5102 123.001 89.0312 119.329 89.0312 115.5C89.0312 111.671 87.5102 107.999 84.8026 105.291C82.095 102.584 78.4228 101.063 74.5938 101.062H67.375V129.938H74.5938Z"
      stroke-width="2" stroke-linecap="round" stroke-linejoin="round" />
    <path d="M125.125 101.062H108.281V129.938" stroke-width="2"
      stroke-linecap="round" stroke-linejoin="round" />
    <path d="M122.719 117.906H108.281" stroke-width="2" stroke-linecap="round"
      stroke-linejoin="round" />
  </symbol>

  <symbol id="download" viewBox="0 0 10 10">
    <g clip-path="url(#clip0_53_1557)">
      <path
        d="M5.5 1.25C5.5 0.973858 5.27614 0.75 5 0.75C4.72386 0.75 4.5 0.973858 4.5 1.25L5.5 1.25ZM4.5 5.83333C4.5 6.10948 4.72386 6.33333 5 6.33333C5.27614 6.33333 5.5 6.10948 5.5 5.83333L4.5 5.83333ZM7.02022 5.35355C7.21548 5.15829 7.21548 4.84171 7.02022 4.64645C6.82496 4.45118 6.50838 4.45118 6.31311 4.64645L7.02022 5.35355ZM5.29463 6.37204L4.94107 6.01849H4.94107L5.29463 6.37204ZM4.70537 6.37204L5.05893 6.01849H5.05893L4.70537 6.37204ZM3.68689 4.64645C3.49162 4.45118 3.17504 4.45118 2.97978 4.64645C2.78452 4.84171 2.78452 5.15829 2.97978 5.35355L3.68689 4.64645ZM1.75 6.66667C1.75 6.39052 1.52614 6.16667 1.25 6.16667C0.973858 6.16667 0.75 6.39052 0.75 6.66667H1.75ZM9.25 6.66667C9.25 6.39052 9.02614 6.16667 8.75 6.16667C8.47386 6.16667 8.25 6.39052 8.25 6.66667H9.25ZM8.06749 8.61376L7.84049 8.16825L7.84049 8.16825L8.06749 8.61376ZM8.61376 8.06749L9.05926 8.29448L9.05926 8.29448L8.61376 8.06749ZM1.38624 8.06749L0.940739 8.29448L1.38624 8.06749ZM1.93251 8.61376L1.70552 9.05926H1.70552L1.93251 8.61376ZM4.5 1.25L4.5 5.83333L5.5 5.83333L5.5 1.25L4.5 1.25ZM6.31311 4.64645L4.94107 6.01849L5.64818 6.72559L7.02022 5.35355L6.31311 4.64645ZM5.05893 6.01849L3.68689 4.64645L2.97978 5.35355L4.35182 6.72559L5.05893 6.01849ZM4.94107 6.01849C4.97362 5.98594 5.02638 5.98594 5.05893 6.01849L4.35182 6.72559C4.7098 7.08357 5.2902 7.08357 5.64818 6.72559L4.94107 6.01849ZM0.75 6.66667V6.75H1.75V6.66667H0.75ZM3.25 9.25H6.75V8.25H3.25V9.25ZM9.25 6.75V6.66667H8.25V6.75H9.25ZM6.75 9.25C7.09178 9.25 7.37819 9.25039 7.61171 9.23131C7.85107 9.21175 8.07855 9.16928 8.29448 9.05926L7.84049 8.16825C7.78903 8.19448 7.7078 8.22013 7.53028 8.23463C7.34692 8.24961 7.10828 8.25 6.75 8.25V9.25ZM8.25 6.75C8.25 7.10828 8.24961 7.34692 8.23463 7.53028C8.22013 7.7078 8.19448 7.78903 8.16825 7.84049L9.05926 8.29448C9.16928 8.07856 9.21175 7.85107 9.23131 7.61171C9.25039 7.37819 9.25 7.09178 9.25 6.75H8.25ZM8.29448 9.05926C8.62377 8.89148 8.89148 8.62377 9.05926 8.29448L8.16825 7.84049C8.09635 7.98161 7.98161 8.09635 7.84049 8.16825L8.29448 9.05926ZM0.75 6.75C0.75 7.09178 0.749611 7.37819 0.768691 7.61171C0.788247 7.85107 0.830717 8.07856 0.940739 8.29448L1.83175 7.84049C1.80552 7.78903 1.77987 7.7078 1.76537 7.53028C1.75039 7.34692 1.75 7.10828 1.75 6.75H0.75ZM3.25 8.25C2.89172 8.25 2.65308 8.24961 2.46972 8.23463C2.2922 8.22013 2.21097 8.19448 2.15951 8.16825L1.70552 9.05926C1.92145 9.16928 2.14893 9.21175 2.38829 9.23131C2.62181 9.25039 2.90822 9.25 3.25 9.25V8.25ZM0.940739 8.29448C1.10852 8.62377 1.37623 8.89148 1.70552 9.05926L2.15951 8.16825C2.01839 8.09635 1.90365 7.98161 1.83175 7.84049L0.940739 8.29448Z"
      />
    </g>
    <defs>
      <clipPath id="clip0_53_1557">
        <rect width="10" height="10" />
      </clipPath>
    </defs>
  </symbol>

</svg>