<svg width="250" height="144" fill="none" xmlns="http://www.w3.org/2000/svg"><g clip-path="url(#clip0_482_4091)"><path d="M72.796 82l-6.958 6.998L40.096 89 38 86.891V61l6.96-7H70.7l2.096 2.108V82z" fill="#ED1C24"/><path d="M70.7 54l-7.826 7.872v11.49l-6.412-8.861H42.948v2.784h3.984v10.622L38 86.89V89l2.095-.002 9.839-9.896V67.285h3.982V78.5h2.964v-8.862l6.41 8.862h2.546V63.107l6.959-7V54H70.7z" fill="#fff"/><path d="M83.931 67.9h-4.175v-3.4h12.209v3.4H87.79v10.598h-3.86V67.9zm10.061-3.399h11.194v3.298H97.81v2.122h6.679v3.06h-6.68v2.22h7.477v3.298H93.992V64.501zm17.646 6.879l-4.575-6.879h4.435l2.465 3.94 2.487-3.94h4.333l-4.571 6.84 4.771 7.158h-4.434l-2.666-4.219-2.683 4.219h-4.335l4.773-7.119zm11.169-6.879h3.857v5.24h4.951V64.5h3.858v13.998h-3.858v-5.32h-4.951v5.32h-3.857V64.5zm14.982 6.999c0-4.02 3.221-7.28 7.517-7.28 4.293 0 7.475 3.22 7.475 7.28 0 4.02-3.221 7.28-7.515 7.28-4.297 0-7.477-3.221-7.477-7.28zm11.055 0c0-2.02-1.451-3.78-3.578-3.78-2.11 0-3.521 1.72-3.521 3.78 0 2.02 1.453 3.778 3.56 3.778 2.126 0 3.539-1.718 3.539-3.778zm6.271-6.999h3.86v5.24h4.949V64.5h3.859v13.998h-3.859v-5.32h-4.949v5.32h-3.86V64.5zm15.668 0h3.819v7.878l5.389-7.878h3.598v13.998h-3.818V70.62l-5.389 7.879h-3.599V64.5zm15.809 0h3.856v5.68l4.792-5.68h4.574l-5.269 6.019 5.447 7.98h-4.632l-3.499-5.2-1.413 1.58v3.62h-3.856v-14zm13.429 6.999c0-4.02 3.22-7.28 7.515-7.28s7.477 3.22 7.477 7.28c0 4.02-3.222 7.28-7.516 7.28-4.295 0-7.476-3.221-7.476-7.28zm11.053 0c0-2.02-1.449-3.78-3.577-3.78-2.109 0-3.519 1.72-3.519 3.78 0 2.02 1.45 3.778 3.558 3.778 2.128 0 3.538-1.718 3.538-3.778zm21.174-6.999h3.857v4.398h2.108c3.34 0 5.787 1.601 5.787 4.76 0 3.021-2.187 4.84-5.587 4.84h-6.165V64.501zm5.866 10.739c1.272 0 2.028-.58 2.028-1.68 0-.98-.756-1.62-2.009-1.62h-2.028v3.3h2.009zm-19.686-10.739v6.14c0 1.452-.146 3.551-1.098 4.294-.447.348-1.185.615-1.652.615v3.3h.366c1.333 0 2.828-.54 3.402-.906 2.326-1.486 2.614-4.311 2.614-7.503V67.9h3.329v10.598h3.858V64.5h-10.819z" fill="#000"/></g><defs><clipPath id="clip0_482_4091"><path fill="#fff" transform="translate(38 54)" d="M0 0h206v35H0z"/></clipPath></defs></svg>