<svg width="277" height="167" fill="none" xmlns="http://www.w3.org/2000/svg"><path fill="#F66C4C" d="M0 0h277v167H0z"/><path d="M146.611 62.673c1.872 1.751 4.55 4.833 6.493 6.227.275.198.567.468.943.37l15.578-11.19c16.78 10.953 33.812 21.526 50.595 32.47.278.182.422.456.249.642L169.625 64.39l-12.279 8.167c-.136.55 4.559 4.235 5.138 5.113.154.233.456.763-.104.698l-29.406-21.89-75.445 34.713.448-.636 74.845-40.56c.161-.013 1.404 1.042 1.643 1.25 4.087 3.554 8.157 7.697 12.146 11.427z" fill="#fff"/><path d="M124.797 81.133v-6.707l.759.03c.539.32-.012 6.618.324 7.665l6.51 5.129c-.016-4.257-.33-8.579.112-12.816l.777-.008v12.822l6.609-5.129c.444-.726-.154-5.849.098-7.2.109-.584.46-.515.987-.493v6.707c2.667-1.706 5.111-4.512 7.713-6.194.444-.288.755-.632 1.361-.511l-.201.883-7.887 6.416h7.792c.201 0 .406.619.296.787-.326.489-8.273-.024-9.479.288l-7.287 5.93v12.92l6.607-5.13c.522-1.15-.198-5.407.106-6.996.063-.329.241-.499.491-.694l.492.296v6.411l8.774-6.707c.256.207.363.304.27.657-.203.765-7.064 5.362-7.861 6.642h7.595c.371 0 .371.986 0 .986h-9.074l-3.245 2.685c-.134.647 3.902 2.661 3.146 3.431-1.278.266-3.127-2.524-4.042-2.555l-3.563 2.566c-.7.067-3.065-2.254-3.738-2.765l-3.259 2.651c-.161.106-.722.164-.783.103-.787-.782 3.301-2.869 3.155-3.449l-3.453-2.665h-9.172l.295-.986h7.595l-7.861-6.642.27-.657 8.775 6.707V89.13l.491-.296c.249.195.428.365.491.694.381 1.989-.357 4.904.109 6.993l6.604 5.131-.071-12.692c-.051-.416-.353-.645-.623-.915-1.894-1.888-4.849-3.476-6.796-5.413l-9.193-.1-.086-.801h7.89l-7.707-6.398c-.426-.767-.256-1.154.602-.799l8.289 6.605-.004-.006z" fill="#32333B"/><path d="M155.373 100.268c-.292.69.363 2.17 1.085 2.17h10.652l.294.297-.294.492h-11.244c-.422 0-1.282-1.091-1.394-1.565-.223-.941-.217-4.73.226-5.521.198-.351.809-.87 1.21-.96 3.026.135 6.46-.324 9.437-.052 1.243.114 1.878.87 2.043 2.099.068.487.19 3.04-.475 3.04h-11.54zm11.047-.987c.223-3.176-.249-3.247-3.05-3.363-1.359-.057-5.995-.215-7.022.099-1.423.434-.894 2.14-.977 3.264h11.049zm25.193-4.101c3.15.146 6.73-.337 9.831-.051 2.701.248 2.494 3.775 2.259 5.829-.126 1.097-.933 2.138-2.067 2.272-2.188.259-6.786.192-9.08.083-1.202-.057-2.366-.769-2.618-2.006-.15-.736-.144-3.12-.049-3.904.114-.955.822-1.882 1.722-2.223h.002zm10.654 1.2c-.475-.381-1.947-.429-2.596-.458-1.669-.077-6.853-.225-8.149.335-.905.393-.789 4.316-.527 5.186.188.626.951.929 1.559.998 1.927.215 6.127.17 8.099.004.665-.055 1.606-.197 1.878-.874.318-.793.411-4.651-.264-5.19v-.002zm-29.732 6.847h-.789v-8.088h12.132c.209 0 1.225.949 1.365 1.199.973 1.74-.258 3.559-2.144 3.742-3.093.3-6.841-.377-9.883-.02-.288.034-.507.024-.681.306v2.861zm0-7.102v2.959h11.146c.073 0 .666-.67.737-.838.503-1.212-.175-2.087-1.376-2.27-2.062-.315-7.25-.23-9.43-.058-.38.03-.714.116-1.075.207h-.002zm-101 .395c-.349-.361-5.596 3.142-6.593 3.154l-6.426-3.352v6.609c0 .371-.987.371-.987 0v-7.792l.977.11 6.454 3.397 6.567-3.42.671-.07.324.279v7.496c0 .371-.987.371-.987 0v-6.412zm25.645-1.381v4.142h13.019v-3.847c0-.37.987-.37.987 0v7.497c0 .161-.492.394-.687.292l-.266-.326-.032-2.631h-13.02v2.959l-.8-.087c-.146-.101-.156-.251-.186-.407-.189-1.017-.146-5.785-.01-6.914.087-.726.27-.724.997-.68l-.002.002zm111.849 4.339c1.353-.364 11.018-4.78 11.442-4.337.061.065.039.765-.194.89-1.773.75-3.805 1.349-5.523 2.177-.213.103-.503-.016-.397.38.089.34 5.244 3.185 5.92 3.749.651 1.292-.252.959-1.122.531-1.042-.515-5.526-3.879-6.076-3.904l-4.024 1.523-.055 2.412-.267.326c-.197.102-.686-.133-.686-.292v-7.496c0-.371.986-.371.986 0v4.044l-.004-.002zm-117.177 3.747c-.543.542-3.096-2.36-3.394-2.916l-7.746-.037c-1.13.406-2.582 3.105-3.752 2.955-.17-.01-.132-.369-.113-.503.103-.687 6.283-6.18 7.005-7.4a.727.727 0 01.592-.197c.76.075 5.98 6.425 7.22 7.2l.188.898zm-4.733-3.944c.087-.345-.142-.394-.294-.593-.617-.805-1.69-1.584-2.395-2.352-.294-.051-2.692 2.403-2.832 2.945h5.523-.002zm52.917 13.56c.392.375 1.574.172 2.12.448l-1.469 1.566.284 2.18c-.136.154-1.517-.907-1.906-.941-.503-.043-1.884 1.111-2.038.941-.098-.546.442-1.756.284-2.18-.09-.24-1.588-1.402-1.467-1.564 1.718-.195 2.554-.294 2.961-2.172.446-.335 1.016 1.519 1.231 1.724v-.002zm-39.901-1.724c.373 1.855 1.294 1.941 2.961 2.172l-1.531 1.697.347 2.047-2.038-.941-1.903.943c.347-1.823.323-2.487-1.182-3.649.511-.596 1.418-.061 2.052-.509.327-.231.588-1.117.858-1.503.118-.17-.034-.367.436-.257zm-39.057 0l.641 1.728 2.123.543c.11.219-1.267 1.262-1.348 1.613-.307 1.32 1.636 2.93-1.674 1.089l-1.906.943c.266-1.836.375-2.468-1.182-3.649-.004-.432 1.72-.217 2.115-.545.193-.159.73-2.102 1.233-1.724l-.002.002zm118.018 1.724c.395.328 2.119.113 2.115.545l-1.346 1.426.164 2.223-2.04-.945-1.609.941c-.486-.014.116-1.633.055-2.02-.091-.582-1.466-1.361-1.335-1.621.54-.574 1.337-.069 1.964-.602.306-.258.772-1.243.797-1.671.458-.42 1.071 1.59 1.233 1.724h.002zm39.059 0c.455.377 1.882.034 2.116.549l-1.359 1.406.375 2.239c-.205.201-1.688-.911-2.071-.911-.306 0-1.811.998-1.872.913l.164-2.223-1.35-1.521c.503-.243 1.768-.16 2.119-.448.276-.227.477-1.436.939-1.72.296 0 .718 1.537.939 1.72v-.004z" fill="#fff"/></svg>