<svg width="277" height="167" fill="none" xmlns="http://www.w3.org/2000/svg"><path fill="#F66C4C" d="M0 0h277v167H0z"/><path d="M171.479 84.512h-2.246v6.575h-3.442V75.49h3.218l.224.23v5.58h2.395c1.18-6.236 9.432-7.903 13.842-4.126 2.296 1.967 2.99 5.178 2.406 8.108-1.712 8.59-15.517 8.083-16.397-.774v.003zm7.148-6.23c-4.969.692-5.131 9.105-.15 10.013 3.452.627 6.062-1.055 6.179-4.77.116-3.716-2.434-5.744-6.029-5.243zm-49.152 10.916c-3.323-3.09-3.272-8.784.096-11.8 5.358-4.798 14.904-1.446 14.518 6.423-.356 7.239-9.693 9.949-14.614 5.377zm11.153-5.881c0-2.872-2.278-5.2-5.088-5.2-2.811 0-5.089 2.328-5.089 5.2 0 2.871 2.278 5.199 5.089 5.199 2.81 0 5.088-2.328 5.088-5.2zm-16.146 7.77h-3.442V78.701h-8.083v12.157l-.224.23h-3.218V75.49h14.742l.225.23v15.367zm38.016-15.597v15.597h-3.442V78.701h-5.837c-.65 2.728-.859 5.747-1.539 8.444-.497 1.979-1.835 3.942-4.074 3.942h-2.47v-3.21c.931-.037 2.572.25 3.027-.808l2.287-11.579h12.048zm43.854 3.973l-2.745 1.367c-2.446-3.762-9.519-3.343-9.983 1.765-.38 4.208 2.925 6.45 6.75 5.517 1.536-.373 2.203-1.3 3.365-2.23.227-.024 2.368 1.132 2.436 1.254.309.538-1.278 2.077-1.691 2.425-5.14 4.31-14.38 1.328-14.389-6.223-.012-8.936 12.351-11.08 16.257-3.875z" fill="#32333B"/><path d="M97.38 81.289c-1.404.174-10.956 2.037-11.522 1.627-.356-.257-.006-1.028.009-1.389.048-1.437-.003-3.186.15-4.584.074-.682.329-1.208 1.008-1.416 1.156-.352 5.81-1.073 7.023-1.098.676-.012 1.03.315 1.323.905.509 1.022 1.733 4.367 1.985 5.471.035.16.074.322.02.484h.003zm-28.327-4.563c.544-.16 8.9 4.713 10.16 5.183l-.007.612c-1.254 1.257-2.227 3.034-3.439 4.285-.341.355-.664.773-1.2.77-.446 0-4.739-2.272-5.466-2.682-.988-.556-2.063-.773-1.907-2.1.108-.927 1.161-4.769 1.535-5.625.072-.165.13-.388.324-.446v.003zm10.923 9.481c.227-.043.434.308.563.458.37.434 3.14 4.82 3.203 5.147.104.545-.054.716-.345 1.11-.736 1.01-3.718 4-4.717 4.814-.482.395-.716.636-1.39.502-1.212-.245-3.867-2.854-5.187-3.42l-.3-.428 8.17-8.187.003.004zm10.483-1.337c.506 0 .796.27 1.068.66.608.872 2.874 5.493 3.203 6.518.264.816-.155 1.119-.712 1.633-.491.452-4.332 3.553-4.616 3.502l-5.19-10.3.152-.313 6.095-1.703v.003zm-5.64-16.414L83.005 80.06c-.491.104-.955-.134-1.407-.284-.772-.257-4.61-1.7-5.005-2.074-.308-.29-.326-.651-.311-1.055.054-1.48.742-5.324 1.12-6.82.131-.516.203-.844.718-1.1 2.206-.273 4.463-.297 6.696-.27h.003z" fill="#fff"/></svg>