<svg width="152" height="148" viewBox="0 0 152 148" fill="none" xmlns="http://www.w3.org/2000/svg">
<path d="M6.40536 144.863H6.00768L2.71485 140.306V147.782H0V135.973H2.73209L6.40536 140.948L9.86919 135.971H12.4316V136.846L6.40536 144.863Z" fill="white"/>
<path d="M12.4264 145.095H9.70623V147.798H12.4264V145.095Z" fill="white"/>
<path d="M30.6269 137.525C31.8001 136.359 33.3299 135.768 35.2004 135.768C37.0706 135.768 38.5648 136.326 39.738 137.44C40.9111 138.555 41.5235 140.043 41.5235 141.883C41.5235 143.658 40.9282 145.128 39.7206 146.276C38.5129 147.426 37.0191 148 35.2004 148C33.3444 148 31.8346 147.443 30.6442 146.328C29.4538 145.213 28.8771 143.726 28.8771 141.883C28.8771 140.14 29.4551 138.691 30.6269 137.525ZM32.7691 144.436C33.0783 144.768 33.4548 145.032 33.8739 145.209C34.2928 145.387 34.7447 145.474 35.2004 145.466C36.2872 145.466 37.1369 145.128 37.7322 144.469C38.3275 143.81 38.6338 142.931 38.6338 141.883C38.6338 140.836 38.31 139.959 37.6475 139.3C37.3297 138.976 36.9487 138.721 36.5279 138.549C36.1067 138.378 35.6551 138.293 35.2004 138.302C34.1967 138.302 33.3816 138.639 32.7347 139.3C32.0878 139.96 31.7656 140.82 31.7656 141.883C31.7549 142.354 31.838 142.821 32.0103 143.26C32.1825 143.698 32.4404 144.097 32.7691 144.436Z" fill="white"/>
<path d="M44.4122 147.797V135.971H51.211V138.505H47.1307V147.797H44.4122Z" fill="white"/>
<path d="M54.2519 137.525C55.4251 136.359 56.9551 135.768 58.8253 135.768C60.6959 135.768 62.1911 136.326 63.3629 137.44C64.5347 138.555 65.1487 140.043 65.1487 141.883C65.1487 143.658 64.5534 145.128 63.3471 146.276C62.1409 147.426 60.6443 148 58.8253 148C56.9695 148 55.4595 147.443 54.2693 146.328C53.0788 145.213 52.5022 143.726 52.5022 141.883C52.5022 140.14 53.0801 138.691 54.2519 137.525ZM56.3943 144.436C56.7037 144.768 57.08 145.032 57.4992 145.209C57.918 145.387 58.37 145.474 58.8253 145.466C59.9124 145.466 60.7635 145.128 61.3574 144.469C61.9514 143.81 62.2587 142.931 62.2587 141.883C62.2587 140.836 61.9353 139.959 61.2724 139.3C60.9547 138.976 60.5737 138.721 60.1528 138.549C59.732 138.377 59.2803 138.293 58.8253 138.302C57.8219 138.302 57.0067 138.639 56.3612 139.3C55.7157 139.96 55.3919 140.82 55.3919 141.883C55.3812 142.354 55.4639 142.821 55.636 143.259C55.8081 143.697 56.0659 144.097 56.3943 144.436Z" fill="white"/>
<path d="M68.0371 147.797V135.971H74.8363V138.505H70.756V147.797H68.0371Z" fill="white"/>
<path d="M80.1094 147.797H77.3908V135.971C77.5947 135.971 78.1729 135.971 79.1073 135.954C80.0417 135.937 80.7047 135.937 81.0281 135.937C82.7071 135.937 83.9308 136.308 84.6988 137.052C85.4635 137.778 85.8375 138.725 85.8375 139.857C85.8432 140.385 85.7391 140.907 85.5315 141.393C85.3239 141.879 85.0172 142.316 84.6312 142.678C83.8357 143.438 82.762 143.827 81.4352 143.827C80.9926 143.834 80.55 143.816 80.1094 143.776V147.797ZM80.1094 138.505V141.209C80.5212 141.261 80.9353 141.289 81.3501 141.293C82.2173 141.293 82.9488 140.87 82.9488 139.844C82.9488 138.931 82.4041 138.475 81.2999 138.475C81.243 138.471 80.852 138.488 80.1094 138.505Z" fill="white"/>
<path d="M86.1036 147.797L91.051 135.971H93.481L98.4267 147.797H95.5209L94.5346 145.313H89.826L88.8413 147.797H86.1036ZM92.1897 139.434L90.8468 142.775H93.5151L92.1897 139.434Z" fill="white"/>
<path d="M107.69 147.797V143.039H103.355V147.804H100.636V135.978H103.355V140.505H107.69V135.978H110.41V147.804L107.69 147.797Z" fill="white"/>
<path d="M121.204 147.797V143.039H116.869V147.804H114.149V135.978H116.869V140.505H121.204V135.978H123.924V147.804L121.204 147.797Z" fill="white"/>
<path d="M130.033 147.794H127.66V135.969H130.387L130.378 143.319L135.657 135.975H138.043V136.846L130.033 147.794Z" fill="white"/>
<path d="M141.767 147.797V135.971H144.488V141.123L148.38 135.971H151.643L147.174 141.428L152 147.797H148.554L144.492 142.171V147.797H141.767Z" fill="white"/>
<path d="M25.9886 140.536V147.801H23.2685V143.039H18.9337V147.804H16.2149V135.978H18.9337V140.536H25.9886Z" fill="white"/>
<path d="M25.9886 135.971H23.2685V138.675H25.9886V135.971Z" fill="white"/>
<path d="M138.037 145.091H135.317V147.794H138.037V145.091Z" fill="white"/>
<path fill-rule="evenodd" clip-rule="evenodd" d="M120.224 25.3844L76.0001 0L31.7763 25.3844L31.7989 25.3975L31.7763 25.4094L76.0001 50.7886L120.224 25.4094L120.201 25.3975L120.224 25.3844ZM76.0001 33.8648L61.2591 25.4041L61.2367 25.3923L61.2591 25.3791L76.0001 16.9198L90.7408 25.3844L90.7635 25.3975L90.7408 25.4094L76.0001 33.8648Z" fill="#F66C4C"/>
<path fill-rule="evenodd" clip-rule="evenodd" d="M120.224 93.0767L134.965 84.6175V33.6802L76.0001 67.5185L17.0356 33.6802V84.6175L31.7764 93.0767V59.0592L76.0001 84.4382L120.224 59.0592V93.0767Z" fill="#F66C4C"/>
<path fill-rule="evenodd" clip-rule="evenodd" d="M105.49 84.4858L105.483 84.4898L76.0001 101.41L46.5171 84.4898L46.5104 84.4858V101.406L46.5171 101.41L76.0001 118.329L105.483 101.41L105.49 101.406V84.4858Z" fill="#F66C4C"/>
</svg>
