<svg width="275" height="53" viewBox="0 0 275 53" fill="none" xmlns="http://www.w3.org/2000/svg">
<path d="M73.5015 31.0122H72.9512L68.394 24.6578V35.0844H64.6367V18.6138H68.4178L73.5015 25.5527L78.2954 18.612H81.8417V19.8322L73.5015 31.0122Z" fill="white"/>
<path d="M81.8344 31.3357H78.0698V35.1065H81.8344V31.3357Z" fill="white"/>
<path d="M107.023 20.7786C108.647 19.1523 110.764 18.329 113.353 18.329C115.941 18.329 118.009 19.1063 119.633 20.661C121.256 22.2156 122.104 24.2902 122.104 26.8574C122.104 29.3326 121.28 31.3816 119.609 32.984C117.937 34.5864 115.87 35.3876 113.353 35.3876C110.784 35.3876 108.695 34.6103 107.047 33.0556C105.4 31.501 104.602 29.4264 104.602 26.8574C104.602 24.4262 105.402 22.4048 107.023 20.7786ZM109.988 30.4168C110.416 30.8805 110.937 31.2482 111.517 31.4959C112.097 31.7436 112.722 31.8656 113.353 31.8539C114.857 31.8539 116.033 31.3816 116.857 30.4628C117.681 29.544 118.104 28.3183 118.104 26.8574C118.104 25.3965 117.657 24.1726 116.739 23.2538C116.3 22.8025 115.772 22.4463 115.19 22.2071C114.607 21.9678 113.982 21.8506 113.353 21.8628C111.964 21.8628 110.836 22.3332 109.94 23.2538C109.045 24.1745 108.599 25.3744 108.599 26.8574C108.584 27.5132 108.699 28.1654 108.938 28.7764C109.176 29.3874 109.533 29.9449 109.988 30.4168Z" fill="white"/>
<path d="M126.102 35.1046V18.612H135.511V22.1457H129.864V35.1046H126.102Z" fill="white"/>
<path d="M139.72 20.7786C141.343 19.1523 143.461 18.329 146.049 18.329C148.638 18.329 150.707 19.1063 152.329 20.661C153.951 22.2156 154.8 24.2902 154.8 26.8574C154.8 29.3326 153.977 31.3816 152.307 32.984C150.638 34.5864 148.566 35.3876 146.049 35.3876C143.481 35.3876 141.391 34.6103 139.744 33.0556C138.096 31.501 137.298 29.4264 137.298 26.8574C137.298 24.4262 138.098 22.4048 139.72 20.7786ZM142.685 30.4168C143.113 30.8803 143.634 31.2479 144.214 31.4956C144.793 31.7432 145.419 31.8653 146.049 31.8539C147.554 31.8539 148.731 31.3816 149.553 30.4628C150.375 29.544 150.801 28.3183 150.801 26.8574C150.801 25.3965 150.353 24.1726 149.436 23.2538C148.996 22.8025 148.469 22.4462 147.886 22.2069C147.304 21.9677 146.679 21.8505 146.049 21.8628C144.66 21.8628 143.532 22.3332 142.639 23.2538C141.745 24.1745 141.298 25.3744 141.298 26.8574C141.282 27.5131 141.397 28.1652 141.635 28.7762C141.873 29.3872 142.23 29.9448 142.685 30.4168Z" fill="white"/>
<path d="M158.798 35.1046V18.612H168.208V22.1457H162.561V35.1046H158.798Z" fill="white"/>
<path d="M175.506 35.1046H171.743V18.6121C172.025 18.6121 172.825 18.6121 174.119 18.5882C175.412 18.5643 176.329 18.5643 176.777 18.5643C179.101 18.5643 180.794 19.0825 181.857 20.1189C182.916 21.1314 183.433 22.4527 183.433 24.0312C183.441 24.7669 183.297 25.4962 183.009 26.1734C182.722 26.8505 182.298 27.4607 181.764 27.9655C180.663 29.0258 179.177 29.5679 177.34 29.5679C176.728 29.5771 176.115 29.5532 175.506 29.4962V35.1046ZM175.506 22.1458V25.9166C176.075 25.9889 176.649 26.0281 177.223 26.0342C178.423 26.0342 179.435 25.4443 179.435 24.0128C179.435 22.7393 178.681 22.1035 177.153 22.1035C177.074 22.098 176.533 22.1219 175.506 22.1458Z" fill="white"/>
<path d="M183.802 35.1046L190.648 18.612H194.011L200.856 35.1046H196.835L195.47 31.6407H188.953L187.59 35.1046H183.802ZM192.224 23.4413L190.366 28.1014H194.059L192.224 23.4413Z" fill="white"/>
<path d="M213.676 35.1046V28.469H207.677V35.1138H203.914V18.6213H207.677V24.9353H213.676V18.6213H217.441V35.1138L213.676 35.1046Z" fill="white"/>
<path d="M232.378 35.1046V28.469H226.379V35.1138H222.615V18.6213H226.379V24.9353H232.378V18.6213H236.143V35.1138L232.378 35.1046Z" fill="white"/>
<path d="M244.599 35.1009H241.315V18.6083H245.089L245.076 28.8585L252.381 18.6175H255.683V19.8322L244.599 35.1009Z" fill="white"/>
<path d="M260.839 35.1046V18.612H264.603V25.7971L269.99 18.612H274.506L268.32 26.2216L275 35.1046H270.23L264.609 27.258V35.1046H260.839Z" fill="white"/>
<path d="M100.604 24.9776V35.1101H96.8396V28.469H90.8404V35.1138H87.0777V18.6213H90.8404V24.9776H100.604Z" fill="white"/>
<path d="M100.604 18.612H96.8396V22.3828H100.604V18.612Z" fill="white"/>
<path d="M255.676 31.3301H251.911V35.1009H255.676V31.3301Z" fill="white"/>
<path fill-rule="evenodd" clip-rule="evenodd" d="M44.7317 11.7936L25.5608 0.700806L6.39003 11.7936L6.3998 11.7994L6.39003 11.8046L25.5608 22.8951L44.7317 11.8046L44.7219 11.7994L44.7317 11.7936ZM25.5608 15.4995L19.1708 11.8023L19.161 11.7971L19.1708 11.7913L25.5608 8.09469L31.9509 11.7936L31.9607 11.7994L31.9509 11.8046L25.5608 15.4995Z" fill="#F66C4C"/>
<path fill-rule="evenodd" clip-rule="evenodd" d="M44.7317 41.3749L51.1218 37.6783V15.4189L25.5609 30.2061L0 15.4189V37.6783L6.39008 41.3749V26.5094L25.5609 37.6L44.7317 26.5094V41.3749Z" fill="#F66C4C"/>
<path fill-rule="evenodd" clip-rule="evenodd" d="M38.3445 37.6207L38.3416 37.6224L25.5609 45.0163L12.7801 37.6224L12.7773 37.6207V45.0146L12.7801 45.0163L25.5609 52.4102L38.3416 45.0163L38.3445 45.0146V37.6207Z" fill="#F66C4C"/>
</svg>
